<?xml version="1.0" encoding="UTF-8"?>
<svg version="1.1" xmlns="http://www.w3.org/2000/svg" width="265" height="195">
<path d="M0 0 C87.45 0 174.9 0 265 0 C265 64.35 265 128.7 265 195 C177.55 195 90.1 195 0 195 C0 130.65 0 66.3 0 0 Z " fill="#F9CCB8" transform="translate(0,0)"/>
<path d="M0 0 C11.96075236 -0.04626639 23.92148356 -0.08184014 35.88230705 -0.10362434 C41.43573026 -0.11407774 46.98909241 -0.12826523 52.54248047 -0.15087891 C57.89816008 -0.17255192 63.25378082 -0.1845569 68.60950089 -0.18975449 C70.65651502 -0.19346023 72.7035258 -0.20069624 74.75051498 -0.21146011 C77.60962733 -0.22590142 80.46849399 -0.22798104 83.32763672 -0.22705078 C84.60725281 -0.23783661 84.60725281 -0.23783661 85.91271973 -0.24884033 C91.77189568 -0.22810432 91.77189568 -0.22810432 94 2 C94.17517747 4.72485728 94.23149133 7.34659362 94.1953125 10.0703125 C94.1924826 10.86654022 94.18965271 11.66276794 94.18673706 12.48312378 C94.1755264 15.03056763 94.15042062 17.57766211 94.125 20.125 C94.11497133 21.85025535 94.10584528 23.57551619 94.09765625 25.30078125 C94.07558422 29.53398914 94.04104867 33.7669353 94 38 C98.95 38 103.9 38 109 38 C109 78.92 109 119.84 109 162 C32.11 162 -44.78 162 -124 162 C-124 155.73 -124 149.46 -124 143 C-110.47 143 -96.94 143 -83 143 C-83.99 141.02 -84.98 139.04 -86 137 C-85.6875 134.125 -85.6875 134.125 -85 132 C-84.34 132 -83.68 132 -83 132 C-82.32591692 133.26691507 -81.66099503 134.53870749 -81 135.8125 C-80.62875 136.52019531 -80.2575 137.22789062 -79.875 137.95703125 C-79 140 -79 140 -79 143 C-66.13 143 -53.26 143 -40 143 C-39.67 140.03 -39.34 137.06 -39 134 C-37.5546875 130.8125 -37.5546875 130.8125 -35.875 128 C-32.9252412 122.41172793 -32.29834453 119.03982652 -34 113 C-34.37511719 111.62521484 -34.37511719 111.62521484 -34.7578125 110.22265625 C-35.45867319 107.79686172 -36.20460829 105.39618007 -37 103 C-37.15855469 103.86882812 -37.31710938 104.73765625 -37.48046875 105.6328125 C-37.71378906 106.78523438 -37.94710937 107.93765625 -38.1875 109.125 C-38.51814453 110.83042969 -38.51814453 110.83042969 -38.85546875 112.5703125 C-41.44657977 120.33480217 -46.72255292 123.43247336 -53.625 127.0625 C-54.42172119 127.49151611 -55.21844238 127.92053223 -56.03930664 128.36254883 C-69.73213974 135.66881485 -69.73213974 135.66881485 -74 137 C-77 136 -77 136 -79 133 C-79.08508092 128.57579209 -78.26728817 125.8334821 -75.3125 122.625 C-71.7462707 119.35657691 -67.78928504 116.70343119 -63.75 114.0625 C-63.13552002 113.66047363 -62.52104004 113.25844727 -61.88793945 112.84423828 C-57.37764867 110 -57.37764867 110 -54 110 C-54.2165625 109.30519531 -54.433125 108.61039062 -54.65625 107.89453125 C-56.65921128 100.57815879 -57.35280845 93.69099883 -57.4375 86.125 C-57.45941406 85.23401611 -57.48132813 84.34303223 -57.50390625 83.42504883 C-57.48290173 76.42201159 -55.84529087 72.37554962 -51.28125 66.9609375 C-49.4721909 64.19219462 -49.59167292 61.90230697 -49.5 58.625 C-49.21527512 53.74087329 -48.98642897 50.05301074 -46 46 C-44.6696875 45.38125 -44.6696875 45.38125 -43.3125 44.75 C-42.1678125 43.88375 -42.1678125 43.88375 -41 43 C-40.55100656 39.63254918 -40.71482402 36.37775107 -41 33 C-42.485 32.505 -42.485 32.505 -44 32 C-46.46552067 28.62132353 -47 27.29441798 -47 23 C-48.65 22.67 -50.3 22.34 -52 22 C-52.625 19.125 -52.625 19.125 -53 16 C-51 14 -51 14 -48 13.75 C-45 14 -45 14 -43 16 C-41.36174107 16.27819491 -39.71369 16.50080157 -38.0625 16.6875 C-33.28942936 17.58288122 -33.28942936 17.58288122 -30.875 21.0625 C-29.59820099 25.29468691 -29.73215271 29.62516098 -30 34 C-30.495 32.02 -30.495 32.02 -31 30 C-32.32 30.33 -33.64 30.66 -35 31 C-34.01 32.485 -34.01 32.485 -33 34 C-33.020625 35.175625 -33.04125 36.35125 -33.0625 37.5625 C-32.76834295 40.99224609 -32.07665271 41.92685903 -29.52734375 44.359375 C-28.52832031 45.16890625 -27.52929688 45.9784375 -26.5 46.8125 C-21.2536004 51.17658143 -21.2536004 51.17658143 -20.05078125 55.08203125 C-19.84011896 57.77229231 -19.78029733 60.31247432 -20 63 C-20.99 63 -21.98 63 -23 63 C-23 63.66 -23 64.32 -23 65 C-20.06243881 65.0269501 -17.12512445 65.04681474 -14.1875 65.0625 C-12.93743164 65.07506836 -12.93743164 65.07506836 -11.66210938 65.08789062 C-10.45844727 65.09272461 -10.45844727 65.09272461 -9.23046875 65.09765625 C-8.49207764 65.10289307 -7.75368652 65.10812988 -6.99291992 65.11352539 C-4.78942591 65.07523213 -4.78942591 65.07523213 -2 64 C-0.515 64.495 -0.515 64.495 1 65 C1 66.65 1 68.3 1 70 C-0.9545286 70.51467211 -2.91392505 71.01086352 -4.875 71.5 C-5.96554688 71.7784375 -7.05609375 72.056875 -8.1796875 72.34375 C-12.83334777 73.14315176 -17.29276781 73.12815253 -22 73 C-21.69182184 76.39623999 -21.37769353 79.79190447 -21.0625 83.1875 C-20.97548828 84.14720703 -20.88847656 85.10691406 -20.79882812 86.09570312 C-20.71181641 87.02705078 -20.62480469 87.95839844 -20.53515625 88.91796875 C-20.456604 89.77156982 -20.37805176 90.6251709 -20.29711914 91.50463867 C-20.04353307 93.99498525 -20.04353307 93.99498525 -19.46655273 96.38012695 C-19 99 -19 99 -19 106 C-13.39 106 -7.78 106 -2 106 C-1.67 106.66 -1.34 107.32 -1 108 C-0.67 107.34 -0.34 106.68 0 106 C28.38 106 56.76 106 86 106 C86 73 86 40 86 6 C69.850625 6.12375 69.850625 6.12375 53.375 6.25 C48.28843994 6.27368652 48.28843994 6.27368652 43.09912109 6.29785156 C40.40720913 6.3272196 37.7153125 6.35804507 35.0234375 6.390625 C34.32924713 6.39092712 33.63505676 6.39122925 32.91983032 6.39154053 C30.8591597 6.39397095 28.80013033 6.42140129 26.73974609 6.45410156 C25.00100723 6.46742523 25.00100723 6.46742523 23.22714233 6.48101807 C17.32903954 7.42953799 14.13478417 10.86521583 10 15 C8.02 11.04 6.04 7.08 4 3 C3.34 4.32 2.68 5.64 2 7 C1.34 7 0.68 7 0 7 C0 4.69 0 2.38 0 0 Z " fill="#F8CDB9" transform="translate(124,33)"/>
<path d="M0 0 C3.85223772 0.4902848 3.9390767 0.83913977 6.4375 3.4375 C8.44300892 4.06077656 10.44078892 4.50065405 12.5 4.91015625 C14.4375 5.4375 14.4375 5.4375 17.4375 7.4375 C17.4375 8.0975 17.4375 8.7575 17.4375 9.4375 C11.4975 9.7675 5.5575 10.0975 -0.5625 10.4375 C1.0875 11.448125 2.7375 12.45875 4.4375 13.5 C9.45544431 16.69382742 14.38641262 20.03818162 18.4375 24.4375 C18.4375 25.0975 18.4375 25.7575 18.4375 26.4375 C19.0975 26.4375 19.7575 26.4375 20.4375 26.4375 C20.4375 30.3975 20.4375 34.3575 20.4375 38.4375 C21.0975 38.4375 21.7575 38.4375 22.4375 38.4375 C22.7675 36.7875 23.0975 35.1375 23.4375 33.4375 C25.97881358 35.74033254 27.50860295 38.11063793 29.125 41.125 C29.56199219 41.93324219 29.99898438 42.74148437 30.44921875 43.57421875 C30.77535156 44.18910156 31.10148437 44.80398437 31.4375 45.4375 C32.18 44.48875 32.9225 43.54 33.6875 42.5625 C35.70990319 39.97831815 37.37714407 38.65403123 40.4375 37.4375 C43.4241333 37.19699097 43.4241333 37.19699097 46.95019531 37.21044922 C47.60488171 37.21020815 48.2595681 37.20996708 48.93409348 37.2097187 C51.04474419 37.21120664 53.15503781 37.22641508 55.265625 37.2421875 C56.55903809 37.24420166 57.85245117 37.24621582 59.18505859 37.24829102 C64.01924177 37.25875951 68.85337443 37.28668205 73.6875 37.3125 C84.495 37.35375 95.3025 37.395 106.4375 37.4375 C106.4375 70.4375 106.4375 103.4375 106.4375 137.4375 C78.0575 137.4375 49.6775 137.4375 20.4375 137.4375 C20.1075 139.0875 19.7775 140.7375 19.4375 142.4375 C19.1075 142.4375 18.7775 142.4375 18.4375 142.4375 C18.4375 140.7875 18.4375 139.1375 18.4375 137.4375 C12.8275 137.4375 7.2175 137.4375 1.4375 137.4375 C-0.56252226 126.27070904 -1.92941215 115.81177676 -1.5625 104.4375 C6.0275 103.4475 13.6175 102.4575 21.4375 101.4375 C21.4375 99.7875 21.4375 98.1375 21.4375 96.4375 C20.58285156 96.59992188 19.72820312 96.76234375 18.84765625 96.9296875 C15.46695364 97.43311401 12.29021655 97.57056427 8.875 97.5625 C7.23337891 97.56636719 7.23337891 97.56636719 5.55859375 97.5703125 C2.73141087 97.45000685 0.1864274 97.08249972 -2.5625 96.4375 C-2.5625 95.7775 -2.5625 95.1175 -2.5625 94.4375 C-1.5725 94.4375 -0.5825 94.4375 0.4375 94.4375 C0.30184015 88.94849393 -0.2257017 84.84195834 -4.109375 80.76171875 C-6.10636056 79.09842637 -8.11020879 77.44333622 -10.12109375 75.796875 C-12.62643943 73.37570894 -13.34702535 72.39236559 -13.6875 69 C-13.64625 67.824375 -13.605 66.64875 -13.5625 65.4375 C-13.8925 64.4475 -14.2225 63.4575 -14.5625 62.4375 C-12.5825 61.9425 -12.5825 61.9425 -10.5625 61.4375 C-10.706875 60.2 -10.85125 58.9625 -11 57.6875 C-11.08121094 56.99140625 -11.16242188 56.2953125 -11.24609375 55.578125 C-11.55586726 53.48237337 -12.01439676 51.48252387 -12.5625 49.4375 C-13.26117188 49.38851562 -13.95984375 49.33953125 -14.6796875 49.2890625 C-15.58976562 49.21429688 -16.49984375 49.13953125 -17.4375 49.0625 C-18.34242187 48.99289063 -19.24734375 48.92328125 -20.1796875 48.8515625 C-22.5625 48.4375 -22.5625 48.4375 -24.5625 46.4375 C-27.64597826 46.27068891 -27.64597826 46.27068891 -30.5625 46.4375 C-31.56467064 50.02077753 -31.56467064 50.02077753 -30.5625 53.4375 C-29.9128125 53.5509375 -29.263125 53.664375 -28.59375 53.78125 C-27.9234375 53.9978125 -27.253125 54.214375 -26.5625 54.4375 C-25.54260297 56.72347611 -25.0532984 58.9757593 -24.46875 61.40625 C-24.1696875 62.0765625 -23.870625 62.746875 -23.5625 63.4375 C-21.53916593 64.28808414 -21.53916593 64.28808414 -19.5625 64.4375 C-19.21222843 67.83643155 -19.02775081 71.05253763 -19.5625 74.4375 C-22.4375 76.75 -22.4375 76.75 -25.5625 78.4375 C-27.58944903 82.2363515 -27.75138525 85.49743193 -27.8125 89.75 C-28.14685836 95.44695209 -29.23750706 98.46617318 -33.1875 102.55859375 C-36.54521404 107.14683367 -35.71945557 113.78217391 -35.6875 119.25 C-35.68459961 120.44278564 -35.68459961 120.44278564 -35.68164062 121.65966797 C-35.64236896 126.98425138 -35.34375243 132.1640461 -34.5625 137.4375 C-38.5225 137.4375 -42.4825 137.4375 -46.5625 137.4375 C-46.5625 104.1075 -46.5625 70.7775 -46.5625 36.4375 C-34.6825 36.4375 -22.8025 36.4375 -10.5625 36.4375 C-14.49728885 21.42001636 -14.49728885 21.42001636 -18.5625 6.4375 C-17.81484375 6.33953125 -17.0671875 6.2415625 -16.296875 6.140625 C-9.70114008 5.13917834 -5.79892373 0.71214853 0 0 Z " fill="#FAEAE3" transform="translate(103.5625,1.5625)"/>
<path d="M0 0 C29.04 0 58.08 0 88 0 C88 64.35 88 128.7 88 195 C77.44 195 66.88 195 56 195 C56 169.92 56 144.84 56 119 C59.3 119 62.6 119 66 119 C66 117.68 66 116.36 66 115 C64.02 115 62.04 115 60 115 C60.16113281 114.19433594 60.32226562 113.38867188 60.48828125 112.55859375 C61.0918233 108.36144258 61.19135162 104.2967164 61.1875 100.0625 C61.18741943 99.22928223 61.18733887 98.39606445 61.18725586 97.53759766 C61.11791919 89.89304709 60.18214564 82.55309849 59 75 C58.63579903 72.00234589 58.31612326 69.00317093 58 66 C58.66 66 59.32 66 60 66 C60 65.34 60 64.68 60 64 C59.40574219 63.80921875 58.81148437 63.6184375 58.19921875 63.421875 C55.06445017 61.39513297 54.18565242 58.57879126 52.8125 55.25 C46.98639939 42.04151164 39.22249599 31.22249599 29 21 C27.01178687 20.60235737 25.01055661 20.26224651 23 20 C23 19.34 23 18.68 23 18 C23.66 18 24.32 18 25 18 C18.04747334 10.35222067 9.30876768 5.29787784 0 1 C0 0.67 0 0.34 0 0 Z " fill="#F9DED2" transform="translate(177,0)"/>
<path d="M0 0 C3.85223772 0.4902848 3.9390767 0.83913977 6.4375 3.4375 C8.44300892 4.06077656 10.44078892 4.50065405 12.5 4.91015625 C14.4375 5.4375 14.4375 5.4375 17.4375 7.4375 C17.4375 8.0975 17.4375 8.7575 17.4375 9.4375 C11.4975 9.7675 5.5575 10.0975 -0.5625 10.4375 C1.0875 11.448125 2.7375 12.45875 4.4375 13.5 C9.45544431 16.69382742 14.38641262 20.03818162 18.4375 24.4375 C18.4375 25.0975 18.4375 25.7575 18.4375 26.4375 C19.0975 26.4375 19.7575 26.4375 20.4375 26.4375 C20.4375 30.3975 20.4375 34.3575 20.4375 38.4375 C21.0975 38.4375 21.7575 38.4375 22.4375 38.4375 C22.7675 36.7875 23.0975 35.1375 23.4375 33.4375 C32.90843923 41.64377375 36.53430908 60.58892035 37.4375 72.4375 C38.34912246 93.13212247 39.1112738 112.87608249 26.4375 130.4375 C24.77083333 132.10416667 23.10416667 133.77083333 21.4375 135.4375 C20.4881933 137.77121231 19.97188897 139.9598784 19.4375 142.4375 C19.1075 142.4375 18.7775 142.4375 18.4375 142.4375 C18.4375 140.7875 18.4375 139.1375 18.4375 137.4375 C12.8275 137.4375 7.2175 137.4375 1.4375 137.4375 C-0.56252226 126.27070904 -1.92941215 115.81177676 -1.5625 104.4375 C6.0275 103.4475 13.6175 102.4575 21.4375 101.4375 C21.4375 99.7875 21.4375 98.1375 21.4375 96.4375 C20.58285156 96.59992188 19.72820312 96.76234375 18.84765625 96.9296875 C15.46695364 97.43311401 12.29021655 97.57056427 8.875 97.5625 C7.23337891 97.56636719 7.23337891 97.56636719 5.55859375 97.5703125 C2.73141087 97.45000685 0.1864274 97.08249972 -2.5625 96.4375 C-2.5625 95.7775 -2.5625 95.1175 -2.5625 94.4375 C-1.5725 94.4375 -0.5825 94.4375 0.4375 94.4375 C0.30184015 88.94849393 -0.2257017 84.84195834 -4.109375 80.76171875 C-6.10636056 79.09842637 -8.11020879 77.44333622 -10.12109375 75.796875 C-12.62643943 73.37570894 -13.34702535 72.39236559 -13.6875 69 C-13.64625 67.824375 -13.605 66.64875 -13.5625 65.4375 C-13.8925 64.4475 -14.2225 63.4575 -14.5625 62.4375 C-12.5825 61.9425 -12.5825 61.9425 -10.5625 61.4375 C-10.706875 60.2 -10.85125 58.9625 -11 57.6875 C-11.08121094 56.99140625 -11.16242188 56.2953125 -11.24609375 55.578125 C-11.55586726 53.48237337 -12.01439676 51.48252387 -12.5625 49.4375 C-13.26117188 49.38851562 -13.95984375 49.33953125 -14.6796875 49.2890625 C-15.58976562 49.21429688 -16.49984375 49.13953125 -17.4375 49.0625 C-18.34242187 48.99289063 -19.24734375 48.92328125 -20.1796875 48.8515625 C-22.5625 48.4375 -22.5625 48.4375 -24.5625 46.4375 C-27.64597826 46.27068891 -27.64597826 46.27068891 -30.5625 46.4375 C-31.56467064 50.02077753 -31.56467064 50.02077753 -30.5625 53.4375 C-29.9128125 53.5509375 -29.263125 53.664375 -28.59375 53.78125 C-27.9234375 53.9978125 -27.253125 54.214375 -26.5625 54.4375 C-25.54260297 56.72347611 -25.0532984 58.9757593 -24.46875 61.40625 C-24.1696875 62.0765625 -23.870625 62.746875 -23.5625 63.4375 C-21.53916593 64.28808414 -21.53916593 64.28808414 -19.5625 64.4375 C-19.21222843 67.83643155 -19.02775081 71.05253763 -19.5625 74.4375 C-22.4375 76.75 -22.4375 76.75 -25.5625 78.4375 C-27.58944903 82.2363515 -27.75138525 85.49743193 -27.8125 89.75 C-28.14685836 95.44695209 -29.23750706 98.46617318 -33.1875 102.55859375 C-36.54521404 107.14683367 -35.71945557 113.78217391 -35.6875 119.25 C-35.68459961 120.44278564 -35.68459961 120.44278564 -35.68164062 121.65966797 C-35.64236896 126.98425138 -35.34375243 132.1640461 -34.5625 137.4375 C-38.5225 137.4375 -42.4825 137.4375 -46.5625 137.4375 C-46.5625 104.1075 -46.5625 70.7775 -46.5625 36.4375 C-34.6825 36.4375 -22.8025 36.4375 -10.5625 36.4375 C-14.49728885 21.42001636 -14.49728885 21.42001636 -18.5625 6.4375 C-17.81484375 6.33953125 -17.0671875 6.2415625 -16.296875 6.140625 C-9.70114008 5.13917834 -5.79892373 0.71214853 0 0 Z " fill="#DFE1F3" transform="translate(103.5625,1.5625)"/>
<path d="M0 0 C28.38 0 56.76 0 86 0 C83.1201342 2.15989935 80.27632503 4.10997631 77.22924805 6.00561523 C57.39810492 18.39501314 36.03105213 38.87564256 30.3515625 62.72265625 C30.23554688 63.47417969 30.11953125 64.22570312 30 65 C29.66666667 66.66666667 29.33333333 68.33333333 29 70 C30.1446875 70.4021875 30.1446875 70.4021875 31.3125 70.8125 C33.88988618 71.95134505 35.26954864 72.81416671 37 75 C37 75.66 37 76.32 37 77 C33.37 77 29.74 77 26 77 C26.0314209 78.19077148 26.0628418 79.38154297 26.09521484 80.60839844 C26.20386067 85.02869583 26.27271281 89.44887547 26.32958984 93.87011719 C26.35975354 95.78307951 26.40069161 97.69590363 26.45263672 99.60839844 C26.52547383 102.35907048 26.5594588 105.10791428 26.5859375 107.859375 C26.61690521 108.71368103 26.64787292 109.56798706 26.67977905 110.44818115 C26.6811005 112.78245134 26.6256725 114.75018845 26 117 C23.07983398 119.4440918 23.07983398 119.4440918 20 121 C18.12368468 122.96737538 18.12368468 122.96737538 16.6875 125.0625 C16.19636719 125.73410156 15.70523437 126.40570313 15.19921875 127.09765625 C12.27432364 131.73747357 12.36386014 136.7088132 13 142 C15.1482578 149.15736623 18.64146633 153.16208002 25.01171875 156.94140625 C28.39918802 158.74495079 30.77117515 159.24881658 34.625 159.5625 C35.62789062 159.64628906 36.63078125 159.73007813 37.6640625 159.81640625 C38.43492188 159.87699219 39.20578125 159.93757812 40 160 C40.0440995 162.6503801 40.03627317 164.85853463 39.375 167.4375 C38.71087415 170.63350121 38.71087415 170.63350121 41 176 C27.47 176 13.94 176 0 176 C0 117.92 0 59.84 0 0 Z " fill="#F9DDD1" transform="translate(0,0)"/>
<path d="M0 0 C4.95 0 9.9 0 15 0 C15 40.92 15 81.84 15 124 C-12.39 124 -39.78 124 -68 124 C-68 115.75 -68 107.5 -68 99 C-65.36 99 -62.72 99 -60 99 C-60.2784375 98.13375 -60.2784375 98.13375 -60.5625 97.25 C-61 95 -61 95 -60 91 C-50.1 91 -40.2 91 -30 91 C-30 85.72 -30 80.44 -30 75 C-27.99035156 74.93941406 -25.98070312 74.87882812 -23.91015625 74.81640625 C-21.97077331 74.75384551 -20.03139127 74.69125143 -18.09204102 74.62768555 C-16.74085853 74.58428777 -15.38961947 74.5426163 -14.03833008 74.50268555 C-12.09963299 74.44510048 -10.16113724 74.38085702 -8.22265625 74.31640625 C-7.05484619 74.27974854 -5.88703613 74.24309082 -4.68383789 74.20532227 C-2.08220205 74.29923812 -2.08220205 74.29923812 -1 73 C-0.8758378 70.73079775 -0.82196252 68.4577355 -0.79467773 66.18530273 C-0.78477814 65.47314606 -0.77487854 64.76098938 -0.76467896 64.0272522 C-0.73297788 61.66273372 -0.70827276 59.29819511 -0.68359375 56.93359375 C-0.66303164 55.29833948 -0.64203537 53.66309062 -0.62062073 52.02784729 C-0.56532328 47.71571214 -0.51594799 43.40352842 -0.46777344 39.09130859 C-0.41761428 34.69429176 -0.36189913 30.2973458 -0.30664062 25.90039062 C-0.19896525 17.26698527 -0.09805444 8.63351999 0 0 Z " fill="#4F56A4" transform="translate(218,71)"/>
<path d="M0 0 C3 0.25 3 0.25 5 2.25 C6.63825893 2.52819491 8.28631 2.75080157 9.9375 2.9375 C14.71057064 3.83288122 14.71057064 3.83288122 17.125 7.3125 C18.40179901 11.54468691 18.26784729 15.87516098 18 20.25 C17.505 18.27 17.505 18.27 17 16.25 C15.68 16.58 14.36 16.91 13 17.25 C13.66 18.24 14.32 19.23 15 20.25 C14.979375 21.425625 14.95875 22.60125 14.9375 23.8125 C15.23165705 27.24224609 15.92334729 28.17685903 18.47265625 30.609375 C19.47167969 31.41890625 20.47070312 32.2284375 21.5 33.0625 C26.7463996 37.42658143 26.7463996 37.42658143 27.94921875 41.33203125 C28.15988104 44.02229231 28.21970267 46.56247432 28 49.25 C27.01 49.25 26.02 49.25 25 49.25 C25 49.91 25 50.57 25 51.25 C27.93756119 51.2769501 30.87487555 51.29681474 33.8125 51.3125 C35.06256836 51.32506836 35.06256836 51.32506836 36.33789062 51.33789062 C37.54155273 51.34272461 37.54155273 51.34272461 38.76953125 51.34765625 C39.50792236 51.35289307 40.24631348 51.35812988 41.00708008 51.36352539 C43.21057409 51.32523213 43.21057409 51.32523213 46 50.25 C47.485 50.745 47.485 50.745 49 51.25 C49 52.9 49 54.55 49 56.25 C47.0454714 56.76467211 45.08607495 57.26086352 43.125 57.75 C42.03445312 58.0284375 40.94390625 58.306875 39.8203125 58.59375 C35.16665223 59.39315176 30.70723219 59.37815253 26 59.25 C27.07767348 72.93851253 27.07767348 72.93851253 29.125 86.5 C32.59068813 106.17616489 28.1340789 125.52871621 18.00390625 142.6171875 C16 145.25 16 145.25 12.9375 145.75 C10 145.25 10 145.25 7 143.25 C5.51405328 132.54244275 7.57711546 122.49094694 12.75 113.125 C16.37962608 106.19372609 14.53236906 100.88291981 12.4375 93.6875 C11.9661592 92.20582103 11.4898355 90.72566795 11 89.25 C10.84144531 90.11882812 10.68289062 90.98765625 10.51953125 91.8828125 C10.28621094 93.03523438 10.05289063 94.18765625 9.8125 95.375 C9.48185547 97.08042969 9.48185547 97.08042969 9.14453125 98.8203125 C6.55342023 106.58480217 1.27744708 109.68247336 -5.625 113.3125 C-6.42172119 113.74151611 -7.21844238 114.17053223 -8.03930664 114.61254883 C-21.73213974 121.91881485 -21.73213974 121.91881485 -26 123.25 C-29 122.25 -29 122.25 -31 119.25 C-31.08508092 114.82579209 -30.26728817 112.0834821 -27.3125 108.875 C-23.7462707 105.60657691 -19.78928504 102.95343119 -15.75 100.3125 C-15.13552002 99.91047363 -14.52104004 99.50844727 -13.88793945 99.09423828 C-9.37764867 96.25 -9.37764867 96.25 -6 96.25 C-6.32484375 95.20779297 -6.32484375 95.20779297 -6.65625 94.14453125 C-8.65921128 86.82815879 -9.35280845 79.94099883 -9.4375 72.375 C-9.45941406 71.48401611 -9.48132813 70.59303223 -9.50390625 69.67504883 C-9.48290173 62.67201159 -7.84529087 58.62554962 -3.28125 53.2109375 C-1.4721909 50.44219462 -1.59167292 48.15230697 -1.5 44.875 C-1.21527512 39.99087329 -0.98642897 36.30301074 2 32.25 C3.3303125 31.63125 3.3303125 31.63125 4.6875 31 C5.450625 30.4225 6.21375 29.845 7 29.25 C7.44899344 25.88254918 7.28517598 22.62775107 7 19.25 C6.01 18.92 5.02 18.59 4 18.25 C1.53447933 14.87132353 1 13.54441798 1 9.25 C-1.475 8.755 -1.475 8.755 -4 8.25 C-4.625 5.375 -4.625 5.375 -5 2.25 C-3 0.25 -3 0.25 0 0 Z " fill="#2E315D" transform="translate(76,46.75)"/>
<path d="M0 0 C11.96075236 -0.04626639 23.92148356 -0.08184014 35.88230705 -0.10362434 C41.43573026 -0.11407774 46.98909241 -0.12826523 52.54248047 -0.15087891 C57.89816008 -0.17255192 63.25378082 -0.1845569 68.60950089 -0.18975449 C70.65651502 -0.19346023 72.7035258 -0.20069624 74.75051498 -0.21146011 C77.60962733 -0.22590142 80.46849399 -0.22798104 83.32763672 -0.22705078 C84.60725281 -0.23783661 84.60725281 -0.23783661 85.91271973 -0.24884033 C91.77189568 -0.22810432 91.77189568 -0.22810432 94 2 C94.25168228 3.94280243 94.25168228 3.94280243 94.25396729 6.3651123 C94.25960693 7.28211411 94.26524658 8.19911591 94.27105713 9.14390564 C94.26700867 10.1528035 94.26296021 11.16170135 94.25878906 12.20117188 C94.2622937 13.26139053 94.26579834 14.32160919 94.26940918 15.41395569 C94.27823999 18.9322863 94.27237252 22.45041721 94.265625 25.96875 C94.26697126 28.40490762 94.26891146 30.84106498 94.27142334 33.27722168 C94.27437644 38.3884537 94.27007097 43.49961592 94.26074219 48.61083984 C94.24934761 55.17523504 94.25590609 61.73946671 94.26788712 68.3038559 C94.27510068 73.33601116 94.2728201 78.3681274 94.26763153 83.40028381 C94.26629364 85.82129434 94.26794759 88.24230837 94.27259064 90.66331482 C94.27764757 94.04191525 94.26995723 97.42024774 94.25878906 100.79882812 C94.26283752 101.80772598 94.26688599 102.81662384 94.27105713 103.85609436 C94.26541748 104.77309616 94.25977783 105.69009796 94.25396729 106.6348877 C94.25321323 107.43424995 94.25245918 108.23361221 94.25168228 109.05719757 C94 111 94 111 92 113 C89.20263672 113.22705078 89.20263672 113.22705078 85.6796875 113.1953125 C83.79443359 113.18564453 83.79443359 113.18564453 81.87109375 113.17578125 C80.55238281 113.15902344 79.23367187 113.14226562 77.875 113.125 C76.53516279 113.11496983 75.19531848 113.10584404 73.85546875 113.09765625 C70.57023624 113.07402148 67.28509602 113.0381495 64 113 C64 118.28 64 123.56 64 129 C56.41 129 48.82 129 41 129 C41 124.05 41 119.1 41 114 C32.75 114 24.5 114 16 114 C15.67 115.32 15.34 116.64 15 118 C12 120 12 120 8.9375 119.75 C6 119 6 119 4 117 C4 116.01 4 115.02 4 114 C2.35 114 0.7 114 -1 114 C-1.125 108.25 -1.125 108.25 0 106 C28.38 106 56.76 106 86 106 C86 73 86 40 86 6 C69.850625 6.12375 69.850625 6.12375 53.375 6.25 C49.98395996 6.26579102 46.59291992 6.28158203 43.09912109 6.29785156 C40.40720913 6.3272196 37.7153125 6.35804507 35.0234375 6.390625 C34.32924713 6.39092712 33.63505676 6.39122925 32.91983032 6.39154053 C30.8591597 6.39397095 28.80013033 6.42140129 26.73974609 6.45410156 C25.00100723 6.46742523 25.00100723 6.46742523 23.22714233 6.48101807 C17.32903954 7.42953799 14.13478417 10.86521583 10 15 C8.02 11.04 6.04 7.08 4 3 C3.34 4.32 2.68 5.64 2 7 C1.34 7 0.68 7 0 7 C0 4.69 0 2.38 0 0 Z " fill="#E17366" transform="translate(124,33)"/>
<path d="M0 0 C6.27 0 12.54 0 19 0 C19.06058594 2.65933594 19.12117188 5.31867188 19.18359375 8.05859375 C19.2453353 10.62348412 19.30874277 13.18832824 19.37231445 15.75317383 C19.415727 17.5408927 19.45739729 19.32865474 19.49731445 21.11645508 C19.5548646 23.68063391 19.61860203 26.24459412 19.68359375 28.80859375 C19.70030624 29.6127623 19.71701874 30.41693085 19.73423767 31.24546814 C19.49220696 34.92669998 19.49220696 34.92669998 21 38 C22.51469448 38.23192865 24.03754562 38.41215238 25.5625 38.5625 C26.38878906 38.64628906 27.21507812 38.73007813 28.06640625 38.81640625 C29.02353516 38.90728516 29.02353516 38.90728516 30 39 C27.64494474 41.43102478 25.33109609 43.73130063 22.69921875 45.8671875 C17.57202128 49.98582209 17.57202128 49.98582209 14.8125 55.8125 C14.74009367 59.15709743 14.74009367 59.15709743 17 62 C23.62485705 60.02714558 29.59745185 57.37758385 35.6875 54.125 C36.91049805 53.49271484 36.91049805 53.49271484 38.15820312 52.84765625 C46.4831202 48.6084839 46.4831202 48.6084839 52.20703125 41.53515625 C52.40683594 40.71917969 52.60664062 39.90320313 52.8125 39.0625 C53.03164062 38.20011719 53.25078125 37.33773437 53.4765625 36.44921875 C54.07650096 33.64204404 54.62542356 30.84678092 55 28 C57 29 57 29 58.0703125 31.73046875 C58.41835937 32.87128906 58.76640625 34.01210937 59.125 35.1875 C59.47820312 36.31542969 59.83140625 37.44335938 60.1953125 38.60546875 C61.657515 44.77369193 61.21740692 48.28611729 58.125 53.8125 C55.13022848 59.172707 54.44242236 62.50909937 53 69 C40.13 69 27.26 69 14 69 C9 58 9 58 9 53 C8.32195313 53.06960937 7.64390625 53.13921875 6.9453125 53.2109375 C-0.94579301 53.66997688 -5.79801554 51.85976394 -12 47 C-16.81604185 42.18395815 -19.13800057 36.79607346 -19.4375 30.0625 C-19.20276202 23.86541741 -17.3994556 19.49287703 -13.09375 15.01953125 C-5.33608247 8 -5.33608247 8 0 8 C0 5.36 0 2.72 0 0 Z " fill="#A8A8C0" transform="translate(31,107)"/>
<path d="M0 0 C1.08587906 0.00999275 1.08587906 0.00999275 2.19369507 0.02018738 C3.42474472 0.02052727 3.42474472 0.02052727 4.68066406 0.02087402 C5.56716644 0.03635788 6.45366882 0.05184174 7.36703491 0.0677948 C8.27424286 0.07203964 9.18145081 0.07628448 10.1161499 0.08065796 C13.02038973 0.09748222 15.92394151 0.13514095 18.82797241 0.17326355 C20.79410824 0.18830556 22.76025492 0.2019948 24.72640991 0.21427917 C29.5521968 0.24739798 34.37746786 0.29920569 39.20297241 0.36076355 C39.20297241 2.01076355 39.20297241 3.66076355 39.20297241 5.36076355 C27.32297241 5.36076355 15.44297241 5.36076355 3.20297241 5.36076355 C3.20297241 38.69076355 3.20297241 72.02076355 3.20297241 106.36076355 C7.49297241 106.36076355 11.78297241 106.36076355 16.20297241 106.36076355 C16.20297241 107.68076355 16.20297241 109.00076355 16.20297241 110.36076355 C10.59346214 113.45063564 6.44597793 114.84035165 0.05062866 113.91545105 C-1.79702759 113.36076355 -1.79702759 113.36076355 -3.79702759 111.36076355 C-3.97227813 108.56391558 -4.02845948 105.86748275 -3.99234009 103.07170105 C-3.98951019 102.25327728 -3.9866803 101.43485352 -3.98376465 100.59162903 C-3.97255291 97.97285962 -3.94744688 95.35442991 -3.92202759 92.73576355 C-3.91199906 90.96233098 -3.90287299 89.18889306 -3.89468384 87.41545105 C-3.87431025 83.0636518 -3.83516432 78.71258874 -3.79702759 74.36076355 C-10.06702759 74.36076355 -16.33702759 74.36076355 -22.79702759 74.36076355 C-22.79702759 77.00076355 -22.79702759 79.64076355 -22.79702759 82.36076355 C-25.27202759 82.85576355 -25.27202759 82.85576355 -27.79702759 83.36076355 C-28.7890044 80.0523682 -28.92599517 77.04546305 -28.92984009 73.5990448 C-28.93112915 72.47949402 -28.93241821 71.35994324 -28.93374634 70.20646667 C-28.92987915 69.04050964 -28.92601196 67.87455261 -28.92202759 66.67326355 C-28.92589478 65.52664246 -28.92976196 64.38002136 -28.93374634 63.19865417 C-28.92646025 56.83425442 -28.64355273 50.66939139 -27.79702759 44.36076355 C-24.16702759 44.36076355 -20.53702759 44.36076355 -16.79702759 44.36076355 C-19.18660028 41.11777204 -21.00181449 38.85174012 -24.79702759 37.36076355 C-24.79702759 34.72076355 -24.79702759 32.08076355 -24.79702759 29.36076355 C-17.86702759 29.36076355 -10.93702759 29.36076355 -3.79702759 29.36076355 C-3.82023071 27.51869324 -3.84343384 25.67662292 -3.86734009 23.7787323 C-3.88609614 21.36858009 -3.90429651 18.95842352 -3.92202759 16.54826355 C-3.9387854 15.33332214 -3.95554321 14.11838074 -3.97280884 12.86662292 C-3.97925415 11.70324402 -3.98569946 10.53986511 -3.99234009 9.3412323 C-4.00281372 8.26768494 -4.01328735 7.19413757 -4.02407837 6.08805847 C-3.76915347 3.02594441 -3.34906762 0.67234445 0 0 Z " fill="#F9D0BD" transform="translate(53.797027587890625,32.63923645019531)"/>
<path d="M0 0 C0.66 0 1.32 0 2 0 C2.67408308 1.26691507 3.33900497 2.53870749 4 3.8125 C4.37125 4.52019531 4.7425 5.22789062 5.125 5.95703125 C6 8 6 8 6 11 C18.54 11 31.08 11 44 11 C44.495 17.93 44.495 17.93 45 25 C47.52174919 26.4472136 47.52174919 26.4472136 53 26 C55.64 21.05 58.28 16.1 61 11 C73.32944872 10.59353466 73.32944872 10.59353466 78 14 C80.13081566 16.41492441 81.0034386 18.00796371 80.9921875 21.25390625 C80.4005511 27.1988978 80.4005511 27.1988978 79 30 C40.06 30 1.12 30 -39 30 C-39 23.73 -39 17.46 -39 11 C-25.47 11 -11.94 11 2 11 C1.01 9.02 0.02 7.04 -1 5 C-0.6875 2.125 -0.6875 2.125 0 0 Z " fill="#EC824E" transform="translate(39,165)"/>
<path d="M0 0 C11.88 0 23.76 0 36 0 C38.125 8.5625 38.125 8.5625 38.75048828 11.21704102 C40.28447432 17.03685524 42.73441812 20.77654096 47 25 C45.35 25 43.7 25 42 25 C42.144375 25.70125 42.28875 26.4025 42.4375 27.125 C43.56097355 32.86719815 44.2206715 38.15220515 44 44 C39.73414787 41.98478509 36.03686833 39.66187025 33 36 C32.14333056 33.21976604 32.09688975 30.95513729 32 28 C31.67 27.01 31.34 26.02 31 25 C32.32 24.67 33.64 24.34 35 24 C34.855625 22.7625 34.71125 21.525 34.5625 20.25 C34.48128906 19.55390625 34.40007812 18.8578125 34.31640625 18.140625 C34.00663274 16.04487337 33.54810324 14.04502387 33 12 C32.30132812 11.95101562 31.60265625 11.90203125 30.8828125 11.8515625 C29.97273438 11.77679688 29.06265625 11.70203125 28.125 11.625 C27.22007813 11.55539063 26.31515625 11.48578125 25.3828125 11.4140625 C23 11 23 11 21 9 C17.91652174 8.83318891 17.91652174 8.83318891 15 9 C13.99782936 12.58327753 13.99782936 12.58327753 15 16 C15.6496875 16.1134375 16.299375 16.226875 16.96875 16.34375 C17.6390625 16.5603125 18.309375 16.776875 19 17 C20.01989703 19.28597611 20.5092016 21.5382593 21.09375 23.96875 C21.3928125 24.6390625 21.691875 25.309375 22 26 C24.02333407 26.85058414 24.02333407 26.85058414 26 27 C26.35027157 30.39893155 26.53474919 33.61503763 26 37 C23.125 39.3125 23.125 39.3125 20 41 C17.97305097 44.7988515 17.81111475 48.05993193 17.75 52.3125 C17.41564164 58.00945209 16.32499294 61.02867318 12.375 65.12109375 C9.38509966 69.20672461 9.78738782 74.97657053 9.4375 79.875 C9.35371094 81.02742188 9.26992187 82.17984375 9.18359375 83.3671875 C9.12300781 84.23601562 9.06242187 85.10484375 9 86 C6.03 86 3.06 86 0 86 C0 57.62 0 29.24 0 0 Z " fill="#FCFCFC" transform="translate(58,39)"/>
<path d="M0 0 C12.87 0 25.74 0 39 0 C40 5 40 5 39 8 C41.97 8 44.94 8 48 8 C48 16.25 48 24.5 48 33 C29.52 33 11.04 33 -8 33 C-8 24.75 -8 16.5 -8 8 C-5.36 8 -2.72 8 0 8 C-0.185625 7.4225 -0.37125 6.845 -0.5625 6.25 C-1 4 -1 4 0 0 Z " fill="#2C305D" transform="translate(158,162)"/>
<path d="M0 0 C3 0.25 3 0.25 5 2.25 C6.63825893 2.52819491 8.28631 2.75080157 9.9375 2.9375 C14.71057064 3.83288122 14.71057064 3.83288122 17.125 7.3125 C18.40179901 11.54468691 18.26784729 15.87516098 18 20.25 C17.67 18.93 17.34 17.61 17 16.25 C15.68 16.58 14.36 16.91 13 17.25 C13.66 18.24 14.32 19.23 15 20.25 C14.979375 21.425625 14.95875 22.60125 14.9375 23.8125 C15.23165705 27.24224609 15.92334729 28.17685903 18.47265625 30.609375 C19.47167969 31.41890625 20.47070312 32.2284375 21.5 33.0625 C26.7463996 37.42658143 26.7463996 37.42658143 27.94921875 41.33203125 C28.15988104 44.02229231 28.21970267 46.56247432 28 49.25 C27.01 49.25 26.02 49.25 25 49.25 C25 49.91 25 50.57 25 51.25 C27.93756119 51.2769501 30.87487555 51.29681474 33.8125 51.3125 C35.06256836 51.32506836 35.06256836 51.32506836 36.33789062 51.33789062 C37.54155273 51.34272461 37.54155273 51.34272461 38.76953125 51.34765625 C39.87711792 51.35551147 39.87711792 51.35551147 41.00708008 51.36352539 C43.21057409 51.32523213 43.21057409 51.32523213 46 50.25 C46.99 50.58 47.98 50.91 49 51.25 C49 52.9 49 54.55 49 56.25 C39.110828 59.0948303 26.72630635 61.88664679 16.78125 57.98828125 C10.09323464 53.80827165 4.31536815 46.41058965 1 39.25 C0.3125 36 0.3125 36 1 33.25 C1.99 32.6725 2.98 32.095 4 31.5 C7.23384443 29.61694623 7.23384443 29.61694623 7.3984375 26.78125 C7.37708655 24.24760444 7.2596747 21.76980635 7 19.25 C6.01 18.92 5.02 18.59 4 18.25 C1.53447933 14.87132353 1 13.54441798 1 9.25 C-0.65 8.92 -2.3 8.59 -4 8.25 C-4.625 5.375 -4.625 5.375 -5 2.25 C-3 0.25 -3 0.25 0 0 Z " fill="#D76F66" transform="translate(76,46.75)"/>
<path d="M0 0 C0.72391937 0.00666183 1.44783875 0.01332367 2.19369507 0.02018738 C3.01439484 0.02041397 3.8350946 0.02064056 4.68066406 0.02087402 C6.01041763 0.04409981 6.01041763 0.04409981 7.36703491 0.0677948 C8.27424286 0.07203964 9.18145081 0.07628448 10.1161499 0.08065796 C13.02038973 0.09748222 15.92394151 0.13514095 18.82797241 0.17326355 C20.79410824 0.18830556 22.76025492 0.2019948 24.72640991 0.21427917 C29.5521968 0.24739798 34.37746786 0.29920569 39.20297241 0.36076355 C39.20297241 2.01076355 39.20297241 3.66076355 39.20297241 5.36076355 C27.32297241 5.36076355 15.44297241 5.36076355 3.20297241 5.36076355 C3.20297241 38.69076355 3.20297241 72.02076355 3.20297241 106.36076355 C7.49297241 106.36076355 11.78297241 106.36076355 16.20297241 106.36076355 C16.20297241 107.68076355 16.20297241 109.00076355 16.20297241 110.36076355 C10.59346214 113.45063564 6.44597793 114.84035165 0.05062866 113.91545105 C-1.79702759 113.36076355 -1.79702759 113.36076355 -3.79702759 111.36076355 C-4.04870987 109.4363718 -4.04870987 109.4363718 -4.05099487 107.04034424 C-4.05945435 105.67963051 -4.05945435 105.67963051 -4.06808472 104.29142761 C-4.06201202 102.7944635 -4.06201202 102.7944635 -4.05581665 101.26725769 C-4.05932129 100.2183989 -4.06282593 99.1695401 -4.06643677 98.08889771 C-4.07526815 94.60783853 -4.06939949 91.12698119 -4.06265259 87.6459198 C-4.06399893 85.23457805 -4.06593921 82.82323657 -4.06845093 80.41189575 C-4.07140419 75.35193809 -4.06709842 70.29205092 -4.05776978 65.23210144 C-4.04638128 58.73730634 -4.05292971 52.24267663 -4.0649147 45.74788761 C-4.07213304 40.766304 -4.06984538 35.78475975 -4.06465912 30.80317497 C-4.06332223 28.40811074 -4.06497168 26.01304296 -4.06961823 23.61798286 C-4.07468228 20.27311325 -4.06697443 16.9285134 -4.05581665 13.58366394 C-4.05986511 12.5877121 -4.06391357 11.59176025 -4.06808472 10.56562805 C-4.06244507 9.65566574 -4.05680542 8.74570343 -4.05099487 7.8081665 C-4.05024082 7.01710038 -4.04948677 6.22603426 -4.04870987 5.41099644 C-3.70235137 2.58952015 -2.96996171 0.59623677 0 0 Z " fill="#DF7164" transform="translate(53.797027587890625,32.63923645019531)"/>
<path d="M0 0 C0.33 0 0.66 0 1 0 C1 7.92 1 15.84 1 24 C-2.63 24 -6.26 24 -10 24 C-9.979375 25.175625 -9.95875 26.35125 -9.9375 27.5625 C-9.93052739 31.47413467 -10.35749657 35.14497944 -11 39 C-10.45730469 38.4946875 -9.91460937 37.989375 -9.35546875 37.46875 C-8.64003906 36.8190625 -7.92460937 36.169375 -7.1875 35.5 C-6.12595703 34.52546875 -6.12595703 34.52546875 -5.04296875 33.53125 C-3 32 -3 32 0 32 C-0.37374732 39.59952888 -2.57589003 45.2402257 -6 52 C-8.97 52 -11.94 52 -15 52 C-15 43.75 -15 35.5 -15 27 C-17.97 27 -20.94 27 -24 27 C-24 24.36 -24 21.72 -24 19 C-26.97 19 -29.94 19 -33 19 C-33 13.72 -33 8.44 -33 3 C-30.78539062 2.95101562 -28.57078125 2.90203125 -26.2890625 2.8515625 C-24.14771683 2.79757508 -22.00648442 2.74025896 -19.86523438 2.68261719 C-18.37541111 2.64430002 -16.88549446 2.60945192 -15.39550781 2.578125 C-13.25551952 2.53253271 -11.11617564 2.47453126 -8.9765625 2.4140625 C-7.68830566 2.3826416 -6.40004883 2.3512207 -5.07275391 2.31884766 C-1.89518495 2.31541732 -1.89518495 2.31541732 0 0 Z " fill="#4F57A8" transform="translate(221,143)"/>
<path d="M0 0 C9.30677096 9.30677096 8.35073932 30.91525619 8.4375 43.0625 C8.36212401 59.1780845 7.08746997 75.55935821 -4.78515625 87.84765625 C-6.4375 89.25 -6.4375 89.25 -9 91 C-8.86722656 90.22398437 -8.73445313 89.44796875 -8.59765625 88.6484375 C-5.40753661 69.13515097 -4.38889006 48.66454852 -7.3125 29.0625 C-8.20960917 22.78481243 -7.84489606 18.74436597 -4.3828125 13.32421875 C-1.94829722 9.23230747 -1.07624982 4.60249923 0 0 Z " fill="#DEE1F4" transform="translate(133,46)"/>
<path d="M0 0 C8.17960554 -0.06943077 16.35908851 -0.12277566 24.53891563 -0.15543652 C28.33692183 -0.17111006 32.13472681 -0.19237859 35.93261719 -0.22631836 C39.59602467 -0.25885241 43.25923831 -0.27684029 46.92277908 -0.28463173 C48.3222827 -0.29018603 49.72177539 -0.30103199 51.12119675 -0.31719017 C53.07727511 -0.33888273 55.03354748 -0.3402247 56.98974609 -0.34057617 C58.1044931 -0.34723801 59.21924011 -0.35389984 60.36776733 -0.36076355 C61.6707225 -0.18218559 61.6707225 -0.18218559 63 0 C63.99 1.485 63.99 1.485 65 3 C64.34 3.99 63.68 4.98 63 6 C63.495 6.495 63.495 6.495 64 7 C64.07325436 9.6986905 64.09222351 12.36502556 64.0625 15.0625 C64.041875 17.681875 64.02125 20.30125 64 23 C56.41 23 48.82 23 41 23 C41 18.05 41 13.1 41 8 C32.75 8 24.5 8 16 8 C15.67 9.32 15.34 10.64 15 12 C12 14 12 14 8.9375 13.75 C6 13 6 13 4 11 C4 10.01 4 9.02 4 8 C2.35 8 0.7 8 -1 8 C-1.125 2.25 -1.125 2.25 0 0 Z " fill="#E17163" transform="translate(124,139)"/>
<path d="M0 0 C3.3 0 6.6 0 10 0 C10 23.76 10 47.52 10 72 C6.7 72 3.4 72 0 72 C0 48.24 0 24.48 0 0 Z " fill="#A6A7C1" transform="translate(233,121)"/>
<path d="M0 0 C0.23976563 0.5259375 0.47953125 1.051875 0.7265625 1.59375 C2.38232663 4.72243314 4.36037201 7.59656554 6.375 10.5 C6.76171875 11.06847656 7.1484375 11.63695313 7.546875 12.22265625 C12.04034789 18.7216053 15.46684558 22.14468785 23.3125 23.625 C24.199375 23.74875 25.08625 23.8725 26 24 C26 27.96 26 31.92 26 36 C25.67 35.34 25.34 34.68 25 34 C23.948125 34.33 22.89625 34.66 21.8125 35 C11.96841717 37.37855264 3.53059034 36.41349643 -5.734375 32.484375 C-8 31 -8 31 -8.9375 29.046875 C-9.0628561 24.94146278 -6.03909128 21.17341283 -3.3984375 18.19140625 C-1.51613486 15.2417644 -1.52515939 12.9109237 -1.375 9.4375 C-1.0794702 3.2384106 -1.0794702 3.2384106 0 0 Z " fill="#5259A7" transform="translate(76,82)"/>
<path d="M0 0 C1.9375 0.25 1.9375 0.25 4 1 C6.28914145 4.43371217 6.80577084 7.09505454 7.625 11.125 C8.01558594 13.01605469 8.01558594 13.01605469 8.4140625 14.9453125 C9 18 9 18 9 19 C7.02 19 5.04 19 3 19 C3 27.25 3 35.5 3 44 C-4.26 44 -11.52 44 -19 44 C-19.66 42.68 -20.32 41.36 -21 40 C-20 39 -20 39 -17.125 38.875 C-14 39 -14 39 -11 40 C-11.74056641 39.02160156 -11.74056641 39.02160156 -12.49609375 38.0234375 C-13.13675781 37.14945313 -13.77742187 36.27546875 -14.4375 35.375 C-15.07558594 34.51648438 -15.71367187 33.65796875 -16.37109375 32.7734375 C-18.13177927 29.77562762 -18.64257635 27.43328069 -19 24 C-13.71379876 24.41460402 -10.82609003 25.28322682 -7 29 C-6.34 29.99 -5.68 30.98 -5 32 C-4.98541748 31.30962646 -4.97083496 30.61925293 -4.95581055 29.90795898 C-4.88089383 26.7506034 -4.78437783 23.59425499 -4.6875 20.4375 C-4.66494141 19.35146484 -4.64238281 18.26542969 -4.61914062 17.14648438 C-4.18580483 4.18580483 -4.18580483 4.18580483 0 0 Z " fill="#A5A6BE" transform="translate(147,151)"/>
<path d="M0 0 C0.84535147 4.33107734 1.67410622 8.66517375 2.5 13 C2.73847656 14.22074219 2.97695313 15.44148437 3.22265625 16.69921875 C4.3960206 22.90128744 5.31569293 28.68614148 5 35 C-0.15164735 35.64395592 -3.95995829 35.53284451 -8.3125 32.5 C-12.81602327 28.66166779 -15.33775232 24.60136597 -16.41015625 18.76953125 C-16.81534587 12.73324493 -14.91286774 8.53769741 -11 4 C-7.11306755 0.76088963 -4.96923116 -0.20145532 0 0 Z " fill="#F8DCD1" transform="translate(33,120)"/>
<path d="M0 0 C12.32944872 -0.40646534 12.32944872 -0.40646534 17 3 C19.13081566 5.41492441 20.0034386 7.00796371 19.9921875 10.25390625 C19.4005511 16.1988978 19.4005511 16.1988978 18 19 C6.78 19 -4.44 19 -16 19 C-16.33 17.35 -16.66 15.7 -17 14 C-14.03 14.33 -11.06 14.66 -8 15 C-5.36 10.05 -2.72 5.1 0 0 Z " fill="#EB8250" transform="translate(100,176)"/>
<path d="M0 0 C4.25067453 -0.10776358 8.49862759 -0.18721602 12.75 -0.25 C13.9565625 -0.28351563 15.163125 -0.31703125 16.40625 -0.3515625 C18.14648438 -0.37089844 18.14648438 -0.37089844 19.921875 -0.390625 C20.99018555 -0.41157227 22.05849609 -0.43251953 23.15917969 -0.45410156 C26.7111613 0.11367824 27.86255755 1.15303309 30 4 C30.44915825 7.593266 30.54470537 9.95142174 28.86010742 13.19433594 C27 15 27 15 24.1809082 15.45410156 C23.06546631 15.4331543 21.95002441 15.41220703 20.80078125 15.390625 C19.59228516 15.37773437 18.38378906 15.36484375 17.13867188 15.3515625 C15.87603516 15.31804687 14.61339844 15.28453125 13.3125 15.25 C12.03826172 15.23195312 10.76402344 15.21390625 9.45117188 15.1953125 C6.30046217 15.14811086 3.15013773 15.07636698 0 15 C0 10.05 0 5.1 0 0 Z " fill="#FAEDE7" transform="translate(0,180)"/>
<path d="M0 0 C2 1 2 1 3.0703125 3.73046875 C3.41835937 4.87128906 3.76640625 6.01210937 4.125 7.1875 C4.47820312 8.31542969 4.83140625 9.44335938 5.1953125 10.60546875 C7.63274932 20.88766583 4.34789936 23.30420128 -1 34 C-11.89 34 -22.78 34 -34 34 C-31.47031297 32.31354198 -29.02782485 30.94435178 -26.32421875 29.57421875 C-24.95813477 28.87329102 -24.95813477 28.87329102 -23.56445312 28.15820312 C-21.66051925 27.18490902 -19.75429254 26.21608592 -17.84570312 25.25195312 C-8.93379092 20.94198792 -8.93379092 20.94198792 -2.79296875 13.53515625 C-2.59316406 12.71917969 -2.39335938 11.90320313 -2.1875 11.0625 C-1.85878906 9.76892578 -1.85878906 9.76892578 -1.5234375 8.44921875 C-0.92349904 5.64204404 -0.37457644 2.84678092 0 0 Z " fill="#A5A6BE" transform="translate(86,135)"/>
<path d="M0 0 C12.87 0 25.74 0 39 0 C40.125 5.625 40.125 5.625 39 9 C37.91058105 9.00410889 36.82116211 9.00821777 35.69873047 9.01245117 C31.63917362 9.03429807 27.58057838 9.0886443 23.52148438 9.15258789 C21.76799772 9.17571968 20.01437308 9.19015229 18.26074219 9.19555664 C15.73285416 9.20488199 13.20712183 9.24594635 10.6796875 9.29296875 C9.90132538 9.2890361 9.12296326 9.28510345 8.3210144 9.28105164 C2.52175676 9.43492591 0.17849817 11.02651606 -4 15 C-4.66 15 -5.32 15 -6 15 C-4.32258065 11.25806452 -4.32258065 11.25806452 -2.4375 9.75 C-0.19391162 7.33621705 -0.19391162 7.33621705 0 0 Z " fill="#383760" transform="translate(158,162)"/>
<path d="M0 0 C9.9 0 19.8 0 30 0 C30 3.96 30 7.92 30 12 C20.1 12 10.2 12 0 12 C0 8.04 0 4.08 0 0 Z " fill="#7980BE" transform="translate(163,180)"/>
<path d="M0 0 C6.16576938 1.42286986 10.29597766 4.98215315 15 9 C15.59941406 9.50273437 16.19882813 10.00546875 16.81640625 10.5234375 C34.18263157 26.39882677 41.67636378 54.29418295 43 77 C43.59673389 95.35191019 42.99550774 113.05790862 39 131 C38.67 131 38.34 131 38 131 C38.03029297 130.45512939 38.06058594 129.91025879 38.09179688 129.34887695 C40.26484608 88.94269849 42.56098385 45.0325701 15.01171875 12.125 C10.72843338 7.60051992 6.01169067 3.87865334 0 2 C0 1.34 0 0.68 0 0 Z " fill="#FAFAFC" transform="translate(85,8)"/>
<path d="M0 0 C7.59 0 15.18 0 23 0 C23 4.95 23 9.9 23 15 C15.41 15 7.82 15 0 15 C0 10.05 0 5.1 0 0 Z " fill="#ED814E" transform="translate(165,147)"/>
<path d="M0 0 C4.95 0 9.9 0 15 0 C15 7.26 15 14.52 15 22 C10.05 22 5.1 22 0 22 C0 14.74 0 7.48 0 0 Z " fill="#42488A" transform="translate(218,71)"/>
<path d="M0 0 C1.65 0.66 3.3 1.32 5 2 C5.19412181 3.47831221 5.38012131 4.95769316 5.5625 6.4375 C5.66691406 7.26121094 5.77132812 8.08492187 5.87890625 8.93359375 C5.91886719 9.61550781 5.95882812 10.29742187 6 11 C5.67 11.33 5.34 11.66 5 12 C5.06518538 14.04445069 5.20321018 16.08673701 5.375 18.125 C5.46523437 19.24132812 5.55546875 20.35765625 5.6484375 21.5078125 C6.00236766 25.02351877 6.47545966 28.50602788 7 32 C6.02160156 32.56847656 5.04320313 33.13695312 4.03515625 33.72265625 C-2.68259182 37.66585004 -9.16836043 41.58425337 -15.16796875 46.58984375 C-17 48 -17 48 -19.17578125 49.00390625 C-21.35303376 49.92395276 -21.35303376 49.92395276 -22 53 C-22.33 53 -22.66 53 -23 53 C-22.90933336 48.55733449 -22.38040484 45.91644565 -19.3125 42.625 C-15.7462707 39.35657691 -11.78928504 36.70343119 -7.75 34.0625 C-7.13552002 33.66047363 -6.52104004 33.25844727 -5.88793945 32.84423828 C-1.37764867 30 -1.37764867 30 2 30 C1.7834375 29.21238281 1.566875 28.42476562 1.34375 27.61328125 C-0.94798154 18.64794257 -2.70204093 9.08670217 0 0 Z " fill="#343767" transform="translate(68,113)"/>
<path d="M0 0 C0.99 0.33 1.98 0.66 3 1 C2.03644647 15.78132118 2.03644647 15.78132118 1 22 C1.54269531 21.4946875 2.08539063 20.989375 2.64453125 20.46875 C3.35996094 19.8190625 4.07539063 19.169375 4.8125 18.5 C5.52019531 17.8503125 6.22789062 17.200625 6.95703125 16.53125 C9 15 9 15 12 15 C11.62625268 22.59952888 9.42410997 28.2402257 6 35 C3.03 35 0.06 35 -3 35 C-3 26.75 -3 18.5 -3 10 C-3.66 10 -4.32 10 -5 10 C-3.84414715 6.08788267 -2.64465038 3.1254959 0 0 Z " fill="#A2A4BF" transform="translate(209,160)"/>
<path d="M0 0 C0.495 1.485 0.495 1.485 1 3 C-10.88 3 -22.76 3 -35 3 C-35 31.38 -35 59.76 -35 89 C-32.03 89 -29.06 89 -26 89 C-24.81331575 93.96924032 -24 97.85290192 -24 103 C-27.96 103 -31.92 103 -36 103 C-36 69.67 -36 36.34 -36 2 C-24.12 2 -12.24 2 0 2 C0 1.34 0 0.68 0 0 Z " fill="#EECAC6" transform="translate(93,36)"/>
<path d="M0 0 C1.29422379 0.00212242 1.29422379 0.00212242 2.61459351 0.00428772 C5.3759098 0.00989437 8.13714562 0.02244798 10.8984375 0.03515625 C12.768228 0.04017039 14.63801976 0.04473345 16.5078125 0.04882812 C21.09638527 0.05986596 25.68489773 0.07713505 30.2734375 0.09765625 C29.9434375 2.40765625 29.6134375 4.71765625 29.2734375 7.09765625 C16.4034375 7.09765625 3.5334375 7.09765625 -9.7265625 7.09765625 C-10.0565625 5.11765625 -10.3865625 3.13765625 -10.7265625 1.09765625 C-7.39500999 -0.56812 -3.66120191 -0.02242231 0 0 Z " fill="#C5C3D0" transform="translate(54.7265625,168.90234375)"/>
<path d="M0 0 C3.63 0 7.26 0 11 0 C11 5.61 11 11.22 11 17 C5.06 17 -0.88 17 -7 17 C-5.74436999 13.23310997 -4.5565985 9.82063547 -2.9375 6.25 C-2.59589844 5.49203125 -2.25429687 4.7340625 -1.90234375 3.953125 C-1.28903054 2.62560722 -0.65398112 1.30796225 0 0 Z " fill="#41488C" transform="translate(222,178)"/>
<path d="M0 0 C8.91 0 17.82 0 27 0 C27 0.33 27 0.66 27 1 C22.05 1 17.1 1 12 1 C12 7.6 12 14.2 12 21 C13.32 21 14.64 21 16 21 C16 21.99 16 22.98 16 24 C13.69 24 11.38 24 9 24 C9 21.36 9 18.72 9 16 C6.03 16 3.06 16 0 16 C0 10.72 0 5.44 0 0 Z " fill="#4E57A7" transform="translate(188,146)"/>
<path d="M0 0 C0 1.65 0 3.3 0 5 C-9.9221294 7.8543112 -22.62011472 10.79882482 -32.47265625 6.4765625 C-33.30667969 5.98929687 -34.14070313 5.50203125 -35 5 C-34.195625 4.360625 -33.39125 3.72125 -32.5625 3.0625 C-30.7249496 1.59396498 -30.7249496 1.59396498 -29 0 C-27.31534272 -0.07501535 -25.62760596 -0.0831878 -23.94140625 -0.0625 C-22.91595703 -0.05476563 -21.89050781 -0.04703125 -20.83398438 -0.0390625 C-18.65690048 -0.01306747 -16.47981715 0.01297403 -14.30273438 0.0390625 C-13.27599609 0.04679687 -12.24925781 0.05453125 -11.19140625 0.0625 C-10.24467041 0.07410156 -9.29793457 0.08570312 -8.32250977 0.09765625 C-0.73757645 -0.22127293 -0.73757645 -0.22127293 0 0 Z " fill="#DE756A" transform="translate(125,98)"/>
<path d="M0 0 C10.80146709 -0.1200163 10.80146709 -0.1200163 14.02734375 2.89453125 C15.53202391 5.20323898 16.78875055 7.52667945 18 10 C18.639375 10.9075 19.27875 11.815 19.9375 12.75 C21.27183 15.57564 20.92093547 17.06975078 20 20 C19.67 20 19.34 20 19 20 C19 18.35 19 16.7 19 15 C13.39 15 7.78 15 2 15 C1.34 10.05 0.68 5.1 0 0 Z " fill="#F7E1D8" transform="translate(103,124)"/>
<path d="M0 0 C0.80244141 0.00966797 1.60488281 0.01933594 2.43164062 0.02929688 C3.26501953 0.05443359 4.09839844 0.07957031 4.95703125 0.10546875 C6.22450195 0.12577148 6.22450195 0.12577148 7.51757812 0.14648438 C9.60183509 0.18181076 11.68576402 0.23561736 13.76953125 0.29296875 C13.76953125 3.59296875 13.76953125 6.89296875 13.76953125 10.29296875 C6.83953125 10.29296875 -0.09046875 10.29296875 -7.23046875 10.29296875 C-7.23046875 3.29296875 -7.23046875 3.29296875 -5.99487305 1.3737793 C-3.82125153 0.04229701 -2.53934255 -0.05402856 0 0 Z " fill="#A9A8BF" transform="translate(36.23046875,93.70703125)"/>
<path d="M0 0 C1.27310312 0.93441535 2.543388 1.87267111 3.8125 2.8125 C4.52019531 3.33457031 5.22789063 3.85664062 5.95703125 4.39453125 C6.63121094 4.92433594 7.30539063 5.45414062 8 6 C8.5671875 6.4434375 9.134375 6.886875 9.71875 7.34375 C11.55652063 9.71940472 11.51309559 11.72262497 11.6875 14.6875 C11.78611328 16.17830078 11.78611328 16.17830078 11.88671875 17.69921875 C11.92410156 18.45847656 11.96148437 19.21773437 12 20 C11.01 20 10.02 20 9 20 C9 20.66 9 21.32 9 22 C7.35 22 5.7 22 4 22 C0.7 15.73 -2.6 9.46 -6 3 C-3 3 -3 3 0 4 C0 2.68 0 1.36 0 0 Z " fill="#5958A2" transform="translate(92,76)"/>
<path d="M0 0 C3 0.25 3 0.25 5 2.25 C7.42715206 2.92940467 7.42715206 2.92940467 10.125 3.375 C11.49011719 3.62636719 11.49011719 3.62636719 12.8828125 3.8828125 C13.58148438 4.00398438 14.28015625 4.12515625 15 4.25 C15.66 6.23 16.32 8.21 17 10.25 C15.68 9.92 14.36 9.59 13 9.25 C12.731875 9.86875 12.46375 10.4875 12.1875 11.125 C11 13.25 11 13.25 8 15.25 C6.34450469 15.63499891 4.6777567 15.97793135 3 16.25 C1 13.25 1 13.25 1 9.25 C-0.65 8.92 -2.3 8.59 -4 8.25 C-4.625 5.375 -4.625 5.375 -5 2.25 C-3 0.25 -3 0.25 0 0 Z " fill="#343661" transform="translate(76,46.75)"/>
<path d="M0 0 C1.60620903 1.75555829 3.14032489 3.57802906 4.625 5.4375 C5.42164063 6.42621094 6.21828125 7.41492188 7.0390625 8.43359375 C9 11 9 11 10 13 C4.375 14.125 4.375 14.125 1 13 C-1.14255793 13.38932856 -1.14255793 13.38932856 -3 14 C-3 14.99 -3 15.98 -3 17 C-4.98 17.66 -6.96 18.32 -9 19 C-8.85913398 16.39547729 -8.71251536 13.79149803 -8.5625 11.1875 C-8.50352539 10.08051758 -8.50352539 10.08051758 -8.44335938 8.95117188 C-8.25618965 5.76928658 -8.01279207 3.03837622 -7 0 C-4.05610218 -1.17755913 -3.10046087 -1.03348696 0 0 Z " fill="#E27C6F" transform="translate(155,96)"/>
<path d="M0 0 C1.56047445 0.00015913 3.12095416 0.00585397 4.68139648 0.01586914 C5.91115456 0.01799156 5.91115456 0.01799156 7.16575623 0.02015686 C9.79470406 0.0257725 12.42356797 0.0383276 15.05249023 0.05102539 C16.8304838 0.05603838 18.60847869 0.06060163 20.38647461 0.06469727 C24.75434569 0.07574701 29.12215371 0.09302208 33.48999023 0.11352539 C33.48999023 1.76352539 33.48999023 3.41352539 33.48999023 5.11352539 C21.27999023 5.11352539 9.06999023 5.11352539 -3.51000977 5.11352539 C-3.84000977 3.79352539 -4.17000977 2.47352539 -4.51000977 1.11352539 C-3.51000977 0.11352539 -3.51000977 0.11352539 0 0 Z " fill="#FD9B6C" transform="translate(49.510009765625,184.886474609375)"/>
<path d="M0 0 C4.20809884 -0.11656783 8.41577996 -0.18737611 12.625 -0.25 C14.40970703 -0.30027344 14.40970703 -0.30027344 16.23046875 -0.3515625 C27.2834801 -0.47505983 27.2834801 -0.47505983 32 4 C34.46934085 7.70401128 34.44928433 10.70587865 34 15 C33 17.5 33 17.5 32 19 C30.35 19 28.7 19 27 19 C27.33 18.484375 27.66 17.96875 28 17.4375 C29.3578232 14.12780596 29.32214498 11.54359483 29 8 C27.91753725 6.20029108 27.91753725 6.20029108 26 5 C23.1971271 4.4939264 23.1971271 4.4939264 20.01953125 4.48828125 C18.27446289 4.43510742 18.27446289 4.43510742 16.49414062 4.38085938 C15.27919922 4.35830078 14.06425781 4.33574219 12.8125 4.3125 C11.58595703 4.27833984 10.35941406 4.24417969 9.09570312 4.20898438 C6.06389322 4.1264059 3.03237621 4.05728631 0 4 C0 2.68 0 1.36 0 0 Z " fill="#FBA47A" transform="translate(0,176)"/>
<path d="M0 0 C0.66 0 1.32 0 2 0 C2.31919939 1.31088682 2.62985947 2.62385248 2.9375 3.9375 C3.11152344 4.66839844 3.28554687 5.39929688 3.46484375 6.15234375 C4.80919597 13.3058676 5.18167246 20.42055449 5.1875 27.6875 C5.19974609 28.50283203 5.21199219 29.31816406 5.22460938 30.15820312 C5.23597813 34.84592027 4.80206832 38.59098698 3 43 C2.01 43 1.02 43 0 43 C0 28.81 0 14.62 0 0 Z " fill="#FACEBA" transform="translate(234,72)"/>
<path d="M0 0 C0.85095749 -0.00570007 1.70191498 -0.01140015 2.57865906 -0.01727295 C4.38177241 -0.02672798 6.18490308 -0.03325892 7.98803711 -0.03710938 C10.74038073 -0.04679987 13.49197283 -0.07781175 16.24414062 -0.109375 C17.99608932 -0.11590663 19.74804335 -0.12115647 21.5 -0.125 C22.73149529 -0.1435202 22.73149529 -0.1435202 23.98786926 -0.16241455 C28.62969285 -0.14441585 31.66541675 0.19664702 35.44921875 3.203125 C35.44921875 3.533125 35.44921875 3.863125 35.44921875 4.203125 C19.93921875 4.203125 4.42921875 4.203125 -11.55078125 4.203125 C-11.22078125 3.213125 -10.89078125 2.223125 -10.55078125 1.203125 C-7.26345757 -0.44053684 -3.61423905 0.01857168 0 0 Z " fill="#F9B89A" transform="translate(208.55078125,-0.203125)"/>
<path d="M0 0 C4.12081945 1.37360648 5.08873539 4.13204186 7.0625 7.75 C7.41376953 8.37132812 7.76503906 8.99265625 8.12695312 9.6328125 C11.86467228 16.33103133 11.86467228 16.33103133 13 20 C12.67 20.99 12.34 21.98 12 23 C6.73633109 22.58716322 3.58992271 21.9833389 0 18 C-0.6129473 14.89500236 -0.47242525 11.89929718 -0.3125 8.75 C-0.28994141 7.90953125 -0.26738281 7.0690625 -0.24414062 6.203125 C-0.18537714 4.13465036 -0.09569885 2.06709512 0 0 Z " fill="#FACEB9" transform="translate(219,38)"/>
<path d="M0 0 C4.95 0 9.9 0 15 0 C15 3.63 15 7.26 15 11 C10.05 11 5.1 11 0 11 C0 7.37 0 3.74 0 0 Z " fill="#5258A6" transform="translate(218,71)"/>
<path d="M0 0 C1.32 0.33 2.64 0.66 4 1 C4.33 2.32 4.66 3.64 5 5 C5.99 4.34 6.98 3.68 8 3 C10.6875 3.375 10.6875 3.375 13 4 C12 7 12 7 8 9 C8.66 12.3 9.32 15.6 10 19 C8.02 18.34 6.04 17.68 4 17 C3.67 15.35 3.34 13.7 3 12 C2.608125 12.515625 2.21625 13.03125 1.8125 13.5625 C1.214375 14.036875 0.61625 14.51125 0 15 C-2.61328125 14.58984375 -2.61328125 14.58984375 -5 14 C-4.54636829 12.41531323 -4.08688548 10.83230076 -3.625 9.25 C-3.36976563 8.36828125 -3.11453125 7.4865625 -2.8515625 6.578125 C-2.0790066 4.23919428 -1.16374324 2.16557438 0 0 Z " fill="#3B3E66" transform="translate(151,44)"/>
<path d="M0 0 C0.99 0 1.98 0 3 0 C4.81774185 7.09784913 6.43230491 13.65081658 6 21 C1.73414787 18.98478509 -1.96313167 16.66187025 -5 13 C-5.85666944 10.21976604 -5.90311025 7.95513729 -6 5 C-6.33 4.01 -6.66 3.02 -7 2 C-5.68 1.67 -4.36 1.34 -3 1 C-2.67 1.66 -2.34 2.32 -2 3 C-1.34 2.01 -0.68 1.02 0 0 Z " fill="#FAF8F8" transform="translate(96,62)"/>
<path d="M0 0 C1.65 0 3.3 0 5 0 C5.97983928 2.60391539 6.95889794 5.20811968 7.9375 7.8125 C8.21529297 8.55048828 8.49308594 9.28847656 8.77929688 10.04882812 C9.18051758 11.11713867 9.18051758 11.11713867 9.58984375 12.20703125 C9.83597412 12.8616333 10.08210449 13.51623535 10.33569336 14.19067383 C10.92037033 15.78311815 11.46355559 17.39066676 12 19 C10.54176788 19.0270043 9.08339325 19.04639787 7.625 19.0625 C6.81289062 19.07410156 6.00078125 19.08570312 5.1640625 19.09765625 C3 19 3 19 1 18 C-0.400189 14.37183731 -0.09801152 10.58524417 -0.0625 6.75 C-0.05347656 5.48671875 -0.04445313 4.2234375 -0.03515625 2.921875 C-0.02355469 1.95765625 -0.01195313 0.9934375 0 0 Z " fill="#FCFCFB" transform="translate(102,106)"/>
<path d="M0 0 C3.94077468 0.42222586 3.96251797 0.73601869 6.5 3.375 C8.53597725 4.033947 10.5675062 4.50106277 12.66015625 4.9453125 C14.5 5.375 14.5 5.375 16.5 6.375 C16.5 7.035 16.5 7.695 16.5 8.375 C12.62506384 8.43334395 8.75024164 8.46871201 4.875 8.5 C3.78058594 8.51675781 2.68617187 8.53351562 1.55859375 8.55078125 C-8.48079979 8.61162606 -8.48079979 8.61162606 -13.5 6.375 C-13.5 6.045 -13.5 5.715 -13.5 5.375 C-12.406875 5.106875 -11.31375 4.83875 -10.1875 4.5625 C-6.58710584 3.73645597 -6.58710584 3.73645597 -5 1.75 C-3.5 0.375 -3.5 0.375 0 0 Z " fill="#FDFDFC" transform="translate(103.5,1.625)"/>
<path d="M0 0 C9.9 0 19.8 0 30 0 C30 3.96 30 7.92 30 12 C29.67 12 29.34 12 29 12 C29 8.37 29 4.74 29 1 C27.02043559 1.14033111 25.04134859 1.2874123 23.0625 1.4375 C21.96035156 1.51871094 20.85820312 1.59992188 19.72265625 1.68359375 C17.08890097 1.70418084 17.08890097 1.70418084 16 3 C13.98035801 3.07244053 11.95832876 3.08377188 9.9375 3.0625 C8.28041016 3.04896484 8.28041016 3.04896484 6.58984375 3.03515625 C5.73519531 3.02355469 4.88054687 3.01195312 4 3 C4 3.66 4 4.32 4 5 C6.64 5 9.28 5 12 5 C11.67 5.66 11.34 6.32 11 7 C8.69 7 6.38 7 4 7 C4 7.99 4 8.98 4 10 C4.99 10.33 5.98 10.66 7 11 C6.67 11.33 6.34 11.66 6 12 C4.02 12 2.04 12 0 12 C0 8.04 0 4.08 0 0 Z " fill="#4B539E" transform="translate(163,180)"/>
<path d="M0 0 C0.66 0.66 1.32 1.32 2 2 C1.67 2.66 1.34 3.32 1 4 C5.09333905 4.07408587 9.18641933 4.1285704 13.28027344 4.16479492 C14.67324622 4.17989358 16.06617138 4.20037444 17.45898438 4.22631836 C19.45942885 4.26265122 21.46021827 4.27811192 23.4609375 4.29296875 C24.66540527 4.3086792 25.86987305 4.32438965 27.11083984 4.34057617 C28.0642627 4.22818604 29.01768555 4.1157959 30 4 C30.66 3.01 31.32 2.02 32 1 C32.99 1.33 33.98 1.66 35 2 C34.67 3.65 34.34 5.3 34 7 C32.91058105 7.00410889 31.82116211 7.00821777 30.69873047 7.01245117 C26.63917362 7.03429807 22.58057838 7.0886443 18.52148438 7.15258789 C16.76799772 7.17571968 15.01437308 7.19015229 13.26074219 7.19555664 C10.73285416 7.20488199 8.20712183 7.24594635 5.6796875 7.29296875 C4.90132538 7.2890361 4.12296326 7.28510345 3.3210144 7.28105164 C-2.47824324 7.43492591 -4.82150183 9.02651606 -9 13 C-9.66 13 -10.32 13 -11 13 C-9.69425831 10.08719163 -8.2925792 8.19705507 -6 6 C-5.34 5.01 -4.68 4.02 -4 3 C-2.69481525 1.96352976 -1.36538653 0.95577057 0 0 Z " fill="#343A6E" transform="translate(163,164)"/>
<path d="M0 0 C1 1 1 1 1 9 C-5.93 9 -12.86 9 -20 9 C-16.54995165 4.39993553 -15.3091538 4.39714574 -10 3 C-9.319375 2.46375 -8.63875 1.9275 -7.9375 1.375 C-5.24255588 -0.53754099 -3.22232387 -0.28642879 0 0 Z " fill="#FAB698" transform="translate(49,53)"/>
<path d="M0 0 C2.97 0 5.94 0 9 0 C10.10228696 4.40914783 10.07654536 8.48382401 10 13 C6.7 13 3.4 13 0 13 C0 8.71 0 4.42 0 0 Z " fill="#FAE4DA" transform="translate(58,125)"/>
<path d="M0 0 C5.28 0 10.56 0 16 0 C15.67 2.64 15.34 5.28 15 8 C10.05 8 5.1 8 0 8 C0 5.36 0 2.72 0 0 Z " fill="#E17668" transform="translate(106,139)"/>
<path d="M0 0 C2.475 0.99 2.475 0.99 5 2 C5.19412181 3.47831221 5.38012131 4.95769316 5.5625 6.4375 C5.66691406 7.26121094 5.77132812 8.08492187 5.87890625 8.93359375 C5.91886719 9.61550781 5.95882812 10.29742187 6 11 C5.67 11.33 5.34 11.66 5 12 C5.21342498 18.69378337 5.92408661 25.39081775 7 32 C6.34 31.67 5.68 31.34 5 31 C4.5859375 28.49609375 4.5859375 28.49609375 4.375 25.4375 C4.30023438 24.42558594 4.22546875 23.41367188 4.1484375 22.37109375 C4.09945312 21.58863281 4.05046875 20.80617187 4 20 C2.68 20.33 1.36 20.66 0 21 C-1.09016409 17.46994485 -1.13344314 14.18121037 -1.125 10.5 C-1.12757812 9.3759375 -1.13015625 8.251875 -1.1328125 7.09375 C-1.02266367 4.5279301 -0.75270662 2.43733573 0 0 Z " fill="#3A4079" transform="translate(68,113)"/>
<path d="M0 0 C0.66 0 1.32 0 2 0 C2.66 0.99 3.32 1.98 4 3 C6.05003955 4.19232613 6.05003955 4.19232613 8 5 C4.7080846 7.19461027 3.8681092 7.23093474 0.06958008 7.13525391 C-0.93123093 7.11508209 -1.93204193 7.09491028 -2.96318054 7.0741272 C-4.04138565 7.04193085 -5.11959076 7.0097345 -6.23046875 6.9765625 C-7.33602615 6.95153656 -8.44158356 6.92651062 -9.5806427 6.90072632 C-13.11657079 6.81846385 -16.65194559 6.72189736 -20.1875 6.625 C-22.58265959 6.5667669 -24.97784197 6.50946349 -27.37304688 6.453125 C-33.24900515 6.31287568 -39.12457226 6.16087646 -45 6 C-45 5.34 -45 4.68 -45 4 C-42.4047315 3.33264524 -40.47748168 2.89718676 -37.83325195 3.46655273 C-34.16571865 4.15707925 -30.57142025 4.12358179 -26.85546875 4.09765625 C-26.08568192 4.0962413 -25.31589508 4.09482635 -24.52278137 4.09336853 C-22.07764712 4.08779606 -19.63260632 4.07524871 -17.1875 4.0625 C-15.52408987 4.05748144 -13.8606783 4.05291915 -12.19726562 4.04882812 C-8.13147472 4.03783566 -4.06575317 4.0205901 0 4 C0 2.68 0 1.36 0 0 Z " fill="#F7E2D9" transform="translate(196,58)"/>
<path d="M0 0 C3.0530576 1.22520746 6.03211371 2.58200988 9 4 C9 4.66 9 5.32 9 6 C0.75 6 -7.5 6 -16 6 C-16 5.34 -16 4.68 -16 4 C-12.535 3.505 -12.535 3.505 -9 3 C-8.67 2.01 -8.34 1.02 -8 0 C-5.00108062 -1.49945969 -3.25913605 -0.77034125 0 0 Z " fill="#FDFAF8" transform="translate(216,14)"/>
<path d="M0 0 C5.28 0 10.56 0 16 0 C16 1.98 16 3.96 16 6 C10.06 6 4.12 6 -2 6 C-1.34 4.02 -0.68 2.04 0 0 Z " fill="#5058A7" transform="translate(217,189)"/>
<path d="M0 0 C0.70123016 3.5807878 1.3835758 7.1649217 2.0625 10.75 C2.26166016 11.76578125 2.46082031 12.7815625 2.66601562 13.828125 C2.84970703 14.8078125 3.03339844 15.7875 3.22265625 16.796875 C3.39547119 17.69760742 3.56828613 18.59833984 3.74633789 19.52636719 C4.000207 22.0020186 3.7687064 23.65317049 3 26 C-5 9.08300395 -5 9.08300395 -5 2 C-5.66 1.67 -6.32 1.34 -7 1 C-4.53721199 -0.231394 -2.7204945 -0.07159196 0 0 Z " fill="#F5CCBB" transform="translate(33,120)"/>
<path d="M0 0 C1.48873294 2.36445821 2.00636486 3.73904068 1.9375 6.5625 C0.68454981 9.8201705 -0.89062447 10.55906988 -4 12 C-4.66 12 -5.32 12 -6 12 C-10 5.375 -10 5.375 -10 2 C-6.5980513 -0.09350689 -3.94727588 -0.17942163 0 0 Z " fill="#A2A0B0" transform="translate(168,71)"/>
<path d="M0 0 C4 1 4 1 6 3 C8.25796058 3.53985395 10.51487255 3.88698191 12.80859375 4.2421875 C15 5 15 5 18 9 C12.06 9 6.12 9 0 9 C0 6.03 0 3.06 0 0 Z " fill="#FAB698" transform="translate(218,56)"/>
<path d="M0 0 C1.98 0 3.96 0 6 0 C6 4.95 6 9.9 6 15 C4.02 15 2.04 15 0 15 C0 10.05 0 5.1 0 0 Z " fill="#FC9B6D" transform="translate(165,147)"/>
<path d="M0 0 C8.91 0 17.82 0 27 0 C27 0.33 27 0.66 27 1 C22.05 1 17.1 1 12 1 C12 7.6 12 14.2 12 21 C13.32 21 14.64 21 16 21 C16 21.99 16 22.98 16 24 C13.69 24 11.38 24 9 24 C9.15847412 23.4337793 9.31694824 22.86755859 9.48022461 22.28417969 C10.00785848 19.9654655 10.204156 17.82641603 10.31640625 15.453125 C10.35830078 14.60878906 10.40019531 13.76445312 10.44335938 12.89453125 C10.48267578 12.02183594 10.52199219 11.14914063 10.5625 10.25 C10.60568359 9.36183594 10.64886719 8.47367188 10.69335938 7.55859375 C10.79913495 5.37256528 10.9000426 3.18630223 11 1 C7.7 1 4.4 1 1 1 C1 5.95 1 10.9 1 16 C0.67 16 0.34 16 0 16 C0 10.72 0 5.44 0 0 Z " fill="#6B598C" transform="translate(188,146)"/>
<path d="M0 0 C0.33 0 0.66 0 1 0 C1 14.52 1 29.04 1 44 C3.97 44 6.94 44 10 44 C10 45.32 10 46.64 10 48 C6.7 48 3.4 48 0 48 C0 32.16 0 16.32 0 0 Z " fill="#E4C0BC" transform="translate(233,71)"/>
<path d="M0 0 C2.5625 0.3125 2.5625 0.3125 4.4375 1.5 C5.5625 3.3125 5.5625 3.3125 5.4375 5.875 C4.5625 8.3125 4.5625 8.3125 1.5625 10.3125 C-2.97804054 9.77195946 -2.97804054 9.77195946 -4.4375 8.3125 C-4.625 5.375 -4.625 5.375 -4.4375 2.3125 C-2.4375 0.3125 -2.4375 0.3125 0 0 Z " fill="#E58778" transform="translate(178.4375,3.6875)"/>
<path d="M0 0 C1.65 0 3.3 0 5 0 C5 4.95 5 9.9 5 15 C3.35 15 1.7 15 0 15 C0 10.05 0 5.1 0 0 Z " fill="#FD9B6D" transform="translate(183,147)"/>
<path d="M0 0 C3.125 0.25 3.125 0.25 5 1.625 C6.125 3.25 6.125 3.25 6.125 5.25 C-0.145 5.25 -6.415 5.25 -12.875 5.25 C-12.215 4.26 -11.555 3.27 -10.875 2.25 C-8.55343403 1.84270772 -6.2181213 1.50561323 -3.875 1.25 C-2.875 0.25 -2.875 0.25 0 0 Z " fill="#FDFCFA" transform="translate(29.875,70.75)"/>
<path d="M0 0 C0.66 0.66 1.32 1.32 2 2 C1.34 2.99 0.68 3.98 0 5 C0.495 5.99 0.495 5.99 1 7 C-14.51 7 -30.02 7 -46 7 C-46 6.67 -46 6.34 -46 6 C-44.17625854 5.99383667 -44.17625854 5.99383667 -42.31567383 5.98754883 C-37.7958767 5.9657433 -33.27694837 5.91143887 -28.75756836 5.84741211 C-26.80322611 5.82424449 -24.84875923 5.80983929 -22.89428711 5.80444336 C-20.08107957 5.79514468 -17.26982888 5.75413525 -14.45703125 5.70703125 C-13.58601273 5.7109639 -12.7149942 5.71489655 -11.81758118 5.71894836 C-7.6314128 5.61872655 -4.96709114 5.49254439 -1.90893555 2.45581055 C-1.27898682 1.64539307 -0.64903809 0.83497559 0 0 Z " fill="#E78773" transform="translate(187,140)"/>
<path d="M0 0 C0.66 0 1.32 0 2 0 C2.84511824 1.72343755 3.67563354 3.45404053 4.5 5.1875 C4.9640625 6.15042969 5.428125 7.11335937 5.90625 8.10546875 C6.99592921 10.98922693 7.22277524 12.95354861 7 16 C6.34 16 5.68 16 5 16 C3.9615789 14.28133783 2.94485365 12.54955402 1.9375 10.8125 C1.36902344 9.84957031 0.80054688 8.88664063 0.21484375 7.89453125 C-1.13815174 4.67083459 -1.04769518 3.27479579 0 0 Z " fill="#3C3960" transform="translate(39,165)"/>
<path d="M0 0 C1.37478516 0.01740234 1.37478516 0.01740234 2.77734375 0.03515625 C3.69644531 0.04417969 4.61554688 0.05320313 5.5625 0.0625 C6.27277344 0.07410156 6.98304687 0.08570313 7.71484375 0.09765625 C8.27734375 2.03515625 8.27734375 2.03515625 8.71484375 4.09765625 C7.71484375 5.09765625 7.71484375 5.09765625 5.4296875 5.1953125 C4.05490234 5.17791016 4.05490234 5.17791016 2.65234375 5.16015625 C1.73324219 5.15113281 0.81414062 5.14210937 -0.1328125 5.1328125 C-0.84308594 5.12121094 -1.55335937 5.10960937 -2.28515625 5.09765625 C-2.84765625 3.16015625 -2.84765625 3.16015625 -3.28515625 1.09765625 C-2.28515625 0.09765625 -2.28515625 0.09765625 0 0 Z " fill="#FC9A6B" transform="translate(98.28515625,184.90234375)"/>
<path d="M0 0 C0.75 2 0.75 2 1 4 C0.67 4.33 0.34 4.66 0 5 C0.66 5.66 1.32 6.32 2 7 C-1.75 10 -1.75 10 -4 10 C-7 4.375 -7 4.375 -7 1 C-3.375 -1.125 -3.375 -1.125 0 0 Z " fill="#E0796C" transform="translate(183,49)"/>
<path d="M0 0 C3.375 -0.125 3.375 -0.125 7 0 C9 2 9 2 9 5 C8.34 5 7.68 5 7 5 C7 4.34 7 3.68 7 3 C5.68 2.67 4.36 2.34 3 2 C3 3.65 3 5.3 3 7 C4.32 7.33 5.64 7.66 7 8 C6 9 6 9 2.9375 9.0625 C1.968125 9.041875 0.99875 9.02125 0 9 C0 6.03 0 3.06 0 0 Z " fill="#5B5FA7" transform="translate(150,15)"/>
<path d="M0 0 C5.61 0 11.22 0 17 0 C16.67 0.99 16.34 1.98 16 3 C10.72 3 5.44 3 0 3 C0 2.01 0 1.02 0 0 Z " fill="#FD9C6E" transform="translate(0,176)"/>
<path d="M0 0 C3.81627112 2.36150458 6.60051733 4.34532461 7.6875 8.84765625 C7.91308587 11.57936011 8.03413012 14.25983923 8 17 C7.01 17 6.02 17 5 17 C4.89042969 16.41992188 4.78085938 15.83984375 4.66796875 15.2421875 C3.68125712 10.38082776 2.36364178 6.40496877 0 2 C0 1.34 0 0.68 0 0 Z " fill="#DC776E" transform="translate(96,79)"/>
<path d="M0 0 C0.66 0.66 1.32 1.32 2 2 C0.92173635 3.27513763 -0.16285519 4.54492569 -1.25 5.8125 C-1.85328125 6.52019531 -2.4565625 7.22789062 -3.078125 7.95703125 C-4.93811214 9.9342127 -6.73103544 11.51392197 -9 13 C-9.66 13 -10.32 13 -11 13 C-9.69425831 10.08719163 -8.2925792 8.19705507 -6 6 C-5.34 5.01 -4.68 4.02 -4 3 C-2.69481525 1.96352976 -1.36538653 0.95577057 0 0 Z " fill="#393C66" transform="translate(163,164)"/>
<path d="M0 0 C0.33 3.3 0.66 6.6 1 10 C-3.53460431 8.86634892 -4.90024653 7.35806626 -8 4 C-7.01 3.67 -6.02 3.34 -5 3 C-4.34 3.33 -3.68 3.66 -3 4 C-3 3.01 -3 2.02 -3 1 C-1 0 -1 0 0 0 Z " fill="#43456B" transform="translate(187,78)"/>
<path d="M0 0 C0.33 0 0.66 0 1 0 C1 2.64 1 5.28 1 8 C1.99 7.67 2.98 7.34 4 7 C4.33 9.97 4.66 12.94 5 16 C3.68 16.33 2.36 16.66 1 17 C-0.13480527 13.39006828 -0.10015767 10.0157673 -0.0625 6.25 C-0.05347656 5.07953125 -0.04445313 3.9090625 -0.03515625 2.703125 C-0.02355469 1.81109375 -0.01195313 0.9190625 0 0 Z " fill="#4B4D72" transform="translate(67,117)"/>
<path d="M0 0 C3.3 0 6.6 0 10 0 C10 1.32 10 2.64 10 4 C6.7 4 3.4 4 0 4 C0 2.68 0 1.36 0 0 Z " fill="#A9A9C0" transform="translate(233,115)"/>
<path d="M0 0 C1.32 0 2.64 0 4 0 C5.61949011 2.57213134 6.04408751 3.67669159 5.625 6.75 C5.41875 7.4925 5.2125 8.235 5 9 C4.01 9 3.02 9 2 9 C2 8.34 2 7.68 2 7 C1.01 6.34 0.02 5.68 -1 5 C-0.34 4.01 0.32 3.02 1 2 C0.34 1.67 -0.32 1.34 -1 1 C-0.67 0.67 -0.34 0.34 0 0 Z " fill="#9292A6" transform="translate(164,71)"/>
<path d="M0 0 C1.32 0.33 2.64 0.66 4 1 C3.67 4.3 3.34 7.6 3 11 C2.01 11.33 1.02 11.66 0 12 C0 8.04 0 4.08 0 0 Z " fill="#2C315E" transform="translate(68,113)"/>
<path d="M0 0 C0.66 0.99 1.32 1.98 2 3 C-0.0625 5.5 -0.0625 5.5 -3 8 C-6.8125 8.3125 -6.8125 8.3125 -10 8 C-10.33 6.35 -10.66 4.7 -11 3 C-8.03 3.33 -5.06 3.66 -2 4 C-1.34 2.68 -0.68 1.36 0 0 Z " fill="#DE755F" transform="translate(94,187)"/>
<path d="M0 0 C0 1.65 0 3.3 0 5 C-2.33214148 6.20628008 -4.49642139 7.1654738 -7 8 C-7.33 8.99 -7.66 9.98 -8 11 C-8.66 10.67 -9.32 10.34 -10 10 C-9.34 8.68 -8.68 7.36 -8 6 C-7.34 6 -6.68 6 -6 6 C-5.731875 5.38125 -5.46375 4.7625 -5.1875 4.125 C-4.0059864 2.01071251 -2.76412485 0 0 0 Z " fill="#393C67" transform="translate(105,157)"/>
<path d="M0 0 C0 4.95 0 9.9 0 15 C-0.33 15 -0.66 15 -1 15 C-1.33 11.37 -1.66 7.74 -2 4 C-3.32 4.99 -4.64 5.98 -6 7 C-6 3 -6 3 -4.6875 1.25 C-3 0 -3 0 0 0 Z " fill="#EF8958" transform="translate(183,147)"/>
<path d="M0 0 C0.66 0.33 1.32 0.66 2 1 C2.6328125 3.28515625 2.6328125 3.28515625 3.125 6.0625 C3.29257813 6.98160156 3.46015625 7.90070313 3.6328125 8.84765625 C3.75398438 9.55792969 3.87515625 10.26820313 4 11 C2.35 11 0.7 11 -1 11 C-0.67 7.37 -0.34 3.74 0 0 Z " fill="#CA7873" transform="translate(86,135)"/>
<path d="M0 0 C1.76462683 3.08809695 2 4.23312136 2 8 C1.01 8.33 0.02 8.66 -1 9 C-3 6 -3 6 -2.75 3.375 C-2.5025 2.59125 -2.255 1.8075 -2 1 C-1.34 0.67 -0.68 0.34 0 0 Z " fill="#D46E66" transform="translate(44,162)"/>
<path d="M0 0 C0.33 1.32 0.66 2.64 1 4 C-0.49739583 5.23697917 -1.99479167 6.47395833 -3.4921875 7.7109375 C-4.71051161 8.75250992 -5.86660097 9.86660097 -7 11 C-7 7 -7 7 -5.46875 5.078125 C-4.8190625 4.47484375 -4.169375 3.8715625 -3.5 3.25 C-2.8503125 2.63640625 -2.200625 2.0228125 -1.53125 1.390625 C-1.0259375 0.93171875 -0.520625 0.4728125 0 0 Z " fill="#5961AC" transform="translate(232,95)"/>
<path d="M0 0 C0.66 0.66 1.32 1.32 2 2 C-3.0940919 8.86214442 -3.0940919 8.86214442 -6.875 9.4375 C-7.57625 9.293125 -8.2775 9.14875 -9 9 C-7.82699834 6.65399667 -6.50774408 5.61199148 -4.5 3.9375 C-2.19073053 2.03359604 -2.19073053 2.03359604 0 0 Z " fill="#EE8958" transform="translate(41,186)"/>
<path d="M0 0 C0.74958984 0.01353516 1.49917969 0.02707031 2.27148438 0.04101562 C4.11879767 0.07631461 5.96574066 0.13012083 7.8125 0.1875 C7.8125 0.5175 7.8125 0.8475 7.8125 1.1875 C3.1925 1.1875 -1.4275 1.1875 -6.1875 1.1875 C-6.1875 2.5075 -6.1875 3.8275 -6.1875 5.1875 C-8.6625 4.1975 -8.6625 4.1975 -11.1875 3.1875 C-8.45797954 -0.92296361 -4.41882331 -0.15051014 0 0 Z " fill="#F4D1C6" transform="translate(192.1875,51.8125)"/>
<path d="M0 0 C0.66 0 1.32 0 2 0 C2.66 0.99 3.32 1.98 4 3 C6.05003955 4.19232613 6.05003955 4.19232613 8 5 C5 7 5 7 2 7 C0.5393715 4.35261084 0 3.10551666 0 0 Z " fill="#666CAE" transform="translate(196,58)"/>
<path d="M0 0 C2.32590854 3.63423209 2.16265833 6.77088331 2 11 C1.01 11.495 1.01 11.495 0 12 C-1.28571429 3.42857143 -1.28571429 3.42857143 0 0 Z " fill="#23274A" transform="translate(88,127)"/>
<path d="M0 0 C1.32 0.33 2.64 0.66 4 1 C4 1.66 4 2.32 4 3 C4.66 3 5.32 3 6 3 C5.67 3.99 5.34 4.98 5 6 C3.35 5.67 1.7 5.34 0 5 C0 3.35 0 1.7 0 0 Z " fill="#A896B1" transform="translate(153,17)"/>
<path d="M0 0 C0.66 0.66 1.32 1.32 2 2 C0.1875 4.5 0.1875 4.5 -2 7 C-2.99 7 -3.98 7 -5 7 C-4.60196439 4.11424181 -4.20990931 3.17810487 -1.9375 1.25 C-1.298125 0.8375 -0.65875 0.425 0 0 Z " fill="#40426D" transform="translate(163,164)"/>
<path d="M0 0 C-0.33 1.65 -0.66 3.3 -1 5 C-2.98 5.66 -4.96 6.32 -7 7 C-3.86206897 0 -3.86206897 0 0 0 Z " fill="#3E3F68" transform="translate(85,144)"/>
<path d="M0 0 C0.66 0 1.32 0 2 0 C2.33 2.31 2.66 4.62 3 7 C2.34 7 1.68 7 1 7 C0.67 7.66 0.34 8.32 0 9 C-0.87890625 2.84765625 -0.87890625 2.84765625 -1 1 C-0.67 0.67 -0.34 0.34 0 0 Z " fill="#2C305D" transform="translate(70,133)"/>
<path d="M0 0 C0.33 0.99 0.66 1.98 1 3 C0.01 3.33 -0.98 3.66 -2 4 C-3.20882096 6.00016466 -3.20882096 6.00016466 -4 8 C-4.33 6.68 -4.66 5.36 -5 4 C-3.35 2.68 -1.7 1.36 0 0 Z " fill="#E3786A" transform="translate(56,105)"/>
<path d="M0 0 C0.99 0.33 1.98 0.66 3 1 C2.34 1 1.68 1 1 1 C1 1.99 1 2.98 1 4 C2.32 3.67 3.64 3.34 5 3 C4.67 3.99 4.34 4.98 4 6 C2.35 5.67 0.7 5.34 -1 5 C-0.67 3.35 -0.34 1.7 0 0 Z " fill="#4F4969" transform="translate(179,23)"/>
<path d="M0 0 C0.33 0 0.66 0 1 0 C1 3.3 1 6.6 1 10 C-2 6 -2 6 -1.75 3.3125 C-1 1 -1 1 0 0 Z " fill="#FCFAF9" transform="translate(133,126)"/>
<path d="M0 0 C0.66 0.66 1.32 1.32 2 2 C0.824375 2.928125 0.824375 2.928125 -0.375 3.875 C-2.96837647 5.89858661 -2.96837647 5.89858661 -5 8 C-4.67 6.35 -4.34 4.7 -4 3 C-3.34 3 -2.68 3 -2 3 C-2 2.34 -2 1.68 -2 1 C-1.34 0.67 -0.68 0.34 0 0 Z " fill="#5A61AE" transform="translate(228,133)"/>
<path d="M0 0 C1.65 0 3.3 0 5 0 C0.375 4.875 0.375 4.875 -3 6 C-2 4 -1 2 0 0 Z " fill="#5D61AC" transform="translate(89,104)"/>
<path d="M0 0 C0 4.38968456 -2.12805101 5.76905739 -5 9 C-5.33 8.01 -5.66 7.02 -6 6 C-5.34 6 -4.68 6 -4 6 C-3.71125 5.38125 -3.4225 4.7625 -3.125 4.125 C-2 2 -2 2 0 0 Z " fill="#E3796C" transform="translate(217,77)"/>
<path d="M0 0 C0 1.98 0 3.96 0 6 C-0.99 6.495 -0.99 6.495 -2 7 C-2.66 5.02 -3.32 3.04 -4 1 C-2 0 -2 0 0 0 Z " fill="#EBB7AF" transform="translate(93,63)"/>
<path d="M0 0 C0.99 0.33 1.98 0.66 3 1 C3 2.65 3 4.3 3 6 C2.34 6 1.68 6 1 6 C0.34 4.35 -0.32 2.7 -1 1 C-0.67 0.67 -0.34 0.34 0 0 Z " fill="#483B59" transform="translate(43,175)"/>
<path d="M0 0 C-0.33 0.99 -0.66 1.98 -1 3 C-1.99 3.33 -2.98 3.66 -4 4 C-4 3.34 -4 2.68 -4 2 C-4.99 1.67 -5.98 1.34 -7 1 C-3.375 -1.125 -3.375 -1.125 0 0 Z " fill="#E6988D" transform="translate(183,49)"/>
</svg>
