<?xml version="1.0" encoding="UTF-8"?>
<svg version="1.1" xmlns="http://www.w3.org/2000/svg" width="266" height="195">
<path d="M0 0 C87.78 0 175.56 0 266 0 C266 64.35 266 128.7 266 195 C178.22 195 90.44 195 0 195 C0 130.65 0 66.3 0 0 Z " fill="#F9DACC" transform="translate(0,0)"/>
<path d="M0 0 C6.06604785 0.30330239 9.70467346 2.97554991 14 7 C17.14389974 10.5595008 20.10614116 14.235304 23 18 C27.27234148 15.80311123 31.38966864 13.48750002 35.28125 10.6640625 C35.84497314 10.25663818 36.40869629 9.84921387 36.98950195 9.42944336 C38.63061802 8.2291044 40.25893291 7.01132372 41.88671875 5.79296875 C45.28969361 3.83316265 47.14477112 3.61274313 51 4 C51.33 5.32 51.66 6.64 52 8 C51.34 8 50.68 8 50 8 C50 8.66 50 9.32 50 10 C49.08992187 10.21140625 48.17984375 10.4228125 47.2421875 10.640625 C43.20279196 12.33425108 42.29729218 14.00209676 40.125 17.75 C36.42038958 23.609764 32.89737985 28.51033973 26.03515625 30.59765625 C21.37614411 31.10507341 18.73144671 29.39412592 15.0625 26.625 C11.20441176 23.40882353 11.20441176 23.40882353 10 21 C10.07318451 21.58731903 10.14636902 22.17463806 10.22177124 22.77975464 C11.20304598 31.7983379 11.04887172 40.76765584 10.9140625 49.8203125 C10.89223802 51.5318048 10.87079107 53.24330196 10.84970093 54.95480347 C10.8044709 58.52347663 10.75528824 62.09206615 10.703125 65.66064453 C10.63680206 70.21400459 10.57952312 74.76742401 10.52509499 79.32094002 C10.48207572 82.84875171 10.43470181 86.37649464 10.38599777 89.90423203 C10.36325358 91.58259344 10.34172794 93.26097186 10.32149124 94.93936539 C10.12265009 111.0084285 10.12265009 111.0084285 9 119 C14.61 119 20.22 119 26 119 C25.938125 116.751875 25.87625 114.50375 25.8125 112.1875 C25.62892142 105.51747834 25.62892142 105.51747834 27.21289062 103.30859375 C29.56620054 101.58540507 30.98921427 101.65434935 33.88671875 101.70703125 C35.2934082 101.7215332 35.2934082 101.7215332 36.72851562 101.73632812 C37.70498047 101.76146484 38.68144531 101.78660156 39.6875 101.8125 C40.67556641 101.82603516 41.66363281 101.83957031 42.68164062 101.85351562 C45.12164231 101.88887797 47.56054719 101.93822967 50 102 C50 100.02 50 98.04 50 96 C54.62 96 59.24 96 64 96 C63.89558594 93.95619141 63.89558594 93.95619141 63.7890625 91.87109375 C63.73275737 90.0599454 63.67816018 88.24874339 63.625 86.4375 C63.57472656 85.54224609 63.52445313 84.64699219 63.47265625 83.72460938 C63.36296857 78.73381989 63.67679362 75.74328298 66.9609375 71.84765625 C68.60302734 70.16430664 68.60302734 70.16430664 70 69 C70.33 69 70.66 69 71 69 C71.69037426 78.02417777 72.15178302 86.94361322 72 96 C73.65 96 75.3 96 77 96 C77.14695313 94.7625 77.14695313 94.7625 77.296875 93.5 C78.51277984 84.10818329 80.55544776 75.13740399 83 66 C85.31 66 87.62 66 90 66 C90.37322228 72.5780426 88.96749151 78.54796264 87.5 84.9375 C87.26152344 86.00291016 87.02304688 87.06832031 86.77734375 88.16601562 C86.19149341 90.77890813 85.59888542 93.39007007 85 96 C85.99 96 86.98 96 88 96 C88 118.11 88 140.22 88 163 C23.98 163 -40.04 163 -106 163 C-106 156.73 -106 150.46 -106 144 C-103.36 144 -100.72 144 -98 144 C-98 140.04 -98 136.08 -98 132 C-88.1 131.505 -88.1 131.505 -78 131 C-80.64 130.01 -83.28 129.02 -86 128 C-86.33 127.01 -86.66 126.02 -87 125 C-72.81 125 -58.62 125 -44 125 C-44 123.02 -44 121.04 -44 119 C-41.36 118.67 -38.72 118.34 -36 118 C-35.87995605 116.95473145 -35.75991211 115.90946289 -35.63623047 114.83251953 C-33.41874006 95.71987069 -31.0338182 76.95747007 -26.234375 58.29296875 C-24.9995353 53.31991596 -23.81039401 48.15033075 -24 43 C-24.66 42.34 -25.32 41.68 -26 41 C-25.45652174 34.91304348 -25.45652174 34.91304348 -24 32 C-24.71027344 32.01160156 -25.42054687 32.02320313 -26.15234375 32.03515625 C-27.07144531 32.04417969 -27.99054688 32.05320313 -28.9375 32.0625 C-30.31228516 32.07990234 -30.31228516 32.07990234 -31.71484375 32.09765625 C-34 32 -34 32 -35 31 C-34.72686712 24.67697377 -33.27269262 20.89193072 -29.5 15.875 C-29.05438721 15.26970459 -28.60877441 14.66440918 -28.1496582 14.04077148 C-24.60703628 9.41399319 -20.65664295 4.94151938 -15 3 C-10.60942892 3.47575848 -6.987301 5.20180543 -3 7 C-2.67 6.01 -2.34 5.02 -2 4 C-1.01 4.495 -1.01 4.495 0 5 C0 3.35 0 1.7 0 0 Z " fill="#8F8C9F" transform="translate(147,32)"/>
<path d="M0 0 C11.55 0 23.1 0 35 0 C35.2475 2.701875 35.495 5.40375 35.75 8.1875 C37.32661221 23.60806326 39.80944905 38.46390141 45.73046875 52.84765625 C47 56 47 56 48 60 C51.63 60 55.26 60 59 60 C58.05847208 51.27148239 56.9495166 42.83861155 54.5859375 34.35546875 C54 32 54 32 54 29 C55.32 29 56.64 29 58 29 C58.19335938 29.55429687 58.38671875 30.10859375 58.5859375 30.6796875 C58.97652344 31.76636719 58.97652344 31.76636719 59.375 32.875 C59.63023438 33.59429687 59.88546875 34.31359375 60.1484375 35.0546875 C60.93877783 37.18157994 60.93877783 37.18157994 63 39 C63.01171875 41.06640625 63.01171875 41.06640625 62.6875 43.5625 C62.57792969 44.45066406 62.46835937 45.33882812 62.35546875 46.25390625 C62.23816406 47.16011719 62.12085938 48.06632812 62 49 C61.83159135 50.66649155 61.6647942 52.33314715 61.5 54 C61.2617504 56.38249603 61.07640376 57.84719248 60 60 C60.69867188 59.97679687 61.39734375 59.95359375 62.1171875 59.9296875 C63.02726562 59.91164062 63.93734375 59.89359375 64.875 59.875 C66.23238281 59.84019531 66.23238281 59.84019531 67.6171875 59.8046875 C70 60 70 60 72 62 C71.625 64.125 71.625 64.125 71 66 C70.34 66 69.68 66 69 66 C69.99 71.94 70.98 77.88 72 84 C70.68 84.33 69.36 84.66 68 85 C68 108.76 68 132.52 68 157 C65.36 157 62.72 157 60 157 C62.23775234 160.3566285 62.93320048 160.57996014 66.625 161.6875 C67.44226563 161.93886719 68.25953125 162.19023437 69.1015625 162.44921875 C69.72804688 162.63097656 70.35453125 162.81273437 71 163 C71 163.33 71 163.66 71 164 C63.74 164 56.48 164 49 164 C49 167.96 49 171.92 49 176 C46.36 176 43.72 176 41 176 C41 182.27 41 188.54 41 195 C27.47 195 13.94 195 0 195 C0 130.65 0 66.3 0 0 Z " fill="#F9DED2" transform="translate(0,0)"/>
<path d="M0 0 C52.8 0 105.6 0 160 0 C160 3.96 160 7.92 160 12 C165.61 12 171.22 12 177 12 C177 18.27 177 24.54 177 31 C115.95 31 54.9 31 -8 31 C-8 24.73 -8 18.46 -8 12 C-5.36 12 -2.72 12 0 12 C0 8.04 0 4.08 0 0 Z " fill="#D96D5F" transform="translate(49,164)"/>
<path d="M0 0 C6.93 0 13.86 0 21 0 C21.99 5.61 22.98 11.22 24 17 C22.68 17.33 21.36 17.66 20 18 C20 41.76 20 65.52 20 90 C17.36 90 14.72 90 12 90 C14.23775234 93.3566285 14.93320048 93.57996014 18.625 94.6875 C19.44226563 94.93886719 20.25953125 95.19023437 21.1015625 95.44921875 C21.72804687 95.63097656 22.35453125 95.81273437 23 96 C23 96.33 23 96.66 23 97 C15.74 97 8.48 97 1 97 C1 100.96 1 104.92 1 109 C-1.97 109 -4.94 109 -8 109 C-8 113.95 -8 118.9 -8 124 C-18.49526153 124.370421 -18.49526153 124.370421 -20.6444397 122.79316711 C-22.43680964 120.42217791 -22.38027768 118.97315141 -22.38818359 116.01635742 C-22.39764008 115.00067184 -22.40709656 113.98498627 -22.4168396 112.93852234 C-22.41076691 111.83861465 -22.40469421 110.73870697 -22.3984375 109.60546875 C-22.40130768 108.46652664 -22.40417786 107.32758453 -22.40713501 106.15412903 C-22.40917942 103.73564153 -22.40362337 101.31713764 -22.39111328 98.89868164 C-22.37522798 95.24000734 -22.39086512 91.58246544 -22.41015625 87.92382812 C-22.43021966 65.18059415 -22.43021966 65.18059415 -19 54 C-18.7201123 53.0826709 -18.44022461 52.1653418 -18.15185547 51.22021484 C-16.46266146 45.9848813 -14.10873438 41.10604368 -11.70776367 36.17041016 C-5.87954669 24.18881188 -2.6313668 13.15683398 0 0 Z " fill="#FEFEFE" transform="translate(48,67)"/>
<path d="M0 0 C2.31 0 4.62 0 7 0 C7.37322228 6.5780426 5.96749151 12.54796264 4.5 18.9375 C4.26152344 20.00291016 4.02304688 21.06832031 3.77734375 22.16601562 C3.19149341 24.77890813 2.59888542 27.39007007 2 30 C2.99 30 3.98 30 5 30 C5 52.11 5 74.22 5 97 C2.03 97 -0.94 97 -4 97 C-4 90.73 -4 84.46 -4 78 C-9.61 78 -15.22 78 -21 78 C-21 74.04 -21 70.08 -21 66 C-22.72404053 66.03029297 -24.44808105 66.06058594 -26.22436523 66.09179688 C-96.09914346 67.30714338 -96.09914346 67.30714338 -123.73046875 67.02282715 C-125.27212024 67.00732108 -126.81378902 66.99346303 -128.35546875 66.9810791 C-132.99809938 66.94373827 -137.63943322 66.88433621 -142.28128052 66.79046631 C-143.68651422 66.76409394 -145.09187203 66.74350427 -146.49728394 66.72955322 C-154.38212188 66.64193987 -162.16719619 66.39903492 -169 62 C-169.495 60.515 -169.495 60.515 -170 59 C-155.81 59 -141.62 59 -127 59 C-127 57.02 -127 55.04 -127 53 C-124.36 53 -121.72 53 -119 53 C-118.9729957 54.45823212 -118.95360213 55.91660675 -118.9375 57.375 C-118.92589844 58.18710938 -118.91429687 58.99921875 -118.90234375 59.8359375 C-119 62 -119 62 -120 64 C-115.71 64 -111.42 64 -107 64 C-106.34 60.37 -105.68 56.74 -105 53 C-99.06 53 -93.12 53 -87 53 C-87 53.66 -87 54.32 -87 55 C-89.05078125 55.22786458 -91.1015625 55.45572917 -93.15234375 55.68359375 C-95.01140229 55.81886614 -95.01140229 55.81886614 -96 57 C-96.16666667 59.5 -96.16666667 59.5 -96 62 C-94.44341518 63.55658482 -92.92132264 63.16309399 -90.75561523 63.20532227 C-89.40432777 63.2352401 -89.40432777 63.2352401 -88.02574158 63.26576233 C-87.04658279 63.28247482 -86.06742401 63.29918732 -85.05859375 63.31640625 C-84.06118668 63.33718735 -83.0637796 63.35796844 -82.03614807 63.37937927 C-78.83667157 63.44498637 -75.63711018 63.50381134 -72.4375 63.5625 C-70.27407961 63.60567462 -68.11066794 63.64928855 -65.94726562 63.69335938 C-60.63160126 63.80067903 -55.31585166 63.90242427 -50 64 C-50.79833252 63.0601123 -51.59666504 62.12022461 -52.41918945 61.15185547 C-56.54886607 56.28993122 -57.29221478 52.24455965 -57.3125 45.875 C-57.32925781 44.65554687 -57.34601563 43.43609375 -57.36328125 42.1796875 C-57 39 -57 39 -55.78271484 37.31958008 C-53.4329414 35.58025859 -52.01670876 35.65424166 -49.11328125 35.70703125 C-47.7065918 35.7215332 -47.7065918 35.7215332 -46.27148438 35.73632812 C-45.29501953 35.76146484 -44.31855469 35.78660156 -43.3125 35.8125 C-42.32443359 35.82603516 -41.33636719 35.83957031 -40.31835938 35.85351562 C-37.87835769 35.88887797 -35.43945281 35.93822967 -33 36 C-33 34.02 -33 32.04 -33 30 C-28.38 30 -23.76 30 -19 30 C-19.10441406 27.95619141 -19.10441406 27.95619141 -19.2109375 25.87109375 C-19.26724263 24.0599454 -19.32183982 22.24874339 -19.375 20.4375 C-19.42527344 19.54224609 -19.47554687 18.64699219 -19.52734375 17.72460938 C-19.63703143 12.73381989 -19.32320638 9.74328298 -16.0390625 5.84765625 C-14.39697266 4.16430664 -14.39697266 4.16430664 -13 3 C-12.67 3 -12.34 3 -12 3 C-11.30962574 12.02417777 -10.84821698 20.94361322 -11 30 C-9.35 30 -7.7 30 -6 30 C-5.85304687 28.7625 -5.85304687 28.7625 -5.703125 27.5 C-4.48722016 18.10818329 -2.44455224 9.13740399 0 0 Z " fill="#8C8CA1" transform="translate(230,98)"/>
<path d="M0 0 C4.875 3.75 4.875 3.75 6 6 C6.14977039 8.24655587 6.22150174 10.49863768 6.25 12.75 C6.27578125 13.96171875 6.3015625 15.1734375 6.328125 16.421875 C5.9692623 20.33518727 4.91258368 22.60191443 3 26 C2.31471955 27.65910004 1.64108137 29.32332564 1 31 C2.28777344 30.98839844 3.57554688 30.97679688 4.90234375 30.96484375 C6.58072772 30.9554673 8.25911326 30.94636695 9.9375 30.9375 C11.21270508 30.92493164 11.21270508 30.92493164 12.51367188 30.91210938 C13.32255859 30.90888672 14.13144531 30.90566406 14.96484375 30.90234375 C15.7137085 30.89710693 16.46257324 30.89187012 17.23413086 30.88647461 C19 31 19 31 20 32 C21.20973702 38.98959167 21.09708765 45.92338914 21 53 C20.01 53.33 19.02 53.66 18 54 C18 68.19 18 82.38 18 97 C20.64 97 23.28 97 26 97 C26 97.33 26 97.66 26 98 C23.36 98 20.72 98 18 98 C18 99.98 18 101.96 18 104 C6.45 104 -5.1 104 -17 104 C-17.28967473 86.07136223 -17.28967473 86.07136223 -17.40429688 78.45507812 C-17.48267406 73.24905365 -17.56217757 68.04306281 -17.64819336 62.8371582 C-17.71743764 58.64215862 -17.78179327 54.44711043 -17.84269524 50.25198174 C-17.86685387 48.6479054 -17.89280286 47.04385505 -17.92053413 45.4398365 C-17.95894257 43.20089917 -17.99110248 40.96195574 -18.02172852 38.72290039 C-18.04171402 37.44604874 -18.06169952 36.16919708 -18.08229065 34.85365295 C-18 32 -18 32 -17 31 C-14.30345146 30.92680379 -11.63308542 30.90757463 -8.9375 30.9375 C-8.17888672 30.94201172 -7.42027344 30.94652344 -6.63867188 30.95117188 C-4.75908129 30.9629932 -2.87953101 30.98092922 -1 31 C-1.28875 30.31035156 -1.5775 29.62070313 -1.875 28.91015625 C-4.78861395 21.53507093 -6.7404903 15.63127004 -3.87109375 7.99609375 C-2.65545032 5.28427378 -1.37779879 2.63257983 0 0 Z " fill="#F9A984" transform="translate(85,53)"/>
<path d="M0 0 C13.53 0 27.06 0 41 0 C41 1.32 41 2.64 41 4 C42.010625 3.505 43.02125 3.01 44.0625 2.5 C47.84060832 0.89716617 50.8717825 0.54130917 55 1 C57.86125133 2.27166726 59.48787391 3.32492471 61.375 5.8125 C62.25240516 8.88341805 61.81539773 10.92657779 61 14 C60.05273046 15.69719127 59.05771739 17.36935236 58 19 C56.85502522 21.86852656 56.85502522 21.86852656 57.0625 24.5 C57 27 57 27 55 30 C55.66 30.66 56.32 31.32 57 32 C57.375 34.4375 57.375 34.4375 57 37 C55.4375 38.8125 55.4375 38.8125 53 40 C49.7067913 40.23522919 46.97551695 40.30659104 43.8125 39.3125 C43.214375 39.209375 42.61625 39.10625 42 39 C41.38125 39.474375 40.7625 39.94875 40.125 40.4375 C37.29661269 42.51719655 35.43365126 42.29857837 32 42 C31.34 41.67 30.68 41.34 30 41 C29.01 47.27 28.02 53.54 27 60 C26.34 60 25.68 60 25 60 C25.144375 58.90300781 25.28875 57.80601563 25.4375 56.67578125 C25.62516526 55.22137548 25.81265606 53.76694719 26 52.3125 C26.09539063 51.59126953 26.19078125 50.87003906 26.2890625 50.12695312 C27.02013679 44.58113567 27.02013679 44.58113567 27 39 C26.525625 38.54625 26.05125 38.0925 25.5625 37.625 C23.14743461 35.11333199 23.31735658 32.36397973 23 29 C21.68 29 20.36 29 19 29 C19.27714844 30.02480469 19.55429687 31.04960937 19.83984375 32.10546875 C20.20581291 33.46612331 20.57169365 34.82680166 20.9375 36.1875 C21.11990234 36.86103516 21.30230469 37.53457031 21.49023438 38.22851562 C23.52760692 45.82235873 24.09470163 52.13976473 24 60 C20.37 60 16.74 60 13 60 C8.25104714 49.86034389 4.86013078 40.39644611 2.875 29.375 C2.70613281 28.47265625 2.53726563 27.5703125 2.36328125 26.640625 C1.89226342 24.09638698 1.44302399 21.5492383 1 19 C0.69449219 17.31777344 0.69449219 17.31777344 0.3828125 15.6015625 C-0.16702351 10.42861555 0 5.2020861 0 0 Z " fill="#E07264" transform="translate(35,0)"/>
<path d="M0 0 C6.06604785 0.30330239 9.70467346 2.97554991 14 7 C17.14389974 10.5595008 20.10614116 14.235304 23 18 C27.27234148 15.80311123 31.38966864 13.48750002 35.28125 10.6640625 C35.84497314 10.25663818 36.40869629 9.84921387 36.98950195 9.42944336 C38.63061802 8.2291044 40.25893291 7.01132372 41.88671875 5.79296875 C45.28969361 3.83316265 47.14477112 3.61274313 51 4 C51.495 5.98 51.495 5.98 52 8 C51.34 8 50.68 8 50 8 C50 8.66 50 9.32 50 10 C49.08992188 10.21140625 48.17984375 10.4228125 47.2421875 10.640625 C43.20279196 12.33425108 42.29729218 14.00209676 40.125 17.75 C36.42038958 23.609764 32.89737985 28.51033973 26.03515625 30.59765625 C21.37614411 31.10507341 18.73144671 29.39412592 15.0625 26.625 C11.20441176 23.40882353 11.20441176 23.40882353 10 21 C10.10828125 21.99966797 10.10828125 21.99966797 10.21875 23.01953125 C11.62547435 36.98908552 11.62547435 36.98908552 11 43 C6.62199349 47.37800651 -0.00880336 47.17830596 -5.875 47.3125 C-12.42976498 47.21393211 -19.42114724 46.77224043 -24.78515625 42.6171875 C-26 41 -26 41 -25.75 37.4375 C-25 34 -25 34 -24 32 C-24.71027344 32.01160156 -25.42054687 32.02320313 -26.15234375 32.03515625 C-27.07144531 32.04417969 -27.99054688 32.05320313 -28.9375 32.0625 C-29.85402344 32.07410156 -30.77054687 32.08570313 -31.71484375 32.09765625 C-34 32 -34 32 -35 31 C-34.72686712 24.67697377 -33.27269262 20.89193072 -29.5 15.875 C-29.05438721 15.26970459 -28.60877441 14.66440918 -28.1496582 14.04077148 C-24.60703628 9.41399319 -20.65664295 4.94151938 -15 3 C-10.60942892 3.47575848 -6.987301 5.20180543 -3 7 C-2.67 6.01 -2.34 5.02 -2 4 C-1.34 4.33 -0.68 4.66 0 5 C0 3.35 0 1.7 0 0 Z " fill="#E07163" transform="translate(147,32)"/>
<path d="M0 0 C52.8 0 105.6 0 160 0 C160 3.96 160 7.92 160 12 C107.2 12 54.4 12 0 12 C0 8.04 0 4.08 0 0 Z " fill="#F5A785" transform="translate(49,164)"/>
<path d="M0 0 C0.66 0 1.32 0 2 0 C7.06005475 7.87897799 7.06005475 7.87897799 6.8125 12.5 C6.544375 13.325 6.27625 14.15 6 15 C6 15.33 6 15.66 6 16 C7.32 16.33 8.64 16.66 10 17 C11.34370959 21.71038877 11.22294423 26.3208442 11.25 31.1875 C11.270625 32.09564453 11.29125 33.00378906 11.3125 33.93945312 C11.34832696 40.19573596 10.29668373 45.20034681 8 51 C7.67 51.99 7.34 52.98 7 54 C6.34 54 5.68 54 5 54 C4.9175 54.556875 4.835 55.11375 4.75 55.6875 C3.49189171 59.56666723 1.26442764 62.26241721 -2.25 64.3125 C-2.8275 64.539375 -3.405 64.76625 -4 65 C-4 65.99 -4 66.98 -4 68 C-6.01171875 70.375 -6.01171875 70.375 -8.6875 73 C-9.55761719 73.86625 -10.42773438 74.7325 -11.32421875 75.625 C-17.37993421 81 -17.37993421 81 -21 81 C-20.47996385 74.31621331 -19.51612959 67.93689418 -17.875 61.4375 C-17.65908203 60.57543945 -17.44316406 59.71337891 -17.22070312 58.82519531 C-15.52487248 52.36251299 -13.26902389 46.30888691 -10.6027832 40.19140625 C-7.47171799 32.9736854 -5.2033181 25.54407993 -3 18 C-3.4125 19.13953125 -3.825 20.2790625 -4.25 21.453125 C-4.83264798 23.0523332 -5.41604278 24.65126941 -6 26.25 C-6.3103418 27.10102295 -6.62068359 27.9520459 -6.94042969 28.82885742 C-8.91569362 34.19695655 -11.00939177 39.49844071 -13.20288086 44.78076172 C-18.12458315 56.68051756 -21.13645383 68.07658486 -22 81 C-28.13060358 74.86939642 -29.53292476 62.52312752 -29.625 54.1875 C-29.56085068 46.9698792 -27.72834097 41.16507811 -24 35 C-22.68 35.66 -21.36 36.32 -20 37 C-20.309375 36.071875 -20.61875 35.14375 -20.9375 34.1875 C-21.71163604 28.07908284 -17.40125338 23.67733514 -14 19 C-13.44634766 18.22285645 -12.89269531 17.44571289 -12.32226562 16.64501953 C-10.45540548 14.02576118 -8.57478113 11.41707833 -6.6875 8.8125 C-6.06480225 7.94979492 -5.44210449 7.08708984 -4.80053711 6.19824219 C-3.91507202 4.99603027 -3.91507202 4.99603027 -3.01171875 3.76953125 C-2.48022217 3.04354736 -1.94872559 2.31756348 -1.40112305 1.56958008 C-0.93875244 1.05161865 -0.47638184 0.53365723 0 0 Z " fill="#FDFDFC" transform="translate(212,45)"/>
<path d="M0 0 C1.19496094 -0.00386719 2.38992187 -0.00773438 3.62109375 -0.01171875 C4.87019531 -0.00011719 6.11929688 0.01148438 7.40625 0.0234375 C8.65535156 0.01183594 9.90445313 0.00023437 11.19140625 -0.01171875 C12.98384766 -0.00591797 12.98384766 -0.00591797 14.8125 0 C15.90884766 0.00338379 17.00519531 0.00676758 18.13476562 0.01025391 C20.90625 0.3984375 20.90625 0.3984375 22.76000977 1.74487305 C25.53527033 5.7484598 24.41213515 11.78563531 23.90625 16.3984375 C22.62855313 20.33350393 20.85889821 23.44578929 17.90625 26.3984375 C17.2637265 28.46717784 17.2637265 28.46717784 16.90625 30.3984375 C-45.07668609 31.72476603 -45.07668609 31.72476603 -75.75280762 31.42126465 C-77.32904736 31.40589432 -78.90530218 31.39200682 -80.48156738 31.3795166 C-85.11678168 31.34241598 -89.75068064 31.28312767 -94.38510132 31.18890381 C-95.78606143 31.16248826 -97.18714744 31.14191793 -98.58828735 31.12799072 C-106.47405028 31.04038057 -114.2600933 30.79802152 -121.09375 26.3984375 C-121.42375 25.4084375 -121.75375 24.4184375 -122.09375 23.3984375 C-107.90375 23.3984375 -93.71375 23.3984375 -79.09375 23.3984375 C-79.09375 21.4184375 -79.09375 19.4384375 -79.09375 17.3984375 C-76.45375 17.3984375 -73.81375 17.3984375 -71.09375 17.3984375 C-71.0667457 18.85666962 -71.04735213 20.31504425 -71.03125 21.7734375 C-71.01964844 22.58554688 -71.00804687 23.39765625 -70.99609375 24.234375 C-71.09375 26.3984375 -71.09375 26.3984375 -72.09375 28.3984375 C-67.80375 28.3984375 -63.51375 28.3984375 -59.09375 28.3984375 C-58.43375 24.7684375 -57.77375 21.1384375 -57.09375 17.3984375 C-51.15375 17.3984375 -45.21375 17.3984375 -39.09375 17.3984375 C-39.09375 18.0584375 -39.09375 18.7184375 -39.09375 19.3984375 C-41.14453125 19.62630208 -43.1953125 19.85416667 -45.24609375 20.08203125 C-47.10515229 20.21730364 -47.10515229 20.21730364 -48.09375 21.3984375 C-48.26041667 23.8984375 -48.26041667 23.8984375 -48.09375 26.3984375 C-46.53716518 27.95502232 -45.01507264 27.56153149 -42.84936523 27.60375977 C-41.49807777 27.6336776 -41.49807777 27.6336776 -40.11949158 27.66419983 C-39.14033279 27.68091232 -38.16117401 27.69762482 -37.15234375 27.71484375 C-35.65623314 27.7460154 -35.65623314 27.7460154 -34.12989807 27.77781677 C-30.93042157 27.84342387 -27.73086018 27.90224884 -24.53125 27.9609375 C-22.36782961 28.00411212 -20.20441794 28.04772605 -18.04101562 28.09179688 C-12.72535126 28.19911653 -7.40960166 28.30086177 -2.09375 28.3984375 C-2.89208252 27.4585498 -3.69041504 26.51866211 -4.51293945 25.55029297 C-8.64261607 20.68836872 -9.38596478 16.64299715 -9.40625 10.2734375 C-9.42300781 9.05398437 -9.43976563 7.83453125 -9.45703125 6.578125 C-9.09375 3.3984375 -9.09375 3.3984375 -7.9519043 1.72460938 C-5.28454491 -0.17909529 -3.25425363 0.01004399 0 0 Z " fill="#31376B" transform="translate(182.09375,133.6015625)"/>
<path d="M0 0 C0.64066406 0.13277344 1.28132813 0.26554687 1.94140625 0.40234375 C6.94983993 1.42493006 11.93111794 2.33884147 17 3 C16.9278125 4.29035156 16.855625 5.58070312 16.78125 6.91015625 C16.68740068 8.62759874 16.59365624 10.34504697 16.5 12.0625 C16.42845703 13.33383789 16.42845703 13.33383789 16.35546875 14.63085938 C16.09608564 19.42944688 15.94783715 24.19449788 16 29 C15.34 28.34 14.68 27.68 14 27 C10.26853566 40.49926371 6.66990313 53.99617849 3.64501953 67.67285156 C2.27893979 73.84038456 0.74810176 79.92764653 -1 86 C-5.29 86 -9.58 86 -14 86 C-10.96335192 56.74239455 -7.2424262 28.54175678 0 0 Z " fill="#8D8DA2" transform="translate(124,76)"/>
<path d="M0 0 C5.28 0 10.56 0 16 0 C18.14092944 4.80342573 20.27704907 9.60894956 22.40869141 14.41650391 C23.13490288 16.05251052 23.86243757 17.68793043 24.59130859 19.32275391 C25.63725609 21.66937624 26.67846507 24.01805043 27.71875 26.3671875 C28.04685669 27.10057343 28.37496338 27.83395935 28.7130127 28.58956909 C31 33.77225659 31 33.77225659 31 36 C30.15695313 36.04898438 29.31390625 36.09796875 28.4453125 36.1484375 C27.34960938 36.22320312 26.25390625 36.29796875 25.125 36.375 C23.48917969 36.47941406 23.48917969 36.47941406 21.8203125 36.5859375 C18.86953526 36.73253491 18.86953526 36.73253491 17 39 C16.69940057 41.36509361 16.50484988 43.74441881 16.375 46.125 C16.25125 48.39375 16.1275 50.6625 16 53 C10.39 53 4.78 53 -1 53 C-0.67 35.51 -0.34 18.02 0 0 Z " fill="#F9AA86" transform="translate(157,98)"/>
<path d="M0 0 C4.875 3.75 4.875 3.75 6 6 C6.14977039 8.24655587 6.22150174 10.49863768 6.25 12.75 C6.27578125 13.96171875 6.3015625 15.1734375 6.328125 16.421875 C5.9692623 20.33518727 4.91258368 22.60191443 3 26 C2.31471955 27.65910004 1.64108137 29.32332564 1 31 C2.28777344 30.98839844 3.57554688 30.97679688 4.90234375 30.96484375 C6.58072772 30.9554673 8.25911326 30.94636695 9.9375 30.9375 C11.21270508 30.92493164 11.21270508 30.92493164 12.51367188 30.91210938 C13.32255859 30.90888672 14.13144531 30.90566406 14.96484375 30.90234375 C15.7137085 30.89710693 16.46257324 30.89187012 17.23413086 30.88647461 C19 31 19 31 20 32 C21.20973702 38.98959167 21.09708765 45.92338914 21 53 C20.01 53.33 19.02 53.66 18 54 C18 68.19 18 82.38 18 97 C17.67 97 17.34 97 17 97 C17 82.81 17 68.62 17 54 C15.35 53.67 13.7 53.34 12 53 C12 47.72 12 42.44 12 37 C10.68 37 9.36 37 8 37 C7.67 38.32 7.34 39.64 7 41 C5.0625 40.6875 5.0625 40.6875 3 40 C2.67 39.01 2.34 38.02 2 37 C0.68 37 -0.64 37 -2 37 C-2.66 39.31 -3.32 41.62 -4 44 C-5.98 44.495 -5.98 44.495 -8 45 C-8.66 42.36 -9.32 39.72 -10 37 C-11.32 37 -12.64 37 -14 37 C-14 40.63 -14 44.26 -14 48 C-14.66 48 -15.32 48 -16 48 C-16 66.48 -16 84.96 -16 104 C-16.33 104 -16.66 104 -17 104 C-17.15358875 94.62972315 -17.30177045 85.25938123 -17.4429636 75.88890934 C-17.50869018 71.53827786 -17.57631063 67.18769267 -17.64819336 62.8371582 C-17.71743764 58.64215862 -17.78179327 54.44711043 -17.84269524 50.25198174 C-17.86685387 48.6479054 -17.89280286 47.04385505 -17.92053413 45.4398365 C-17.95894257 43.20089917 -17.99110248 40.96195574 -18.02172852 38.72290039 C-18.04171402 37.44604874 -18.06169952 36.16919708 -18.08229065 34.85365295 C-18 32 -18 32 -17 31 C-14.30345146 30.92680379 -11.63308542 30.90757463 -8.9375 30.9375 C-8.17888672 30.94201172 -7.42027344 30.94652344 -6.63867188 30.95117188 C-4.75908129 30.9629932 -2.87953101 30.98092922 -1 31 C-1.28875 30.31035156 -1.5775 29.62070313 -1.875 28.91015625 C-4.78861395 21.53507093 -6.7404903 15.63127004 -3.87109375 7.99609375 C-2.65545032 5.28427378 -1.37779879 2.63257983 0 0 Z " fill="#F9BB9E" transform="translate(85,53)"/>
<path d="M0 0 C6.13696375 4.63403385 10.93160571 9.85323839 14 17 C14.25768913 20.51862796 13.87965659 23.59225471 13 27 C13.928125 27.309375 14.85625 27.61875 15.8125 27.9375 C20.32820636 30.85942765 20.81333323 33.93112541 22 39 C22.20496094 39.80050781 22.40992187 40.60101563 22.62109375 41.42578125 C24.06931368 47.688084 24.16451093 53.58407376 24 60 C20.37 60 16.74 60 13 60 C8.25104714 49.86034389 4.86013078 40.39644611 2.875 29.375 C2.70613281 28.47265625 2.53726563 27.5703125 2.36328125 26.640625 C1.05984958 19.60004134 -0.14323649 12.74804801 -0.0625 5.5625 C-0.05347656 4.51191406 -0.04445312 3.46132813 -0.03515625 2.37890625 C-0.02355469 1.59386719 -0.01195312 0.80882813 0 0 Z " fill="#383C6E" transform="translate(35,0)"/>
<path d="M0 0 C45.54 0 91.08 0 138 0 C137.67 1.65 137.34 3.3 137 5 C91.79 5 46.58 5 0 5 C0 3.35 0 1.7 0 0 Z " fill="#FAB393" transform="translate(61,168)"/>
<path d="M0 0 C2.64 0 5.28 0 8 0 C8.0270043 1.45823212 8.04639787 2.91660675 8.0625 4.375 C8.07410156 5.18710938 8.08570313 5.99921875 8.09765625 6.8359375 C8 9 8 9 7 11 C11.29 11 15.58 11 20 11 C20.66 7.37 21.32 3.74 22 0 C27.94 0 33.88 0 40 0 C40 0.66 40 1.32 40 2 C37.94921875 2.22786458 35.8984375 2.45572917 33.84765625 2.68359375 C31.98859771 2.81886614 31.98859771 2.81886614 31 4 C30.83333333 6.5 30.83333333 6.5 31 9 C32.55658482 10.55658482 34.07867736 10.16309399 36.24438477 10.20532227 C37.14524307 10.22526749 38.04610138 10.24521271 38.97425842 10.26576233 C39.95341721 10.28247482 40.93257599 10.29918732 41.94140625 10.31640625 C43.43751686 10.3475779 43.43751686 10.3475779 44.96385193 10.37937927 C48.16332843 10.44498637 51.36288982 10.50381134 54.5625 10.5625 C56.72592039 10.60567462 58.88933206 10.64928855 61.05273438 10.69335938 C66.36839874 10.80067903 71.68414834 10.90242427 77 11 C77 11.66 77 12.32 77 13 C60.70033735 13.860771 44.44590069 14.16698302 28.125 14.125 C26.97744232 14.12278442 25.82988464 14.12056885 24.64755249 14.11828613 C16.7648498 14.10049701 8.88250132 14.05816885 1 14 C0.06557068 13.9937561 -0.86885864 13.98751221 -1.831604 13.9810791 C-6.59891701 13.94666915 -11.3647564 13.89063577 -16.13116455 13.79046631 C-18.11378189 13.75145069 -20.09670675 13.72916184 -22.07958984 13.70751953 C-29.15466622 13.51401152 -35.88111052 12.88168867 -42 9 C-42.33 8.01 -42.66 7.02 -43 6 C-28.81 6 -14.62 6 0 6 C0 4.02 0 2.04 0 0 Z " fill="#C76458" transform="translate(103,151)"/>
<path d="M0 0 C0.7425 0.185625 1.485 0.37125 2.25 0.5625 C2.8275 0.706875 3.405 0.85125 4 1 C4 1.99 4 2.98 4 4 C5.299375 4.0928125 5.299375 4.0928125 6.625 4.1875 C11.45076856 5.3492591 14.56786401 7.91689311 17.375 12 C18.12860024 14.41152078 18.13952346 16.48857781 18 19 C16.68 19.33 15.36 19.66 14 20 C14 20.66 14 21.32 14 22 C8.72250715 21.46148032 4.74354436 20.22656164 0 18 C-0.70125 18.66 -1.4025 19.32 -2.125 20 C-5.47798748 22.33251303 -7.00199836 22.60839155 -11 22 C-13.03667615 20.45493534 -13.86073078 19.27853844 -15 17 C-15.35294118 10.52941176 -15.35294118 10.52941176 -13 7 C-11.68 7 -10.36 7 -9 7 C-9.103125 6.236875 -9.20625 5.47375 -9.3125 4.6875 C-9 2 -9 2 -6.75 0.125 C-3.73406757 -1.10879054 -2.94811714 -1.14120663 0 0 Z " fill="#DB6D5F" transform="translate(74,8)"/>
<path d="M0 0 C0.33 0 0.66 0 1 0 C2.34529212 9.6030959 3.3362804 19.21067984 4.125 28.875 C4.21249512 29.91970459 4.29999023 30.96440918 4.39013672 32.04077148 C4.89041111 38.3827811 5.08200893 44.63845049 5 51 C-0.61 51 -6.22 51 -12 51 C-11.40289541 46.22316325 -10.87058469 41.97628778 -9.765625 37.3828125 C-9.40235107 35.86578735 -9.40235107 35.86578735 -9.03173828 34.31811523 C-8.77376465 33.26438721 -8.51579102 32.21065918 -8.25 31.125 C-7.85337158 29.48736694 -7.85337158 29.48736694 -7.44873047 27.81665039 C-5.16683505 18.4862791 -2.66350698 9.227991 0 0 Z " fill="#F2D1C3" transform="translate(138,100)"/>
<path d="M0 0 C1.48412871 3.87493154 0.46447077 6.3838324 -0.87890625 10.20703125 C-1.5145752 12.03451904 -1.5145752 12.03451904 -2.16308594 13.89892578 C-2.62942455 15.20349798 -3.09589863 16.50802176 -3.5625 17.8125 C-4.03101863 19.15061822 -4.4987901 20.48899828 -4.96582031 21.82763672 C-7.19807161 28.18548074 -9.54403343 34.45133364 -12.25 40.625 C-16.81832099 51.52370865 -18.6546418 63.46551329 -21 75 C-16.10960663 71.86650372 -11.45742306 68.86419159 -7.4375 64.625 C-6.77621094 63.93664062 -6.11492187 63.24828125 -5.43359375 62.5390625 C-4.96050781 62.03117187 -4.48742187 61.52328125 -4 61 C-4.33 60.01 -4.66 59.02 -5 58 C-3.02 57.505 -3.02 57.505 -1 57 C-1 63.6 -1 70.2 -1 77 C-5.62 77 -10.24 77 -15 77 C-15 78.98 -15 80.96 -15 83 C-17.64 83 -20.28 83 -23 83 C-22.57006682 64.62035672 -18.95599964 49.69768588 -11.93823242 32.69726562 C-7.50361373 21.9512445 -3.69912868 11.01737944 0 0 Z " fill="#F8DED2" transform="translate(212,51)"/>
<path d="M0 0 C1.125 3.75 1.125 3.75 0 6 C-0.66 6 -1.32 6 -2 6 C-2 6.66 -2 7.32 -2 8 C-2.66 8 -3.32 8 -4 8 C-3.67 8.66 -3.34 9.32 -3 10 C-2.34 10 -1.68 10 -1 10 C-1 9.01 -1 8.02 -1 7 C-0.34 7 0.32 7 1 7 C1.88299869 12.20969227 2.29938084 15.14575156 0 20 C-0.37593066 21.9924325 -0.71979545 23.9918674 -1 26 C-5.75 25.125 -5.75 25.125 -8 24 C-8.12375 22.865625 -8.2475 21.73125 -8.375 20.5625 C-8.58125 19.386875 -8.7875 18.21125 -9 17 C-10.86644906 15.81669817 -10.86644906 15.81669817 -13 15 C-15.53999288 11.93449135 -16 10.39442486 -16 6.375 C-15 3 -15 3 -13.0625 1.0625 C-8.6934701 -0.45328588 -4.57883754 -0.24005556 0 0 Z " fill="#DA8C87" transform="translate(145,8)"/>
<path d="M0 0 C0.33 0 0.66 0 1 0 C1 6.27 1 12.54 1 19 C-12.53 19 -26.06 19 -40 19 C-40 16.03 -40 13.06 -40 10 C-35.72939382 9.88410838 -31.45919016 9.81285198 -27.1875 9.75 C-25.97255859 9.71648437 -24.75761719 9.68296875 -23.50585938 9.6484375 C-21.76079102 9.62910156 -21.76079102 9.62910156 -19.98046875 9.609375 C-18.37014771 9.5779541 -18.37014771 9.5779541 -16.72729492 9.54589844 C-14 10 -14 10 -12.29492188 11.98632812 C-11.86759766 12.65083984 -11.44027344 13.31535156 -11 14 C-8.27510527 14.69749589 -8.27510527 14.69749589 -5.3125 14.75 C-3.559375 14.8325 -1.80625 14.915 0 15 C0 10.05 0 5.1 0 0 Z " fill="#F8AC89" transform="translate(40,176)"/>
<path d="M0 0 C1.32 0 2.64 0 4 0 C4.19335938 0.55429687 4.38671875 1.10859375 4.5859375 1.6796875 C4.84632812 2.40414063 5.10671875 3.12859375 5.375 3.875 C5.63023438 4.59429687 5.88546875 5.31359375 6.1484375 6.0546875 C6.93877783 8.18157994 6.93877783 8.18157994 9 10 C9.01171875 12.06640625 9.01171875 12.06640625 8.6875 14.5625 C8.52314453 15.89474609 8.52314453 15.89474609 8.35546875 17.25390625 C8.23816406 18.16011719 8.12085937 19.06632812 8 20 C7.83159135 21.66649155 7.6647942 23.33314715 7.5 25 C7.2617504 27.38249603 7.07640376 28.84719248 6 31 C7.04800781 30.96519531 7.04800781 30.96519531 8.1171875 30.9296875 C9.02726562 30.91164063 9.93734375 30.89359375 10.875 30.875 C12.23238281 30.84019531 12.23238281 30.84019531 13.6171875 30.8046875 C16 31 16 31 18 33 C17.75 35.0625 17.75 35.0625 17 37 C14.54724859 38.2263757 12.9494219 38.11415314 10.2109375 38.09765625 C9.26992188 38.09443359 8.32890625 38.09121094 7.359375 38.08789062 C6.37453125 38.07951172 5.3896875 38.07113281 4.375 38.0625 C2.88613281 38.05573242 2.88613281 38.05573242 1.3671875 38.04882812 C-1.0886016 38.03702145 -3.54427104 38.020554 -6 38 C-6 39.98 -6 41.96 -6 44 C-6.33 44 -6.66 44 -7 44 C-7.2165625 42.4221875 -7.2165625 42.4221875 -7.4375 40.8125 C-7.76796096 38.57270903 -8.14405121 36.33736442 -8.625 34.125 C-8.74875 33.42375 -8.8725 32.7225 -9 32 C-8 31 -8 31 -5.05859375 30.90234375 C-3.86363281 30.91394531 -2.66867188 30.92554687 -1.4375 30.9375 C0.35880859 30.95103516 0.35880859 30.95103516 2.19140625 30.96484375 C3.11824219 30.97644531 4.04507813 30.98804687 5 31 C4.05847208 22.27148239 2.9495166 13.83861155 0.5859375 5.35546875 C0 3 0 3 0 0 Z " fill="#FBFAFB" transform="translate(54,29)"/>
<path d="M0 0 C4.95 0 9.9 0 15 0 C15 6.27 15 12.54 15 19 C10.05 19 5.1 19 0 19 C0 12.73 0 6.46 0 0 Z " fill="#CB6457" transform="translate(191,176)"/>
<path d="M0 0 C10.23 0 20.46 0 31 0 C31 2.97 31 5.94 31 9 C20.77 9 10.54 9 0 9 C0 6.03 0 3.06 0 0 Z " fill="#F9A985" transform="translate(235,186)"/>
<path d="M0 0 C4.62 0 9.24 0 14 0 C14 6.27 14 12.54 14 19 C9.38 19 4.76 19 0 19 C0 12.73 0 6.46 0 0 Z " fill="#DE6F60" transform="translate(61,176)"/>
<path d="M0 0 C16.17 0 32.34 0 49 0 C47 3 47 3 43.875 3.6875 C42.92625 3.790625 41.9775 3.89375 41 4 C41 4.66 41 5.32 41 6 C36.91079921 6.10001808 32.82208689 6.17200015 28.73193359 6.21972656 C27.34508844 6.23965342 25.95832518 6.2668056 24.57177734 6.30175781 C16.20302611 6.50720008 8.37215713 6.50831775 1 2 C0.67 1.34 0.34 0.68 0 0 Z " fill="#33386B" transform="translate(60,158)"/>
<path d="M0 0 C2.31 0 4.62 0 7 0 C7.3375 6.25673075 6.0784061 11.76140375 4.5625 17.8125 C4.33240234 18.76576172 4.10230469 19.71902344 3.86523438 20.70117188 C2.15776699 27.68446602 2.15776699 27.68446602 1 30 C-1.31 30 -3.62 30 -6 30 C-4.78098161 19.73458198 -2.66722343 9.96971865 0 0 Z " fill="#3D4074" transform="translate(230,98)"/>
<path d="M0 0 C4.875 3.75 4.875 3.75 6 6 C6.14977039 8.24655587 6.22150174 10.49863768 6.25 12.75 C6.28867188 14.56757812 6.28867188 14.56757812 6.328125 16.421875 C5.97137479 20.3121511 4.90634077 22.62687574 3 26 C2.30028027 27.98867713 1.62335603 29.98608051 1 32 C0.71382813 31.41605469 0.42765625 30.83210938 0.1328125 30.23046875 C-0.56371991 28.85902045 -1.29190963 27.50247519 -2.0703125 26.17578125 C-4.94544704 21.09637689 -6.11785888 16.80177995 -5 11 C-3.57660862 7.19772268 -1.88167877 3.5953505 0 0 Z " fill="#F9BC88" transform="translate(85,53)"/>
<path d="M0 0 C4.47129854 7.52486828 3.12675957 18.50710855 3 27 C-2.61 27 -8.22 27 -14 27 C-13.01 26.34 -12.02 25.68 -11 25 C-9.68262167 22.64184852 -9.68262167 22.64184852 -8.5546875 19.84375 C-8.11769531 18.82152344 -7.68070313 17.79929688 -7.23046875 16.74609375 C-6.78316406 15.67488281 -6.33585938 14.60367188 -5.875 13.5 C-4.97671913 11.38535013 -4.07828912 9.2707636 -3.1796875 7.15625 C-2.78507324 6.21587891 -2.39045898 5.27550781 -1.98388672 4.30664062 C-1.36377096 2.85283077 -0.70683897 1.41367794 0 0 Z " fill="#F4A887" transform="translate(140,124)"/>
<path d="M0 0 C1.19496094 -0.00386719 2.38992187 -0.00773438 3.62109375 -0.01171875 C4.87019531 -0.00011719 6.11929688 0.01148438 7.40625 0.0234375 C8.65535156 0.01183594 9.90445313 0.00023437 11.19140625 -0.01171875 C12.98384766 -0.00591797 12.98384766 -0.00591797 14.8125 0 C15.90884766 0.00338379 17.00519531 0.00676758 18.13476562 0.01025391 C20.90625 0.3984375 20.90625 0.3984375 22.76879883 1.72729492 C24.59441994 4.40949636 24.18818544 6.90661112 24.09375 10.0859375 C24.05314453 11.85517578 24.05314453 11.85517578 24.01171875 13.66015625 C23.97691406 14.56378906 23.94210938 15.46742188 23.90625 16.3984375 C23.57625 16.3984375 23.24625 16.3984375 22.90625 16.3984375 C22.90625 13.0984375 22.90625 9.7984375 22.90625 6.3984375 C12.67625 6.3984375 2.44625 6.3984375 -8.09375 6.3984375 C-8.09375 10.0284375 -8.09375 13.6584375 -8.09375 17.3984375 C-8.42375 17.3984375 -8.75375 17.3984375 -9.09375 17.3984375 C-9.17472324 15.12818782 -9.23292704 12.85711675 -9.28125 10.5859375 C-9.31605469 9.32136719 -9.35085937 8.05679688 -9.38671875 6.75390625 C-9.09375 3.3984375 -9.09375 3.3984375 -7.95629883 1.71362305 C-5.28432463 -0.17311506 -3.24902011 0.01002784 0 0 Z " fill="#3F4071" transform="translate(182.09375,133.6015625)"/>
<path d="M0 0 C3.10560698 -0.13476597 6.20539935 -0.23398121 9.3125 -0.3125 C10.19357422 -0.35439453 11.07464844 -0.39628906 11.98242188 -0.43945312 C14.41395652 -0.48568002 16.61275272 -0.46891327 19 0 C20.98046875 2.26953125 20.98046875 2.26953125 22 5 C22.66 6.32 23.32 7.64 24 9 C15.75 9 7.5 9 -1 9 C-0.67 6.03 -0.34 3.06 0 0 Z " fill="#F7F1F0" transform="translate(156,153)"/>
<path d="M0 0 C9.57 0 19.14 0 29 0 C29 1.65 29 3.3 29 5 C27.7625 4.505 27.7625 4.505 26.5 4 C22.4126017 2.83217191 19.23076656 2.8541115 15 3 C14.14025199 5.29294488 14.14025199 5.29294488 14 8 C15.84445938 10.28967371 17.37362447 11.68681224 20 13 C20 13.99 20 14.98 20 16 C17.69 16.66 15.38 17.32 13 18 C12.48050781 17.20335938 11.96101563 16.40671875 11.42578125 15.5859375 C10.72839844 14.52632812 10.03101563 13.46671875 9.3125 12.375 C8.62800781 11.33085937 7.94351563 10.28671875 7.23828125 9.2109375 C5.00525054 6.0075322 2.49985505 2.99982606 0 0 Z " fill="#F6D9CF" transform="translate(36,0)"/>
<path d="M0 0 C2.64 0 5.28 0 8 0 C8.0270043 1.45823212 8.04639787 2.91660675 8.0625 4.375 C8.07410156 5.18710938 8.08570313 5.99921875 8.09765625 6.8359375 C8 9 8 9 7 11 C10.63 11 14.26 11 18 11 C17.67 11.99 17.34 12.98 17 14 C14.39576408 14.02697137 11.79180756 14.04682489 9.1875 14.0625 C8.44951172 14.07087891 7.71152344 14.07925781 6.95117188 14.08789062 C3.70077932 14.10259828 1.10595105 14.03531702 -2 13 C-2 12.34 -2 11.68 -2 11 C1.465 9.515 1.465 9.515 5 8 C-10.84 7.67 -26.68 7.34 -43 7 C-43 6.67 -43 6.34 -43 6 C-28.81 6 -14.62 6 0 6 C0 4.02 0 2.04 0 0 Z " fill="#886472" transform="translate(103,151)"/>
<path d="M0 0 C0.69037426 9.02417777 1.15178302 17.94361322 1 27 C-1.31 27 -3.62 27 -6 27 C-6.39664889 23.6709825 -6.71291729 20.34018449 -7 17 C-7.09152344 16.12730469 -7.18304688 15.25460938 -7.27734375 14.35546875 C-7.58577214 9.45822767 -7.28429654 6.70570067 -4.0625 2.875 C-1.26036866 0 -1.26036866 0 0 0 Z " fill="#E07265" transform="translate(218,101)"/>
<path d="M0 0 C4.62 0 9.24 0 14 0 C17 6 17 6 17 9 C11.39 9 5.78 9 0 9 C0 6.03 0 3.06 0 0 Z " fill="#F5D6CA" transform="translate(156,142)"/>
<path d="M0 0 C2.29394531 0.0925293 2.29394531 0.0925293 5 1 C6.38348349 3.22290262 7.3370468 5.1200932 8.296875 7.51953125 C8.71552826 8.50200081 8.71552826 8.50200081 9.14263916 9.50431824 C10.03003434 11.59989271 10.88975886 13.70565452 11.75 15.8125 C12.34334697 17.22012101 12.93838068 18.62703228 13.53515625 20.03320312 C18.17938856 31.06780144 18.17938856 31.06780144 19 35 C17.68 35 16.36 35 15 35 C13.18147049 30.98150079 11.36682849 26.96127531 9.55566406 22.93945312 C8.93985066 21.57342004 8.32300419 20.20785215 7.70507812 18.84277344 C6.8136388 16.87298008 5.92601059 14.9015065 5.0390625 12.9296875 C4.50490723 11.74616699 3.97075195 10.56264648 3.42041016 9.34326172 C2.11189614 6.26337328 1.00657266 3.18960367 0 0 Z " fill="#F99F75" transform="translate(169,99)"/>
<path d="M0 0 C1.48412871 3.87493154 0.46447077 6.3838324 -0.87890625 10.20703125 C-1.30276611 11.42567871 -1.72662598 12.64432617 -2.16333008 13.89990234 C-2.62954846 15.20416291 -3.09594186 16.50836093 -3.5625 17.8125 C-4.03026468 19.14769591 -4.49730404 20.48314615 -4.96362305 21.81884766 C-7.22538642 28.25716523 -9.60380378 34.60935794 -12.3125 40.875 C-17.77926205 54.05407793 -19.97209176 68.92571148 -22 83 C-22.33 83 -22.66 83 -23 83 C-22.57006682 64.62035672 -18.95599964 49.69768588 -11.93823242 32.69726562 C-7.50361373 21.9512445 -3.69912868 11.01737944 0 0 Z " fill="#D7D7E1" transform="translate(212,51)"/>
<path d="M0 0 C0.33 1.32 0.66 2.64 1 4 C-1.01822917 4.42317708 -3.03645833 4.84635417 -5.0546875 5.26953125 C-7.37046549 5.92308838 -7.37046549 5.92308838 -9 9 C-9.99 9 -10.98 9 -12 9 C-12 10.32 -12 11.64 -12 13 C-11.01 13.33 -10.02 13.66 -9 14 C-9 14.99 -9 15.98 -9 17 C-11.66404576 15.98949988 -12.97707828 15.02766415 -14.8125 12.8125 C-16.40330723 9.04479867 -16.15479727 6.89744079 -15 3 C-10.87434882 -1.12565118 -5.44293618 -0.28535782 0 0 Z " fill="#3D3B62" transform="translate(145,8)"/>
<path d="M0 0 C1.32 0 2.64 0 4 0 C4.19335938 0.55429687 4.38671875 1.10859375 4.5859375 1.6796875 C4.84632812 2.40414063 5.10671875 3.12859375 5.375 3.875 C5.63023438 4.59429687 5.88546875 5.31359375 6.1484375 6.0546875 C6.93877783 8.18157994 6.93877783 8.18157994 9 10 C9.01171875 12.06640625 9.01171875 12.06640625 8.6875 14.5625 C8.52121094 15.89474609 8.52121094 15.89474609 8.3515625 17.25390625 C8.23554687 18.16011719 8.11953125 19.06632812 8 20 C7.92523438 20.85464844 7.85046875 21.70929687 7.7734375 22.58984375 C7.70382813 23.38519531 7.63421875 24.18054688 7.5625 25 C7.50191406 25.721875 7.44132812 26.44375 7.37890625 27.1875 C7 29 7 29 5 31 C4.89042969 29.98421875 4.78085937 28.9684375 4.66796875 27.921875 C3.79558746 20.22522069 2.67109641 12.83933116 0.5859375 5.35546875 C0 3 0 3 0 0 Z " fill="#F0D4CB" transform="translate(54,29)"/>
<path d="M0 0 C1.4540625 0.0309375 1.4540625 0.0309375 2.9375 0.0625 C0.77586487 7.00248648 -1.9561214 13.49367569 -5.0625 20.0625 C-6.0525 20.0625 -7.0425 20.0625 -8.0625 20.0625 C-5.79611227 0.11828801 -5.79611227 0.11828801 0 0 Z " fill="#F7DBCF" transform="translate(134.0625,129.9375)"/>
<path d="M0 0 C1.65 0 3.3 0 5 0 C5 6.27 5 12.54 5 19 C3.35 19 1.7 19 0 19 C0 12.73 0 6.46 0 0 Z " fill="#CA6457" transform="translate(201,176)"/>
<path d="M0 0 C1.65 0 3.3 0 5 0 C5 6.27 5 12.54 5 19 C3.35 19 1.7 19 0 19 C0 12.73 0 6.46 0 0 Z " fill="#CA6357" transform="translate(70,176)"/>
<path d="M0 0 C1.65 0 3.3 0 5 0 C5 6.27 5 12.54 5 19 C3.35 19 1.7 19 0 19 C0 12.73 0 6.46 0 0 Z " fill="#DE6F61" transform="translate(196,176)"/>
<path d="M0 0 C5.97873264 0.11935764 5.97873264 0.11935764 7.08984375 1.23046875 C7.23099536 3.90105726 7.13231482 6.55479113 7.08984375 9.23046875 C5.63191491 9.28446611 4.17341663 9.32326052 2.71484375 9.35546875 C1.90273437 9.37867188 1.090625 9.401875 0.25390625 9.42578125 C-1.91015625 9.23046875 -1.91015625 9.23046875 -3.91015625 7.23046875 C-4.16015625 4.73046875 -4.16015625 4.73046875 -3.91015625 2.23046875 C-1.91015625 0.23046875 -1.91015625 0.23046875 0 0 Z " fill="#F5EFEF" transform="translate(136.91015625,152.76953125)"/>
<path d="M0 0 C11.55 0 23.1 0 35 0 C35 0.66 35 1.32 35 2 C10.01734161 3.19388403 10.01734161 3.19388403 0 3 C0 2.01 0 1.02 0 0 Z " fill="#AA6165" transform="translate(145,162)"/>
<path d="M0 0 C2.0625 1.4375 2.0625 1.4375 4 4 C4.34696486 9.98215276 2.40639804 16.22420999 1 22 C-1.96400944 16.27208303 -3.67072254 11.40443642 -2 5 C-1.37774395 3.31624835 -0.72455635 1.64232772 0 0 Z " fill="#F49A71" transform="translate(85,63)"/>
<path d="M0 0 C1.32 0 2.64 0 4 0 C4 6.27 4 12.54 4 19 C2.68 19 1.36 19 0 19 C0 12.73 0 6.46 0 0 Z " fill="#C96357" transform="translate(61,176)"/>
<path d="M0 0 C0.90105469 0.02707031 1.80210937 0.05414063 2.73046875 0.08203125 C3.76107422 0.13423828 3.76107422 0.13423828 4.8125 0.1875 C4.8125 0.8475 4.8125 1.5075 4.8125 2.1875 C2.76171875 2.41536458 0.7109375 2.64322917 -1.33984375 2.87109375 C-3.19890229 3.00636614 -3.19890229 3.00636614 -4.1875 4.1875 C-4.35416667 6.6875 -4.35416667 6.6875 -4.1875 9.1875 C-2.52407163 10.85092837 -0.4049291 10.54798097 1.875 10.75 C2.79410156 10.83378906 3.71320313 10.91757813 4.66015625 11.00390625 C5.37042969 11.06449219 6.08070313 11.12507812 6.8125 11.1875 C6.8125 11.8475 6.8125 12.5075 6.8125 13.1875 C-3.16344419 13.80669654 -3.16344419 13.80669654 -6.875 11.5625 C-8.56865483 8.49779126 -8.70160062 6.63931843 -8.1875 3.1875 C-5.83004881 -0.08843867 -3.90127341 -0.15199767 0 0 Z " fill="#DE7165" transform="translate(138.1875,150.8125)"/>
<path d="M0 0 C0.33 1.32 0.66 2.64 1 4 C0.34 4 -0.32 4 -1 4 C-1 4.66 -1 5.32 -1 6 C-1.94875 6.28875 -2.8975 6.5775 -3.875 6.875 C-7.05211578 7.76825109 -7.05211578 7.76825109 -9 10 C-9.12375 9.195625 -9.2475 8.39125 -9.375 7.5625 C-9.684375 6.2940625 -9.684375 6.2940625 -10 5 C-10.66 4.67 -11.32 4.34 -12 4 C-7.81413519 0.81076967 -5.29441695 -0.50423019 0 0 Z " fill="#EC9A8E" transform="translate(198,36)"/>
<path d="M0 0 C0.33 0 0.66 0 1 0 C1.69037426 9.02417777 2.15178302 17.94361322 2 27 C1.34 27 0.68 27 0 27 C-0.91491538 23.87956616 -1.12871801 21.07866638 -1.1328125 17.83203125 C-1.13410156 16.85685547 -1.13539063 15.88167969 -1.13671875 14.87695312 C-1.13285156 13.86568359 -1.12898437 12.85441406 -1.125 11.8125 C-1.12886719 10.78962891 -1.13273438 9.76675781 -1.13671875 8.71289062 C-1.13542969 7.74158203 -1.13414062 6.77027344 -1.1328125 5.76953125 C-1.13168457 4.87854736 -1.13055664 3.98756348 -1.12939453 3.06958008 C-1 1 -1 1 0 0 Z " fill="#CB665A" transform="translate(217,101)"/>
<path d="M0 0 C5.56818182 0.56818182 5.56818182 0.56818182 7 2 C7 3.65 7 5.3 7 7 C3.7 7 0.4 7 -3 7 C-2.25 2.25 -2.25 2.25 0 0 Z " fill="#E48B71" transform="translate(113,188)"/>
<path d="M0 0 C2.66666667 0.66666667 5.33333333 1.33333333 8 2 C8 1.34 8 0.68 8 0 C8.99 0.33 9.98 0.66 11 1 C11 2.32 11 3.64 11 5 C10.34 5 9.68 5 9 5 C8.67 5.66 8.34 6.32 8 7 C2.25 6.25 2.25 6.25 0 4 C0 2.68 0 1.36 0 0 Z " fill="#F9F1EF" transform="translate(136,32)"/>
<path d="M0 0 C2.64 0 5.28 0 8 0 C8.042721 1.66611905 8.04063832 3.33382885 8 5 C7 6 7 6 3.4375 6.0625 C2.303125 6.041875 1.16875 6.02125 0 6 C0 4.02 0 2.04 0 0 Z " fill="#C86357" transform="translate(103,151)"/>
<path d="M0 0 C0.66 0 1.32 0 2 0 C2.90238747 2.70716242 3.11851302 4.23776768 3.09765625 7.01171875 C3.09282227 8.14770508 3.09282227 8.14770508 3.08789062 9.30664062 C3.07951172 10.09232422 3.07113281 10.87800781 3.0625 11.6875 C3.05798828 12.48478516 3.05347656 13.28207031 3.04882812 14.10351562 C3.0370585 16.06904257 3.01912348 18.03453085 3 20 C2.34 20 1.68 20 1 20 C0.202163 13.30386804 -0.12910853 6.74233419 0 0 Z " fill="#CE6A5E" transform="translate(211,108)"/>
<path d="M0 0 C2.31 0 4.62 0 7 0 C7.38218767 1.65614657 7.71395102 3.32457024 8 5 C7 6 7 6 3.4375 6.0625 C2.303125 6.041875 1.16875 6.02125 0 6 C0 4.02 0 2.04 0 0 Z " fill="#F4A17F" transform="translate(146,189)"/>
<path d="M0 0 C2.31 0 4.62 0 7 0 C7.38218767 1.65614657 7.71395102 3.32457024 8 5 C7 6 7 6 3.4375 6.0625 C2.303125 6.041875 1.16875 6.02125 0 6 C0 4.02 0 2.04 0 0 Z " fill="#F39F7E" transform="translate(99,189)"/>
<path d="M0 0 C0.33 0.66 0.66 1.32 1 2 C0 5 0 5 -2 6 C-3.99960012 6.039992 -6.00047242 6.04346799 -8 6 C-8 4.35 -8 2.7 -8 1 C-5.29120665 -0.35439668 -2.99066732 -0.06501451 0 0 Z " fill="#EC8D82" transform="translate(149,51)"/>
<path d="M0 0 C0 0.66 0 1.32 0 2 C-0.66 2 -1.32 2 -2 2 C-2 2.66 -2 3.32 -2 4 C-2.66 4 -3.32 4 -4 4 C-4 5.32 -4 6.64 -4 8 C-4.99 8.33 -5.98 8.66 -7 9 C-7.33 6.69 -7.66 4.38 -8 2 C-4.77208445 -0.1519437 -3.71599191 -0.20086443 0 0 Z " fill="#DFA6A2" transform="translate(145,12)"/>
<path d="M0 0 C0.66 0 1.32 0 2 0 C1.68955976 2.39611639 1.37671642 4.79187835 1.0625 7.1875 C0.97548828 7.86103516 0.88847656 8.53457031 0.79882812 9.22851562 C0.32174523 12.85081166 -0.23012035 16.42803585 -1 20 C-1.66 20 -2.32 20 -3 20 C-2.69055299 17.41626766 -2.37756043 14.83304867 -2.0625 12.25 C-1.97548828 11.52039062 -1.88847656 10.79078125 -1.79882812 10.0390625 C-1.37972591 6.62415558 -0.882726 3.32396457 0 0 Z " fill="#5F5B7F" transform="translate(63,40)"/>
<path d="M0 0 C0.66 0 1.32 0 2 0 C2.17835515 4.54805635 1.99785435 7.8794254 0 12 C-0.66 12 -1.32 12 -2 12 C-2.17835515 7.45194365 -1.99785435 4.1205746 0 0 Z " fill="#F79D74" transform="translate(159,117)"/>
<path d="M0 0 C0 1.65 0 3.3 0 5 C-1.2684375 4.5359375 -1.2684375 4.5359375 -2.5625 4.0625 C-6.0497854 2.98461179 -9.38177535 2.43418696 -13 2 C-13 1.67 -13 1.34 -13 1 C-8.59085217 -0.10228696 -4.51617599 -0.07654536 0 0 Z " fill="#F7D2C5" transform="translate(65,0)"/>
<path d="M0 0 C2.31 0 4.62 0 7 0 C6.67 1.65 6.34 3.3 6 5 C4.02 5.33 2.04 5.66 0 6 C0 4.02 0 2.04 0 0 Z " fill="#F8A783" transform="translate(124,189)"/>
<path d="M0 0 C0.33 0 0.66 0 1 0 C0.91276622 1.77174819 0.80458345 3.54247377 0.6875 5.3125 C0.62949219 6.29863281 0.57148438 7.28476563 0.51171875 8.30078125 C-0.04622813 11.24384457 -0.68540132 12.18182999 -3 14 C-2.88570603 12.22844346 -2.75816963 10.45773771 -2.625 8.6875 C-2.55539063 7.70136719 -2.48578125 6.71523437 -2.4140625 5.69921875 C-2 3 -2 3 0 0 Z " fill="#363964" transform="translate(235,103)"/>
<path d="M0 0 C0.66 0 1.32 0 2 0 C1.85795259 1.58367747 1.71119847 3.16693318 1.5625 4.75 C1.48128906 5.63171875 1.40007812 6.5134375 1.31640625 7.421875 C1.03761535 9.69350452 0.61209423 11.79851823 0 14 C-0.66 14 -1.32 14 -2 14 C-1.85866501 12.22880197 -1.71176792 10.45804713 -1.5625 8.6875 C-1.48128906 7.70136719 -1.40007812 6.71523437 -1.31640625 5.69921875 C-1 3 -1 3 0 0 Z " fill="#353864" transform="translate(230,98)"/>
<path d="M0 0 C0.33 0 0.66 0 1 0 C1.33 2.64 1.66 5.28 2 8 C-0.31 8 -2.62 8 -5 8 C-1.125 1.125 -1.125 1.125 0 0 Z " fill="#DF9E85" transform="translate(235,90)"/>
<path d="M0 0 C0.7425 0.185625 1.485 0.37125 2.25 0.5625 C4.94990963 0.99203108 6.44631077 0.85122974 9 0 C8.01 1.98 7.02 3.96 6 6 C5.01 6 4.02 6 3 6 C2.01 4.02 1.02 2.04 0 0 Z " fill="#F7A482" transform="translate(157,189)"/>
<path d="M0 0 C2.64 0 5.28 0 8 0 C8 0.66 8 1.32 8 2 C7.34 2 6.68 2 6 2 C6 3.32 6 4.64 6 6 C5.01 6 4.02 6 3 6 C3 4.68 3 3.36 3 2 C2.01 2 1.02 2 0 2 C0 1.34 0 0.68 0 0 Z " fill="#F7A583" transform="translate(134,189)"/>
<path d="M0 0 C0.66 0 1.32 0 2 0 C2.66 2.31 3.32 4.62 4 7 C2.02 7 0.04 7 -2 7 C-1.34 4.69 -0.68 2.38 0 0 Z " fill="#FAD6C5" transform="translate(161,122)"/>
<path d="M0 0 C1.46726798 3.81489674 0.43336419 6.29011622 -1 10 C-1.66 10 -2.32 10 -3 10 C-2.25 2.25 -2.25 2.25 0 0 Z " fill="#303461" transform="translate(232,118)"/>
<path d="M0 0 C1.66611905 -0.042721 3.33382885 -0.04063832 5 0 C6 1 6 1 6.0625 3.5625 C6.041875 4.366875 6.02125 5.17125 6 6 C5.01 6 4.02 6 3 6 C2.814375 5.071875 2.814375 5.071875 2.625 4.125 C2.12802644 1.80879168 2.12802644 1.80879168 0 0 Z " fill="#F6A482" transform="translate(114,189)"/>
<path d="M0 0 C0 0.66 0 1.32 0 2 C-0.66 2 -1.32 2 -2 2 C-2 2.66 -2 3.32 -2 4 C-4.97 3.505 -4.97 3.505 -8 3 C-5.53387212 -0.1151089 -3.89156016 -0.31553191 0 0 Z " fill="#E38D85" transform="translate(145,12)"/>
</svg>
