<?xml version="1.0" encoding="UTF-8"?>
<svg version="1.1" xmlns="http://www.w3.org/2000/svg" width="1436" height="916">
<path d="M0 0 C1.16595703 -0.02900391 2.33191406 -0.05800781 3.53320312 -0.08789062 C22.64382093 -0.22342692 39.92390561 6.98689938 57.625 13.4375 C60.11052021 14.335358 62.59636595 15.23231527 65.08251953 16.12841797 C70.16258039 17.96050539 75.24051875 19.79835285 80.31689453 21.640625 C87.11193385 24.1057083 93.9121053 26.55625427 100.71484375 29 C108.90278522 31.94179907 117.0890729 34.88810771 125.2734375 37.83984375 C132.79799946 40.55331704 140.32486115 43.26026801 147.85440063 45.9598999 C152.37806097 47.5818693 156.90110593 49.20555115 161.4241333 50.82928467 C163.55758166 51.59464784 165.69131829 52.35920805 167.82537842 53.12286377 C177.80127233 56.69300491 187.76560917 60.28625684 197.65234375 64.09765625 C198.71273865 64.50343147 198.71273865 64.50343147 199.79455566 64.91740417 C212.57425042 69.90098836 223.90256451 77.23462272 235.30224609 84.75146484 C239.69531339 87.6265183 244.13045286 90.43556144 248.5625 93.25 C249.49433105 93.84232422 250.42616211 94.43464844 251.38623047 95.04492188 C259.70108043 100.32739902 268.0287218 105.58954194 276.36083984 110.84472656 C281.09851032 113.83348573 285.83394325 116.82578922 290.56982422 119.81738281 C294.48985106 122.29344327 298.41035919 124.7687335 302.33203125 127.2421875 C311.73147818 133.17203993 321.1149846 139.126345 330.48876953 145.09667969 C338.7662882 150.36696637 347.06090293 155.60983903 355.36083984 160.84472656 C360.09851032 163.83348573 364.83394325 166.82578922 369.56982422 169.81738281 C373.48985106 172.29344327 377.41035919 174.7687335 381.33203125 177.2421875 C389.79514525 182.58133324 398.24733613 187.93713844 406.6875 193.3125 C410.35383684 195.64635194 414.02055881 197.97959775 417.6875 200.3125 C418.96536377 201.12581787 418.96536377 201.12581787 420.26904297 201.95556641 C425.0148082 204.97375115 429.76942213 207.97700762 434.53710938 210.96044922 C436.57933873 212.24449397 438.61018658 213.54508185 440.640625 214.84765625 C457.38667579 225.44041628 474.85096663 230.44796483 494.6875 230.8125 C495.62843506 230.84327637 496.56937012 230.87405273 497.53881836 230.90576172 C519.89207674 230.90944764 542.92090258 222.25651914 564.4375 216.625 C569.58904806 215.27732224 574.74139732 213.93282582 579.89542389 212.59465599 C581.92065712 212.0673707 583.94457234 211.53524182 585.96844482 211.00276184 C597.38092413 208.03529036 608.13094109 205.94059199 619.9375 205.875 C621.43410156 205.82569336 621.43410156 205.82569336 622.9609375 205.77539062 C634.53564888 205.69718312 645.51068804 208.61276315 656.6875 211.3125 C657.83548443 211.58947786 657.83548443 211.58947786 659.00666046 211.87205124 C675.54982377 215.8689275 692.07153401 219.9534709 708.59350586 224.03686523 C713.64414156 225.28481853 718.69584442 226.52837546 723.74817848 227.76943398 C726.56497399 228.46280827 729.38047162 229.16128427 732.19596863 229.85990906 C752.01526509 234.74694007 769.95299079 237.44660298 790.16845703 233.18579102 C791.78633967 232.85294145 791.78633967 232.85294145 793.43690681 232.51336765 C805.95327826 229.90050225 818.37890604 226.9113899 830.8046875 223.90234375 C833.35952031 223.28759713 835.91446497 222.67331522 838.46951294 222.0594635 C844.47911808 220.61495518 850.48760897 219.16587194 856.49563515 217.71481186 C868.38425491 214.84367278 880.27539485 211.98297847 892.16640949 209.12177706 C894.11264833 208.65343605 896.05885335 208.1849545 898.00505829 207.71647263 C916.55900518 203.25115527 935.12106845 198.8215493 953.6953125 194.44140625 C954.78474026 194.18386 955.87416801 193.92631374 956.99660873 193.66096306 C960.04037103 192.94183637 963.08475963 192.22543176 966.12939453 191.51000977 C967.01655781 191.30015757 967.90372108 191.09030537 968.8177681 190.87409401 C1003.01173244 182.86949613 1030.67242458 192.45893718 1060.75079346 207.759552 C1065.1398481 209.99193493 1069.5391947 212.20388344 1073.9375 214.41796875 C1074.79332672 214.84939682 1075.64915344 215.28082489 1076.53091431 215.72532654 C1083.08656027 219.02505078 1089.67734493 222.23769347 1096.3125 225.375 C1103.48363341 228.76669936 1110.60202538 232.24512786 1117.6875 235.8125 C1125.75580865 239.87191894 1133.87033185 243.81757688 1142.02734375 247.6953125 C1153.06405598 252.95019272 1164.04750148 258.31426269 1175.03173828 263.67773438 C1182.91309176 267.52315328 1190.80932637 271.32374682 1198.7565918 275.03125 C1225.9862743 287.78741414 1247.45988792 306.11941064 1258.51077318 334.85314989 C1263.11547482 348.39008545 1264.27198698 361.57654239 1264.19543457 375.78137207 C1264.20005546 377.67736681 1264.20641628 379.57335796 1264.21434355 381.46934175 C1264.23089682 386.62734442 1264.22285488 391.78504749 1264.21039867 396.94305062 C1264.20129262 402.52597249 1264.21534529 408.10884531 1264.22631836 413.6917572 C1264.24404919 424.60814832 1264.24028788 435.52442905 1264.2286678 446.44082439 C1264.21961229 455.31753813 1264.21841862 464.19422107 1264.22276306 473.07093811 C1264.22337599 474.33719309 1264.22398893 475.60344807 1264.22462043 476.90807441 C1264.22589941 479.48092664 1264.22719626 482.05377887 1264.2285108 484.62663108 C1264.23957637 508.03252396 1264.22812605 531.43834628 1264.20714041 554.84422547 C1264.18816037 576.17531656 1264.18985898 597.50631209 1264.20898438 618.83740234 C1264.23043938 642.84656596 1264.23880219 666.85566994 1264.22653532 690.86484671 C1264.2252612 693.42791843 1264.22400372 695.99099015 1264.22276306 698.55406189 C1264.22214596 699.81494591 1264.22152886 701.07582992 1264.22089306 702.37492254 C1264.21744801 711.23482983 1264.22325025 720.09470309 1264.23268127 728.9546051 C1264.24393172 739.76066216 1264.2407973 750.56660308 1264.2195583 761.37264693 C1264.20908885 766.87974155 1264.20485567 772.38664295 1264.21815491 777.89373589 C1264.2301701 782.94574863 1264.22336744 787.99739104 1264.2022447 793.04937071 C1264.197817 794.8660955 1264.1999573 796.68285231 1264.20974785 798.49955612 C1264.3454352 825.79466269 1256.09906179 850.87872542 1237.046875 870.94921875 C1235.87898438 872.11904297 1235.87898438 872.11904297 1234.6875 873.3125 C1233.86765625 874.14394531 1233.0478125 874.97539063 1232.203125 875.83203125 C1227.47558017 880.38474084 1222.65198688 884.20553694 1217.015625 887.5703125 C1216.37319855 887.95398483 1215.73077209 888.33765717 1215.06887817 888.73295593 C1207.65102289 893.05686618 1199.88535178 896.57833748 1192.03466797 900.03491211 C1189.55229287 901.12950077 1187.07869817 902.24234538 1184.60546875 903.35742188 C1155.17461815 916.51029888 1126.90550028 919.47746272 1096.28515625 908.30078125 C1095.19519348 907.90547211 1094.10523071 907.51016296 1092.98223877 907.10287476 C1082.01484508 903.10436831 1071.11714203 898.92860103 1060.23184204 894.71264648 C1056.8450338 893.40170895 1053.45635166 892.0957226 1050.06713867 890.79101562 C1041.2227823 887.38542673 1032.37870645 883.97955403 1023.55332947 880.52502441 C1002.00505866 872.0940199 983.03718238 867.15982121 959.75317383 867.1706543 C958.52051788 867.16717987 957.28786194 867.16370544 956.01785278 867.16012573 C953.36124472 867.1528183 950.70468557 867.1471218 948.04807472 867.14383507 C943.82918465 867.13784902 939.61037561 867.12123876 935.39152527 867.10249329 C933.93798928 867.096158 932.48445324 867.08983236 931.03091717 867.08351612 C930.30356943 867.08035031 929.5762217 867.0771845 928.82683313 867.07392275 C919.02641512 867.03210702 909.22603852 866.99889636 899.42553711 866.98657227 C892.78499245 866.97813687 886.14465337 866.95545346 879.5042116 866.9172166 C876.00552581 866.8976526 872.50714577 866.88498498 869.00840187 866.89005089 C826.39044852 866.9403628 800.64975947 852.05007398 770.875 822.5234375 C769.44105276 821.07455331 768.00859906 819.62418835 766.578125 818.171875 C764.73753347 816.36170647 762.8380212 814.67574981 760.875 813 C757.29851185 809.93749817 753.99360201 806.65969713 750.6875 803.3125 C746.83628711 799.41353494 742.9232826 795.70425693 738.74609375 792.15234375 C735.61519719 789.35414208 732.69920305 786.34476344 729.75146484 783.35693359 C727.16727682 780.75129261 724.54540842 778.25196891 721.75 775.875 C717.64638661 772.37808099 713.90600364 768.55865716 710.12060547 764.72607422 C706.6956044 761.27498619 703.16826414 758.01934396 699.45703125 754.875 C697.71039811 753.33271908 696.15113639 751.70295514 694.5625 750 C676.42485957 731.69784582 650.80699549 722.64704346 625.4375 722 C597.50482118 722.49207828 576.28817384 734.66160951 553.20703125 749.21484375 C546.73015751 753.29612143 540.21329013 757.31004796 533.6875 761.3125 C525.33108229 766.44282763 516.99647564 771.60568809 508.6875 776.8125 C499.29620004 782.69754945 489.87027755 788.52392012 480.42041016 794.31445312 C475.01427786 797.63157613 469.62678822 800.97323811 464.2734375 804.375 C463.22929688 805.03628906 462.18515625 805.69757812 461.109375 806.37890625 C459.17036751 807.60943024 457.23503617 808.84578051 455.3046875 810.08984375 C439.14804491 820.32702677 422.21735128 826.58079231 404.1875 832.75 C401.67040503 833.6199298 399.1536458 834.49075802 396.63745117 835.36328125 C392.78689476 836.69805105 388.93617888 838.03232399 385.08378601 839.36178589 C376.62955313 842.28084914 368.1931817 845.24759832 359.76953125 848.25390625 C358.67877289 848.64283554 357.58801453 849.03176483 356.46420288 849.43247986 C352.30973773 850.91467155 348.15562572 852.39779732 344.00390625 853.88766479 C312.07954311 865.33738316 280.8572593 872.16418538 248.77734375 857.078125 C236.59639188 851.05160833 227.04799612 843.76982726 217.53540039 834.07617188 C210.05002536 826.45350331 202.9738313 819.73412743 193.6875 814.3125 C192.79393799 813.78970459 192.79393799 813.78970459 191.88232422 813.25634766 C168.98297905 800.13798088 142.20336823 796.9232445 116.6875 803.3125 C114.09839008 804.12821493 111.55757839 804.96982139 109.0078125 805.890625 C108.28743301 806.14782318 107.56705353 806.40502136 106.82484436 806.67001343 C96.21550021 810.50867689 85.7768915 814.81493426 75.33227539 819.07714844 C44.62403426 831.58561891 15.16453319 836.09691539 -16.3125 823.3125 C-36.77376456 814.27345109 -50.98730324 799.42352449 -64.4296875 782.015625 C-67.490717 778.05976794 -70.64691281 774.18486191 -73.8125 770.3125 C-77.84498856 765.37339595 -81.83061549 760.40429871 -85.75 755.375 C-89.85187923 750.1149431 -94.05828038 744.94999637 -98.3125 739.8125 C-103.02547432 734.1210006 -107.65702844 728.37925554 -112.19921875 722.55078125 C-115.68103934 718.09160752 -119.23495524 713.69513657 -122.8125 709.3125 C-127.41496487 703.67361516 -131.95090242 697.98925621 -136.42749023 692.25 C-139.18609923 688.72059577 -142.00640226 685.25381252 -144.875 681.8125 C-159.79707772 663.53295479 -172.16326677 642.95386239 -172.50817394 618.58121967 C-172.52619916 617.45467325 -172.54422438 616.32812682 -172.56279582 615.16744262 C-172.57761809 613.93892316 -172.59244036 612.7104037 -172.60771179 611.44465637 C-172.62691093 610.13033888 -172.64611006 608.81602139 -172.66589099 607.46187609 C-172.71857063 603.8143414 -172.76486695 600.16675037 -172.80970085 596.51911175 C-172.83887661 594.18208212 -172.8697878 591.84508153 -172.90123558 589.50808144 C-173.30559439 559.36714265 -173.54381401 529.22477657 -173.72391598 499.08173345 C-173.75374324 494.09037179 -173.78462077 489.09901713 -173.81616211 484.10766602 C-173.82241668 483.11486595 -173.82867125 482.12206588 -173.83511535 481.09918096 C-173.93054764 466.36469659 -174.10615399 451.63272309 -174.32885742 436.8996582 C-174.67052704 413.98161206 -174.88111269 391.06527142 -174.88671875 368.14453125 C-174.88710197 367.20260321 -174.88748519 366.26067518 -174.88788003 365.29020387 C-174.88584681 285.41930547 -163.93913184 209.09806812 -146.3125 131.3125 C-146.11183859 130.42170376 -145.91117717 129.53090752 -145.70443511 128.61311746 C-138.20878953 95.45547906 -120.56369896 73.78728894 -95.10180664 51.88793945 C-92.37583505 49.48779009 -89.84654062 46.9120019 -87.3125 44.3125 C-83.393928 40.33974284 -79.40936504 36.550151 -75.1484375 32.94140625 C-73.20931781 31.22095325 -71.46497466 29.38622311 -69.6875 27.5 C-51.01245392 8.75242947 -26.04921282 0.2083937 0 0 Z " fill="#FEDDD6" transform="translate(172.3125,0.6875)"/>
</svg>
