<?xml version="1.0" encoding="UTF-8"?>
<svg version="1.1" xmlns="http://www.w3.org/2000/svg" width="255" height="208">
<path d="M0 0 C84.15 0 168.3 0 255 0 C255 68.64 255 137.28 255 208 C170.85 208 86.7 208 0 208 C0 139.36 0 70.72 0 0 Z " fill="#C3D9F6" transform="translate(0,0)"/>
<path d="M0 0 C84.15 0 168.3 0 255 0 C255 19.47 255 38.94 255 59 C252.9384953 56.25132706 251.15901534 53.65032904 249.375 50.75 C243.72511347 42.28908618 236.35004655 36.83293834 227 33 C225.84757812 32.52046875 225.84757812 32.52046875 224.671875 32.03125 C212.8971375 27.82041672 200.38662055 29.10199327 189.2265625 34.2890625 C176.34866691 40.88677887 168.0963271 50.21378236 163.609375 64.01953125 C162.62308979 67.31881169 161.77512743 70.64451415 161 74 C153.10358611 71.70210178 146.25320223 68.14093732 139.0625 64.1875 C137.94681641 63.58357422 136.83113281 62.97964844 135.68164062 62.35742188 C130.63785182 59.61244249 125.64572461 56.81702427 120.7421875 53.828125 C113.14866313 49.22299519 105.11067909 45.59254451 97 42 C96.19788086 41.64131836 95.39576172 41.28263672 94.56933594 40.91308594 C85.8967383 37.11727389 77.8561915 34.39294948 68.3125 34.3125 C67.59441162 34.30532959 66.87632324 34.29815918 66.13647461 34.29077148 C59.27439132 34.5293339 53.57496356 37.10739567 48.8125 42.0625 C43.75347164 48.54947991 41.21532562 56.34038816 38.46289062 63.99731445 C33.00937809 79.15565421 26.11963272 92.03461801 14 103 C13.34 103 12.68 103 12 103 C11.67 102.34 11.34 101.68 11 101 C6.62633736 110.09306935 3.09571936 118.91938187 2 129 C1.34 128.67 0.68 128.34 0 128 C0 85.76 0 43.52 0 0 Z " fill="#FEFEFE" transform="translate(0,0)"/>
<path d="M0 0 C3.26034757 2.66489487 4.56686164 6.14394202 6.125 9.9375 C6.38925781 10.55818359 6.65351563 11.17886719 6.92578125 11.81835938 C9.05264905 16.88721436 10.13464351 20.76709323 10.0625 26.25 C10.05347656 27.14203125 10.04445312 28.0340625 10.03515625 28.953125 C10.01775391 29.96632813 10.01775391 29.96632813 10 31 C15.71262133 26.80196415 18.93123191 22.36380479 22 16 C26.11249224 23.35567718 25.68473652 33.79476749 25 42 C24.34 43.65 23.68 45.3 23 47 C28.61 47 34.22 47 40 47 C40 51.62 40 56.24 40 61 C39.01 61 38.02 61 37 61 C37 69.91 37 78.82 37 88 C37.99 88 38.98 88 40 88 C40 92.62 40 97.24 40 102 C20.2 102 0.4 102 -20 102 C-20 104.31 -20 106.62 -20 109 C-21.98 109 -23.96 109 -26 109 C-26 106.69 -26 104.38 -26 102 C-27.32 102 -28.64 102 -30 102 C-30 104.31 -30 106.62 -30 109 C-31.98 109 -33.96 109 -36 109 C-36 106.69 -36 104.38 -36 102 C-38.64 102 -41.28 102 -44 102 C-44 101.34 -44 100.68 -44 100 C-55.55 100 -67.1 100 -79 100 C-79 100.99 -79 101.98 -79 103 C-82.79258094 104.75500335 -85.75539473 105.24733843 -89.921875 105.23046875 C-91.02917969 105.22853516 -92.13648438 105.22660156 -93.27734375 105.22460938 C-94.42332031 105.21236328 -95.56929687 105.20011719 -96.75 105.1875 C-98.49216797 105.1865332 -98.49216797 105.1865332 -100.26953125 105.18554688 C-108.85966435 105.14033565 -108.85966435 105.14033565 -110 104 C-110.33 101.69 -110.66 99.38 -111 97 C-117.6 94.69 -124.2 92.38 -131 90 C-131 81.75 -131 73.5 -131 65 C-130.67 65 -130.34 65 -130 65 C-129.78085938 63.98421875 -129.56171875 62.9684375 -129.3359375 61.921875 C-127.28011168 52.84971461 -124.62349041 45.13734312 -120 37 C-117.47836179 40.78245731 -116.05565058 44.76642206 -114.4140625 48.9921875 C-112.9570811 52.09129157 -111.23633558 54.42107684 -109 57 C-108.9906543 56.35973877 -108.98130859 55.71947754 -108.97167969 55.05981445 C-108.91781153 52.14327625 -108.83419801 49.22831375 -108.75 46.3125 C-108.73582031 45.30509766 -108.72164062 44.29769531 -108.70703125 43.25976562 C-108.56762188 39.03566186 -108.29937774 35.70629059 -106.640625 31.79296875 C-104 30 -104 30 -93 30 C-93 39.24 -93 48.48 -93 58 C-95.64 58 -98.28 58 -101 58 C-103.35529281 58.41731018 -103.35529281 58.41731018 -105 59 C-105 60.32 -105 61.64 -105 63 C-99.39 63 -93.78 63 -88 63 C-88 52.11 -88 41.22 -88 30 C-86.02 30 -84.04 30 -82 30 C-82.061875 28.741875 -82.12375 27.48375 -82.1875 26.1875 C-82.31510504 23.59286414 -82.36204753 22.45486225 -80.72375488 20.39657593 C-77.73723876 17.97691837 -73.96406237 18.57455808 -70.28125 18.6015625 C-69.42696411 18.59869232 -68.57267822 18.59582214 -67.69250488 18.59286499 C-65.88695615 18.59082419 -64.08138531 18.59635517 -62.27587891 18.60888672 C-59.51023988 18.62494056 -56.74606225 18.60903901 -53.98046875 18.58984375 C-52.22655927 18.59182618 -50.4726507 18.59566985 -48.71875 18.6015625 C-47.89056763 18.59548981 -47.06238525 18.58941711 -46.20910645 18.5831604 C-40.42694828 18.65408905 -40.42694828 18.65408905 -38.27624512 20.39657593 C-35.97089452 23.29292757 -36.8245576 26.4326712 -37 30 C-35.68 30 -34.36 30 -33 30 C-33.020625 29.195625 -33.04125 28.39125 -33.0625 27.5625 C-33 25 -33 25 -32 24 C-30.00390625 23.796875 -30.00390625 23.796875 -27.5625 23.75 C-26.75941406 23.72421875 -25.95632812 23.6984375 -25.12890625 23.671875 C-24.42636719 23.78015625 -23.72382812 23.8884375 -23 24 C-21 27 -21 27 -21 30 C-13.62795395 28.50044861 -11.33113626 25.3124232 -7.01953125 19.171875 C-3.05843766 12.95058295 -0.62655478 7.36201868 0 0 Z " fill="#82A6D5" transform="translate(131,63)"/>
<path d="M0 0 C0.73041504 0.31501465 1.46083008 0.6300293 2.21337891 0.95458984 C13.41668044 5.78969893 23.9311445 11.80702821 34.5078125 17.8671875 C39.13795989 20.51869407 43.79416593 23.1103767 48.5 25.625 C49.6034375 26.21539062 50.706875 26.80578125 51.84375 27.4140625 C54.74311134 28.96321896 54.74311134 28.96321896 56.9152832 29.64550781 C58.83203125 30.3046875 58.83203125 30.3046875 62 32 C62.98046875 34.96875 62.98046875 34.96875 63.1875 38.5 C64.51640521 52.09679853 69.79569274 64.29953077 80.4375 73.1796875 C89.72539817 79.77749321 99.38708211 83.37589044 110.75 83.1875 C111.50410156 83.18685547 112.25820312 83.18621094 113.03515625 83.18554688 C116.27309953 83.15966633 118.90916405 83.03027865 122 82 C122.33 78.37 122.66 74.74 123 71 C122.34 71.99 121.68 72.98 121 74 C112.84192192 77.17774795 102.21184782 75.53348902 94.41796875 72.171875 C93.62003906 71.78515625 92.82210937 71.3984375 92 71 C91.27425781 70.69578125 90.54851562 70.3915625 89.80078125 70.078125 C87.59124608 68.9128529 86.49393236 68.01052579 85 66 C84.51147461 63.37792969 84.51147461 63.37792969 84.33984375 60.234375 C84.27506836 59.07301025 84.21029297 57.91164551 84.14355469 56.71508789 C83.90483801 50.53727885 83.73577508 44.36992813 83.6875 38.1875 C83.65849609 36.93001953 83.62949219 35.67253906 83.59960938 34.37695312 C83.54463685 26.3467361 83.82579963 20.31191131 89.56884766 14.37939453 C95.39531611 9.48702302 102.49703049 7.12445073 109.5625 4.5625 C110.75552734 4.10423828 111.94855469 3.64597656 113.17773438 3.17382812 C114.33724609 2.74650391 115.49675781 2.31917969 116.69140625 1.87890625 C117.73498291 1.4929126 118.77855957 1.10691895 119.85375977 0.70922852 C124.259321 -0.28387736 128.14957725 0.04504969 132.1875 2.12890625 C140.92185418 9.03732863 147.80856802 16.76625158 150 28 C150.06624507 29.74886981 150.08552595 31.50002748 150.0625 33.25 C150.05347656 34.14203125 150.04445312 35.0340625 150.03515625 35.953125 C150.01775391 36.96632813 150.01775391 36.96632813 150 38 C148.99839844 38.06058594 147.99679688 38.12117188 146.96484375 38.18359375 C145.62238669 38.26808405 144.27993928 38.35272768 142.9375 38.4375 C141.62652344 38.51871094 140.31554687 38.59992188 138.96484375 38.68359375 C135.27335024 38.97818584 131.65965524 39.44233825 128 40 C126.52144142 40.19223635 125.04238538 40.38075969 123.5625 40.5625 C122.386875 40.706875 121.21125 40.85125 120 41 C120.33 42.0725 120.66 43.145 121 44.25 C122 48 122 48 122 52 C124.64 51.67 127.28 51.34 130 51 C130.99 52.98 130.99 52.98 132 55 C132.66 54.01 133.32 53.02 134 52 C141.42929039 52.60895823 141.42929039 52.60895823 143.6875 54.15625 C147.84070485 59.99051395 147.27297802 70.03906047 147 77 C145.02 77.99 145.02 77.99 143 79 C143.01160156 79.71027344 143.02320313 80.42054687 143.03515625 81.15234375 C143.04417969 82.07144531 143.05320313 82.99054688 143.0625 83.9375 C143.07410156 84.85402344 143.08570313 85.77054687 143.09765625 86.71484375 C143 89 143 89 142 90 C139.32941149 90.14115161 136.67567762 90.04247107 134 90 C133.93941406 88.94039063 133.87882813 87.88078125 133.81640625 86.7890625 C133.73199873 85.40102779 133.64735083 84.01300768 133.5625 82.625 C133.52318359 81.92632812 133.48386719 81.22765625 133.44335938 80.5078125 C133.25719866 76.62639508 133.25719866 76.62639508 132 73 C131.67 74.98 131.34 76.96 131 79 C129.68 78.67 128.36 78.34 127 78 C126.67 79.65 126.34 81.3 126 83 C127.32 83 128.64 83 130 83 C130 85.31 130 87.62 130 90 C127.69 90 125.38 90 123 90 C123 92.97 123 95.94 123 99 C114.42 99 105.84 99 97 99 C97 102.96 97 106.92 97 111 C105.91 111 114.82 111 124 111 C124 111.33 124 111.66 124 112 C115.09 112 106.18 112 97 112 C97 112.66 97 113.32 97 114 C95.56260487 114.02712066 94.12506137 114.04645067 92.6875 114.0625 C91.88699219 114.07410156 91.08648437 114.08570313 90.26171875 114.09765625 C88 114 88 114 85 113 C82.77425665 112.77548542 80.54418481 112.59217122 78.3125 112.4375 C77.13300781 112.35371094 75.95351562 112.26992187 74.73828125 112.18359375 C73.83464844 112.12300781 72.93101562 112.06242187 72 112 C72 111.01 72 110.02 72 109 C71.01 109 70.02 109 69 109 C69 100.09 69 91.18 69 82 C69.99 82 70.98 82 72 82 C72 77.38 72 72.76 72 68 C66.39 68 60.78 68 55 68 C55.33 66.35 55.66 64.7 56 63 C56.84607561 50.7017653 56.84607561 50.7017653 54 39 C53.61328125 39.60328125 53.2265625 40.2065625 52.828125 40.828125 C47.33168071 49.26326227 47.33168071 49.26326227 44 52 C43.34 52 42.68 52 42 52 C41.93683594 51.175 41.87367188 50.35 41.80859375 49.5 C40.72572843 39.28687023 37.45269721 31.16731778 33 22 C32.773125 23.299375 32.54625 24.59875 32.3125 25.9375 C30.17428832 35.32512801 24.20820524 44.66766863 17 51 C13.71484375 51.30859375 13.71484375 51.30859375 11 51 C10.01 48.525 10.01 48.525 9 46 C6.03 46 3.06 46 0 46 C-0.33 47.65 -0.66 49.3 -1 51 C-2.32 51 -3.64 51 -5 51 C-5.33 47.7 -5.66 44.4 -6 41 C-11.80239614 40.95065344 -17.60467081 40.91430598 -23.40722656 40.89013672 C-25.38218309 40.88006373 -27.35712466 40.86640479 -29.33203125 40.84912109 C-32.16670418 40.82492961 -35.00118038 40.81353009 -37.8359375 40.8046875 C-38.72243988 40.79436493 -39.60894226 40.78404236 -40.52230835 40.77340698 C-42.68285952 40.7730093 -44.84293718 40.87727466 -47 41 C-49.29575603 43.29575603 -49.32339599 44.00842525 -49.625 47.125 C-49.810625 49.043125 -49.810625 49.043125 -50 51 C-51.98 51 -53.96 51 -56 51 C-56 61.89 -56 72.78 -56 84 C-61.61 84 -67.22 84 -73 84 C-73 82.68 -73 81.36 -73 80 C-72.01 80 -71.02 80 -70 80 C-70 75.05 -70 70.1 -70 65 C-69.67 65 -69.34 65 -69 65 C-69 69.62 -69 74.24 -69 79 C-66.36 79 -63.72 79 -61 79 C-61 69.76 -61 60.52 -61 51 C-66.445 51.495 -66.445 51.495 -72 52 C-75.04068419 56.05424558 -75.38124483 56.72481384 -75.51171875 61.421875 C-75.54716797 62.44667969 -75.58261719 63.47148438 -75.61914062 64.52734375 C-75.65297852 66.12255859 -75.65297852 66.12255859 -75.6875 67.75 C-75.72166016 68.82894531 -75.75582031 69.90789062 -75.79101562 71.01953125 C-75.87340663 73.67958377 -75.94258645 76.33931035 -76 79 C-79.33133091 75.86495963 -81.83457696 73.03735624 -83.875 68.9375 C-84.30554688 68.10089844 -84.73609375 67.26429687 -85.1796875 66.40234375 C-86.11533434 63.66223514 -86.17473358 62.62429015 -85 60 C-83.46875 58.3515625 -83.46875 58.3515625 -81.5 56.625 C-71.09858928 46.55911866 -65.32810235 33.30156333 -60.51171875 19.87890625 C-56.63612308 9.09665578 -52.69326685 -1.6611423 -41.81640625 -7.08984375 C-27.22229209 -11.80611088 -13.21482169 -5.91004158 0 0 Z " fill="#D8E8FD" transform="translate(99,42)"/>
<path d="M0 0 C0.33 0 0.66 0 1 0 C1 19.14 1 38.28 1 58 C-83.15 58 -167.3 58 -254 58 C-254 40.84 -254 23.68 -254 6 C-249 11 -249 11 -249 13 C-249.99 13.66 -250.98 14.32 -252 15 C-251.67 15.99 -251.34 16.98 -251 18 C-239.36772844 23.5900669 -224.80366045 23.72758445 -212.19110107 24.80993652 C-209.93028298 25.00604749 -207.67051952 25.21227071 -205.41064453 25.41894531 C-145.42784214 30.79161056 -83.00984923 30.78583098 -23.25 23.0625 C-22.12464844 22.9171582 -20.99929687 22.77181641 -19.83984375 22.62207031 C-13.33301029 21.66387223 -6.73214893 20.38601267 -1 17 C-0.67 16.01 -0.34 15.02 0 14 C-1.65 13.34 -3.3 12.68 -5 12 C-3.41037341 7.96479403 -1.71767682 3.98188718 0 0 Z " fill="#FEFEFE" transform="translate(254,150)"/>
<path d="M0 0 C1.98 0.99 3.96 1.98 6 3 C4.125 7.75 4.125 7.75 3 10 C4.258125 10.185625 5.51625 10.37125 6.8125 10.5625 C9.03515625 11.09375 9.03515625 11.09375 11 12 C12.75 15.5625 12.75 15.5625 14 19 C16.06890419 20.04289755 16.06890419 20.04289755 18 20 C19.12540242 17.82958104 20.0831822 15.75639499 20.875 13.4375 C22.16746773 10.63715325 23.37072882 9.56112976 26 8 C26.66 8 27.32 8 28 8 C27.57616334 10.37348527 27.12872859 11.83616361 25.625 13.75 C23.32868204 16.72128519 23.32868204 16.72128519 21 24 C34.86 24.33 48.72 24.66 63 25 C63 40.18 63 55.36 63 71 C45.18 71 27.36 71 9 71 C9 63.74 9 56.48 9 49 C6.69 49 4.38 49 2 49 C2 56.26 2 63.52 2 71 C1.01 71 0.02 71 -1 71 C-0.86068862 67.9163358 -0.71240719 64.83316583 -0.5625 61.75 C-0.52318359 60.87730469 -0.48386719 60.00460938 -0.44335938 59.10546875 C-0.40146484 58.26113281 -0.35957031 57.41679687 -0.31640625 56.546875 C-0.26141968 55.38430176 -0.26141968 55.38430176 -0.20532227 54.19824219 C0 52 0 52 0.51586914 49.95019531 C1.25413364 46.97628868 1.05860544 44.04748277 1 41 C0.34 40.67 -0.32 40.34 -1 40 C-1 42.97 -1 45.94 -1 49 C-3.31 49 -5.62 49 -8 49 C-8 56.26 -8 63.52 -8 71 C-9.32 71 -10.64 71 -12 71 C-12 59.78 -12 48.56 -12 37 C-12.66 37 -13.32 37 -14 37 C-14.27474132 28.895131 -14.60843821 18.91265731 -10 12 C-7.375 11.8125 -7.375 11.8125 -5 12 C-4.92398025 15.72496781 -5.01376261 19.0750688 -5.6875 22.75 C-5.790625 23.8225 -5.89375 24.895 -6 26 C-4.58717777 27.71024911 -4.58717777 27.71024911 -3 29 C-2.80386406 25.97950658 -2.61785145 22.95894342 -2.4375 19.9375 C-2.38142578 19.08994141 -2.32535156 18.24238281 -2.26757812 17.36914062 C-2.04245362 13.48199086 -1.91677525 9.84991564 -2.5625 6 C-3 3 -3 3 -1.5625 1.0625 C-1.046875 0.711875 -0.53125 0.36125 0 0 Z " fill="#FBFBFA" transform="translate(103,90)"/>
<path d="M0 0 C7.20013942 6.36176702 15.02407151 14.03118944 15.84643555 24.12988281 C15.89238214 25.5756385 15.91536601 27.02226674 15.91796875 28.46875 C15.93438164 29.640961 15.93438164 29.640961 15.9511261 30.83685303 C15.96689162 32.48052431 15.97221646 34.1243262 15.9675293 35.76806641 C15.9687411 38.24740653 16.02851876 40.72078472 16.09179688 43.19921875 C16.20439129 53.481552 15.10109725 60.82773841 8.28125 69.015625 C7.29125 69.675625 6.30125 70.335625 5.28125 71.015625 C5.19488281 70.18417969 5.10851562 69.35273437 5.01953125 68.49609375 C4.87902344 67.40941406 4.73851562 66.32273437 4.59375 65.203125 C4.46613281 64.12417969 4.33851563 63.04523438 4.20703125 61.93359375 C3.53144818 58.84291956 3.53144818 58.84291956 0.8671875 57.15234375 C-1.96184276 55.908767 -3.66905332 55.52107959 -6.71875 56.015625 C-7.37875 57.005625 -8.03875 57.995625 -8.71875 59.015625 C-9.37875 57.365625 -10.03875 55.715625 -10.71875 54.015625 C-11.70875 54.510625 -11.70875 54.510625 -12.71875 55.015625 C-14.71835012 55.055617 -16.71922242 55.05909299 -18.71875 55.015625 C-19.37875 51.385625 -20.03875 47.755625 -20.71875 44.015625 C-10.90102147 40.08853359 -1.11389462 40.72056631 9.28125 41.015625 C8.23752421 28.85082097 5.46495536 17.83459822 -3.9375 9.421875 C-9.35090763 5.12491452 -9.35090763 5.12491452 -16.12109375 4.125 C-22.30357009 5.05895613 -28.04708046 7.50955339 -33.84375 9.765625 C-34.99746094 10.19617188 -36.15117187 10.62671875 -37.33984375 11.0703125 C-44.71382552 13.91103904 -50.23177862 16.09707765 -54.578125 22.9453125 C-56.69875373 28.70086057 -56.06702349 35.10908979 -55.96875 41.140625 C-55.96359375 42.38328125 -55.9584375 43.6259375 -55.953125 44.90625 C-55.92217661 48.61232014 -55.83714442 52.31135966 -55.71875 56.015625 C-55.68007812 57.2423291 -55.64140625 58.4690332 -55.6015625 59.73291016 C-55.54226562 60.8935498 -55.48296875 62.05418945 -55.421875 63.25 C-55.37192383 64.28608398 -55.32197266 65.32216797 -55.27050781 66.38964844 C-54.61767033 69.49669267 -53.79869727 70.3697716 -51.21875 72.140625 C-49.01806358 73.18865429 -49.01806358 73.18865429 -46.71875 74.015625 C-46.04585937 74.32886719 -45.37296875 74.64210938 -44.6796875 74.96484375 C-36.92973841 78.17221968 -27.75630473 78.02501368 -19.71875 76.015625 C-19.05875 73.045625 -18.39875 70.075625 -17.71875 67.015625 C-17.38875 67.015625 -17.05875 67.015625 -16.71875 67.015625 C-16.64484209 71.67182322 -16.64435174 76.30593138 -16.96875 80.953125 C-17.01515625 81.68402344 -17.0615625 82.41492188 -17.109375 83.16796875 C-17.71875 85.015625 -17.71875 85.015625 -19.265625 86.24609375 C-30.56792758 89.79156128 -43.42015411 86.76947309 -53.58203125 81.54296875 C-66.41642888 74.03404731 -73.78074618 63.11468577 -78.09375 49.015625 C-80.94233777 34.86170451 -77.18540497 21.78802517 -69.68359375 9.734375 C-63.00041307 0.4868725 -51.3542133 -7.66732412 -39.98046875 -9.765625 C-25.19596431 -11.1955598 -12.1170001 -9.28970008 0 0 Z " fill="#7EA4D4" transform="translate(239.71875,38.984375)"/>
<path d="M0 0 C8.73435418 6.90842238 15.62106802 14.63734533 17.8125 25.87109375 C17.87874507 27.61996356 17.89802595 29.37112123 17.875 31.12109375 C17.86597656 32.013125 17.85695313 32.90515625 17.84765625 33.82421875 C17.83605469 34.4996875 17.82445312 35.17515625 17.8125 35.87109375 C16.81089844 35.93167969 15.80929688 35.99226563 14.77734375 36.0546875 C13.43488669 36.1391778 12.09243928 36.22382143 10.75 36.30859375 C9.43902344 36.38980469 8.12804687 36.47101563 6.77734375 36.5546875 C3.08585024 36.84927959 -0.52784476 37.313432 -4.1875 37.87109375 C-5.66605858 38.0633301 -7.14511462 38.25185344 -8.625 38.43359375 C-9.800625 38.57796875 -10.97625 38.72234375 -12.1875 38.87109375 C-11.6925 40.47984375 -11.6925 40.47984375 -11.1875 42.12109375 C-10.1875 45.87109375 -10.1875 45.87109375 -10.1875 49.87109375 C-9.1975 50.36609375 -9.1975 50.36609375 -8.1875 50.87109375 C-8.64769531 51.26941406 -9.10789063 51.66773438 -9.58203125 52.078125 C-11.4549322 54.16975891 -12.06139302 55.88531367 -12.875 58.55859375 C-13.25205078 59.77095703 -13.25205078 59.77095703 -13.63671875 61.0078125 C-13.81847656 61.62269531 -14.00023437 62.23757812 -14.1875 62.87109375 C-14.80625 62.08734375 -15.425 61.30359375 -16.0625 60.49609375 C-18.08608661 57.90271728 -18.08608661 57.90271728 -20.1875 55.87109375 C-20.8475 56.53109375 -21.5075 57.19109375 -22.1875 57.87109375 C-21.28665739 59.52564134 -20.36622392 61.16953395 -19.4375 62.80859375 C-18.92703125 63.72511719 -18.4165625 64.64164062 -17.890625 65.5859375 C-16.39889705 68.02001888 -16.39889705 68.02001888 -13.984375 68.6875 C-13.39140625 68.74808594 -12.7984375 68.80867188 -12.1875 68.87109375 C-11.1975 67.55109375 -10.2075 66.23109375 -9.1875 64.87109375 C-9.375 67.74609375 -9.375 67.74609375 -10.1875 70.87109375 C-16.6902939 74.43752551 -25.2827434 73.77746762 -32.30078125 72.1484375 C-35.037495 71.21348827 -37.58639909 70.13172424 -40.1875 68.87109375 C-40.91324219 68.566875 -41.63898438 68.26265625 -42.38671875 67.94921875 C-44.59625392 66.78394665 -45.69356764 65.88161954 -47.1875 63.87109375 C-47.67602539 61.24902344 -47.67602539 61.24902344 -47.84765625 58.10546875 C-47.94481934 56.36342163 -47.94481934 56.36342163 -48.04394531 54.58618164 C-48.28266199 48.4083726 -48.45172492 42.24102188 -48.5 36.05859375 C-48.52900391 34.80111328 -48.55800781 33.54363281 -48.58789062 32.24804688 C-48.64286315 24.21782985 -48.36170037 18.18300506 -42.61865234 12.25048828 C-36.79218389 7.35811677 -29.69046951 4.99554448 -22.625 2.43359375 C-21.43197266 1.97533203 -20.23894531 1.51707031 -19.00976562 1.04492188 C-17.27049805 0.40393555 -17.27049805 0.40393555 -15.49609375 -0.25 C-14.45251709 -0.63599365 -13.40894043 -1.0219873 -12.33374023 -1.41967773 C-7.928179 -2.41278361 -4.03792275 -2.08385656 0 0 Z " fill="#FADBB9" transform="translate(231.1875,44.12890625)"/>
<path d="M0 0 C0 9.24 0 18.48 0 28 C-2.64 28 -5.28 28 -8 28 C-10.35529281 28.41731018 -10.35529281 28.41731018 -12 29 C-12 30.32 -12 31.64 -12 33 C-11.44014404 32.98428955 -10.88028809 32.9685791 -10.3034668 32.95239258 C-7.7649141 32.89000152 -5.22652271 32.85099782 -2.6875 32.8125 C-1.80642578 32.78736328 -0.92535156 32.76222656 -0.01757812 32.73632812 C1.25375977 32.72182617 1.25375977 32.72182617 2.55078125 32.70703125 C3.33106689 32.6913208 4.11135254 32.67561035 4.9152832 32.65942383 C7 33 7 33 8.75976562 34.03515625 C10.69017244 37.09340705 10.36736575 40.23148702 10.29296875 43.73046875 C10.28872391 44.48088943 10.28447906 45.23131012 10.28010559 46.00447083 C10.2633245 48.39918026 10.2256749 50.79304534 10.1875 53.1875 C10.17245235 54.8118368 10.15876409 56.4361868 10.14648438 58.06054688 C10.11342305 62.04068948 10.06164594 66.02020163 10 70 C10.99 70 11.98 70 13 70 C13 70.66 13 71.32 13 72 C12.01 72 11.02 72 10 72 C9.505 73.485 9.505 73.485 9 75 C4.85418113 75.02886751 0.70838784 75.04675327 -3.4375 75.0625 C-4.62150391 75.07087891 -5.80550781 75.07925781 -7.02539062 75.08789062 C-8.15009766 75.09111328 -9.27480469 75.09433594 -10.43359375 75.09765625 C-11.99678345 75.10551147 -11.99678345 75.10551147 -13.59155273 75.11352539 C-16 75 -16 75 -17 74 C-17.33 71.69 -17.66 69.38 -18 67 C-27.9 63.535 -27.9 63.535 -38 60 C-38 51.75 -38 43.5 -38 35 C-37.67 35 -37.34 35 -37 35 C-36.78085937 33.98421875 -36.56171875 32.9684375 -36.3359375 31.921875 C-34.28011168 22.84971461 -31.62349041 15.13734312 -27 7 C-24.47836179 10.78245731 -23.05565058 14.76642206 -21.4140625 18.9921875 C-19.9570811 22.09129157 -18.23633558 24.42107684 -16 27 C-15.9906543 26.35973877 -15.98130859 25.71947754 -15.97167969 25.05981445 C-15.91781153 22.14327625 -15.83419801 19.22831375 -15.75 16.3125 C-15.73582031 15.30509766 -15.72164062 14.29769531 -15.70703125 13.25976562 C-15.56762188 9.03566186 -15.29937774 5.70629059 -13.640625 1.79296875 C-11 0 -11 0 0 0 Z " fill="#72A86E" transform="translate(38,93)"/>
<path d="M0 0 C0.66 1.32 1.32 2.64 2 4 C2.66 3.01 3.32 2.02 4 1 C11.42929039 1.60895823 11.42929039 1.60895823 13.6875 3.15625 C17.84070485 8.99051395 17.27297802 19.03906047 17 26 C15.68 26.66 14.36 27.32 13 28 C13.01160156 28.71027344 13.02320313 29.42054687 13.03515625 30.15234375 C13.04417969 31.07144531 13.05320312 31.99054688 13.0625 32.9375 C13.07410156 33.85402344 13.08570313 34.77054688 13.09765625 35.71484375 C13 38 13 38 12 39 C9.32941149 39.14115161 6.67567762 39.04247107 4 39 C3.93941406 37.94039062 3.87882812 36.88078125 3.81640625 35.7890625 C3.73199873 34.40102779 3.64735083 33.01300768 3.5625 31.625 C3.52318359 30.92632812 3.48386719 30.22765625 3.44335938 29.5078125 C3.25719866 25.62639508 3.25719866 25.62639508 2 22 C1.67 23.98 1.34 25.96 1 28 C-0.32 27.67 -1.64 27.34 -3 27 C-3.495 29.475 -3.495 29.475 -4 32 C-2.68 32 -1.36 32 0 32 C0 34.31 0 36.62 0 39 C-2.31 39 -4.62 39 -7 39 C-7 41.97 -7 44.94 -7 48 C-15.58 48 -24.16 48 -33 48 C-33 51.96 -33 55.92 -33 60 C-24.09 60 -15.18 60 -6 60 C-6 60.33 -6 60.66 -6 61 C-14.91 61 -23.82 61 -33 61 C-33 61.66 -33 62.32 -33 63 C-34.43739513 63.02712066 -35.87493863 63.04645067 -37.3125 63.0625 C-38.11300781 63.07410156 -38.91351563 63.08570313 -39.73828125 63.09765625 C-42 63 -42 63 -45 62 C-47.22574335 61.77548542 -49.45581519 61.59217122 -51.6875 61.4375 C-52.86699219 61.35371094 -54.04648438 61.26992187 -55.26171875 61.18359375 C-56.61716797 61.09271484 -56.61716797 61.09271484 -58 61 C-58 60.01 -58 59.02 -58 58 C-56.515 57.505 -56.515 57.505 -55 57 C-55 48.75 -55 40.5 -55 32 C-55.66 31.67 -56.32 31.34 -57 31 C-57 26.05 -57 21.1 -57 16 C-56.0925 16.845625 -55.185 17.69125 -54.25 18.5625 C-40.91096714 29.93436235 -27.98815848 32.94277934 -11 32 C-10.01 31.67 -9.02 31.34 -8 31 C-7.67 26.05 -7.34 21.1 -7 16 C-7.99 17.65 -8.98 19.3 -10 21 C-12.59076445 20.63067826 -13.71552398 20.34341442 -15.4140625 18.29296875 C-15.81367188 17.59816406 -16.21328125 16.90335938 -16.625 16.1875 C-17.02976563 15.50042969 -17.43453125 14.81335938 -17.8515625 14.10546875 C-18.94991964 12.09181399 -19.9909815 10.05969373 -21 8 C-19.68 7.34 -18.36 6.68 -17 6 C-14.525 9.465 -14.525 9.465 -12 13 C-11.86464844 12.31292969 -11.72929687 11.62585938 -11.58984375 10.91796875 C-9.86039972 3.67915811 -9.86039972 3.67915811 -7.3125 1.66796875 C-4.89032863 0.64359211 -2.6407889 0 0 0 Z " fill="#D9E9FD" transform="translate(229,93)"/>
<path d="M0 0 C9.9 0 19.8 0 30 0 C30 15.18 30 30.36 30 46 C12.18 46 -5.64 46 -24 46 C-24 45.67 -24 45.34 -24 45 C-14.1 44.505 -14.1 44.505 -4 44 C-4 30.14 -4 16.28 -4 2 C-3.01 2 -2.02 2 -1 2 C-0.67 1.34 -0.34 0.68 0 0 Z " fill="#E4EBEC" transform="translate(136,115)"/>
<path d="M0 0 C1.32 0 2.64 0 4 0 C3.67 5.61 3.34 11.22 3 17 C3.66 17 4.32 17 5 17 C5 28.22 5 39.44 5 51 C6.32 51 7.64 51 9 51 C9 43.74 9 36.48 9 29 C11.31 29 13.62 29 16 29 C16 26.03 16 23.06 16 20 C16.99 20.33 17.98 20.66 19 21 C19.09492726 25.91723208 18.75632157 30.57062022 18.0625 35.4375 C17.88074219 36.736875 17.69898437 38.03625 17.51171875 39.375 C17.34285156 40.57125 17.17398438 41.7675 17 43 C16.65545868 45.66546255 16.32665937 48.33228185 16 51 C16.99 51 17.98 51 19 51 C19 43.74 19 36.48 19 29 C21.31 29 23.62 29 26 29 C26 36.26 26 43.52 26 51 C43.82 51 61.64 51 80 51 C80 35.82 80 20.64 80 5 C65.81 5 51.62 5 37 5 C37.66 3.35 38.32 1.7 39 0 C54.18 0 69.36 0 85 0 C85 4.62 85 9.24 85 14 C84.01 14 83.02 14 82 14 C82 22.91 82 31.82 82 41 C82.99 41 83.98 41 85 41 C85 45.62 85 50.24 85 55 C65.2 55 45.4 55 25 55 C25 57.31 25 59.62 25 62 C23.02 62 21.04 62 19 62 C19 59.69 19 57.38 19 55 C17.68 55 16.36 55 15 55 C15 57.31 15 59.62 15 62 C13.02 62 11.04 62 9 62 C9 59.69 9 57.38 9 55 C6.36 55 3.72 55 1 55 C-0.26372044 52.47255912 -0.12022795 50.73619692 -0.11352539 47.90771484 C-0.11344986 46.84676605 -0.11337433 45.78581726 -0.11329651 44.69271851 C-0.10813522 43.54373077 -0.10297394 42.39474304 -0.09765625 41.2109375 C-0.0962413 40.03737701 -0.09482635 38.86381653 -0.09336853 37.6546936 C-0.08775689 33.89477015 -0.07520238 30.13490555 -0.0625 26.375 C-0.0574865 23.83073002 -0.05292333 21.28645912 -0.04882812 18.7421875 C-0.03778368 12.49477147 -0.02103418 6.24738994 0 0 Z " fill="#EC493F" transform="translate(86,110)"/>
<path d="M0 0 C0.495 3.96 0.495 3.96 1 8 C1.99 8 2.98 8 4 8 C3.67 9.65 3.34 11.3 3 13 C2.23816406 13.00257812 1.47632813 13.00515625 0.69140625 13.0078125 C-7.02699722 13.29689128 -12.21777938 14.75794436 -18 20 C-20.64308612 23.15564721 -21.83231115 26.04782234 -23 30 C-24.9375 29.3125 -24.9375 29.3125 -27 28 C-27.5 25.5 -27.5 25.5 -28 23 C-29.96758273 21.63979849 -29.96758273 21.63979849 -32 21 C-32 21.99 -32 22.98 -32 24 C-32.99 24.66 -33.98 25.32 -35 26 C-35.72965366 28.56282742 -35.72965366 28.56282742 -36 31 C-32.21812119 32.83691257 -30.05431692 33.15837626 -26 32 C-26.37540214 35.22845837 -26.67851908 37.52357854 -28.515625 40.24609375 C-31.40460707 45.60591575 -30.61346328 52.08263549 -30 58 C-28.9456541 60.73251312 -27.69948112 62.58783325 -26 65 C-26.33 65.99 -26.66 66.98 -27 68 C-29.24940295 68.08119503 -31.49964871 68.13927819 -33.75 68.1875 C-35.00296875 68.22230469 -36.2559375 68.25710937 -37.546875 68.29296875 C-41.30630321 67.97401274 -42.39249211 67.62455498 -45 65 C-45.59838867 62.3840332 -45.59838867 62.3840332 -45.73046875 59.23828125 C-45.78509277 58.07635254 -45.8397168 56.91442383 -45.89599609 55.71728516 C-45.93031738 54.49058105 -45.96463867 53.26387695 -46 52 C-46.04334473 50.79520996 -46.08668945 49.59041992 -46.13134766 48.34912109 C-46.23944882 44.6277755 -46.28343121 40.91024339 -46.3125 37.1875 C-46.34150391 35.93001953 -46.37050781 34.67253906 -46.40039062 33.37695312 C-46.45536315 25.3467361 -46.17420037 19.31191131 -40.43115234 13.37939453 C-34.60468389 8.48702302 -27.50296951 6.12445073 -20.4375 3.5625 C-19.24447266 3.10423828 -18.05144531 2.64597656 -16.82226562 2.17382812 C-15.08299805 1.5328418 -15.08299805 1.5328418 -13.30859375 0.87890625 C-12.26501709 0.4929126 -11.22144043 0.10691895 -10.14624023 -0.29077148 C-6.46489355 -1.12062421 -3.67651004 -0.73090904 0 0 Z " fill="#F9D7B3" transform="translate(229,43)"/>
<path d="M0 0 C3.26034757 2.66489487 4.56686164 6.14394202 6.125 9.9375 C6.52138672 10.86852539 6.52138672 10.86852539 6.92578125 11.81835938 C9.05264905 16.88721436 10.13464351 20.76709323 10.0625 26.25 C10.05347656 27.14203125 10.04445312 28.0340625 10.03515625 28.953125 C10.02355469 29.62859375 10.01195312 30.3040625 10 31 C15.71262133 26.80196415 18.93123191 22.36380479 22 16 C26.11249224 23.35567718 25.68473652 33.79476749 25 42 C24.34 43.65 23.68 45.3 23 47 C13.76 47 4.52 47 -5 47 C-3.92682927 40.56097561 -3.92682927 40.56097561 -1 38 C-0.67 37.01 -0.34 36.02 0 35 C-4.35900121 37.55854419 -6.50475185 39.14044352 -8 44 C-8.66 44.99 -9.32 45.98 -10 47 C-11.65 46.67 -13.3 46.34 -15 46 C-15.2475 44.6078125 -15.2475 44.6078125 -15.5 43.1875 C-17.1842647 39.60843752 -17.6106519 39.41028278 -21.125 38.125 C-22.40982976 37.72720573 -23.69991255 37.34467435 -25 37 C-23.125 32.25 -23.125 32.25 -22 30 C-24.49064888 29.31292445 -26.37886292 29 -29 29 C-29.79953138 32.28696233 -30.09658936 33.71023192 -29 37 C-28.98453739 38.48354153 -29.03164202 39.96829574 -29.12109375 41.44921875 C-29.16943359 42.29677734 -29.21777344 43.14433594 -29.26757812 44.01757812 C-29.32365234 44.89865234 -29.37972656 45.77972656 -29.4375 46.6875 C-29.48970703 47.58017578 -29.54191406 48.47285156 -29.59570312 49.39257812 C-29.7252818 51.5954156 -29.86024246 53.79778873 -30 56 C-30.99 56 -31.98 56 -33 56 C-35.5371218 52.1943173 -35.01883756 50.54589894 -34.5625 46.0625 C-34.15618772 41.99510022 -33.99900479 38.92259913 -35 35 C-34.6953125 32.45703125 -34.6953125 32.45703125 -34.125 29.8125 C-33.94195312 28.93207031 -33.75890625 28.05164063 -33.5703125 27.14453125 C-33 25 -33 25 -32 24 C-30.00390625 23.796875 -30.00390625 23.796875 -27.5625 23.75 C-26.75941406 23.72421875 -25.95632812 23.6984375 -25.12890625 23.671875 C-24.42636719 23.78015625 -23.72382812 23.8884375 -23 24 C-21 27 -21 27 -21 30 C-13.62795395 28.50044861 -11.33113626 25.3124232 -7.01953125 19.171875 C-3.05843766 12.95058295 -0.62655478 7.36201868 0 0 Z " fill="#7DB77A" transform="translate(131,63)"/>
<path d="M0 0 C0.92425781 -0.00386719 1.84851563 -0.00773437 2.80078125 -0.01171875 C4.24517578 0.00568359 4.24517578 0.00568359 5.71875 0.0234375 C6.68167969 0.01183594 7.64460938 0.00023438 8.63671875 -0.01171875 C9.56097656 -0.00785156 10.48523438 -0.00398438 11.4375 0 C12.28248047 0.00338379 13.12746094 0.00676758 13.99804688 0.01025391 C16.21875 0.3984375 16.21875 0.3984375 17.99926758 1.44018555 C19.90408392 4.49895069 19.58588881 7.64059808 19.51171875 11.12890625 C19.50747391 11.87932693 19.50322906 12.62974762 19.49885559 13.40290833 C19.4820745 15.79761776 19.4444249 18.19148284 19.40625 20.5859375 C19.39120235 22.2102743 19.37751409 23.8346243 19.36523438 25.45898438 C19.33217305 29.43912698 19.28039594 33.41863913 19.21875 37.3984375 C20.20875 37.3984375 21.19875 37.3984375 22.21875 37.3984375 C22.21875 38.0584375 22.21875 38.7184375 22.21875 39.3984375 C21.22875 39.3984375 20.23875 39.3984375 19.21875 39.3984375 C18.88875 40.3884375 18.55875 41.3784375 18.21875 42.3984375 C14.07293113 42.42730501 9.92713784 42.44519077 5.78125 42.4609375 C4.00524414 42.47350586 4.00524414 42.47350586 2.19335938 42.48632812 C1.06865234 42.48955078 -0.05605469 42.49277344 -1.21484375 42.49609375 C-2.77803345 42.50394897 -2.77803345 42.50394897 -4.37280273 42.51196289 C-6.78125 42.3984375 -6.78125 42.3984375 -7.78125 41.3984375 C-7.90712684 38.62189951 -7.96991866 35.87159423 -7.984375 33.09375 C-7.99007507 32.25883026 -7.99577515 31.42391052 -8.00164795 30.56369019 C-8.01111258 28.79328688 -8.01763772 27.02286583 -8.02148438 25.25244141 C-8.03118472 22.54167952 -8.06219145 19.8316773 -8.09375 17.12109375 C-8.10028028 15.40365035 -8.10553065 13.68620151 -8.109375 11.96875 C-8.1278952 10.74987595 -8.1278952 10.74987595 -8.14678955 9.50637817 C-8.12426961 3.82341741 -8.12426961 3.82341741 -6.39776611 1.68438721 C-4.20829795 -0.0573498 -2.77600258 0.01111672 0 0 Z " fill="#CC3F36" transform="translate(28.78125,125.6015625)"/>
<path d="M0 0 C0.33 0 0.66 0 1 0 C2.19190363 8.34332544 2.09283549 16.59323022 2 25 C3.98 25 5.96 25 8 25 C8.78579793 29.14923058 9.11854983 33.05293431 9.09765625 37.2734375 C9.09443359 38.42714844 9.09121094 39.58085937 9.08789062 40.76953125 C9.07532227 42.55423828 9.07532227 42.55423828 9.0625 44.375 C9.05798828 45.58800781 9.05347656 46.80101562 9.04882812 48.05078125 C9.03708354 51.03390507 9.0206584 54.01692679 9 57 C7.02 57 5.04 57 3 57 C3 56.34 3 55.68 3 55 C1.68 55 0.36 55 -1 55 C-1 55.66 -1 56.32 -1 57 C-2.98 57 -4.96 57 -7 57 C-7 56.34 -7 55.68 -7 55 C-10.3 55 -13.6 55 -17 55 C-17.33 52.36 -17.66 49.72 -18 47 C-14.7 47 -11.4 47 -8 47 C-8 46.34 -8 45.68 -8 45 C-16.91 45 -25.82 45 -35 45 C-35 41.04 -35 37.08 -35 33 C-26.42 33 -17.84 33 -9 33 C-9 30.03 -9 27.06 -9 24 C-6.69 24 -4.38 24 -2 24 C-2 21.69 -2 19.38 -2 17 C-3.32 17 -4.64 17 -6 17 C-6 15.35 -6 13.7 -6 12 C-4.68 12 -3.36 12 -2 12 C-1.34 8.04 -0.68 4.08 0 0 Z " fill="#85BC82" transform="translate(231,108)"/>
<path d="M0 0 C-2.46590393 2.46590393 -4.52571803 3.03149571 -7.8203125 4.171875 C-8.9959375 4.58953125 -10.1715625 5.0071875 -11.3828125 5.4375 C-13.85186288 6.30347174 -16.3231867 7.16299201 -18.796875 8.015625 C-30.61588795 12.10376256 -30.61588795 12.10376256 -38.68920898 21.09106445 C-40.467682 25.56982567 -40.37861024 29.89181853 -40.29296875 34.65234375 C-40.28872391 35.55247696 -40.28447906 36.45261017 -40.28010559 37.38002014 C-40.26341816 40.23282786 -40.22578497 43.08490863 -40.1875 45.9375 C-40.1724403 47.88084912 -40.15875415 49.82420939 -40.14648438 51.76757812 C-40.11354726 56.51199549 -40.0618344 61.25587483 -40 66 C-48.65709907 58.93373848 -52.95765859 50.33873127 -54.35546875 39.15625 C-54.8897977 28.18084446 -50.96099053 18.25459856 -43.87109375 9.9296875 C-37.73554965 3.60200737 -31.35471888 0.6319389 -23 -2 C-15.21094429 -4.5963519 -7.40708949 -3.07257046 0 0 Z " fill="#3D556F" transform="translate(224,41)"/>
<path d="M0 0 C0.66 1.32 1.32 2.64 2 4 C2.66 3.01 3.32 2.02 4 1 C11.42929039 1.60895823 11.42929039 1.60895823 13.6875 3.15625 C17.84070485 8.99051395 17.27297802 19.03906047 17 26 C15.02 26.99 15.02 26.99 13 28 C13.01160156 28.71027344 13.02320313 29.42054687 13.03515625 30.15234375 C13.04417969 31.07144531 13.05320313 31.99054688 13.0625 32.9375 C13.07410156 33.85402344 13.08570313 34.77054688 13.09765625 35.71484375 C13 38 13 38 12 39 C9.32941149 39.14115161 6.67567762 39.04247107 4 39 C3.93941406 37.94039062 3.87882812 36.88078125 3.81640625 35.7890625 C3.73199873 34.40102779 3.64735083 33.01300768 3.5625 31.625 C3.52318359 30.92632812 3.48386719 30.22765625 3.44335938 29.5078125 C3.25719866 25.62639508 3.25719866 25.62639508 2 22 C1.67 23.98 1.34 25.96 1 28 C-0.32 27.67 -1.64 27.34 -3 27 C-3.33 28.65 -3.66 30.3 -4 32 C-2.68 32 -1.36 32 0 32 C0 34.31 0 36.62 0 39 C-5.75 39.125 -5.75 39.125 -8 38 C-7.67 30.74 -7.34 23.48 -7 16 C-8.485 18.475 -8.485 18.475 -10 21 C-12.59076445 20.63067826 -13.71552398 20.34341442 -15.4140625 18.29296875 C-15.81367188 17.59816406 -16.21328125 16.90335938 -16.625 16.1875 C-17.02976563 15.50042969 -17.43453125 14.81335938 -17.8515625 14.10546875 C-18.94991964 12.09181399 -19.9909815 10.05969373 -21 8 C-19.68 7.34 -18.36 6.68 -17 6 C-14.525 9.465 -14.525 9.465 -12 13 C-11.79697266 11.96939453 -11.79697266 11.96939453 -11.58984375 10.91796875 C-9.86039972 3.67915811 -9.86039972 3.67915811 -7.3125 1.66796875 C-4.89032863 0.64359211 -2.6407889 0 0 0 Z " fill="#FBFCFB" transform="translate(229,93)"/>
<path d="M0 0 C3.44600375 2.06011093 5.46088196 3.58976044 7.71875 6.9765625 C7.99362822 9.81793522 8.13464299 12.50903975 8.15625 15.3515625 C8.18912109 16.10695313 8.22199219 16.86234375 8.25585938 17.640625 C8.29659287 21.8769081 8.11494135 23.48280656 5.37109375 26.90234375 C0.22206338 30.92905233 -3.6691029 32.68500683 -10.28125 31.9765625 C-15.91576018 29.83544863 -19.93697015 26.6651222 -22.65625 21.2265625 C-23.75179975 15.52970379 -23.21462214 10.87920572 -20.65625 5.6640625 C-15.12553022 -0.59438356 -7.97460552 -3.57764837 0 0 Z " fill="#FAFCFC" transform="translate(78.28125,111.0234375)"/>
<path d="M0 0 C7.59 0 15.18 0 23 0 C23 14.85 23 29.7 23 45 C17.39 45 11.78 45 6 45 C7.485 44.505 7.485 44.505 9 44 C9 30.14 9 16.28 9 2 C8.34 2 7.68 2 7 2 C7 15.53 7 29.06 7 43 C5.515 43.495 5.515 43.495 4 44 C4 30.14 4 16.28 4 2 C3.34 2 2.68 2 2 2 C1.67 2.99 1.34 3.98 1 5 C0.67 3.35 0.34 1.7 0 0 Z M1 44 C4 45 4 45 4 45 Z " fill="#FDFEFD" transform="translate(143,115)"/>
<path d="M0 0 C0.33 0 0.66 0 1 0 C1.15315951 7.47043337 1.25763633 14.94045633 1.32958984 22.41210938 C1.3596109 24.94937266 1.4004411 27.48653351 1.45263672 30.0234375 C1.52609598 33.6877583 1.5596055 37.35069767 1.5859375 41.015625 C1.61690521 42.13487366 1.64787292 43.25412231 1.67977905 44.4072876 C1.6833284 52.8675079 -0.69131025 58.76765464 -5 66 C-7.97 65.34 -10.94 64.68 -14 64 C-14.33 55.09 -14.66 46.18 -15 37 C-16.98 37 -18.96 37 -21 37 C-21 36.67 -21 36.34 -21 36 C-18.36 35.67 -15.72 35.34 -13 35 C-12.96261719 34.30132812 -12.92523438 33.60265625 -12.88671875 32.8828125 C-12.82097656 31.97273438 -12.75523437 31.06265625 -12.6875 30.125 C-12.62949219 29.22007813 -12.57148438 28.31515625 -12.51171875 27.3828125 C-12 25 -12 25 -9 23 C-8.90297467 21.11913678 -8.90297467 21.11913678 -9.25 19 C-9.48172674 13.48312104 -7.03079359 10.48379181 -3.7265625 6.26171875 C-2.17460925 4.22873021 -1.0516398 2.3210434 0 0 Z " fill="#D8E8FD" transform="translate(254,96)"/>
<path d="M0 0 C15.18 0 30.36 0 46 0 C46 4.62 46 9.24 46 14 C45.01 14 44.02 14 43 14 C43 22.91 43 31.82 43 41 C43.99 41 44.98 41 46 41 C46 45.62 46 50.24 46 55 C26.2 55 6.4 55 -14 55 C-14 52.03 -14 49.06 -14 46 C-13.67 46 -13.34 46 -13 46 C-13 47.65 -13 49.3 -13 51 C4.82 51 22.64 51 41 51 C41 35.82 41 20.64 41 5 C26.81 5 12.62 5 -2 5 C-1.34 3.35 -0.68 1.7 0 0 Z " fill="#EFC750" transform="translate(125,110)"/>
<path d="M0 0 C3.1130154 2.5470126 4.15834165 5.09776585 5 9 C3.7 14.3 3.7 14.3 2 16 C2.2784375 17.60875 2.2784375 17.60875 2.5625 19.25 C3.16670151 24.4288701 1.82715827 26.75926259 -1 31 C-3.26473658 34.60299002 -5.18217109 38.30777485 -7.03515625 42.1328125 C-8 44 -8 44 -10 47 C-11.65 46.67 -13.3 46.34 -15 46 C-15.2475 44.6078125 -15.2475 44.6078125 -15.5 43.1875 C-17.1842647 39.60843752 -17.6106519 39.41028278 -21.125 38.125 C-22.40982976 37.72720573 -23.69991255 37.34467435 -25 37 C-23.125 32.25 -23.125 32.25 -22 30 C-24.49064888 29.31292445 -26.37886292 29 -29 29 C-29.79953138 32.28696233 -30.09658936 33.71023192 -29 37 C-28.98453739 38.48354153 -29.03164202 39.96829574 -29.12109375 41.44921875 C-29.16943359 42.29677734 -29.21777344 43.14433594 -29.26757812 44.01757812 C-29.32365234 44.89865234 -29.37972656 45.77972656 -29.4375 46.6875 C-29.48970703 47.58017578 -29.54191406 48.47285156 -29.59570312 49.39257812 C-29.7252818 51.5954156 -29.86024246 53.79778873 -30 56 C-30.99 56 -31.98 56 -33 56 C-35.5371218 52.1943173 -35.01883756 50.54589894 -34.5625 46.0625 C-34.15618772 41.99510022 -33.99900479 38.92259913 -35 35 C-34.6953125 32.45703125 -34.6953125 32.45703125 -34.125 29.8125 C-33.94195312 28.93207031 -33.75890625 28.05164063 -33.5703125 27.14453125 C-33 25 -33 25 -32 24 C-30.00390625 23.796875 -30.00390625 23.796875 -27.5625 23.75 C-26.75941406 23.72421875 -25.95632812 23.6984375 -25.12890625 23.671875 C-24.42636719 23.78015625 -23.72382812 23.8884375 -23 24 C-21 27 -21 27 -21 30 C-13.62795395 28.50044861 -11.33113626 25.3124232 -7.01953125 19.171875 C-3.05843766 12.95058295 -0.62655478 7.36201868 0 0 Z " fill="#7CB778" transform="translate(131,63)"/>
<path d="M0 0 C1.32 0 2.64 0 4 0 C4.495 3.465 4.495 3.465 5 7 C5.99 7 6.98 7 8 7 C7.67 8.65 7.34 10.3 7 12 C6.23816406 12.00257812 5.47632813 12.00515625 4.69140625 12.0078125 C-3.02699722 12.29689128 -8.21777938 13.75794436 -14 19 C-16.64308612 22.15564721 -17.83231115 25.04782234 -19 29 C-20.9375 28.3125 -20.9375 28.3125 -23 27 C-23.33333333 25.33333333 -23.66666667 23.66666667 -24 22 C-25.96758273 20.63979849 -25.96758273 20.63979849 -28 20 C-28 20.99 -28 21.98 -28 23 C-28.99 23.66 -29.98 24.32 -31 25 C-31.72965366 27.56282742 -31.72965366 27.56282742 -32 30 C-28.21812119 31.83691257 -26.05431692 32.15837626 -22 31 C-22.37540214 34.22845837 -22.67851908 36.52357854 -24.515625 39.24609375 C-27.40460707 44.60591575 -26.61346328 51.08263549 -26 57 C-24.9456541 59.73251312 -23.69948112 61.58783325 -22 64 C-22.33 64.99 -22.66 65.98 -23 67 C-26.96 67 -30.92 67 -35 67 C-35 62 -35 62 -33.5234375 59.6875 C-31.51173875 56.13865707 -31.55913913 52.96628787 -31.625 49 C-31.61339844 48.30132812 -31.60179687 47.60265625 -31.58984375 46.8828125 C-31.61542541 42.36338616 -32.3948306 39.66167387 -35 36 C-36.84346145 31.53688281 -37.52623589 27.82382903 -37 23 C-34.45672053 18.69598859 -31.66582842 16.69666488 -27 15 C-25.25281441 14.84041454 -23.5019441 14.71889827 -21.75 14.625 C-15.71657717 14.18172812 -10.86796671 12.67022446 -6 9 C-4.19201098 6.67877539 -2.73218285 4.38904321 -1.3515625 1.79296875 C-0.68253906 0.90544922 -0.68253906 0.90544922 0 0 Z " fill="#FCFBF9" transform="translate(225,44)"/>
<path d="M0 0 C3.46485975 2.25618775 5.22839072 3.71078963 6.15625 7.83203125 C6.83451844 12.47971159 6.72217844 15.44126919 4.6875 19.75 C4.51951738 22.45886941 4.51951738 22.45886941 4.6875 24.75 C3.73875 24.729375 2.79 24.70875 1.8125 24.6875 C-1.21916283 24.52448174 -1.21916283 24.52448174 -3.3125 25.75 C-7.55330433 26.33493853 -9.95127751 26.64498621 -13.58203125 24.2578125 C-20.08562292 18.6096482 -20.08562292 18.6096482 -20.55078125 14.796875 C-20.73009456 9.24760006 -20.12677422 6.07971668 -16.3125 1.75 C-11.28210534 -2.44199555 -5.83568079 -2.2021437 0 0 Z " fill="#DAE9FD" transform="translate(152.3125,33.25)"/>
<path d="M0 0 C0.33 0 0.66 0 1 0 C1 7.26 1 14.52 1 22 C13.75782781 19.54206987 25.81306175 16.58988583 38 12 C38 18.93 38 25.86 38 33 C26.78 33 15.56 33 4 33 C4 33.99 4 34.98 4 36 C2.68 35.67 1.36 35.34 0 35 C0.99 35 1.98 35 3 35 C3 34.34 3 33.68 3 33 C2.01 33 1.02 33 0 33 C0 22.11 0 11.22 0 0 Z " fill="#6A8CB9" transform="translate(48,130)"/>
<path d="M0 0 C2.625 -0.1875 2.625 -0.1875 5 0 C5.07601975 3.72496781 4.98623739 7.0750688 4.3125 10.75 C3.63727613 13.96322499 3.63727613 13.96322499 5.4375 15.9375 C6.2109375 16.4634375 6.2109375 16.4634375 7 17 C7.33 14.36 7.66 11.72 8 9 C8.99 8.67 9.98 8.34 11 8 C11.66 13.28 12.32 18.56 13 24 C14.32 24.33 15.64 24.66 17 25 C16.67 26.65 16.34 28.3 16 30 C15.01 30 14.02 30 13 30 C12.67 39.57 12.34 49.14 12 59 C11.01 59 10.02 59 9 59 C9.13931138 55.9163358 9.28759281 52.83316583 9.4375 49.75 C9.47681641 48.87730469 9.51613281 48.00460938 9.55664062 47.10546875 C9.59853516 46.26113281 9.64042969 45.41679687 9.68359375 44.546875 C9.73858032 43.38430176 9.73858032 43.38430176 9.79467773 42.19824219 C10 40 10 40 10.51586914 37.95019531 C11.25413364 34.97628868 11.05860544 32.04748277 11 29 C10.34 28.67 9.68 28.34 9 28 C9 30.97 9 33.94 9 37 C6.69 37 4.38 37 2 37 C2 44.26 2 51.52 2 59 C0.68 59 -0.64 59 -2 59 C-2 47.78 -2 36.56 -2 25 C-2.66 25 -3.32 25 -4 25 C-4.27474132 16.895131 -4.60843821 6.91265731 0 0 Z " fill="#F8F7F4" transform="translate(93,102)"/>
<path d="M0 0 C5.61 0 11.22 0 17 0 C17 8.91 17 17.82 17 27 C11.39 27 5.78 27 0 27 C0 18.09 0 9.18 0 0 Z " fill="#E1DEDE" transform="translate(26,134)"/>
<path d="M0 0 C0 9.24 0 18.48 0 28 C-2.64 28 -5.28 28 -8 28 C-10.35529281 28.41731018 -10.35529281 28.41731018 -12 29 C-12 30.32 -12 31.64 -12 33 C-13.485 33.495 -13.485 33.495 -15 34 C-16.31804105 28.13421427 -16.03391499 22.40069345 -15.8125 16.4375 C-15.79380859 15.40947266 -15.77511719 14.38144531 -15.75585938 13.32226562 C-15.5990112 9.07635805 -15.30410487 5.71712983 -13.63671875 1.78515625 C-11 0 -11 0 0 0 Z " fill="#8DADD6" transform="translate(38,93)"/>
<path d="M0 0 C-0.41153737 4.97093824 -0.79600832 9.44508386 -3 14 C-4.37285156 14.05607422 -4.37285156 14.05607422 -5.7734375 14.11328125 C-6.96195313 14.17902344 -8.15046875 14.24476562 -9.375 14.3125 C-10.55835938 14.37050781 -11.74171875 14.42851563 -12.9609375 14.48828125 C-13.96382812 14.65714844 -14.96671875 14.82601562 -16 15 C-16.99 16.485 -16.99 16.485 -18 18 C-18.66 16.35 -19.32 14.7 -20 13 C-20.99 13.495 -20.99 13.495 -22 14 C-23.99960012 14.039992 -26.00047242 14.04346799 -28 14 C-28.66 10.37 -29.32 6.74 -30 3 C-20.18227147 -0.92709141 -10.39514462 -0.29505869 0 0 Z " fill="#EDD5AC" transform="translate(249,80)"/>
<path d="M0 0 C0.9583374 0.00523682 1.9166748 0.01047363 2.90405273 0.01586914 C4.45576172 0.02070313 4.45576172 0.02070313 6.03881836 0.02563477 C7.12743164 0.03401367 8.21604492 0.04239258 9.33764648 0.05102539 C10.97636719 0.05779297 10.97636719 0.05779297 12.64819336 0.06469727 C15.35723144 0.07652713 18.06616248 0.09300996 20.77514648 0.11352539 C18.79514648 1.10352539 18.79514648 1.10352539 16.77514648 2.11352539 C17.43514648 2.11352539 18.09514648 2.11352539 18.77514648 2.11352539 C19.76514648 2.11352539 20.75514648 2.11352539 21.77514648 2.11352539 C21.80201928 3.92594591 21.82148364 5.73847772 21.83764648 7.55102539 C21.84924805 8.56036133 21.86084961 9.56969727 21.87280273 10.60961914 C21.77514648 13.11352539 21.77514648 13.11352539 20.77514648 14.11352539 C18.05481448 14.241506 15.37106279 14.29875038 12.65014648 14.30102539 C11.90249023 14.31327148 11.15483398 14.32551758 10.38452148 14.33813477 C5.46632014 14.35098721 1.44012147 13.67882867 -3.22485352 12.11352539 C-3.25172631 10.30110487 -3.27119067 8.48857306 -3.28735352 6.67602539 C-3.29895508 5.66668945 -3.31055664 4.65735352 -3.32250977 3.61743164 C-3.19785856 0.42137466 -3.17900952 0.16221216 0 0 Z " fill="#F9FAF5" transform="translate(189.224853515625,155.886474609375)"/>
<path d="M0 0 C8.91 0 17.82 0 27 0 C27 3.96 27 7.92 27 12 C18.09 12 9.18 12 0 12 C0 8.04 0 4.08 0 0 Z " fill="#F0C751" transform="translate(196,141)"/>
<path d="M0 0 C3 2 3 2 3.65234375 3.8828125 C4.42618213 9.96751428 3.52816557 13.95127823 0 19 C-3.34428336 22.70259944 -7.24648855 22.60387405 -12 23 C-11.505 22.0925 -11.01 21.185 -10.5 20.25 C-8.72062788 16.99126962 -8.72062788 16.99126962 -9 13 C-10.0725 13.226875 -11.145 13.45375 -12.25 13.6875 C-16 14 -16 14 -18.4375 12.5625 C-18.953125 12.046875 -19.46875 11.53125 -20 11 C-19.1875 8.0625 -19.1875 8.0625 -18 5 C-17.01 4.67 -16.02 4.34 -15 4 C-15 3.01 -15 2.02 -15 1 C-12.625 1.625 -12.625 1.625 -10 3 C-8.6875 6.125 -8.6875 6.125 -8 9 C-7.34 9 -6.68 9 -6 9 C-4.6719936 7.24325879 -4.6719936 7.24325879 -3.4375 5.0625 C-1.05652174 1.05652174 -1.05652174 1.05652174 0 0 Z " fill="#ED493D" transform="translate(212,63)"/>
<path d="M0 0 C0.66 0 1.32 0 2 0 C2 3.3 2 6.6 2 10 C3.98 10 5.96 10 8 10 C8.78579793 14.14923058 9.11854983 18.05293431 9.09765625 22.2734375 C9.09443359 23.42714844 9.09121094 24.58085937 9.08789062 25.76953125 C9.07951172 26.95933594 9.07113281 28.14914063 9.0625 29.375 C9.05798828 30.58800781 9.05347656 31.80101562 9.04882812 33.05078125 C9.03708354 36.03390507 9.0206584 39.01692679 9 42 C7.02 42 5.04 42 3 42 C2.67 38.04 2.34 34.08 2 30 C1.01 30 0.02 30 -1 30 C-1 26.04 -1 22.08 -1 18 C-0.34 18 0.32 18 1 18 C0.7834375 17.03900391 0.7834375 17.03900391 0.5625 16.05859375 C-0.53744397 10.93316038 -1.33468012 6.2433218 -1 1 C-0.67 0.67 -0.34 0.34 0 0 Z " fill="#80BA7D" transform="translate(231,123)"/>
<path d="M0 0 C1.40668945 0.01450195 1.40668945 0.01450195 2.84179688 0.02929688 C3.81826172 0.05443359 4.79472656 0.07957031 5.80078125 0.10546875 C6.78884766 0.11900391 7.77691406 0.13253906 8.79492188 0.14648438 C11.23492356 0.18184672 13.67382844 0.23119842 16.11328125 0.29296875 C14.13328125 1.28296875 14.13328125 1.28296875 12.11328125 2.29296875 C12.11328125 3.94296875 12.11328125 5.59296875 12.11328125 7.29296875 C12.77328125 7.62296875 13.43328125 7.95296875 14.11328125 8.29296875 C8.50328125 8.29296875 2.89328125 8.29296875 -2.88671875 8.29296875 C-2.85191406 10.20722656 -2.81710938 12.12148437 -2.78125 14.09375 C-2.75311632 16.5976475 -2.72581572 19.10155446 -2.69921875 21.60546875 C-2.67408203 22.86810547 -2.64894531 24.13074219 -2.62304688 25.43164062 C-2.61337891 26.64013672 -2.60371094 27.84863281 -2.59375 29.09375 C-2.57803955 30.20919189 -2.5623291 31.32463379 -2.54614258 32.47387695 C-2.9323902 35.67101046 -3.45437591 36.32484451 -5.88671875 38.29296875 C-6.54671875 39.28296875 -7.20671875 40.27296875 -7.88671875 41.29296875 C-7.96083925 35.93614742 -8.01530651 30.57962413 -8.05151367 25.22241211 C-8.06660635 23.39976808 -8.0870827 21.57716039 -8.11303711 19.75463867 C-8.14939978 17.13581375 -8.16643999 14.51746868 -8.1796875 11.8984375 C-8.19517136 11.08271774 -8.21065521 10.26699799 -8.22660828 9.42655945 C-8.22830891 3.71837711 -8.22830891 3.71837711 -6.50720215 1.57495117 C-4.27834354 -0.18832364 -2.81601254 -0.05120023 0 0 Z " fill="#E84F44" transform="translate(28.88671875,125.70703125)"/>
<path d="M0 0 C0.85428589 -0.00287018 1.70857178 -0.00574036 2.58874512 -0.00869751 C4.39429385 -0.01073831 6.19986469 -0.00520733 8.00537109 0.00732422 C10.77101012 0.02337806 13.53518775 0.00747651 16.30078125 -0.01171875 C18.05469073 -0.00973632 19.8085993 -0.00589265 21.5625 0 C22.39068237 -0.00607269 23.21886475 -0.01214539 24.07214355 -0.0184021 C29.85430172 0.05252655 29.85430172 0.05252655 32.00500488 1.79501343 C34.31035548 4.69136507 33.4566924 7.8311087 33.28125 11.3984375 C31.96125 11.3984375 30.64125 11.3984375 29.28125 11.3984375 C28.78625 8.9234375 28.78625 8.9234375 28.28125 6.3984375 C16.73125 6.3984375 5.18125 6.3984375 -6.71875 6.3984375 C-7.04875 8.0484375 -7.37875 9.6984375 -7.71875 11.3984375 C-9.03875 11.3984375 -10.35875 11.3984375 -11.71875 11.3984375 C-12.08929717 3.86397836 -12.08929717 3.86397836 -10.44250488 1.79501343 C-7.45598876 -0.62464413 -3.68281237 -0.02700442 0 0 Z " fill="#79A1D4" transform="translate(60.71875,81.6015625)"/>
<path d="M0 0 C1.32 0 2.64 0 4 0 C3.67 5.61 3.34 11.22 3 17 C3.66 17 4.32 17 5 17 C5 28.22 5 39.44 5 51 C6.32 51 7.64 51 9 51 C9 52.32 9 53.64 9 55 C6.36 55 3.72 55 1 55 C-0.26372044 52.47255912 -0.12022795 50.73619692 -0.11352539 47.90771484 C-0.11344986 46.84676605 -0.11337433 45.78581726 -0.11329651 44.69271851 C-0.10813522 43.54373077 -0.10297394 42.39474304 -0.09765625 41.2109375 C-0.0962413 40.03737701 -0.09482635 38.86381653 -0.09336853 37.6546936 C-0.08775689 33.89477015 -0.07520238 30.13490555 -0.0625 26.375 C-0.0574865 23.83073002 -0.05292333 21.28645912 -0.04882812 18.7421875 C-0.03778368 12.49477147 -0.02103418 6.24738994 0 0 Z " fill="#E0B640" transform="translate(86,110)"/>
<path d="M0 0 C0.33 0 0.66 0 1 0 C1 1.65 1 3.3 1 5 C19.15 5 37.3 5 56 5 C56 4.01 56 3.02 56 2 C57.32 2 58.64 2 60 2 C60 4.31 60 6.62 60 9 C40.2 9 20.4 9 0 9 C0 6.03 0 3.06 0 0 Z " fill="#E0B641" transform="translate(111,156)"/>
<path d="M0 0 C4.50917867 4.05447158 5.73085872 9.16863376 6.29296875 15.08203125 C6.43750516 20.66388961 6.50863889 24.42583087 3 29 C0.51953125 30.80078125 0.51953125 30.80078125 -2.1875 32.3125 C-3.08855469 32.82425781 -3.98960937 33.33601563 -4.91796875 33.86328125 C-5.60503906 34.23839844 -6.29210937 34.61351562 -7 35 C-7.495 33.515 -7.495 33.515 -8 32 C-7.525625 31.566875 -7.05125 31.13375 -6.5625 30.6875 C-4.76313043 28.97690387 -4.76313043 28.97690387 -4 26 C-5.65 26.33 -7.3 26.66 -9 27 C-8.525625 26.278125 -8.05125 25.55625 -7.5625 24.8125 C-6.05847097 22.10524774 -5.43400818 20.03805725 -5 17 C-4.34 17 -3.68 17 -3 17 C-2.34240107 13.34667263 -1.90604783 10.47915609 -2.625 6.8125 C-3 4 -3 4 -1.5625 1.625 C-0.7890625 0.820625 -0.7890625 0.820625 0 0 Z " fill="#71A46E" transform="translate(135,72)"/>
<path d="M0 0 C1.65 0 3.3 0 5 0 C5 10.89 5 21.78 5 33 C-0.61 33 -6.22 33 -12 33 C-12 31.68 -12 30.36 -12 29 C-11.01 29 -10.02 29 -9 29 C-9 24.05 -9 19.1 -9 14 C-8.67 14 -8.34 14 -8 14 C-8 18.62 -8 23.24 -8 28 C-5.36 28 -2.72 28 0 28 C0 18.76 0 9.52 0 0 Z " fill="#F8FAFB" transform="translate(38,93)"/>
<path d="M0 0 C1.93568937 2.90353406 3.0506027 5.51099325 4.3125 8.75 C5.82961854 12.49764401 7.3068007 15.70016509 9.8125 18.875 C12.21959 22.3137 12.49980086 23.90163298 12 28 C11.01 28 10.02 28 9 28 C9 30.31 9 32.62 9 35 C4.06083671 31.40788124 0.54202899 28.05290691 -1 22 C-1.45073144 16.67354189 -1.23298388 11.3327422 -1 6 C-2.485 8.475 -2.485 8.475 -4 11 C-4.33 10.34 -4.66 9.68 -5 9 C-4.00390625 6.8359375 -4.00390625 6.8359375 -2.5625 4.375 C-2.08941406 3.55773437 -1.61632812 2.74046875 -1.12890625 1.8984375 C-0.75636719 1.27195312 -0.38382813 0.64546875 0 0 Z " fill="#7EB87A" transform="translate(11,100)"/>
<path d="M0 0 C0.75728394 0.00202423 1.51456787 0.00404846 2.2947998 0.00613403 C3.06787476 0.00517731 3.84094971 0.00422058 4.63745117 0.00323486 C6.27502524 0.00255313 7.91260199 0.00440697 9.5501709 0.00857544 C12.06536901 0.01392382 14.58038854 0.00863027 17.09558105 0.00222778 C18.68282103 0.00288857 20.2700609 0.00416973 21.8572998 0.00613403 C22.99322571 0.00309769 22.99322571 0.00309769 24.15209961 0 C29.46109849 0.02399522 29.46109849 0.02399522 30.5760498 1.13894653 C30.5760498 2.78894653 30.5760498 4.43894653 30.5760498 6.13894653 C18.3660498 6.13894653 6.1560498 6.13894653 -6.4239502 6.13894653 C-6.4239502 -0.60850524 -6.13392542 0.02772366 0 0 Z " fill="#D2E4FB" transform="translate(59.4239501953125,86.86105346679688)"/>
<path d="M0 0 C2.31 0 4.62 0 7 0 C7.12308347 11.05016019 6.83058514 21.97991499 6 33 C4.02 33 2.04 33 0 33 C0 22.11 0 11.22 0 0 Z " fill="#ED4338" transform="translate(105,139)"/>
<path d="M0 0 C1.98 0 3.96 0 6 0 C7.74545605 1.74545605 7.1302316 4.16124217 7.1328125 6.53125 C7.13410156 7.65144531 7.13539063 8.77164063 7.13671875 9.92578125 C7.13285156 11.10527344 7.12898437 12.28476563 7.125 13.5 C7.12886719 14.67949219 7.13273438 15.85898438 7.13671875 17.07421875 C7.13542969 18.19441406 7.13414062 19.31460938 7.1328125 20.46875 C7.13168457 21.50451172 7.13055664 22.54027344 7.12939453 23.60742188 C7 26 7 26 6 27 C4.02 27 2.04 27 0 27 C0 18.09 0 9.18 0 0 Z " fill="#81A4CC" transform="translate(168,124)"/>
<path d="M0 0 C4.29 0 8.58 0 13 0 C13 2.31 13 4.62 13 7 C10.36 7.99 7.72 8.98 5 10 C4.69504515 14.42664564 4.69504515 14.42664564 6.5 18.375 C6.995 18.91125 7.49 19.4475 8 20 C5.34209561 23.21746321 4.58834962 23.08233008 0 24 C0 16.08 0 8.16 0 0 Z " fill="#FDF9F9" transform="translate(26,134)"/>
<path d="M0 0 C1.65 0 3.3 0 5 0 C5 2.64 5 5.28 5 8 C7.64 8 10.28 8 13 8 C13 9.65 13 11.3 13 13 C10.36 13 7.72 13 5 13 C5 15.64 5 18.28 5 21 C3.35 21 1.7 21 0 21 C0 18.36 0 15.72 0 13 C-2.64 13 -5.28 13 -8 13 C-8 11.35 -8 9.7 -8 8 C-5.36 8 -2.72 8 0 8 C0 5.36 0 2.72 0 0 Z " fill="#7EA4D4" transform="translate(69,116)"/>
<path d="M0 0 C2.31 1.65 4.62 3.3 7 5 C7.66 3.68 8.32 2.36 9 1 C9.20625 2.11375 9.4125 3.2275 9.625 4.375 C10.61628301 8.26599195 10.61628301 8.26599195 14.125 9.4375 C15.07375 9.623125 16.0225 9.80875 17 10 C17.33 9.34 17.66 8.68 18 8 C21.73273164 11.88826213 21 12.8089243 21 19 C14.07 16.69 7.14 14.38 0 12 C0 8.04 0 4.08 0 0 Z " fill="#70A26D" transform="translate(0,141)"/>
<path d="M0 0 C-0.41153737 4.97093824 -0.79600832 9.44508386 -3 14 C-4.62490954 14.02698189 -6.24994633 14.04638757 -7.875 14.0625 C-9.23238281 14.07990234 -9.23238281 14.07990234 -10.6171875 14.09765625 C-13 14 -13 14 -15 13 C-14.67 9.37 -14.34 5.74 -14 2 C-9.07262981 0.02905192 -5.21979128 -0.1799928 0 0 Z " fill="#182733" transform="translate(249,80)"/>
<path d="M0 0 C1.65 0 3.3 0 5 0 C5 2.31 5 4.62 5 7 C7.31 7 9.62 7 12 7 C12 8.65 12 10.3 12 12 C9.69 12 7.38 12 5 12 C5 14.31 5 16.62 5 19 C3.35 19 1.7 19 0 19 C0 16.69 0 14.38 0 12 C-2.31 12 -4.62 12 -7 12 C-7 10.35 -7 8.7 -7 7 C-4.69 7 -2.38 7 0 7 C0 4.69 0 2.38 0 0 Z " fill="#DFECFD" transform="translate(12,73)"/>
<path d="M0 0 C0.8146875 0.00257812 1.629375 0.00515625 2.46875 0.0078125 C3.2834375 0.00523438 4.098125 0.00265625 4.9375 0 C6.96875 0.1328125 6.96875 0.1328125 7.96875 1.1328125 C8.00938832 2.79898365 8.011471 4.46669345 7.96875 6.1328125 C7.370625 5.9678125 6.7725 5.8028125 6.15625 5.6328125 C3.85530664 5.0214001 3.85530664 5.0214001 0.96875 5.1328125 C0.16921862 8.41977483 -0.12783936 9.84304442 0.96875 13.1328125 C0.98421261 14.61635403 0.93710798 16.10110824 0.84765625 17.58203125 C0.79931641 18.42958984 0.75097656 19.27714844 0.70117188 20.15039062 C0.64509766 21.03146484 0.58902344 21.91253906 0.53125 22.8203125 C0.47904297 23.71298828 0.42683594 24.60566406 0.37304688 25.52539062 C0.2434682 27.7282281 0.10850754 29.93060123 -0.03125 32.1328125 C-1.02125 32.1328125 -2.01125 32.1328125 -3.03125 32.1328125 C-5.5683718 28.3271298 -5.05008756 26.67871144 -4.59375 22.1953125 C-4.18743772 18.12791272 -4.03025479 15.05541163 -5.03125 11.1328125 C-4.7265625 8.58984375 -4.7265625 8.58984375 -4.15625 5.9453125 C-3.97320312 5.06488281 -3.79015625 4.18445313 -3.6015625 3.27734375 C-2.77830186 0.1816582 -2.77830186 0.1816582 0 0 Z " fill="#21313D" transform="translate(101.03125,86.8671875)"/>
<path d="M0 0 C0.33 0 0.66 0 1 0 C1.85350034 3.71443346 2.16320548 7.19061938 2.1875 11 C2.20167969 12.010625 2.21585938 13.02125 2.23046875 14.0625 C2 17 2 17 0 22 C-4.62 22 -9.24 22 -14 22 C-13.67 21.34 -13.34 20.68 -13 20 C-12.34 20 -11.68 20 -11 20 C-10.67 19.01 -10.34 18.02 -10 17 C-9.36320313 16.39414063 -8.72640625 15.78828125 -8.0703125 15.1640625 C-5.67592944 12.66125455 -4.92651606 10.65325594 -3.875 7.375 C-2.19444444 2.19444444 -2.19444444 2.19444444 0 0 Z " fill="#72A46F" transform="translate(154,88)"/>
<path d="M0 0 C0.5625 2.5625 0.5625 2.5625 0 6 C-2.17436121 8.08376282 -4.46171888 9.76682814 -6.93359375 11.484375 C-9.10950299 12.83839616 -9.10950299 12.83839616 -10 15 C-11.65 15 -13.3 15 -15 15 C-15.76803724 5.10085337 -15.76803724 5.10085337 -13.125 1.3125 C-8.71576172 -0.53938008 -4.71551266 -0.32962807 0 0 Z " fill="#122432" transform="translate(196,46)"/>
<path d="M0 0 C0.33 0 0.66 0 1 0 C1 7.59 1 15.18 1 23 C6.61 23 12.22 23 18 23 C18 24.65 18 26.3 18 28 C16 30 16 30 14.12060547 30.22705078 C13.37697754 30.21657715 12.63334961 30.20610352 11.8671875 30.1953125 C11.06152344 30.18886719 10.25585938 30.18242187 9.42578125 30.17578125 C8.58402344 30.15902344 7.74226563 30.14226562 6.875 30.125 C5.60076172 30.11146484 5.60076172 30.11146484 4.30078125 30.09765625 C2.20040116 30.07405647 0.10016556 30.03818483 -2 30 C-1.84152588 29.29786377 -1.68305176 28.59572754 -1.51977539 27.87231445 C-0.98109408 24.89552459 -0.79208274 22.06516197 -0.68359375 19.04296875 C-0.62075195 17.37524414 -0.62075195 17.37524414 -0.55664062 15.67382812 C-0.51732422 14.52333984 -0.47800781 13.37285156 -0.4375 12.1875 C-0.39431641 11.01767578 -0.35113281 9.84785156 -0.30664062 8.64257812 C-0.20081721 5.76182969 -0.09873175 2.88099877 0 0 Z " fill="#ED4238" transform="translate(24,138)"/>
<path d="M0 0 C2 0 4 0 6 0 C6.02687279 1.81242052 6.04633715 3.62495233 6.0625 5.4375 C6.07410156 6.44683594 6.08570313 7.45617187 6.09765625 8.49609375 C6 11 6 11 5 12 C2.21900528 12.10048227 -0.53174928 12.13870954 -3.3125 12.125 C-4.08529297 12.12886719 -4.85808594 12.13273438 -5.65429688 12.13671875 C-6.40388672 12.13542969 -7.15347656 12.13414062 -7.92578125 12.1328125 C-8.61067627 12.13168457 -9.29557129 12.13055664 -10.0012207 12.12939453 C-12.10304074 11.99332947 -13.97627055 11.57012045 -16 11 C-16 9.35 -16 7.7 -16 6 C-9.4 6 -2.8 6 4 6 C4 5.34 4 4.68 4 4 C2.68 4 1.36 4 0 4 C0 2.68 0 1.36 0 0 Z " fill="#E2D5D1" transform="translate(205,158)"/>
<path d="M0 0 C0.33 0.99 0.66 1.98 1 3 C2.093125 3.103125 3.18625 3.20625 4.3125 3.3125 C8 4 8 4 9.71875 5.125 C11.64760472 7.94771422 11.2875491 10.31918017 11.1875 13.6875 C11.16042969 14.86699219 11.13335937 16.04648438 11.10546875 17.26171875 C11.07066406 18.16535156 11.03585938 19.06898437 11 20 C9.046875 19.6796875 9.046875 19.6796875 7 19 C6.7525 18.05125 6.505 17.1025 6.25 16.125 C5.35484251 12.9373054 5.35484251 12.9373054 3.1015625 11.9375 C1.09693049 11.20598516 -0.95068698 10.59496185 -3 10 C-2.01 6.7 -1.02 3.4 0 0 Z " fill="#7AA1CD" transform="translate(109,90)"/>
<path d="M0 0 C1.32 0 2.64 0 4 0 C4 13.86 4 27.72 4 42 C2.515 42.495 2.515 42.495 1 43 C0 42 0 42 -0.11352539 38.03100586 C-0.1133662 36.25894393 -0.10766785 34.4868774 -0.09765625 32.71484375 C-0.0962413 31.78402481 -0.09482635 30.85320587 -0.09336853 29.8941803 C-0.08775172 26.90858809 -0.0751964 23.92306971 -0.0625 20.9375 C-0.05748716 18.91862087 -0.05292388 16.89974057 -0.04882812 14.88085938 C-0.03777683 9.92054428 -0.02050095 4.96028468 0 0 Z " fill="#D2DEE9" transform="translate(132,117)"/>
<path d="M0 0 C2.31 0 4.62 0 7 0 C7 4.95 7 9.9 7 15 C4.03 15 1.06 15 -2 15 C-2.3690205 4.44191344 -2.3690205 4.44191344 0 0 Z " fill="#132636" transform="translate(173,62)"/>
<path d="M0 0 C1.32 0 2.64 0 4 0 C4 1.98 4 3.96 4 6 C6.31 6 8.62 6 11 6 C11 7.32 11 8.64 11 10 C9.02 10 7.04 10 5 10 C5 12.31 5 14.62 5 17 C3.35 17 1.7 17 0 17 C0 14.69 0 12.38 0 10 C-1.98 10 -3.96 10 -6 10 C-6 8.68 -6 7.36 -6 6 C-4.02 6 -2.04 6 0 6 C0 4.02 0 2.04 0 0 Z " fill="#FAFCFD" transform="translate(143,37)"/>
<path d="M0 0 C8.58 0 17.16 0 26 0 C26 0.66 26 1.32 26 2 C23.36 2 20.72 2 18 2 C18 3.32 18 4.64 18 6 C12.06 6 6.12 6 0 6 C0 4.02 0 2.04 0 0 Z " fill="#F7EABB" transform="translate(197,143)"/>
<path d="M0 0 C2.97 0 5.94 0 9 0 C9 4.95 9 9.9 9 15 C7.02 15 5.04 15 3 15 C-0.24013514 9.7347804 -0.27288764 6.00352801 0 0 Z " fill="#132635" transform="translate(171,79)"/>
<path d="M0 0 C0.33 0 0.66 0 1 0 C1.66 4.29 2.32 8.58 3 13 C4.32 13.33 5.64 13.66 7 14 C6.67 15.65 6.34 17.3 6 19 C5.01 19 4.02 19 3 19 C2.67 28.57 2.34 38.14 2 48 C1.01 48 0.02 48 -1 48 C-0.86068862 44.9163358 -0.71240719 41.83316583 -0.5625 38.75 C-0.52318359 37.87730469 -0.48386719 37.00460938 -0.44335938 36.10546875 C-0.40146484 35.26113281 -0.35957031 34.41679687 -0.31640625 33.546875 C-0.27974854 32.77182617 -0.24309082 31.99677734 -0.20532227 31.19824219 C0 29 0 29 0.51586914 26.95019531 C1.25413364 23.97628868 1.05860544 21.04748277 1 18 C0.34 17.67 -0.32 17.34 -1 17 C-1.12036664 11.22240116 -0.8320582 5.72040011 0 0 Z " fill="#E29B94" transform="translate(103,113)"/>
<path d="M0 0 C13.86 0.33 27.72 0.66 42 1 C42 1.99 42 2.98 42 4 C27.81 4 13.62 4 -1 4 C-0.67 2.68 -0.34 1.36 0 0 Z " fill="#F2D781" transform="translate(124,111)"/>
<path d="M0 0 C0.66 0.33 1.32 0.66 2 1 C2.4934361 8.15482338 1.14661506 11.36929032 -3.625 16.875 C-5 18 -5 18 -7 18 C-7.66 19.32 -8.32 20.64 -9 22 C-10.65 21.67 -12.3 21.34 -14 21 C-13.63648437 20.52691406 -13.27296875 20.05382812 -12.8984375 19.56640625 C-5.77439628 10.21028595 -5.77439628 10.21028595 0 0 Z " fill="#8DCF8A" transform="translate(129,73)"/>
<path d="M0 0 C4.49994472 -0.05845252 8.99979063 -0.09374855 13.5 -0.125 C14.7684375 -0.14175781 16.036875 -0.15851563 17.34375 -0.17578125 C23.92726319 -0.21007038 29.71371872 -0.01605485 36 2 C32.87350101 3.85274014 30.62683775 4.37198336 27 4 C26.01 3.34 25.02 2.68 24 2 C24 2.66 24 3.32 24 4 C19.05 4 14.1 4 9 4 C9 3.01 9 2.02 9 1 C6.69 1 4.38 1 2 1 C2 1.66 2 2.32 2 3 C1.01 2.67 0.02 2.34 -1 2 C-0.67 1.34 -0.34 0.68 0 0 Z " fill="#F8F8F8" transform="translate(129,169)"/>
<path d="M0 0 C8.91 0 17.82 0 27 0 C27 0.33 27 0.66 27 1 C22.545 1.495 22.545 1.495 18 2 C18 6.62 18 11.24 18 16 C16.68 15.67 15.36 15.34 14 15 C14.33 11.37 14.66 7.74 15 4 C13.35 4.66 11.7 5.32 10 6 C9.67 5.01 9.34 4.02 9 3 C6.03 2.67 3.06 2.34 0 2 C0 1.34 0 0.68 0 0 Z " fill="#CBD4DC" transform="translate(196,154)"/>
<path d="M0 0 C2.375 0.5625 2.375 0.5625 5 2 C6.3125 5.625 6.3125 5.625 7 9 C4.375 11.125 4.375 11.125 1 13 C-2.375 12.25 -2.375 12.25 -5 11 C-4.1875 7.5625 -4.1875 7.5625 -3 4 C-2.01 3.67 -1.02 3.34 0 3 C0 2.01 0 1.02 0 0 Z " fill="#E9AB48" transform="translate(197,64)"/>
<path d="M0 0 C1.07765625 0.00902344 2.1553125 0.01804688 3.265625 0.02734375 C4.08546875 0.03894531 4.9053125 0.05054688 5.75 0.0625 C5.792721 1.72861905 5.79063832 3.39632885 5.75 5.0625 C4.75 6.0625 4.75 6.0625 1.37109375 6.16015625 C-0.02347077 6.15348369 -1.41801743 6.14152532 -2.8125 6.125 C-3.52341797 6.12048828 -4.23433594 6.11597656 -4.96679688 6.11132812 C-6.72790013 6.09950864 -8.48896036 6.08157263 -10.25 6.0625 C-10.25 4.4125 -10.25 2.7625 -10.25 1.0625 C-6.78777385 -0.00473961 -3.60960734 -0.03923486 0 0 Z " fill="#142737" transform="translate(207.25,38.9375)"/>
<path d="M0 0 C1.32 0 2.64 0 4 0 C3.67 5.28 3.34 10.56 3 16 C2.67 16 2.34 16 2 16 C1.67 28.21 1.34 40.42 1 53 C0.67 53 0.34 53 0 53 C0 35.51 0 18.02 0 0 Z " fill="#CCB669" transform="translate(86,110)"/>
<path d="M0 0 C-0.3438557 5.73092837 -1.86171525 9.10654121 -6 13 C-8.27285093 14.52120205 -10.6396699 15.6797127 -13.125 16.8125 C-13.74503906 17.11091797 -14.36507812 17.40933594 -15.00390625 17.71679688 C-17.63836777 18.97170704 -20.22960466 20.07653489 -23 21 C-22 18 -22 18 -20.29296875 16.97265625 C-19.59816406 16.67230469 -18.90335938 16.37195313 -18.1875 16.0625 C-14.15348925 14.1645665 -11.03963281 12.27333041 -9.12109375 8.078125 C-7.85221641 5.7260597 -6.48930777 4.44627532 -4.4375 2.75 C-3.81746094 2.22921875 -3.19742188 1.7084375 -2.55859375 1.171875 C-1 0 -1 0 0 0 Z " fill="#8BCC86" transform="translate(149,88)"/>
<path d="M0 0 C0.66 0.66 1.32 1.32 2 2 C1.03900391 2.03867187 1.03900391 2.03867187 0.05859375 2.078125 C-6.05458307 2.47898905 -9.98030078 3.44437972 -15 7 C-17.48709896 10.73064844 -17.29991053 12.57631968 -17 17 C-16.35610218 19.00744615 -15.69437747 21.00945124 -15 23 C-15.33 23.66 -15.66 24.32 -16 25 C-19.49921826 20.73532775 -20.66260858 17.72507016 -20.3828125 12.17578125 C-19.5449698 7.41375695 -16.8441697 4.76377258 -13.375 1.625 C-8.92937274 -0.5154872 -4.86914905 -0.75314176 0 0 Z " fill="#EB5C50" transform="translate(206,57)"/>
<path d="M0 0 C0.66 0 1.32 0 2 0 C3.4375 2.08203125 3.4375 2.08203125 5 4.8125 C6.60978272 7.60144856 8.21271876 10.31907813 10 13 C10.125 15.6875 10.125 15.6875 10 18 C6.87546835 17.66522875 6.02290033 17.02559449 3.875 14.625 C-0.25626741 8.84122563 -0.25626741 8.84122563 -0.125 4.3125 C-0.10695313 3.50425781 -0.08890625 2.69601563 -0.0703125 1.86328125 C-0.04710937 1.24839844 -0.02390625 0.63351563 0 0 Z " fill="#8CCF88" transform="translate(13,109)"/>
<path d="M0 0 C2.5625 0.3125 2.5625 0.3125 4.4375 1.4375 C5.5625 3.3125 5.5625 3.3125 5.3125 6.4375 C4.5625 9.3125 4.5625 9.3125 3.5625 10.3125 C0.625 10.5 0.625 10.5 -2.4375 10.3125 C-4.4375 8.3125 -4.4375 8.3125 -4.6875 5.3125 C-4.37675292 1.58353509 -3.7821044 0.48488518 0 0 Z " fill="#EA5950" transform="translate(34.4375,141.6875)"/>
<path d="M0 0 C0.93423645 3.01031744 1.04449911 3.86650268 0 7 C-0.99 7.66 -1.98 8.32 -3 9 C-4.2188121 12.55672179 -4.2188121 12.55672179 -5 16 C-6.32 15.34 -7.64 14.68 -9 14 C-9.31346682 10.00329808 -9.40395059 7.67325099 -7.3125 4.1875 C-4.93334668 1.93694956 -3.10843279 0.94979891 0 0 Z " fill="#F8EFEE" transform="translate(197,60)"/>
<path d="M0 0 C3.63 0 7.26 0 11 0 C11 2.64 11 5.28 11 8 C7.7 8 4.4 8 1 8 C0.67 5.36 0.34 2.72 0 0 Z " fill="#6E93BA" transform="translate(213,155)"/>
<path d="M0 0 C1.89692143 0.45380895 3.79249595 0.91324992 5.6875 1.375 C6.74324219 1.63023437 7.79898437 1.88546875 8.88671875 2.1484375 C11.70406766 2.91905489 14.31668325 3.85498543 17 5 C17 5.66 17 6.32 17 7 C14.33333333 7.66666667 11.66666667 8.33333333 9 9 C8.25234375 9.18691406 7.5046875 9.37382812 6.734375 9.56640625 C6.16203125 9.70949219 5.5896875 9.85257813 5 10 C4.15801693 8.90241493 3.32669329 7.79664683 2.5 6.6875 C2.0359375 6.07261719 1.571875 5.45773438 1.09375 4.82421875 C0 3 0 3 0 0 Z " fill="#D7E8FB" transform="translate(0,153)"/>
<path d="M0 0 C4.92818394 1.32219569 9.47047725 3.22494524 13 7 C13.4375 10.3125 13.4375 10.3125 13 13 C12.46375 12.71125 11.9275 12.4225 11.375 12.125 C8.96179026 10.85696707 8.96179026 10.85696707 5.9375 10.4375 C3 9 3 9 1.94921875 6.87109375 C1.19745844 4.59443574 0.54740147 2.3336589 0 0 Z " fill="#7DB778" transform="translate(8,140)"/>
<path d="M0 0 C2.64 0 5.28 0 8 0 C7.95875 0.721875 7.9175 1.44375 7.875 2.1875 C8.00921305 5.20729369 8.75170619 7.26935729 10 10 C7.29120665 11.35439668 4.99066732 11.06501451 2 11 C1.34 7.37 0.68 3.74 0 0 Z " fill="#1D2C37" transform="translate(219,83)"/>
<path d="M0 0 C1.98 0.99 3.96 1.98 6 3 C4.43181728 8.452999 2.96189783 12.76486783 -1 17 C-1.36644578 15.44033408 -1.71760862 13.87707349 -2.0625 12.3125 C-2.25972656 11.44238281 -2.45695312 10.57226562 -2.66015625 9.67578125 C-3.02631769 6.792786 -2.82797908 4.7772784 -2 2 C-1.34 1.34 -0.68 0.68 0 0 Z " fill="#EBC2A4" transform="translate(103,90)"/>
<path d="M0 0 C3.3712369 5.05685536 2.32730673 11.00000235 2.3125 16.9375 C2.32861328 18.22591797 2.34472656 19.51433594 2.36132812 20.84179688 C2.36197266 22.07865234 2.36261719 23.31550781 2.36328125 24.58984375 C2.36775269 26.28935181 2.36775269 26.28935181 2.37231445 28.02319336 C2 31 2 31 -1 35 C-0.67 23.45 -0.34 11.9 0 0 Z " fill="#E9675F" transform="translate(22,132)"/>
<path d="M0 0 C0 1.65 0 3.3 0 5 C-4.95 5 -9.9 5 -15 5 C-15 3.68 -15 2.36 -15 1 C-10.03926578 -0.32286246 -5.08888488 -0.08893197 0 0 Z " fill="#EDBD99" transform="translate(204,157)"/>
<path d="M0 0 C0.99 0 1.98 0 3 0 C3 1.32 3 2.64 3 4 C4.32 4 5.64 4 7 4 C7 5.32 7 6.64 7 8 C5.68 8 4.36 8 3 8 C3 9.32 3 10.64 3 12 C2.01 12 1.02 12 0 12 C0 10.35 0 8.7 0 7 C-1.32 7 -2.64 7 -4 7 C-4 6.34 -4 5.68 -4 5 C-2.68 5 -1.36 5 0 5 C0 3.35 0 1.7 0 0 Z " fill="#F7FAFC" transform="translate(185,130)"/>
<path d="M0 0 C0.66 0.66 1.32 1.32 2 2 C1.91471238 6.52024387 1.44279914 8.49240099 -1.5625 11.9375 C-2.366875 12.618125 -3.17125 13.29875 -4 14 C-4.66 13.67 -5.32 13.34 -6 13 C-6.625 9.9375 -6.625 9.9375 -7 7 C-6.401875 6.773125 -5.80375 6.54625 -5.1875 6.3125 C-2.43648112 4.66188867 -1.47515363 2.8027919 0 0 Z " fill="#D24136" transform="translate(209,67)"/>
<path d="M0 0 C2.31 0 4.62 0 7 0 C7 0.99 7 1.98 7 3 C11.95 3 16.9 3 22 3 C22 2.34 22 1.68 22 1 C23.32 1.66 24.64 2.32 26 3 C26 3.33 26 3.66 26 4 C16.76 4 7.52 4 -2 4 C-2 3.01 -2 2.02 -2 1 C-1.34 1.33 -0.68 1.66 0 2 C0 1.34 0 0.68 0 0 Z " fill="#B3BBC3" transform="translate(131,170)"/>
<path d="M0 0 C0.33 0 0.66 0 1 0 C1.33 4.95 1.66 9.9 2 15 C-2 17 -2 17 -6 17 C-6 15.35 -6 13.7 -6 12 C-4.68 12 -3.36 12 -2 12 C-1.34 8.04 -0.68 4.08 0 0 Z " fill="#C6BC9B" transform="translate(231,108)"/>
<path d="M0 0 C0.33 1.32 0.66 2.64 1 4 C3.64 4 6.28 4 9 4 C9.33 2.68 9.66 1.36 10 0 C10 1.32 10 2.64 10 4 C11.32 4 12.64 4 14 4 C14 4.66 14 5.32 14 6 C9.34462607 6.83796731 5.62921525 7.0161692 1 6 C0.67 6.66 0.34 7.32 0 8 C-0.66 8 -1.32 8 -2 8 C-2 7.34 -2 6.68 -2 6 C-3.32 6 -4.64 6 -6 6 C-6 5.34 -6 4.68 -6 4 C-4.02 4 -2.04 4 0 4 C0 2.68 0 1.36 0 0 Z " fill="#F4EFE4" transform="translate(195,158)"/>
<path d="M0 0 C0.99 0.33 1.98 0.66 3 1 C2.79503906 1.64066406 2.59007812 2.28132813 2.37890625 2.94140625 C0.81172636 7.97287851 -0.43042174 12.75988003 -1 18 C-1.66 17.67 -2.32 17.34 -3 17 C-3 12.38 -3 7.76 -3 3 C-2.01 2.67 -1.02 2.34 0 2 C0 1.34 0 0.68 0 0 Z " fill="#D6E8F8" transform="translate(3,111)"/>
<path d="M0 0 C2 0 4 0 6 0 C6 3.3 6 6.6 6 10 C4.02 10 2.04 10 0 10 C0 8.68 0 7.36 0 6 C1.32 6 2.64 6 4 6 C4 5.34 4 4.68 4 4 C2.68 4 1.36 4 0 4 C0 2.68 0 1.36 0 0 Z " fill="#E5B18A" transform="translate(205,158)"/>
<path d="M0 0 C3.1130154 2.5470126 4.15834165 5.09776585 5 9 C4.125 12.375 4.125 12.375 3 15 C2.67 14.34 2.34 13.68 2 13 C1.34 13 0.68 13 0 13 C-1.0161692 8.37078475 -0.83796731 4.65537393 0 0 Z " fill="#83B883" transform="translate(131,63)"/>
<path d="M0 0 C0.33 0 0.66 0 1 0 C1 3.63 1 7.26 1 11 C-1.31 11 -3.62 11 -6 11 C-6 7.41584854 -5.21108216 6.58796261 -3.0625 3.8125 C-2.51722656 3.09707031 -1.97195312 2.38164063 -1.41015625 1.64453125 C-0.94480469 1.10183594 -0.47945312 0.55914062 0 0 Z " fill="#091019" transform="translate(244,83)"/>
<path d="M0 0 C0.33 0 0.66 0 1 0 C1.03738281 0.67546875 1.07476562 1.3509375 1.11328125 2.046875 C1.17902344 2.93890625 1.24476562 3.8309375 1.3125 4.75 C1.37050781 5.63171875 1.42851563 6.5134375 1.48828125 7.421875 C1.82398141 10.0869744 1.82398141 10.0869744 3.60546875 12.140625 C4.06566406 12.75421875 4.52585937 13.3678125 5 14 C4.67 14.99 4.34 15.98 4 17 C1 15.4375 1 15.4375 -2 13 C-2.375 9.25 -2.375 9.25 -2 6 C-1.67 6 -1.34 6 -1 6 C-0.67 4.02 -0.34 2.04 0 0 Z " fill="#8FCC8F" transform="translate(2,122)"/>
<path d="M0 0 C2.375 0.5625 2.375 0.5625 5 2 C6.3125 5.625 6.3125 5.625 7 9 C4.1875 11.0625 4.1875 11.0625 1 13 C0.01 12.67 -0.98 12.34 -2 12 C-0.68 11.34 0.64 10.68 2 10 C1.46274105 6.62294375 0.88935377 3.303314 0 0 Z " fill="#DB9555" transform="translate(197,64)"/>
<path d="M0 0 C2.64 0 5.28 0 8 0 C7.58846263 4.97093824 7.20399168 9.44508386 5 14 C4.67 14 4.34 14 4 14 C4 9.71 4 5.42 4 1 C2.68 0.67 1.36 0.34 0 0 Z " fill="#313D4C" transform="translate(241,80)"/>
<path d="M0 0 C2.625 -0.1875 2.625 -0.1875 5 0 C5.33 0.66 5.66 1.32 6 2 C5.34 2 4.68 2 4 2 C4 2.66 4 3.32 4 4 C4.66 4 5.32 4 6 4 C6 4.66 6 5.32 6 6 C5.01 6 4.02 6 3 6 C2.67 6.99 2.34 7.98 2 9 C1.01 8.34 0.02 7.68 -1 7 C-1 6.01 -1 5.02 -1 4 C-1.33 3.67 -1.66 3.34 -2 3 C-1.34 2.01 -0.68 1.02 0 0 Z " fill="#EE9790" transform="translate(32,142)"/>
<path d="M0 0 C4.29 0 8.58 0 13 0 C10.94876752 2.05123248 9.72994937 2.64147118 7.0625 3.625 C6.02802734 4.01558594 6.02802734 4.01558594 4.97265625 4.4140625 C3 5 3 5 0 5 C0 3.35 0 1.7 0 0 Z " fill="#1A2935" transform="translate(197,46)"/>
<path d="M0 0 C0 0.66 0 1.32 0 2 C-0.99 2 -1.98 2 -3 2 C-3 2.66 -3 3.32 -3 4 C-2.01 4 -1.02 4 0 4 C0 4.66 0 5.32 0 6 C-0.99 6 -1.98 6 -3 6 C-3 6.99 -3 7.98 -3 9 C-4.32 9 -5.64 9 -7 9 C-7 8.01 -7 7.02 -7 6 C-6.34 5.67 -5.68 5.34 -5 5 C-5.99 4.67 -6.98 4.34 -8 4 C-8 3.34 -8 2.68 -8 2 C-4.91190305 0.23537317 -3.76687864 0 0 0 Z " fill="#D87375" transform="translate(78,166)"/>
<path d="M0 0 C0.33 0 0.66 0 1 0 C1 5.28 1 10.56 1 16 C-1.95298333 12.0626889 -2.8105341 10.73664753 -3 6 C-1.5625 2.625 -1.5625 2.625 0 0 Z " fill="#F8FBFC" transform="translate(254,96)"/>
<path d="M0 0 C3 0 3 0 4.75 1.125 C6 3 6 3 5.6875 6.1875 C5.460625 7.115625 5.23375 8.04375 5 9 C1.83884224 7.63016497 1.0072908 7.0109362 -1 4 C-0.625 1.8125 -0.625 1.8125 0 0 Z " fill="#F9C893" transform="translate(205,91)"/>
<path d="M0 0 C4.93928888 -0.3367697 5.78492722 -0.16130459 10 3 C5.05 4.485 5.05 4.485 0 6 C0 4.02 0 2.04 0 0 Z " fill="#182A37" transform="translate(214,39)"/>
<path d="M0 0 C-0.185625 0.61875 -0.37125 1.2375 -0.5625 1.875 C-1.23686176 4.04160178 -1.23686176 4.04160178 0 6 C-0.99 6 -1.98 6 -3 6 C-3 6.66 -3 7.32 -3 8 C-4.32 8 -5.64 8 -7 8 C-7 7.01 -7 6.02 -7 5 C-6.01 5 -5.02 5 -4 5 C-4 4.34 -4 3.68 -4 3 C-4.99 3 -5.98 3 -7 3 C-7 2.34 -7 1.68 -7 1 C-4 0 -4 0 0 0 Z " fill="#90A6CF" transform="translate(82,167)"/>
<path d="M0 0 C2.64 0 5.28 0 8 0 C8 1.32 8 2.64 8 4 C5.29120665 5.35439668 2.99066732 5.06501451 0 5 C0 3.35 0 1.7 0 0 Z " fill="#E8B18B" transform="translate(196,164)"/>
<path d="M0 0 C0 1.65 0 3.3 0 5 C-0.66 4.34 -1.32 3.68 -2 3 C-4.57061311 2.35232207 -4.57061311 2.35232207 -7 2 C-7.33 2.99 -7.66 3.98 -8 5 C-8.66 5 -9.32 5 -10 5 C-10 4.34 -10 3.68 -10 3 C-10.66 2.34 -11.32 1.68 -12 1 C-7.67265609 -1.22923777 -4.71599818 -0.92470553 0 0 Z " fill="#DBB653" transform="translate(236,81)"/>
<path d="M0 0 C0.886875 -0.01417969 1.77375 -0.02835938 2.6875 -0.04296875 C5 0.1875 5 0.1875 7 2.1875 C6.28972656 2.24808594 5.57945312 2.30867188 4.84765625 2.37109375 C3.92855469 2.45488281 3.00945312 2.53867187 2.0625 2.625 C0.68771484 2.74681641 0.68771484 2.74681641 -0.71484375 2.87109375 C-2.96159732 2.94794976 -2.96159732 2.94794976 -4 4.1875 C-5.99958364 4.22830783 -8.00045254 4.23004356 -10 4.1875 C-6.68730497 0.72422792 -4.79667389 0.03485955 0 0 Z " fill="#EB4A3E" transform="translate(201,56.8125)"/>
<path d="M0 0 C1.40958984 0.23009766 1.40958984 0.23009766 2.84765625 0.46484375 C7.69295331 1.15702904 12.5517789 1.34793629 17.4375 1.5625 C18.35982422 1.60568359 19.28214844 1.64886719 20.23242188 1.69335938 C22.48816163 1.79854931 24.74399499 1.90069107 27 2 C27 2.33 27 2.66 27 3 C18.42 3 9.84 3 1 3 C0.67 2.01 0.34 1.02 0 0 Z " fill="#D3DFED" transform="translate(186,168)"/>
<path d="M0 0 C-0.57323431 3.86933162 -2.38953552 6.15222057 -5 9 C-5.66 9 -6.32 9 -7 9 C-7.3125 6.75 -7.3125 6.75 -7 4 C-2.89189189 0 -2.89189189 0 0 0 Z " fill="#ECD5B2" transform="translate(131,98)"/>
<path d="M0 0 C0.99 0 1.98 0 3 0 C3 3.96 3 7.92 3 12 C2.01 11.34 1.02 10.68 0 10 C-0.29296875 7.6171875 -0.29296875 7.6171875 -0.1875 4.875 C-0.16042969 3.96492188 -0.13335937 3.05484375 -0.10546875 2.1171875 C-0.07066406 1.41851562 -0.03585938 0.71984375 0 0 Z " fill="#27343D" transform="translate(181,95)"/>
<path d="M0 0 C1.32 0 2.64 0 4 0 C4 2.64 4 5.28 4 8 C2.68 8 1.36 8 0 8 C0 5.36 0 2.72 0 0 Z " fill="#6D92B7" transform="translate(230,155)"/>
<path d="M0 0 C0.66 0 1.32 0 2 0 C2.98248524 4.0527516 3.08159574 7.83861737 3 12 C2.01 12 1.02 12 0 12 C0 8.04 0 4.08 0 0 Z " fill="#D0B94C" transform="translate(230,141)"/>
<path d="M0 0 C0.33 0 0.66 0 1 0 C1.9196476 4.69020279 2.36070796 7.75072567 0 12 C-1.625 13.8125 -1.625 13.8125 -3 15 C-3.42589023 9.46342706 -1.905247 5.10334017 0 0 Z " fill="#73A36E" transform="translate(123,95)"/>
<path d="M0 0 C0.93423645 3.01031744 1.04449911 3.86650268 0 7 C-0.99 7.66 -1.98 8.32 -3 9 C-4.2188121 12.55672179 -4.2188121 12.55672179 -5 16 C-5.99 15.67 -6.98 15.34 -8 15 C-7.38003922 13.70590711 -6.75383647 12.41480327 -6.125 11.125 C-5.60292969 10.04605469 -5.60292969 10.04605469 -5.0703125 8.9453125 C-4 7 -4 7 -2 5 C-1.29289322 3.35008418 -0.62056011 1.68437744 0 0 Z " fill="#E3CFCE" transform="translate(197,60)"/>
<path d="M0 0 C1.98 0 3.96 0 6 0 C6 1.65 6 3.3 6 5 C3.50907189 6.24546405 2.58919267 5.7767578 0 5 C0 3.35 0 1.7 0 0 Z " fill="#E9B491" transform="translate(189,164)"/>
<path d="M0 0 C0.33 0 0.66 0 1 0 C1.33 4.62 1.66 9.24 2 14 C1.01 14 0.02 14 -1 14 C-1.08333357 9.1666528 -0.95261487 4.76307437 0 0 Z " fill="#EBDCD9" transform="translate(103,147)"/>
<path d="M0 0 C0.33 0 0.66 0 1 0 C1 2.64 1 5.28 1 8 C-0.98 8 -2.96 8 -5 8 C-1.125 1.125 -1.125 1.125 0 0 Z " fill="#172A3C" transform="translate(179,53)"/>
<path d="M0 0 C0.66 0 1.32 0 2 0 C2 0.99 2 1.98 2 3 C2.99 3 3.98 3 5 3 C5 3.66 5 4.32 5 5 C4.01 5 3.02 5 2 5 C2 5.99 2 6.98 2 8 C1.34 8 0.68 8 0 8 C0 7.01 0 6.02 0 5 C-0.99 5 -1.98 5 -3 5 C-3 4.34 -3 3.68 -3 3 C-2.01 3 -1.02 3 0 3 C0 2.01 0 1.02 0 0 Z " fill="#84A8D3" transform="translate(158,134)"/>
<path d="M0 0 C0.66 0 1.32 0 2 0 C2 0.99 2 1.98 2 3 C2.99 3 3.98 3 5 3 C5 3.66 5 4.32 5 5 C4.01 5 3.02 5 2 5 C2 5.99 2 6.98 2 8 C1.34 8 0.68 8 0 8 C0 7.01 0 6.02 0 5 C-0.99 5 -1.98 5 -3 5 C-3 4.34 -3 3.68 -3 3 C-2.01 3 -1.02 3 0 3 C0 2.01 0 1.02 0 0 Z " fill="#DFECFA" transform="translate(24,64)"/>
<path d="M0 0 C1.32 0.33 2.64 0.66 4 1 C3.5359375 2.2375 3.5359375 2.2375 3.0625 3.5 C1.88122417 7.39126155 1.41775832 10.96166953 1 15 C0.67 15 0.34 15 0 15 C0 10.05 0 5.1 0 0 Z " fill="#142433" transform="translate(181,62)"/>
<path d="M0 0 C1.62463842 -0.05395478 3.24978541 -0.09277195 4.875 -0.125 C5.77992188 -0.14820313 6.68484375 -0.17140625 7.6171875 -0.1953125 C10 0 10 0 12 2 C10.56589632 2.24954005 9.12739928 2.47392642 7.6875 2.6875 C6.88699219 2.81511719 6.08648437 2.94273437 5.26171875 3.07421875 C3 3 3 3 1.20703125 1.51953125 C0.80871094 1.01808594 0.41039062 0.51664063 0 0 Z " fill="#E6E9E8" transform="translate(153,170)"/>
<path d="M0 0 C1.65 0 3.3 0 5 0 C5 2.31 5 4.62 5 7 C4.34 7 3.68 7 3 7 C0 2.61538462 0 2.61538462 0 0 Z " fill="#192D3F" transform="translate(175,95)"/>
<path d="M0 0 C1.98 0 3.96 0 6 0 C6 1.32 6 2.64 6 4 C4.02 4 2.04 4 0 4 C0 2.68 0 1.36 0 0 Z " fill="#EAAE87" transform="translate(189,158)"/>
<path d="M0 0 C3.3 0 6.6 0 10 0 C6.37542083 2.71843438 5.19115285 3.41789544 1 4 C0.67 2.68 0.34 1.36 0 0 Z " fill="#77A0D3" transform="translate(213,155)"/>
<path d="M0 0 C2 0 4 0 6 0 C6 1.32 6 2.64 6 4 C4.02 4 2.04 4 0 4 C0 2.68 0 1.36 0 0 Z " fill="#E69F7B" transform="translate(205,158)"/>
<path d="M0 0 C0.33 0.99 0.66 1.98 1 3 C1.99 3 2.98 3 4 3 C4 4.32 4 5.64 4 7 C2.68 7 1.36 7 0 7 C0 4.69 0 2.38 0 0 Z " fill="#E49F44" transform="translate(101,158)"/>
<path d="M0 0 C0.66 0 1.32 0 2 0 C2 0.99 2 1.98 2 3 C2.66 3.33 3.32 3.66 4 4 C3.34 4 2.68 4 2 4 C2 4.99 2 5.98 2 7 C1.34 7 0.68 7 0 7 C0 6.01 0 5.02 0 4 C-0.99 3.67 -1.98 3.34 -3 3 C-2.01 3 -1.02 3 0 3 C0 2.01 0 1.02 0 0 Z " fill="#F9FCFB" transform="translate(111,73)"/>
<path d="M0 0 C0 1.32 0 2.64 0 4 C-2.31 4 -4.62 4 -7 4 C-3.17391304 0 -3.17391304 0 0 0 Z " fill="#1B3044" transform="translate(196,41)"/>
<path d="M0 0 C0 0.66 0 1.32 0 2 C-0.99 2 -1.98 2 -3 2 C-3 2.99 -3 3.98 -3 5 C-4.32 5 -5.64 5 -7 5 C-7 4.01 -7 3.02 -7 2 C-2.25 0 -2.25 0 0 0 Z " fill="#DF5D59" transform="translate(78,170)"/>
<path d="M0 0 C0.33 0.66 0.66 1.32 1 2 C0.34 2 -0.32 2 -1 2 C-1 2.99 -1 3.98 -1 5 C0.98 5.66 2.96 6.32 5 7 C5 7.33 5 7.66 5 8 C2.625 8.125 2.625 8.125 0 8 C-2 6 -2 6 -2.125 3.375 C-2.08375 2.59125 -2.0425 1.8075 -2 1 C-1.34 0.67 -0.68 0.34 0 0 Z " fill="#EC4339" transform="translate(32,144)"/>
<path d="M0 0 C0.99 0.66 1.98 1.32 3 2 C3 2.99 3 3.98 3 5 C1.35 5 -0.3 5 -2 5 C-1.34 3.35 -0.68 1.7 0 0 Z " fill="#1E2F3F" transform="translate(108,95)"/>
<path d="M0 0 C0.66 0.99 1.32 1.98 2 3 C0.35 4.98 -1.3 6.96 -3 9 C-4.33332095 6.3333581 -3.67102033 4.83319697 -3 2 C-2.34 2 -1.68 2 -1 2 C-0.67 1.34 -0.34 0.68 0 0 Z " fill="#689B65" transform="translate(133,87)"/>
<path d="M0 0 C0.99 0 1.98 0 3 0 C3.33 0.99 3.66 1.98 4 3 C2.68 3.99 1.36 4.98 0 6 C-0.38218767 4.34385343 -0.71395102 2.67542976 -1 1 C-0.67 0.67 -0.34 0.34 0 0 Z " fill="#F9CFA1" transform="translate(205,91)"/>
</svg>
