<svg width="20" height="20" viewBox="0 0 20 20" fill="none" xmlns="http://www.w3.org/2000/svg">
<path fill-rule="evenodd" clip-rule="evenodd" d="M10.284 1.04056C10.1028 0.962064 9.8972 0.962064 9.71603 1.04056L0.430313 5.06383C0.169074 5.17701 0 5.43453 0 5.71924C0 6.00394 0.169074 6.26146 0.430313 6.37466L1.70546 6.92714V14.9144C1.08497 15.1896 0.652183 15.8111 0.652183 16.5336C0.652183 17.5115 1.4449 18.3042 2.42277 18.3042C3.40064 18.3042 4.19336 17.5115 4.19336 16.5336C4.19336 15.8104 3.75974 15.1884 3.1383 14.9135V7.54796L9.71603 10.3979C9.8972 10.4764 10.1028 10.4764 10.284 10.3979L19.5697 6.37466C19.8309 6.26146 20 6.00394 20 5.71924C20 5.43453 19.8309 5.17701 19.5697 5.06383L10.284 1.04056ZM4.22241 13.3621L4.21526 9.96099L9.00543 12.0364C9.63956 12.3112 10.3591 12.3112 10.9932 12.0364L15.7843 9.96061L15.785 13.3605C15.785 13.5166 15.7339 13.6684 15.6394 13.7927L15.0707 13.3606C15.6394 13.7927 15.6397 13.7924 15.6394 13.7927L15.6384 13.794L15.6373 13.7955L15.6346 13.7991L15.6273 13.8084L15.6054 13.8355C15.5877 13.8572 15.5636 13.886 15.5327 13.9209C15.4711 13.9905 15.383 14.0846 15.2674 14.1948C15.0363 14.4149 14.6939 14.7006 14.2324 14.9838C13.305 15.5529 11.9093 16.1038 9.99961 16.1038C8.08989 16.1038 6.69597 15.5529 5.7702 14.9834C5.30961 14.7001 4.96816 14.4142 4.7377 14.1938C4.62241 14.0836 4.53459 13.9894 4.47323 13.9196C4.44253 13.8848 4.4184 13.8559 4.40071 13.8342L4.379 13.807L4.37173 13.7977L4.36897 13.7941L4.36783 13.7926C4.36759 13.7922 4.36681 13.7912 4.93664 13.3607L4.36681 13.7912C4.27343 13.6676 4.22274 13.517 4.22241 13.3621Z" fill="black"/>
</svg>
