<?xml version="1.0" standalone="no"?>
<!DOCTYPE svg PUBLIC "-//W3C//DTD SVG 20010904//EN"
 "http://www.w3.org/TR/2001/REC-SVG-20010904/DTD/svg10.dtd">
<svg version="1.0" xmlns="http://www.w3.org/2000/svg"
 width="87.000000pt" height="14.000000pt" viewBox="0 0 87.000000 14.000000"
 preserveAspectRatio="xMidYMid meet">
<metadata>
Created by potrace 1.10, written by Peter Selinger 2001-2011
</metadata>
<g transform="translate(0.000000,14.000000) scale(0.100000,-0.100000)"
fill="#000000" stroke="none">
<path d="M61 123 c-6 -11 -22 -24 -37 -27 -24 -6 -25 -8 -10 -25 9 -10 16 -30
16 -45 0 -24 2 -26 21 -15 16 8 28 8 45 0 22 -10 24 -8 24 16 0 15 7 34 16 44
14 16 14 18 -8 24 -13 4 -30 16 -39 28 l-17 20 -11 -20z"/>
<path d="M241 122 c-6 -12 -20 -22 -31 -22 -26 0 -33 -15 -15 -30 8 -7 15 -26
15 -42 0 -26 2 -28 21 -17 16 8 28 8 45 0 22 -10 24 -8 24 16 0 15 7 34 16 44
14 16 14 18 -8 24 -13 4 -30 16 -39 28 l-17 20 -11 -21z"/>
<path d="M421 122 c-6 -12 -20 -22 -31 -22 -26 0 -33 -15 -15 -30 8 -7 15 -26
15 -42 0 -26 2 -28 21 -17 16 8 28 8 45 0 22 -10 24 -8 24 16 0 15 7 34 16 44
14 16 14 18 -8 24 -13 4 -30 16 -39 28 l-17 20 -11 -21z"/>
<path d="M601 122 c-6 -12 -20 -22 -31 -22 -26 0 -33 -15 -15 -30 8 -7 15 -26
15 -42 0 -26 2 -28 21 -17 16 8 28 8 45 0 22 -10 24 -8 24 16 0 15 7 34 16 44
14 16 14 18 -8 24 -13 4 -30 16 -39 28 l-17 20 -11 -21z"/>
<path d="M781 122 c-6 -12 -20 -22 -31 -22 -26 0 -33 -15 -15 -30 8 -7 15 -26
15 -42 0 -26 2 -28 21 -17 16 8 28 8 45 0 22 -10 24 -8 24 16 0 15 7 34 16 44
14 16 14 18 -8 24 -13 4 -30 16 -39 28 l-17 20 -11 -21z"/>
</g>
</svg>
