<svg width="20" height="20" viewBox="0 0 20 20" fill="none" xmlns="http://www.w3.org/2000/svg">
<path fill-rule="evenodd" clip-rule="evenodd" d="M13.0001 1.66675C12.6465 1.66675 12.3073 1.80722 12.0573 2.05727C11.8072 2.30732 11.6667 2.64646 11.6667 3.00008V6.66675H8.00008C7.64646 6.66675 7.30732 6.80722 7.05727 7.05727C6.80722 7.30732 6.66675 7.64646 6.66675 8.00008V12.5001H3.00008C2.64646 12.5001 2.30732 12.6406 2.05727 12.8906C1.80722 13.1407 1.66675 13.4798 1.66675 13.8334V17.0001C1.66675 17.3537 1.80722 17.6928 2.05727 17.9429C2.30732 18.1929 2.64646 18.3334 3.00008 18.3334H17.0001C17.3537 18.3334 17.6928 18.1929 17.9429 17.9429C18.1929 17.6928 18.3334 17.3537 18.3334 17.0001V3.00008C18.3334 2.64646 18.1929 2.30732 17.9429 2.05727C17.6928 1.80722 17.3537 1.66675 17.0001 1.66675H13.0001ZM8.33341 8.33341H11.6667V16.6667H8.33341V8.33341ZM16.6667 16.6667H13.3334V3.33341H16.6667V16.6667ZM6.66675 14.1667V16.6667H3.33341V14.1667H6.66675Z" fill="black"/>
</svg>
