<svg width="20" height="20" viewBox="0 0 20 20" fill="none" xmlns="http://www.w3.org/2000/svg">
<path fill-rule="evenodd" clip-rule="evenodd" d="M10.0001 2.23145C9.2387 2.23145 8.49186 2.44007 7.84071 2.83466L3.67404 5.35966C3.06132 5.73095 2.55468 6.25397 2.20307 6.87819C1.85146 7.50241 1.66674 8.20675 1.66675 8.92318V14.1665C1.66675 15.2716 2.10573 16.3314 2.88714 17.1128C3.66854 17.8942 4.72835 18.3332 5.83341 18.3332H14.1667C15.2718 18.3332 16.3316 17.8942 17.113 17.1128C17.8944 16.3314 18.3334 15.2716 18.3334 14.1665V8.92235C18.3332 8.20608 18.1484 7.50176 17.7968 6.87774C17.4452 6.25372 16.9387 5.73087 16.3261 5.35966L12.1595 2.83466C11.5083 2.44008 10.7615 2.23145 10.0001 2.23145ZM8.70447 4.26003C9.09516 4.02328 9.54325 3.89811 10.0001 3.89811C10.4569 3.89811 10.905 4.02328 11.2957 4.26003L15.4624 6.78503C15.8299 7.00776 16.1338 7.32147 16.3448 7.69589C16.5557 8.07025 16.6666 8.49266 16.6667 8.92235V14.1665C16.6667 14.8296 16.4034 15.4654 15.9345 15.9343C15.4657 16.4031 14.8298 16.6665 14.1667 16.6665H13.3334V14.1665C13.3334 13.2825 12.9822 12.4346 12.3571 11.8095C11.732 11.1844 10.8841 10.8332 10.0001 10.8332C9.11603 10.8332 8.26818 11.1844 7.64306 11.8095C7.01794 12.4346 6.66675 13.2825 6.66675 14.1665V16.6665H5.83341C5.17037 16.6665 4.53449 16.4031 4.06565 15.9343C3.59681 15.4654 3.33341 14.8296 3.33341 14.1665V8.92318C3.33341 8.49332 3.44424 8.07069 3.65521 7.69616C3.86618 7.32163 4.17016 7.00782 4.53779 6.78504L8.70447 4.26003ZM11.1786 12.988C11.4912 13.3006 11.6667 13.7245 11.6667 14.1665V16.6665H8.33341V14.1665C8.33341 13.7245 8.50901 13.3006 8.82157 12.988C9.13413 12.6754 9.55805 12.4999 10.0001 12.4999C10.4421 12.4999 10.866 12.6754 11.1786 12.988Z" fill="black"/>
</svg>
