<?xml version="1.0" encoding="UTF-8"?>
<svg version="1.1" xmlns="http://www.w3.org/2000/svg" width="273" height="195">
<path d="M0 0 C90.09 0 180.18 0 273 0 C273 64.35 273 128.7 273 195 C182.91 195 92.82 195 0 195 C0 130.65 0 66.3 0 0 Z " fill="#BDF7FC" transform="translate(0,0)"/>
<path d="M0 0 C1.12040428 0.0038974 1.12040428 0.0038974 2.26344299 0.00787354 C4.72266463 0.02319859 7.17953027 0.07514781 9.63818359 0.12915039 C11.35018961 0.15077558 13.0622174 0.17073543 14.77426147 0.18910217 C18.35729319 0.23315211 21.93945265 0.29490583 25.52197266 0.36962891 C30.11647082 0.46438183 34.7103772 0.51882343 39.30562782 0.56056881 C42.83859709 0.59643491 46.37105566 0.65163586 49.90366745 0.71292305 C51.59808713 0.74034982 53.29260674 0.76218755 54.98717117 0.77836418 C57.35296674 0.80423306 59.71684608 0.85562212 62.08203125 0.9140625 C63.13407997 0.91829979 63.13407997 0.91829979 64.2073822 0.92262268 C67.30890359 1.02430238 69.00823409 1.17202063 71.34269714 3.29756165 C72.50832526 5.7421144 72.80523737 7.33499946 72.84399414 10.0324707 C72.8637883 10.91308167 72.88358246 11.79369263 72.90397644 12.70098877 C72.91356133 14.11369049 72.91356133 14.11369049 72.92333984 15.55493164 C72.94129105 16.52589783 72.95924225 17.49686401 72.97773743 18.49725342 C73.03186382 21.59456049 73.06574392 24.69171324 73.09912109 27.78930664 C73.13229208 29.89089062 73.16678153 31.99245424 73.20263672 34.09399414 C73.28759183 39.24232035 73.35439217 44.39060059 73.41162109 49.53930664 C73.59990479 48.99443604 73.78818848 48.44956543 73.98217773 47.88818359 C74.23862061 47.17106201 74.49506348 46.45394043 74.75927734 45.71508789 C75.13451538 44.65028198 75.13451538 44.65028198 75.51733398 43.56396484 C77.48714762 39.10432399 81.51734966 36.27971987 85.41162109 33.53930664 C86.73162109 34.19930664 88.05162109 34.85930664 89.41162109 35.53930664 C89.16162109 37.41430664 89.16162109 37.41430664 88.41162109 39.53930664 C86.34912109 40.78930664 86.34912109 40.78930664 84.41162109 41.53930664 C84.41162109 42.85930664 84.41162109 44.17930664 84.41162109 45.53930664 C83.09162109 45.53930664 81.77162109 45.53930664 80.41162109 45.53930664 C80.91555048 49.94868879 82.37365719 52.3277448 85.41162109 55.53930664 C89.09840186 58.04908698 92.61500201 57.77367889 96.97412109 57.72680664 C97.64636719 57.72616211 98.31861328 57.72551758 99.01123047 57.72485352 C102.0757528 57.69746454 104.48433719 57.51506794 107.41162109 56.53930664 C108.40162109 56.86930664 109.39162109 57.19930664 110.41162109 57.53930664 C111.81987002 57.61952663 113.2315934 57.64696641 114.64208984 57.63696289 C115.44453125 57.63374023 116.24697266 57.63051758 117.07373047 57.62719727 C117.90710938 57.61881836 118.74048828 57.61043945 119.59912109 57.60180664 C120.8665918 57.59503906 120.8665918 57.59503906 122.15966797 57.58813477 C124.24368264 57.57636067 126.32766086 57.55842554 128.41162109 57.53930664 C128.41162109 58.19930664 128.41162109 58.85930664 128.41162109 59.53930664 C123.79162109 59.53930664 119.17162109 59.53930664 114.41162109 59.53930664 C114.74162109 62.17930664 115.07162109 64.81930664 115.41162109 67.53930664 C116.33845703 67.58829102 117.26529297 67.63727539 118.22021484 67.68774414 C119.41775391 67.76250977 120.61529297 67.83727539 121.84912109 67.91430664 C123.6415625 68.0187207 123.6415625 68.0187207 125.47021484 68.12524414 C126.92621094 68.33020508 126.92621094 68.33020508 128.41162109 68.53930664 C128.74162109 69.19930664 129.07162109 69.85930664 129.41162109 70.53930664 C124.46162109 70.86930664 119.51162109 71.19930664 114.41162109 71.53930664 C114.74162109 73.18930664 115.07162109 74.83930664 115.41162109 76.53930664 C107.31162109 77.16238356 107.31162109 77.16238356 103.97412109 74.85180664 C102.37027873 72.47811994 101.31623024 70.25313409 100.41162109 67.53930664 C98.43162109 67.53930664 96.45162109 67.53930664 94.41162109 67.53930664 C94.41162109 65.88930664 94.41162109 64.23930664 94.41162109 62.53930664 C88.80162109 62.53930664 83.19162109 62.53930664 77.41162109 62.53930664 C77.41162109 64.18930664 77.41162109 65.83930664 77.41162109 67.53930664 C75.76162109 67.53930664 74.11162109 67.53930664 72.41162109 67.53930664 C72.41162109 74.46930664 72.41162109 81.39930664 72.41162109 88.53930664 C77.03162109 88.53930664 81.65162109 88.53930664 86.41162109 88.53930664 C86.41162109 95.53930664 86.41162109 95.53930664 84.87879944 98.43835449 C81.63156941 101.20356801 79.01624179 101.23173618 74.93676758 101.15454102 C74.18997742 101.16009003 73.44318726 101.16563904 72.67376709 101.1713562 C70.20942685 101.18315131 67.74692595 101.15888358 65.28271484 101.13305664 C63.5692605 101.13134559 61.85580353 101.13141116 60.14234924 101.13317871 C56.55354732 101.13152563 52.96537019 101.11282858 49.37670898 101.08129883 C44.77405535 101.04159094 40.17221897 101.03725697 35.56942654 101.04476166 C32.03237912 101.04782915 28.49551586 101.03571927 24.95851326 101.01863098 C23.26123268 101.0115949 21.56393123 101.00847718 19.86663628 101.00932312 C17.49639936 101.00752781 15.127147 100.98617129 12.75708008 100.95922852 C11.70267479 100.96362442 11.70267479 100.96362442 10.62696838 100.96810913 C7.81200409 100.91866992 5.84352992 100.82067258 3.45252991 99.26306152 C2.41162109 97.53930664 2.41162109 97.53930664 2.41162109 93.53930664 C1.7565155 93.5504097 1.10140991 93.56151276 0.42645264 93.57295227 C-6.38645811 93.68349395 -13.19911454 93.75895273 -20.01269531 93.81396484 C-22.55609482 93.83912291 -25.09942195 93.87325295 -27.64257812 93.91650391 C-31.29656828 93.97709485 -34.94960341 94.00550431 -38.60400391 94.02758789 C-40.31200165 94.06629753 -40.31200165 94.06629753 -42.05450439 94.10578918 C-49.92612194 94.10859156 -49.92612194 94.10859156 -53.34130859 91.17285156 C-54.58837891 88.53930664 -54.58837891 88.53930664 -54.52587891 85.91430664 C-53.50282953 83.32258156 -52.77224011 82.2417802 -50.58837891 80.53930664 C-48.25349426 80.17854309 -48.25349426 80.17854309 -45.47436523 80.19873047 C-43.91308647 80.19907036 -43.91308647 80.19907036 -42.32026672 80.19941711 C-40.63733772 80.2226429 -40.63733772 80.2226429 -38.92041016 80.24633789 C-37.77046066 80.25058273 -36.62051117 80.25482758 -35.43571472 80.25920105 C-31.75719949 80.27601475 -28.07922899 80.31367287 -24.40087891 80.35180664 C-21.90935035 80.36684995 -19.41781322 80.38053897 -16.92626953 80.39282227 C-10.81345298 80.42592711 -4.70095485 80.47615359 1.41162109 80.53930664 C1.41162109 79.21930664 1.41162109 77.89930664 1.41162109 76.53930664 C-19.37837891 76.53930664 -40.16837891 76.53930664 -61.58837891 76.53930664 C-61.58837891 75.21930664 -61.58837891 73.89930664 -61.58837891 72.53930664 C-60.59837891 72.53930664 -59.60837891 72.53930664 -58.58837891 72.53930664 C-58.58837891 69.56930664 -58.58837891 66.59930664 -58.58837891 63.53930664 C-59.57837891 63.53930664 -60.56837891 63.53930664 -61.58837891 63.53930664 C-61.58837891 62.21930664 -61.58837891 60.89930664 -61.58837891 59.53930664 C-59.27837891 59.53930664 -56.96837891 59.53930664 -54.58837891 59.53930664 C-54.58837891 58.54930664 -54.58837891 57.55930664 -54.58837891 56.53930664 C-53.10337891 56.04430664 -53.10337891 56.04430664 -51.58837891 55.53930664 C-51.58837891 54.21930664 -51.58837891 52.89930664 -51.58837891 51.53930664 C-52.57837891 51.20930664 -53.56837891 50.87930664 -54.58837891 50.53930664 C-54.58837891 49.54930664 -54.58837891 48.55930664 -54.58837891 47.53930664 C-51.28837891 47.53930664 -47.98837891 47.53930664 -44.58837891 47.53930664 C-44.91837891 46.87930664 -45.24837891 46.21930664 -45.58837891 45.53930664 C-45.83837891 42.03930664 -45.83837891 42.03930664 -45.58837891 38.53930664 C-42.05206539 36.1817643 -40.4021874 36.251759 -36.20556641 36.16040039 C-34.33191406 36.10916016 -34.33191406 36.10916016 -32.42041016 36.05688477 C-31.11458984 36.03045898 -29.80876953 36.0040332 -28.46337891 35.97680664 C-25.87734204 35.91716791 -23.29139195 35.85358917 -20.70556641 35.78540039 C-19.55685059 35.76147217 -18.40813477 35.73754395 -17.22460938 35.71289062 C-14.66454146 35.83517575 -14.66454146 35.83517575 -13.58837891 34.53930664 C-13.49087943 32.45251547 -13.4563273 30.36273168 -13.44775391 28.27368164 C-13.42841797 26.99106445 -13.40908203 25.70844727 -13.38916016 24.38696289 C-13.36025548 22.34158943 -13.33838082 20.29729953 -13.33789062 18.25170898 C-13.33454256 16.27969957 -13.29775286 14.30783734 -13.26025391 12.33618164 C-13.2509082 11.15378906 -13.2415625 9.97139648 -13.23193359 8.75317383 C-11.76703688 1.43758191 -6.78093548 -0.20462822 0 0 Z " fill="#F0F0F0" transform="translate(120.58837890625,71.460693359375)"/>
<path d="M0 0 C0.99 0 1.98 0 3 0 C3.99796579 3.3181289 4.12104112 6.32108637 4.11352539 9.77832031 C4.11344986 10.9392218 4.11337433 12.10012329 4.11329651 13.29620361 C4.10813522 14.54423767 4.10297394 15.79227173 4.09765625 17.078125 C4.0962413 18.35983582 4.09482635 19.64154663 4.09336853 20.96209717 C4.08955901 24.3618364 4.07974214 27.7615326 4.06866455 31.16125488 C4.05841674 34.633539 4.0538637 38.1058301 4.04882812 41.578125 C4.03811841 48.38543608 4.02053433 55.19271154 4 62 C8.95 62 13.9 62 19 62 C18.01 63.65 17.02 65.3 16 67 C15.53066317 69.75345048 15.53066317 69.75345048 15.625 72.5625 C15.61726563 73.49191406 15.60953125 74.42132813 15.6015625 75.37890625 C16.08249672 78.54269899 16.7370348 79.74276811 19 82 C21.9467971 82.60653768 21.9467971 82.60653768 25.36743164 82.51416016 C26.68211929 82.5274234 27.99680695 82.54068665 29.35133362 82.55435181 C30.78760826 82.54937927 32.22388247 82.54427979 33.66015625 82.5390625 C35.1308285 82.54896591 36.60148832 82.56090581 38.0721283 82.57479858 C41.94297559 82.60718676 45.81353982 82.61755545 49.68450928 82.62164307 C55.88416417 82.63039492 62.08358634 82.66579415 68.28304863 82.7138176 C70.45132416 82.72643833 72.61930796 82.72564182 74.78761292 82.72354126 C76.09914841 82.73050018 77.4106839 82.73745911 78.76196289 82.74462891 C79.92095596 82.74588776 81.07994904 82.74714661 82.27406311 82.7484436 C85 83 85 83 87 85 C89.45257319 85.20864402 91.79325402 85.29366917 94.24780273 85.29052734 C94.99430084 85.29724457 95.74079895 85.30396179 96.50991821 85.31088257 C98.9845439 85.32992438 101.4588993 85.33378977 103.93359375 85.3359375 C105.64990858 85.34236091 107.3662223 85.34908892 109.08253479 85.35610962 C112.6830601 85.36809769 116.28348934 85.37178885 119.8840332 85.37060547 C124.50246558 85.37040214 129.12028355 85.39771155 133.73857021 85.43214989 C137.28415263 85.45436426 140.82958589 85.45844471 144.37523079 85.45738602 C146.07812685 85.45974995 147.78102653 85.46861786 149.48385429 85.48405075 C151.86394414 85.50360221 154.24269224 85.49791674 156.62280273 85.48583984 C157.32888168 85.49707886 158.03496063 85.50831787 158.76243591 85.51989746 C161.9121893 85.47919148 163.57304044 85.39977721 165.91810608 83.20401001 C167.39417504 80.19699546 167.68158279 77.31153893 168 74 C163.38 74 158.76 74 154 74 C154 67.07 154 60.14 154 53 C155.65 53 157.3 53 159 53 C159 51.35 159 49.7 159 48 C164.61 48 170.22 48 176 48 C176 49.65 176 51.3 176 53 C176.9075 52.87625 177.815 52.7525 178.75 52.625 C182 53 182 53 184.375 55.875 C186 59 186 59 186 61 C186.66 61 187.32 61 188 61 C188.43828125 62.13566406 188.8765625 63.27132812 189.328125 64.44140625 C190.77532894 66.97401315 191.4630897 67.84319209 194.29882812 68.67138672 C197.13397704 68.91520953 199.90466312 68.96970421 202.75 68.9375 C203.73355469 68.95361328 204.71710938 68.96972656 205.73046875 68.98632812 C208.15505929 69.0216377 210.57540513 69.02508421 213 69 C213 66.69 213 64.38 213 62 C219.93 62 226.86 62 234 62 C234 77.51 234 93.02 234 109 C143.91 109 53.82 109 -39 109 C-39 89.2 -39 69.4 -39 49 C-28.71936759 44.43083004 -28.71936759 44.43083004 -23.25 42.75 C-22.18265625 42.41484375 -21.1153125 42.0796875 -20.015625 41.734375 C-17.20116767 41.04898902 -14.87914562 40.85071097 -12 41 C-10.09879901 48.12950371 -9.77575859 54.63740707 -10 62 C-6.7 62 -3.4 62 0 62 C-0.16233124 61.28574356 -0.32466248 60.57148712 -0.49191284 59.83558655 C-0.99463098 57.02996401 -1.12692809 54.47768726 -1.12939453 51.63061523 C-1.13254669 50.5828038 -1.13569885 49.53499237 -1.13894653 48.45542908 C-1.1369223 47.33447342 -1.13489807 46.21351776 -1.1328125 45.05859375 C-1.13376923 43.8987648 -1.13472595 42.73893585 -1.13571167 41.54396057 C-1.13639135 39.0954686 -1.13455187 36.64697482 -1.13037109 34.19848633 C-1.12501505 30.44803836 -1.13032581 26.69770989 -1.13671875 22.94726562 C-1.13605803 20.56770807 -1.13477698 18.18815059 -1.1328125 15.80859375 C-1.13483673 14.68561386 -1.13686096 13.56263397 -1.13894653 12.40562439 C-1.13421829 10.83863548 -1.13421829 10.83863548 -1.12939453 9.23999023 C-1.12859894 8.3224144 -1.12780334 7.40483856 -1.12698364 6.4594574 C-1.00846395 4.16393237 -0.64671565 2.19882921 0 0 Z " fill="#0A5B9B" transform="translate(39,86)"/>
<path d="M0 0 C5.38698144 4.59099463 9.70599203 9.76821033 13.1171875 15.98046875 C13.1171875 16.31046875 13.1171875 16.64046875 13.1171875 16.98046875 C11.99699219 17.04105469 10.87679687 17.10164063 9.72265625 17.1640625 C8.24998766 17.24848299 6.77733206 17.33313024 5.3046875 17.41796875 C4.19770508 17.47694336 4.19770508 17.47694336 3.06835938 17.53710938 C-0.11352592 17.7242791 -2.84443628 17.96767668 -5.8828125 18.98046875 C-7.00325915 22.3418087 -7.05747782 25.00503485 -7.12890625 28.546875 C-7.16177734 29.83658203 -7.19464844 31.12628906 -7.22851562 32.45507812 C-7.27604504 34.50475315 -7.32053037 36.55439393 -7.35961914 38.60424805 C-7.39924515 40.58531123 -7.45138976 42.56611162 -7.50390625 44.546875 C-7.54149048 46.3249353 -7.54149048 46.3249353 -7.57983398 48.13891602 C-7.8828125 50.98046875 -7.8828125 50.98046875 -9.8828125 52.98046875 C-12.6484375 53.28344727 -12.6484375 53.28344727 -16.1328125 53.359375 C-17.380625 53.39353516 -18.6284375 53.42769531 -19.9140625 53.46289062 C-21.87859375 53.5025293 -21.87859375 53.5025293 -23.8828125 53.54296875 C-26.46624263 53.60272329 -29.04958757 53.66632517 -31.6328125 53.734375 C-32.78265625 53.75830322 -33.9325 53.78223145 -35.1171875 53.80688477 C-37.84167229 53.79727073 -37.84167229 53.79727073 -39.8828125 54.98046875 C-39.8828125 57.95046875 -39.8828125 60.92046875 -39.8828125 63.98046875 C-43.1828125 63.98046875 -46.4828125 63.98046875 -49.8828125 63.98046875 C-49.8828125 64.97046875 -49.8828125 65.96046875 -49.8828125 66.98046875 C-48.5628125 67.31046875 -47.2428125 67.64046875 -45.8828125 67.98046875 C-45.8828125 69.63046875 -45.8828125 71.28046875 -45.8828125 72.98046875 C-47.2028125 72.98046875 -48.5228125 72.98046875 -49.8828125 72.98046875 C-49.8828125 73.64046875 -49.8828125 74.30046875 -49.8828125 74.98046875 C-52.1928125 74.98046875 -54.5028125 74.98046875 -56.8828125 74.98046875 C-56.82480469 74.19542969 -56.76679687 73.41039062 -56.70703125 72.6015625 C-56.44002352 66.38409674 -56.39991103 62.42144177 -60.5078125 57.625 C-62.01952991 55.81695162 -63.05923437 54.0138143 -64.1328125 51.91796875 C-64.60460937 51.00337891 -64.60460937 51.00337891 -65.0859375 50.0703125 C-68.83334026 40.24256506 -68.24023363 26.99917007 -64.15234375 17.37890625 C-58.61691941 6.92121226 -49.57116175 -1.87907663 -38.3203125 -5.89453125 C-25.29519898 -9.24673101 -11.15057882 -7.81144885 0 0 Z " fill="#E1FAFE" transform="translate(115.8828125,55.01953125)"/>
<path d="M0 0 C38.28 0 76.56 0 116 0 C110.78905991 10.42188019 101.66454008 16.00310675 90.95776367 20.00537109 C83.23617219 22.26255631 74.81926394 21.34627582 66.875 21.0625 C48.5406985 20.25805058 48.5406985 20.25805058 32.0625 27.625 C25.41930354 34.01330163 24.75231835 42.10207208 24.34765625 50.859375 C23.84636787 55.38786781 22.19521459 59.04861373 20 63 C20.66 63.66 21.32 64.32 22 65 C20.68 65 19.36 65 18 65 C18 65.66 18 66.32 18 67 C15.96370903 68.48473339 13.95716704 69.81552692 11.8125 71.125 C11.23435547 71.49753906 10.65621094 71.87007813 10.06054688 72.25390625 C6.21617005 74.62569127 4.72276936 75 0 75 C0 50.25 0 25.5 0 0 Z " fill="#88DEFC" transform="translate(0,0)"/>
<path d="M0 0 C39.93 0 79.86 0 121 0 C121 27.06 121 54.12 121 82 C109.86458801 72.45536115 107.7225324 64.07437697 105.46801758 50.16625977 C103.78475364 40.01529871 101.48920126 29.46306921 93.24609375 22.5234375 C84.29905763 16.84216618 74.99944254 15.51822402 64.5625 15.75 C63.551875 15.76095703 62.54125 15.77191406 61.5 15.78320312 C55.57227871 15.87116286 49.70966211 16.18788482 43.80859375 16.76171875 C30.91852551 17.85531286 18.66910981 17.58057062 7.9375 9.5625 C4.9091263 6.97390851 2.24362167 4.31665812 0 1 C0 0.67 0 0.34 0 0 Z " fill="#88DFFC" transform="translate(152,0)"/>
<path d="M0 0 C1.90120099 7.12950371 2.22424141 13.63740707 2 21 C5.3 21 8.6 21 12 21 C11.67 23.64 11.34 26.28 11 29 C8.03 29 5.06 29 2 29 C1.9175 30.03125 1.835 31.0625 1.75 32.125 C0.95090836 38.55247624 -0.81157882 44.91371165 -3 51 C-3.99 51.495 -3.99 51.495 -5 52 C-5.67441131 53.6635479 -6.3400321 55.33066942 -7 57 C-7.804375 57.928125 -7.804375 57.928125 -8.625 58.875 C-10.63379316 61.55765567 -10.63379316 61.55765567 -10 68 C-15.61 68 -21.22 68 -27 68 C-27 48.2 -27 28.4 -27 8 C-16.71936759 3.43083004 -16.71936759 3.43083004 -11.25 1.75 C-10.18265625 1.41484375 -9.1153125 1.0796875 -8.015625 0.734375 C-5.20116767 0.04898902 -2.87914562 -0.14928903 0 0 Z " fill="#36C6AA" transform="translate(27,127)"/>
<path d="M0 0 C0.66 0 1.32 0 2 0 C2.00257812 0.68707031 2.00515625 1.37414062 2.0078125 2.08203125 C2.1258302 4.83184368 2.32774549 7.3284431 3 10 C5.78287055 11.64185993 5.78287055 11.64185993 9 13 C10.5024245 15.1678437 11.65997223 17.38159309 12.82421875 19.74609375 C13.92062309 22.04992177 13.92062309 22.04992177 15.6328125 23.92578125 C17.43804609 26.6645785 17.30343349 28.50386218 17.1875 31.75 C17.16042969 32.73484375 17.13335937 33.7196875 17.10546875 34.734375 C17.07066406 35.48203125 17.03585938 36.2296875 17 37 C18.98 37.33 20.96 37.66 23 38 C23 38.33 23 38.66 23 39 C20.69 39 18.38 39 16 39 C16 40.32 16 41.64 16 43 C16.99 43 17.98 43 19 43 C19 45.97 19 48.94 19 52 C18.01 52 17.02 52 16 52 C16 53.32 16 54.64 16 56 C36.79 56 57.58 56 79 56 C79 57.32 79 58.64 79 60 C78.35520187 60.00586624 77.71040375 60.01173248 77.04606628 60.01777649 C70.34641816 60.08161638 63.6472546 60.16601147 56.94799805 60.26245117 C54.44643535 60.29574471 51.94479673 60.32376268 49.44311523 60.34643555 C45.85106998 60.3798996 42.25972334 60.43221243 38.66796875 60.48828125 C36.98503975 60.49786613 36.98503975 60.49786613 35.26811218 60.50764465 C34.22725967 60.52743881 33.18640717 60.54723297 32.11401367 60.56762695 C31.19690109 60.57873001 30.27978851 60.58983307 29.33488464 60.60127258 C26.94658022 60.83096824 26.94658022 60.83096824 25.1686554 62.33561707 C23.68542886 64.08019227 23.68542886 64.08019227 24.1875 67.0625 C24.76648363 70.09515868 24.76648363 70.09515868 27 72 C29.34409571 72.33116738 29.34409571 72.33116738 32.09228516 72.31884766 C33.15323395 72.33871735 34.21418274 72.35858704 35.30728149 72.37905884 C36.45626923 72.39061005 37.60525696 72.40216125 38.7890625 72.4140625 C39.96262299 72.43342865 41.13618347 72.4527948 42.3453064 72.4727478 C46.10512961 72.53267664 49.86498323 72.57898246 53.625 72.625 C56.16928442 72.6631675 58.71355575 72.70221849 61.2578125 72.7421875 C67.50509241 72.83838905 73.75245072 72.92339738 80 73 C80 74.32 80 75.64 80 77 C71.59422444 77.11587396 63.18878276 77.20470398 54.78240585 77.25906086 C50.87890149 77.28515031 46.97594369 77.3205346 43.07275391 77.37719727 C39.30556116 77.43154313 35.53889392 77.46142545 31.77133942 77.47438622 C30.33436052 77.48362174 28.89741025 77.50165727 27.46065521 77.52865028 C25.44768854 77.56496318 23.43419253 77.56704255 21.42089844 77.56762695 C20.27506287 77.57873001 19.12922729 77.58983307 17.94866943 77.60127258 C15 77 15 77 12.62969971 74.63664246 C10.76638429 71.62204013 10.48919131 69.95142976 10.5625 66.4375 C10.56378906 65.50808594 10.56507812 64.57867187 10.56640625 63.62109375 C11 61 11 61 14 57 C7.07 56.505 7.07 56.505 0 56 C0 37.52 0 19.04 0 0 Z " fill="#C1EDEF" transform="translate(43,92)"/>
<path d="M0 0 C1.98 0 3.96 0 6 0 C6 1.32 6 2.64 6 4 C19.86 4 33.72 4 48 4 C48 11.92 48 19.84 48 28 C47.505 26.02 47.505 26.02 47 24 C26.21 24 5.42 24 -16 24 C-16 22.68 -16 21.36 -16 20 C-15.01 20 -14.02 20 -13 20 C-13 17.03 -13 14.06 -13 11 C-13.99 11 -14.98 11 -16 11 C-16 9.68 -16 8.36 -16 7 C-13.69 7 -11.38 7 -9 7 C-9 6.01 -9 5.02 -9 4 C-6.03 4 -3.06 4 0 4 C0 2.68 0 1.36 0 0 Z " fill="#F0E7E3" transform="translate(75,124)"/>
<path d="M0 0 C5.80209653 4.45464257 10.31254267 9.78024584 12 17 C13.0571152 29.4143272 13.0571152 29.4143272 10 34 C9.80083984 32.93458984 9.80083984 32.93458984 9.59765625 31.84765625 C9.42105469 30.92855469 9.24445313 30.00945312 9.0625 29.0625 C8.88847656 28.14597656 8.71445313 27.22945312 8.53515625 26.28515625 C8.22285012 24.04710156 8.22285012 24.04710156 7 23 C5.09839888 22.87649342 3.1922761 22.82206557 1.28686523 22.79467773 C0.0656749 22.77473251 -1.15551544 22.75478729 -2.41371155 22.73423767 C-3.75627513 22.71725209 -5.09884007 22.70037333 -6.44140625 22.68359375 C-7.80761861 22.66303053 -9.17382451 22.64203423 -10.5400238 22.62062073 C-14.14194524 22.56533465 -17.74392471 22.51595437 -21.34594727 22.46777344 C-25.01909572 22.41760597 -28.69215955 22.36189515 -32.36523438 22.30664062 C-39.57675132 22.19897918 -46.78833847 22.09755213 -54 22 C-54 21.67 -54 21.34 -54 21 C-51.03 21 -48.06 21 -45 21 C-44.9071875 19.515 -44.9071875 19.515 -44.8125 18 C-43.69864391 10.53415375 -38.77488503 5.10808484 -33.0859375 0.4765625 C-23.43959273 -6.35174897 -10.00584104 -6.07192063 0 0 Z " fill="#E2FBFE" transform="translate(183,51)"/>
<path d="M0 0 C5.61 0 11.22 0 17 0 C17 1.65 17 3.3 17 5 C17.9075 4.87625 18.815 4.7525 19.75 4.625 C23 5 23 5 25.375 7.875 C27 11 27 11 27 13 C27.66 13 28.32 13 29 13 C33.52469516 20.21123291 33.52469516 20.21123291 33 25 C31.45613476 28.70140075 29.44012792 30.94492358 26 33 C20.3968355 33.99997882 14.63756483 33.45658568 9 33 C9 30.69 9 28.38 9 26 C4.38 26 -0.24 26 -5 26 C-5 19.07 -5 12.14 -5 5 C-3.35 5 -1.7 5 0 5 C0 3.35 0 1.7 0 0 Z " fill="#A85B15" transform="translate(198,134)"/>
<path d="M0 0 C0.9178125 0.14566406 1.835625 0.29132813 2.78125 0.44140625 C6.71394793 1.88226541 8.14197112 2.88987306 10.5 6.4375 C11.11477661 11.05599971 10.96881184 15.60152628 10.8125 20.25 C10.78994141 21.51521484 10.76738281 22.78042969 10.74414062 24.08398438 C10.68530392 27.20232979 10.59562681 30.32006589 10.5 33.4375 C3.57 33.4375 -3.36 33.4375 -10.5 33.4375 C-10.5 35.7475 -10.5 38.0575 -10.5 40.4375 C-13.91621788 40.58289953 -17.33163991 40.67159725 -20.75 40.75 C-21.71808594 40.79189453 -22.68617188 40.83378906 -23.68359375 40.87695312 C-30.8713669 41.00088025 -30.8713669 41.00088025 -34.171875 38.04296875 C-35.5 35.4375 -35.5 35.4375 -35.5 33.4375 C-32.86 33.1075 -30.22 32.7775 -27.5 32.4375 C-27.685625 31.798125 -27.87125 31.15875 -28.0625 30.5 C-28.206875 29.819375 -28.35125 29.13875 -28.5 28.4375 C-27.5 27.4375 -27.5 27.4375 -23.90234375 27.33984375 C-22.41403133 27.3465178 -20.92573568 27.35847817 -19.4375 27.375 C-18.67888672 27.37951172 -17.92027344 27.38402344 -17.13867188 27.38867188 C-15.25908129 27.4004932 -13.37953101 27.41842922 -11.5 27.4375 C-9.85022172 18.73197355 -8.24554413 10.17351649 -10.5 1.4375 C-6.65214624 -0.40974863 -4.19491948 -0.74825109 0 0 Z " fill="#C0EFF1" transform="translate(262.5,114.5625)"/>
<path d="M0 0 C7.19007962 -0.02337643 14.38015079 -0.04104201 21.570261 -0.05181217 C24.91046644 -0.0569865 28.2506258 -0.06454126 31.59082031 -0.07543945 C35.44857452 -0.08770232 39.30629222 -0.09327316 43.1640625 -0.09765625 C44.92588364 -0.10539818 44.92588364 -0.10539818 46.72329712 -0.11329651 C54.85419032 -0.11383516 62.89805162 0.32281406 71 1 C71.30997022 4.95212035 71.33775504 7.3733991 69.43572998 10.90202332 C66.17289988 13.71240933 64.30335073 13.60552616 60.02832031 13.56762695 C59.3352327 13.56835709 58.64214508 13.56908722 57.92805481 13.56983948 C55.64394034 13.56636417 53.36188177 13.5275116 51.078125 13.48828125 C49.49201573 13.47895278 47.90589202 13.47183682 46.31976318 13.46684265 C42.15024866 13.44777514 37.98160859 13.39867763 33.81243896 13.34332275 C29.55606923 13.29212425 25.29955783 13.2693274 21.04296875 13.24414062 C12.69491174 13.19055761 4.34756472 13.10524908 -4 13 C-3.51917969 12.43796875 -3.03835937 11.8759375 -2.54296875 11.296875 C-0.83801733 8.75887137 -0.53411483 7.26396174 -0.3125 4.25 C-0.21388672 3.05117187 -0.21388672 3.05117187 -0.11328125 1.828125 C-0.05720703 0.92320312 -0.05720703 0.92320312 0 0 Z " fill="#FDC855" transform="translate(136,159)"/>
<path d="M0 0 C6.93 0 13.86 0 21 0 C21 12.21 21 24.42 21 37 C6 37 6 37 0 36 C-0.81690177 33.77236012 -1.62861872 31.5430514 -2.4375 29.3125 C-2.66759766 28.68666016 -2.89769531 28.06082031 -3.13476562 27.41601562 C-5.07987015 22.03174078 -6.1387431 17.40573285 -6.0625 11.6875 C-6.05347656 10.80449219 -6.04445312 9.92148438 -6.03515625 9.01171875 C-6.02355469 8.34785156 -6.01195312 7.68398437 -6 7 C-4.02 7 -2.04 7 0 7 C0 4.69 0 2.38 0 0 Z " fill="#34C3A8" transform="translate(252,148)"/>
<path d="M0 0 C1.6965332 1.04418945 1.6965332 1.04418945 3 3 C3.26133178 5.65621743 3.34959226 8.07867522 3.29296875 10.73046875 C3.28994751 11.39582642 3.28692627 12.06118408 3.28381348 12.7467041 C3.26814229 15.22712767 3.22625802 17.70732975 3.1875 20.1875 C3.125625 25.735625 3.06375 31.28375 3 37 C-9.21 37.33 -21.42 37.66 -34 38 C-34 39.65 -34 41.3 -34 43 C-15.685 43.495 -15.685 43.495 3 44 C3 45.32 3 46.64 3 48 C-15.48 48 -33.96 48 -53 48 C-53 47.34 -53 46.68 -53 46 C-49.7 46 -46.4 46 -43 46 C-43.33 45.34 -43.66 44.68 -44 44 C-44.25 40.5 -44.25 40.5 -44 37 C-40.46368648 34.64245766 -38.8138085 34.71245236 -34.6171875 34.62109375 C-32.74353516 34.56985352 -32.74353516 34.56985352 -30.83203125 34.51757812 C-29.52621094 34.49115234 -28.22039062 34.46472656 -26.875 34.4375 C-24.28896313 34.37786127 -21.70301305 34.31428253 -19.1171875 34.24609375 C-17.96847168 34.22216553 -16.81975586 34.1982373 -15.63623047 34.17358398 C-13.07616256 34.29586911 -13.07616256 34.29586911 -12 33 C-11.89026375 30.90179005 -11.84408655 28.8002024 -11.82421875 26.69921875 C-11.80037109 25.41208984 -11.77652344 24.12496094 -11.75195312 22.79882812 C-11.71688077 20.74476544 -11.68752481 18.69128807 -11.67407227 16.63696289 C-11.65856481 14.65749574 -11.61670507 12.67829065 -11.57421875 10.69921875 C-11.55963623 9.51158936 -11.54505371 8.32395996 -11.5300293 7.1003418 C-10.37824605 0.363126 -6.30495889 -0.80244931 0 0 Z " fill="#FDC854" transform="translate(119,73)"/>
<path d="M0 0 C0.93423645 3.01031744 1.04449911 3.86650268 0 7 C0.495 6.67 0.99 6.34 1.5 6 C5.00091085 4.59963566 8.30776319 4.52287198 12 5 C14.84124653 6.23532458 16.42097859 7.2555439 18.3125 9.6875 C19.73790013 14.4820277 19.50908665 18.55758782 17.875 23.1875 C15.28535548 27.07196678 12.22685959 29.88657021 8 32 C5.58750308 32.17603147 3.16849105 32.26744968 0.75 32.3125 C-0.55453125 32.34988281 -1.8590625 32.38726562 -3.203125 32.42578125 C-8.81891614 31.79602689 -11.79208307 29.43042794 -15.375 25.1875 C-17.2504825 21.50866894 -17.32596702 19.0745878 -17 15 C-16.67 16.32 -16.34 17.64 -16 19 C-14.68 19 -13.36 19 -12 19 C-12 17.68 -12 16.36 -12 15 C-10.68662604 13.9739266 -9.35335895 12.97272675 -8 12 C-8 11.01 -8 10.02 -8 9 C-8.99 8.34 -9.98 7.68 -11 7 C-10 6 -10 6 -6.5625 5.875 C-3 6 -3 6 -1 7 C-0.67 4.69 -0.34 2.38 0 0 Z " fill="#C53153" transform="translate(217,98)"/>
<path d="M0 0 C0.33 15.84 0.66 31.68 1 48 C-2.3 48 -5.6 48 -9 48 C-9.33719047 45.43795456 -9.66987153 42.87545682 -10 40.3125 C-10.09539063 39.59126953 -10.19078125 38.87003906 -10.2890625 38.12695312 C-10.37929688 37.42119141 -10.46953125 36.71542969 -10.5625 35.98828125 C-10.64628906 35.34415283 -10.73007812 34.70002441 -10.81640625 34.03637695 C-11.0270834 31.69959751 -11 29.34625724 -11 27 C-14.63 27.66 -18.26 28.32 -22 29 C-23.87219688 23.38340937 -23.26474588 18.41022627 -21 13 C-20.34 12.34 -19.68 11.68 -19 11 C-18.70351563 10.35289063 -18.40703125 9.70578125 -18.1015625 9.0390625 C-15.84922902 4.86984945 -11.10112671 2.70519743 -6.73046875 1.23828125 C-1.85638298 0 -1.85638298 0 0 0 Z " fill="#BFEFF1" transform="translate(38,100)"/>
<path d="M0 0 C1.12807068 0.01110306 2.25614136 0.02220612 3.418396 0.03364563 C4.699422 0.03402328 5.980448 0.03440094 7.30029297 0.03479004 C8.69351171 0.06032146 10.08672049 0.08640141 11.47991943 0.11299133 C12.90908572 0.12232091 14.33826804 0.12943635 15.76745605 0.13442993 C19.52272971 0.15348903 23.27703101 0.20257827 27.03192139 0.25794983 C30.8660161 0.3091671 34.70026848 0.33194913 38.53460693 0.35713196 C46.05327862 0.41069993 53.57115011 0.49599717 61.08929443 0.60127258 C61.08929443 1.92127258 61.08929443 3.24127258 61.08929443 4.60127258 C60.12209724 4.61007195 60.12209724 4.61007195 59.13536072 4.61904907 C52.43571259 4.68288896 45.73654903 4.76728405 39.03729248 4.86372375 C36.53572979 4.89701729 34.03409117 4.92503527 31.53240967 4.94770813 C27.94036442 4.98117218 24.34901778 5.03348501 20.75726318 5.08955383 C19.07433418 5.09913872 19.07433418 5.09913872 17.35740662 5.10891724 C16.31655411 5.1287114 15.2757016 5.14850555 14.20330811 5.16889954 C13.28619553 5.18000259 12.36908295 5.19110565 11.42417908 5.20254517 C9.03587465 5.43224082 9.03587465 5.43224082 7.25794983 6.93688965 C5.7747233 8.68146485 5.7747233 8.68146485 6.27679443 11.66377258 C6.85577806 14.69643126 6.85577806 14.69643126 9.08929443 16.60127258 C11.43339015 16.93243996 11.43339015 16.93243996 14.18157959 16.92012024 C15.24252838 16.93998993 16.30347717 16.95985962 17.39657593 16.98033142 C19.12005753 16.99765823 19.12005753 16.99765823 20.87835693 17.01533508 C22.05191742 17.03470123 23.22547791 17.05406738 24.43460083 17.07402039 C28.19442405 17.13394922 31.95427766 17.18025504 35.71429443 17.22627258 C38.25857885 17.26444008 40.80285018 17.30349107 43.34710693 17.34346008 C49.59438684 17.43966163 55.84174515 17.52466996 62.08929443 17.60127258 C62.08929443 18.92127258 62.08929443 20.24127258 62.08929443 21.60127258 C53.68351887 21.71714654 45.27807719 21.80597657 36.87170029 21.86033344 C32.96819593 21.88642289 29.06523812 21.92180718 25.16204834 21.97846985 C21.3948556 22.03281571 17.62818835 22.06269804 13.86063385 22.0756588 C12.42365495 22.08489432 10.98670468 22.10292986 9.54994965 22.12992287 C7.53698297 22.16623577 5.52348697 22.16831514 3.51019287 22.16889954 C2.3643573 22.18000259 1.21852173 22.19110565 0.03796387 22.20254517 C-2.91070557 21.60127258 -2.91070557 21.60127258 -5.27880859 19.23571777 C-7.12834176 16.24993262 -7.44985443 14.58552172 -7.41070557 11.10127258 C-7.42101807 10.18346008 -7.43133057 9.26564758 -7.44195557 8.32002258 C-6.55966563 3.80477409 -4.61174392 0.95266083 0 0 Z " fill="#41B5FC" transform="translate(60.91070556640625,147.3987274169922)"/>
<path d="M0 0 C8.05487011 0.20753289 15.70469055 3.10535361 21.56640625 8.671875 C26.9601641 14.81202754 30.51031112 21.67728029 30.33203125 30.0078125 C29.77456257 34.90384179 28.38842174 39.63956521 27.0625 44.375 C26.0725 43.88 26.0725 43.88 25.0625 43.375 C21.68921248 43.05916554 18.31515635 42.86366238 14.93359375 42.65625 C12.0625 42.375 12.0625 42.375 11.0625 41.375 C10.92134839 38.70441149 11.02002893 36.05067762 11.0625 33.375 C15.6825 33.375 20.3025 33.375 25.0625 33.375 C25.0625 32.715 25.0625 32.055 25.0625 31.375 C24.21486084 31.4361499 24.21486084 31.4361499 23.35009766 31.49853516 C20.79652328 31.67661821 18.2421743 31.8384976 15.6875 32 C14.35332031 32.09667969 14.35332031 32.09667969 12.9921875 32.1953125 C11.71601563 32.27265625 11.71601563 32.27265625 10.4140625 32.3515625 C9.23577881 32.43011475 9.23577881 32.43011475 8.03369141 32.51025391 C6.0625 32.375 6.0625 32.375 4.0625 30.375 C4.48402344 29.90449219 4.90554687 29.43398437 5.33984375 28.94921875 C5.88769531 28.32660156 6.43554688 27.70398438 7 27.0625 C7.54527344 26.44761719 8.09054688 25.83273438 8.65234375 25.19921875 C11.62797085 21.34986181 11.42924962 17.02989898 11.0625 12.375 C10.23715186 9.76139757 9.58932862 8.78025278 7.4375 7.125 C2.82225593 5.6675545 -2.34143042 5.84297681 -6.9375 7.375 C-6.11295293 2.15286855 -5.65329598 0.53840914 0 0 Z " fill="#D6F8FC" transform="translate(223.9375,97.625)"/>
<path d="M0 0 C1.53720703 0.01933594 1.53720703 0.01933594 3.10546875 0.0390625 C4.70068359 0.08933594 4.70068359 0.08933594 6.328125 0.140625 C7.94654297 0.16769531 7.94654297 0.16769531 9.59765625 0.1953125 C12.25871288 0.24241085 14.91796754 0.308169 17.578125 0.390625 C17.63599168 4.18222797 17.67167554 7.97371811 17.703125 11.765625 C17.71988281 12.84585938 17.73664063 13.92609375 17.75390625 15.0390625 C17.76035156 16.0703125 17.76679687 17.1015625 17.7734375 18.1640625 C17.78391113 19.11716309 17.79438477 20.07026367 17.80517578 21.05224609 C17.578125 23.390625 17.578125 23.390625 15.578125 25.390625 C12.52267939 25.9414169 9.63384199 25.93908702 6.578125 25.390625 C3.32415681 21.93944662 3.578125 20.26615574 3.578125 15.390625 C-0.711875 15.390625 -5.001875 15.390625 -9.421875 15.390625 C-9.91568482 5.02061876 -9.91568482 5.02061876 -7.73632812 2.24023438 C-4.90435177 -0.02295685 -3.58121409 -0.07958254 0 0 Z " fill="#FDFEFC" transform="translate(90.421875,82.609375)"/>
<path d="M0 0 C0.99 0.33 1.98 0.66 3 1 C5.25 3.3125 5.25 3.3125 7 6 C6.75 8.3125 6.75 8.3125 6 10 C6.66 10.33 7.32 10.66 8 11 C7.125 16.75 7.125 16.75 6 19 C4.00390625 19.37890625 4.00390625 19.37890625 1.5625 19.5625 C-1.84628205 19.8061175 -1.84628205 19.8061175 -5 21 C-5 20.34 -5 19.68 -5 19 C-5.928125 19.33 -6.85625 19.66 -7.8125 20 C-11 21 -11 21 -14 21 C-14 21.66 -14 22.32 -14 23 C-14.99 23 -15.98 23 -17 23 C-17.33 21.35 -17.66 19.7 -18 18 C-18.66 18 -19.32 18 -20 18 C-19.979375 17.21625 -19.95875 16.4325 -19.9375 15.625 C-19.81315937 13.01885039 -19.81315937 13.01885039 -21 11 C-20.01 9.68 -19.02 8.36 -18 7 C-17.67 7.33 -17.34 7.66 -17 8 C-16.75765625 7.36191406 -16.5153125 6.72382812 -16.265625 6.06640625 C-15.93046875 5.24011719 -15.5953125 4.41382812 -15.25 3.5625 C-14.76273438 2.32693359 -14.76273438 2.32693359 -14.265625 1.06640625 C-13 -1 -13 -1 -11.046875 -1.78515625 C-6.84466282 -2.22622814 -3.94992606 -1.39893215 0 0 Z " fill="#B7E0E1" transform="translate(223,79)"/>
<path d="M0 0 C1.44098431 0.07766084 2.88508629 0.10796367 4.328125 0.09765625 C5.12734375 0.09443359 5.9265625 0.09121094 6.75 0.08789062 C7.575 0.07951172 8.4 0.07113281 9.25 0.0625 C10.09046875 0.05798828 10.9309375 0.05347656 11.796875 0.04882812 C13.86461401 0.03707961 15.93231624 0.01914522 18 0 C18 0.66 18 1.32 18 2 C13.38 2 8.76 2 4 2 C4.495 5.96 4.495 5.96 5 10 C5.92683594 10.04898438 6.85367188 10.09796875 7.80859375 10.1484375 C9.00613281 10.22320312 10.20367187 10.29796875 11.4375 10.375 C13.22994141 10.47941406 13.22994141 10.47941406 15.05859375 10.5859375 C16.51458984 10.79089844 16.51458984 10.79089844 18 11 C18.495 11.99 18.495 11.99 19 13 C14.05 13.33 9.1 13.66 4 14 C4.495 16.475 4.495 16.475 5 19 C-3.1 19.62307692 -3.1 19.62307692 -6.4375 17.3125 C-8.04134236 14.9388133 -9.09539085 12.71382745 -10 10 C-11.98 10 -13.96 10 -16 10 C-16 8.35 -16 6.7 -16 5 C-21.61 5 -27.22 5 -33 5 C-33 6.65 -33 8.3 -33 10 C-34.65 10 -36.3 10 -38 10 C-38 7.03 -38 4.06 -38 1 C-28.27097684 0.33313917 -18.63200545 -0.10298206 -8.87890625 0.0625 C-0.45428713 -0.12039539 -0.45428713 -0.12039539 0 0 Z " fill="#F9C350" transform="translate(231,129)"/>
<path d="M0 0 C0.99 0 1.98 0 3 0 C4.0530806 3.46543572 4.14912361 6.68537535 4.18945312 10.29736328 C4.21452942 12.20921921 4.21452942 12.20921921 4.2401123 14.15969849 C4.24679428 14.83772648 4.25347626 15.51575447 4.26036072 16.21432877 C4.28145311 18.34078961 4.30846766 20.46710262 4.33703613 22.59347534 C4.40673597 27.87152714 4.46632759 33.1496841 4.52606201 38.42785645 C4.57696835 42.8940866 4.63176972 47.36023509 4.69187927 51.82635117 C4.71847476 53.92360774 4.73927175 56.02087193 4.7598877 58.11819458 C4.78496399 60.02059402 4.78496399 60.02059402 4.81054688 61.96142578 C4.82307495 63.08187286 4.83560303 64.20231995 4.84851074 65.35671997 C4.82398184 67.97738395 4.82398184 67.97738395 6 70 C6 72.31 6 74.62 6 77 C0.39 77 -5.22 77 -11 77 C-10.67 74.69 -10.34 72.38 -10 70 C-7.03 70 -4.06 70 -1 70 C-1.00222061 69.18202942 -1.00444122 68.36405884 -1.00672913 67.52130127 C-1.0267693 59.81128786 -1.04199317 52.10128709 -1.05181217 44.39125443 C-1.05702991 40.42749164 -1.06410745 36.46375039 -1.07543945 32.5 C-1.08630771 28.67450499 -1.0922852 24.84903068 -1.09487724 21.02352142 C-1.09672438 19.56429468 -1.10033136 18.10506906 -1.10573006 16.64585114 C-1.11299274 14.60144098 -1.11398873 12.5571163 -1.11352539 10.51269531 C-1.115746 9.34909485 -1.11796661 8.18549438 -1.12025452 6.9866333 C-1.01864113 4.4629699 -0.74229493 2.39892955 0 0 Z " fill="#EA7478" transform="translate(39,86)"/>
<path d="M0 0 C-1 7.42857143 -1 7.42857143 -2 11 C-2.66 11 -3.32 11 -4 11 C-4.268125 11.7425 -4.53625 12.485 -4.8125 13.25 C-6 16 -6 16 -7.625 17.875 C-9.63379316 20.55765567 -9.63379316 20.55765567 -9 27 C-14.61 27 -20.22 27 -26 27 C-26 21.39 -26 15.78 -26 10 C-23.69 9.0925 -21.38 8.185 -19 7.25 C-14.65738583 5.53334834 -10.39354475 3.79023579 -6.25 1.625 C-3 0 -3 0 0 0 Z " fill="#35CBAE" transform="translate(26,168)"/>
<path d="M0 0 C19.47 0 38.94 0 59 0 C59 2.31 59 4.62 59 7 C38.21 7 17.42 7 -4 7 C-4 5.68 -4 4.36 -4 3 C-2.68 3 -1.36 3 0 3 C0 2.01 0 1.02 0 0 Z " fill="#F0D8D4" transform="translate(63,141)"/>
<path d="M0 0 C-0.33 0.99 -0.66 1.98 -1 3 C-1.66 3 -2.32 3 -3 3 C-4.5524538 5.07090111 -4.5524538 5.07090111 -6.1171875 7.7421875 C-6.72433594 8.72574219 -7.33148437 9.70929688 -7.95703125 10.72265625 C-9.23009798 12.81504902 -10.50095244 14.90878949 -11.76953125 17.00390625 C-12.37925781 17.99003906 -12.98898437 18.97617188 -13.6171875 19.9921875 C-14.17003418 20.90339355 -14.72288086 21.81459961 -15.29248047 22.75341797 C-17.08844988 25.11637344 -18.38032547 25.76361484 -21 27 C-21.36270588 28.99488234 -21.69169075 30.99598989 -22 33 C-24 36.375 -24 36.375 -26 39 C-26.33 39 -26.66 39 -27 39 C-27 28.77 -27 18.54 -27 8 C-16.71936759 3.43083004 -16.71936759 3.43083004 -11.25 1.75 C-10.18265625 1.41484375 -9.1153125 1.0796875 -8.015625 0.734375 C-5.20116767 0.04898902 -2.87914562 -0.14928903 0 0 Z " fill="#38CCAE" transform="translate(27,127)"/>
<path d="M0 0 C1.8125 0.1875 1.8125 0.1875 4 1 C5.75 3.5625 5.75 3.5625 7 6 C7.6496875 5.01 7.6496875 5.01 8.3125 4 C8.869375 3.34 9.42625 2.68 10 2 C10.99 2 11.98 2 13 2 C13.26218749 5.14624993 13.24754367 6.61837017 11.5 9.3125 C11.005 9.869375 10.51 10.42625 10 11 C10.66 11 11.32 11 12 11 C12.66 9.68 13.32 8.36 14 7 C15.32 7.33 16.64 7.66 18 8 C16.68 9.65 15.36 11.3 14 13 C14.66 13.66 15.32 14.32 16 15 C16.66 13.35 17.32 11.7 18 10 C18.99 10 19.98 10 21 10 C20.67 12.64 20.34 15.28 20 18 C20.66 18.33 21.32 18.66 22 19 C22 17.02 22 15.04 22 13 C28.93 13.33 35.86 13.66 43 14 C43 16.97 43 19.94 43 23 C33.76 23 24.52 23 15 23 C15.99 21.68 16.98 20.36 18 19 C14.04 19.495 14.04 19.495 10 20 C10 17 10 17 12 15 C11.2575 15.33 10.515 15.66 9.75 16 C7 17 7 17 3 17 C4.36983503 13.83884224 4.9890638 13.0072908 8 11 C5.69 11 3.38 11 1 11 C1 10.01 1 9.02 1 8 C2.32 8 3.64 8 5 8 C3.7625 6.8553125 3.7625 6.8553125 2.5 5.6875 C0 3 0 3 0 0 Z " fill="#EEC057" transform="translate(230,172)"/>
<path d="M0 0 C1.98 0 3.96 0 6 0 C6 1.32 6 2.64 6 4 C19.86 4 33.72 4 48 4 C48 5.98 48 7.96 48 10 C26.88 10 5.76 10 -16 10 C-16 9.01 -16 8.02 -16 7 C-13.69 7 -11.38 7 -9 7 C-9 6.01 -9 5.02 -9 4 C-6.03 4 -3.06 4 0 4 C0 2.68 0 1.36 0 0 Z " fill="#FCAD55" transform="translate(75,124)"/>
<path d="M0 0 C0 0.66 0 1.32 0 2 C-12.21 2.33 -24.42 2.66 -37 3 C-37 4.65 -37 6.3 -37 8 C-18.685 8.495 -18.685 8.495 0 9 C0 10.32 0 11.64 0 13 C-18.48 13 -36.96 13 -56 13 C-56 12.34 -56 11.68 -56 11 C-52.7 11 -49.4 11 -46 11 C-46.33 10.34 -46.66 9.68 -47 9 C-47.25 5.5 -47.25 5.5 -47 2 C-43.5946121 -0.2702586 -42.16104158 -0.30543252 -38.14453125 -0.44921875 C-36.97116211 -0.49312744 -35.79779297 -0.53703613 -34.58886719 -0.58227539 C-32.71956543 -0.63436157 -32.71956543 -0.63436157 -30.8125 -0.6875 C-29.55211914 -0.7280249 -28.29173828 -0.7685498 -26.99316406 -0.81030273 C-17.9291548 -1.0576829 -9.02289454 -0.91069588 0 0 Z " fill="#FBCE9B" transform="translate(122,108)"/>
<path d="M0 0 C0.66 1.32 1.32 2.64 2 4 C1.34 4.66 0.68 5.32 0 6 C0.66 6.33 1.32 6.66 2 7 C2.99 6.67 3.98 6.34 5 6 C5 7.32 5 8.64 5 10 C5.99 10 6.98 10 8 10 C8 12.97 8 15.94 8 19 C7.01 19 6.02 19 5 19 C5 20.32 5 21.64 5 23 C-0.28 23 -5.56 23 -11 23 C-11.19337017 5.79005525 -11.19337017 5.79005525 -8 1 C-5.28169253 0.37705454 -2.78775729 0 0 0 Z " fill="#C0F0F1" transform="translate(54,125)"/>
<path d="M0 0 C0.33 0 0.66 0 1 0 C1 14.19 1 28.38 1 43 C0.505 41.02 0.505 41.02 0 39 C-1.11560303 39.00523682 -2.23120605 39.01047363 -3.38061523 39.01586914 C-7.50479333 39.03391775 -11.62896791 39.04543149 -15.75317383 39.05493164 C-17.54094021 39.05997218 -19.32870245 39.06680454 -21.11645508 39.07543945 C-23.68051168 39.0875173 -26.24451397 39.09323094 -28.80859375 39.09765625 C-30.01484657 39.10539818 -30.01484657 39.10539818 -31.24546814 39.11329651 C-33.16401715 39.11349215 -35.08245368 39.06201983 -37 39 C-38 38 -38 38 -38.125 35.5 C-38 33 -38 33 -37 32 C-34.26105915 31.91141354 -31.5474673 31.88476521 -28.80859375 31.90234375 C-27.57883568 31.90446617 -27.57883568 31.90446617 -26.32423401 31.90663147 C-23.69528618 31.91224711 -21.06642227 31.92480221 -18.4375 31.9375 C-16.65950643 31.94251299 -14.88151154 31.94707624 -13.10351562 31.95117188 C-8.73561842 31.96137248 -4.3679036 31.98094468 0 32 C0 21.44 0 10.88 0 0 Z " fill="#F3E8DB" transform="translate(122,78)"/>
<path d="M0 0 C1.39456452 0.00667256 2.78911118 0.01863093 4.18359375 0.03515625 C4.89451172 0.03966797 5.60542969 0.04417969 6.33789062 0.04882812 C8.09899388 0.06064761 9.86005411 0.07858362 11.62109375 0.09765625 C12.74609375 3.84765625 12.74609375 3.84765625 11.62109375 6.09765625 C12.28109375 6.09765625 12.94109375 6.09765625 13.62109375 6.09765625 C13.62109375 8.40765625 13.62109375 10.71765625 13.62109375 13.09765625 C10.20487587 13.24305578 6.78945384 13.3317535 3.37109375 13.41015625 C2.40300781 13.45205078 1.43492187 13.49394531 0.4375 13.53710938 C-6.75027315 13.6610365 -6.75027315 13.6610365 -10.05078125 10.703125 C-11.37890625 8.09765625 -11.37890625 8.09765625 -11.37890625 6.09765625 C-8.73890625 5.76765625 -6.09890625 5.43765625 -3.37890625 5.09765625 C-3.65734375 4.13859375 -3.65734375 4.13859375 -3.94140625 3.16015625 C-4.08578125 2.47953125 -4.23015625 1.79890625 -4.37890625 1.09765625 C-3.37890625 0.09765625 -3.37890625 0.09765625 0 0 Z " fill="#C5CCD6" transform="translate(238.37890625,141.90234375)"/>
<path d="M0 0 C3.95853301 0.14069757 7.91677109 0.28851048 11.875 0.4375 C12.98359375 0.47681641 14.0921875 0.51613281 15.234375 0.55664062 C21.8565699 0.80984219 28.41596045 1.24101949 35 2 C31.50794062 5.59476701 27.95966325 8.92026191 24 12 C23.34 12 22.68 12 22 12 C22 13.32 22 14.64 22 16 C18.37180905 14.30919257 15.09250477 12.19604178 11.75 10 C10.67234375 9.29875 9.5946875 8.5975 8.484375 7.875 C7.66453125 7.25625 6.8446875 6.6375 6 6 C6 5.34 6 4.68 6 4 C4.02 3.34 2.04 2.68 0 2 C0 1.34 0 0.68 0 0 Z " fill="#FAFCF8" transform="translate(200,22)"/>
<path d="M0 0 C1.44098431 0.07766084 2.88508629 0.10796367 4.328125 0.09765625 C5.12734375 0.09443359 5.9265625 0.09121094 6.75 0.08789062 C7.575 0.07951172 8.4 0.07113281 9.25 0.0625 C10.09046875 0.05798828 10.9309375 0.05347656 11.796875 0.04882812 C13.86461401 0.03707961 15.93231624 0.01914522 18 0 C18 0.66 18 1.32 18 2 C13.38 2 8.76 2 4 2 C4.33 4.64 4.66 7.28 5 10 C5.92683594 10.04898438 6.85367188 10.09796875 7.80859375 10.1484375 C9.00613281 10.22320312 10.20367187 10.29796875 11.4375 10.375 C13.22994141 10.47941406 13.22994141 10.47941406 15.05859375 10.5859375 C16.51458984 10.79089844 16.51458984 10.79089844 18 11 C18.33 11.66 18.66 12.32 19 13 C14.05 13.33 9.1 13.66 4 14 C4.33 15.65 4.66 17.3 5 19 C-3.13669065 19.62589928 -3.13669065 19.62589928 -6.5 17.1875 C-8 15 -8 15 -9 12 C-7.35 12 -5.7 12 -4 12 C-4 8.37 -4 4.74 -4 1 C-4.66 0.67 -5.32 0.34 -6 0 C-3.45428855 -1.27285572 -2.69046064 -0.71302718 0 0 Z " fill="#EFC278" transform="translate(231,129)"/>
<path d="M0 0 C1.56127876 0.00033989 1.56127876 0.00033989 3.15409851 0.00068665 C4.83702751 0.02391243 4.83702751 0.02391243 6.55395508 0.04760742 C7.70390457 0.05185226 8.85385406 0.05609711 10.03865051 0.06047058 C13.71716574 0.07728428 17.39513625 0.1149424 21.07348633 0.15307617 C23.56501488 0.16811949 26.05655201 0.1818085 28.5480957 0.1940918 C34.66091226 0.22719664 40.77341038 0.27742312 46.88598633 0.34057617 C46.88598633 0.67057617 46.88598633 1.00057617 46.88598633 1.34057617 C31.04598633 1.67057617 15.20598633 2.00057617 -1.11401367 2.34057617 C-1.11401367 4.32057617 -1.11401367 6.30057617 -1.11401367 8.34057617 C1.32357541 10.77816525 1.98932776 10.60456538 5.33569336 10.65942383 C6.25649689 10.67929352 7.17730042 10.69916321 8.12600708 10.71963501 C9.12187836 10.73118622 10.11774963 10.74273743 11.14379883 10.75463867 C12.67108109 10.7836879 12.67108109 10.7836879 14.22921753 10.81332397 C17.48972122 10.87322972 20.75026 10.91954916 24.01098633 10.96557617 C26.2180332 11.00374582 28.42506502 11.04279695 30.63208008 11.08276367 C36.04991544 11.17894011 41.46784105 11.26395516 46.88598633 11.34057617 C46.88598633 12.00057617 46.88598633 12.66057617 46.88598633 13.34057617 C39.55381705 13.46726828 32.22192956 13.55488234 24.88891602 13.61523438 C22.39401705 13.64039111 19.89919187 13.6745202 17.40454102 13.71777344 C13.82004605 13.77837051 10.2365247 13.80677509 6.65161133 13.82885742 C4.97642426 13.86756706 4.97642426 13.86756706 3.26739502 13.90705872 C-4.45504593 13.90986087 -4.45504593 13.90986087 -7.85327148 10.97412109 C-9.11401367 8.34057617 -9.11401367 8.34057617 -9.05151367 5.71557617 C-7.167601 0.9429974 -5.02640909 -0.03651145 0 0 Z " fill="#E5E9EA" transform="translate(75.114013671875,151.659423828125)"/>
<path d="M0 0 C2.475 0.99 2.475 0.99 5 2 C4.75 3.875 4.75 3.875 4 6 C1.9375 7.25 1.9375 7.25 0 8 C0 9.32 0 10.64 0 12 C-1.32 12 -2.64 12 -4 12 C-3.32430466 17.91233426 -0.08472393 20.91527607 4 25 C-1.28 25 -6.56 25 -12 25 C-9.91730079 8.16484808 -9.91730079 8.16484808 -2.75 2.0625 C-1.38875 1.0415625 -1.38875 1.0415625 0 0 Z " fill="#D9F3F0" transform="translate(205,105)"/>
<path d="M0 0 C1.32 0 2.64 0 4 0 C4.02505615 0.56509277 4.0501123 1.13018555 4.07592773 1.71240234 C4.19179956 4.26683742 4.31456537 6.8208955 4.4375 9.375 C4.47681641 10.26445312 4.51613281 11.15390625 4.55664062 12.0703125 C4.61948242 13.34648437 4.61948242 13.34648437 4.68359375 14.6484375 C4.72025146 15.43395996 4.75690918 16.21948242 4.79467773 17.02880859 C4.890891 19.07523496 4.890891 19.07523496 6 21 C6 23.31 6 25.62 6 28 C0.39 28 -5.22 28 -11 28 C-10.67 25.69 -10.34 23.38 -10 21 C-7.03 21 -4.06 21 -1 21 C-0.67 14.07 -0.34 7.14 0 0 Z " fill="#9E571D" transform="translate(39,135)"/>
<path d="M0 0 C2.88050214 0.17512487 5.7494005 0.38871043 8.625 0.625 C9.43324219 0.67011719 10.24148438 0.71523437 11.07421875 0.76171875 C15.46448407 1.1543441 18.30789384 1.7737321 21.5859375 4.8359375 C24 8 24 8 24 12 C21.62492145 12.02719556 19.25016036 12.04693247 16.875 12.0625 C15.87726563 12.07506836 15.87726563 12.07506836 14.859375 12.08789062 C10.80322759 12.1077737 6.91764279 12.10183703 3 11 C1.7578125 9.2578125 1.7578125 9.2578125 1.125 7.125 C0.90070313 6.42632812 0.67640625 5.72765625 0.4453125 5.0078125 C0 3 0 3 0 0 Z " fill="#35CEB0" transform="translate(249,173)"/>
<path d="M0 0 C20.79 0 41.58 0 63 0 C63 0.99 63 1.98 63 3 C42.21 3 21.42 3 0 3 C0 2.01 0 1.02 0 0 Z " fill="#F55E67" transform="translate(59,145)"/>
<path d="M0 0 C20.79 0 41.58 0 63 0 C63 0.99 63 1.98 63 3 C42.21 3 21.42 3 0 3 C0 2.01 0 1.02 0 0 Z " fill="#FC5B60" transform="translate(59,131)"/>
<path d="M0 0 C2.4375 1.375 2.4375 1.375 4 4 C4.32578206 7.40735986 4.18097571 10.56146142 4 14 C-0.62 14 -5.24 14 -10 14 C-10.36983527 3.52133405 -10.36983527 3.52133405 -8.703125 1.171875 C-5.81067669 -0.81834173 -3.3848703 -0.41568583 0 0 Z " fill="#FCC958" transform="translate(91,84)"/>
<path d="M0 0 C5.94 0.33 11.88 0.66 18 1 C18 3.97 18 6.94 18 10 C10.74 10 3.48 10 -4 10 C-3.67 9.34 -3.34 8.68 -3 8 C-2.34 8 -1.68 8 -1 8 C-0.67 5.36 -0.34 2.72 0 0 Z " fill="#59C99C" transform="translate(255,185)"/>
<path d="M0 0 C18.48 0 36.96 0 56 0 C56 0.66 56 1.32 56 2 C45.90375986 3.10233444 35.88866784 3.11736516 25.75 3.0625 C24.11849097 3.05747149 22.48698042 3.05291099 20.85546875 3.04882812 C16.9036077 3.03793757 12.95182108 3.02074866 9 3 C9 4.32 9 5.64 9 7 C7.35 7 5.7 7 4 7 C3.896875 6.21625 3.79375 5.4325 3.6875 4.625 C3.22404978 1.66954819 3.22404978 1.66954819 0 0 Z " fill="#F6EDE1" transform="translate(66,121)"/>
<path d="M0 0 C-0.66 0.66 -1.32 1.32 -2 2 C-2.16677282 5.58343976 -2.16677282 5.58343976 -2 9 C1.32698637 10.66349319 5.06429385 10.24378057 8.7265625 10.31640625 C9.58937836 10.33718735 10.45219421 10.35796844 11.34115601 10.37937927 C14.10235493 10.44486034 16.86365038 10.50375298 19.625 10.5625 C21.49480172 10.6056866 23.36459362 10.64930093 25.234375 10.69335938 C29.82281728 10.80054024 34.41135683 10.90181175 39 11 C39 11.66 39 12.32 39 13 C20.52 13 2.04 13 -17 13 C-17 12.34 -17 11.68 -17 11 C-13.7 11 -10.4 11 -7 11 C-7.33 10.34 -7.66 9.68 -8 9 C-8.25 5.5 -8.25 5.5 -8 2 C-4.77208445 -0.1519437 -3.71599191 -0.20086443 0 0 Z " fill="#FCC655" transform="translate(83,108)"/>
<path d="M0 0 C9.95049505 3.31683168 9.95049505 3.31683168 13 8 C12.75 10.3125 12.75 10.3125 12 12 C12.66 12.33 13.32 12.66 14 13 C13.125 18.75 13.125 18.75 12 21 C10.02 21 8.04 21 6 21 C6.33 20.01 6.66 19.02 7 18 C6.01 17.01 5.02 16.02 4 15 C4.66 13.35 5.32 11.7 6 10 C5.34 10 4.68 10 4 10 C3.67 9.67 3.34 9.34 3 9 C3 9.66 3 10.32 3 11 C1.02 11.99 1.02 11.99 -1 13 C-0.67 10.36 -0.34 7.72 0 5 C-0.99 5 -1.98 5 -3 5 C-3 4.34 -3 3.68 -3 3 C-2.01 3 -1.02 3 0 3 C0 2.01 0 1.02 0 0 Z " fill="#B9E4E4" transform="translate(217,77)"/>
<path d="M0 0 C0.33 1.32 0.66 2.64 1 4 C1.99 4 2.98 4 4 4 C4 6.97 4 9.94 4 13 C3.01 13 2.02 13 1 13 C1 14.32 1 15.64 1 17 C-4.28 17 -9.56 17 -15 17 C-15 16.01 -15 15.02 -15 14 C-12.30318039 12.09689319 -9.47318868 10.53909127 -6.6015625 8.9140625 C-3.67157282 6.75836439 -3.09318383 5.38997409 -2 2 C-1.34 1.34 -0.68 0.68 0 0 Z " fill="#BEF7FD" transform="translate(58,131)"/>
<path d="M0 0 C1.32 0 2.64 0 4 0 C3.65120368 3.25543229 2.97866739 4.01873107 0.4375 6.25 C-0.366875 6.8275 -1.17125 7.405 -2 8 C0.475 8.99 0.475 8.99 3 10 C3 10.66 3 11.32 3 12 C0.03 12 -2.94 12 -6 12 C-4.7625 12.8971875 -4.7625 12.8971875 -3.5 13.8125 C-2.675 14.534375 -1.85 15.25625 -1 16 C-1 16.99 -1 17.98 -1 19 C-5.99838912 18.53140102 -10.26884135 16.29527563 -14 13 C-15 9.6875 -15 9.6875 -15 7 C-13.125 7.25 -13.125 7.25 -11 8 C-9.75 10.0625 -9.75 10.0625 -9 12 C-9 11.01 -9 10.02 -9 9 C-9.66 8.34 -10.32 7.68 -11 7 C-11.125 4.375 -11.125 4.375 -11 2 C-8.625 2.25 -8.625 2.25 -6 3 C-4.6875 5.0625 -4.6875 5.0625 -4 7 C-2.68 4.69 -1.36 2.38 0 0 Z " fill="#C7AE66" transform="translate(44,174)"/>
<path d="M0 0 C6.6 0 13.2 0 20 0 C20 3.3 20 6.6 20 10 C13.4 8.68 6.8 7.36 0 6 C0 4.02 0 2.04 0 0 Z " fill="#075B9B" transform="translate(253,149)"/>
<path d="M0 0 C0.33 1.32 0.66 2.64 1 4 C1.66 4 2.32 4 3 4 C2.34 5.65 1.68 7.3 1 9 C1.99 9.33 2.98 9.66 4 10 C4.33 10.99 4.66 11.98 5 13 C4.34 13 3.68 13 3 13 C3 13.66 3 14.32 3 15 C1.35 15.66 -0.3 16.32 -2 17 C-2 16.34 -2 15.68 -2 15 C-2.928125 15.33 -3.85625 15.66 -4.8125 16 C-8 17 -8 17 -11 17 C-11 17.66 -11 18.32 -11 19 C-11.99 19 -12.98 19 -14 19 C-13.38722388 16.03824877 -12.74627478 14.61941217 -11 12 C-10.319375 11.690625 -9.63875 11.38125 -8.9375 11.0625 C-6.79326091 10.16669871 -6.79326091 10.16669871 -6.25 7.875 C-6.1675 7.25625 -6.085 6.6375 -6 6 C-3.92446352 5.4465236 -2.15634036 5 0 5 C-0.2784375 4.0409375 -0.2784375 4.0409375 -0.5625 3.0625 C-0.706875 2.381875 -0.85125 1.70125 -1 1 C-0.67 0.67 -0.34 0.34 0 0 Z " fill="#B5DDDC" transform="translate(220,83)"/>
<path d="M0 0 C-1.76534644 4.84015316 -4.19536725 9.2835127 -6.625 13.8125 C-7.04523437 14.60076172 -7.46546875 15.38902344 -7.8984375 16.20117188 C-8.9300009 18.13535326 -9.96391172 20.06823983 -11 22 C-11.66 21.67 -12.32 21.34 -13 21 C-13.4140625 18.49609375 -13.4140625 18.49609375 -13.625 15.4375 C-13.69976562 14.42558594 -13.77453125 13.41367187 -13.8515625 12.37109375 C-13.92503906 11.19740234 -13.92503906 11.19740234 -14 10 C-14.99 9.67 -15.98 9.34 -17 9 C-14.73437454 7.49157829 -12.46313837 5.99317749 -10.1875 4.5 C-9.54490234 4.07074219 -8.90230469 3.64148437 -8.24023438 3.19921875 C-3.33984375 0 -3.33984375 0 0 0 Z " fill="#F9FDFC" transform="translate(56,29)"/>
<path d="M0 0 C-3 2 -3 2 -5 2 C-6.08200581 8.7324806 -6.1917061 14.4248817 -4 21 C-6.25 21.3125 -6.25 21.3125 -9 21 C-11.8532524 18.76366704 -12.85455087 16.97994516 -13.38671875 13.39453125 C-13.55746334 9.03171249 -13.3694995 5.81932497 -11.5625 1.8125 C-7.81324527 -0.83941188 -4.45050106 -0.42793279 0 0 Z " fill="#47A5E4" transform="translate(67,148)"/>
<path d="M0 0 C2 2 2 2 2.3125 5.4375 C2 9 2 9 0.875 10.9375 C-1.93512264 12.52990283 -3.82764724 12.45319325 -7 12 C-9.4375 10.375 -9.4375 10.375 -11 8 C-10.93521587 4.82557782 -10.46700625 2.80428854 -8.875 0.0625 C-5.80365094 -1.67793113 -3.31631617 -0.78385655 0 0 Z " fill="#F2FDFE" transform="translate(15,97)"/>
<path d="M0 0 C1.17219543 0.78345715 2.33763668 1.57702836 3.5 2.375 C4.47453125 3.03628906 4.47453125 3.03628906 5.46875 3.7109375 C5.9740625 4.13632813 6.479375 4.56171875 7 5 C7 5.66 7 6.32 7 7 C7.58265625 7.26683594 8.1653125 7.53367188 8.765625 7.80859375 C11.04476137 9.02386752 12.80462832 10.37069172 14.75 12.0625 C15.36359375 12.58972656 15.9771875 13.11695313 16.609375 13.66015625 C17.06828125 14.10230469 17.5271875 14.54445312 18 15 C18 15.33 18 15.66 18 16 C11.95635404 16.25181858 6.78143614 15.85831876 1 14 C-0.38226016 11.23547967 -0.09525387 8.9538637 -0.0625 5.875 C-0.05347656 4.77929688 -0.04445312 3.68359375 -0.03515625 2.5546875 C-0.02355469 1.71164063 -0.01195312 0.86859375 0 0 Z " fill="#35CEB0" transform="translate(247,158)"/>
<path d="M0 0 C6.93 0 13.86 0 21 0 C21 0.33 21 0.66 21 1 C14.4 1 7.8 1 1 1 C1 2.98 1 4.96 1 7 C2.98 7 4.96 7 7 7 C6.01 7.33 5.02 7.66 4 8 C4.73939222 9.89999557 5.49202344 11.79484167 6.25 13.6875 C6.66765625 14.74324219 7.0853125 15.79898438 7.515625 16.88671875 C9.0091651 20.01922259 10.73223585 22.38819471 13 25 C10.06120516 23.64763423 7.70767089 22.10057341 5.25 20 C4.63640625 19.484375 4.0228125 18.96875 3.390625 18.4375 C2 17 2 17 2 15 C1.071875 14.566875 1.071875 14.566875 0.125 14.125 C-2 13 -2 13 -4 11 C-4.33 12.98 -4.66 14.96 -5 17 C-5.33 17 -5.66 17 -6 17 C-6 13.7 -6 10.4 -6 7 C-4.02 7 -2.04 7 0 7 C0 4.69 0 2.38 0 0 Z " fill="#37A6A5" transform="translate(252,148)"/>
<path d="M0 0 C0.99 0.33 1.98 0.66 3 1 C3 1.66 3 2.32 3 3 C3.55429688 3.2578125 4.10859375 3.515625 4.6796875 3.78125 C7.3211106 5.16866415 9.6861504 6.78188506 12.125 8.5 C13.42824219 9.41265625 13.42824219 9.41265625 14.7578125 10.34375 C17 12 17 12 19 14 C19.1953125 16.6015625 19.1953125 16.6015625 19.125 19.625 C19.10695312 20.62789062 19.08890625 21.63078125 19.0703125 22.6640625 C19.04710937 23.43492188 19.02390625 24.20578125 19 25 C14.92582063 21.08396807 11.34351063 16.90830746 7.8125 12.5 C7.27947266 11.84902344 6.74644531 11.19804688 6.19726562 10.52734375 C3.48916948 7.15499761 1.31343246 4.19009128 0 0 Z " fill="#FBFCF8" transform="translate(203,25)"/>
<path d="M0 0 C4.62 0 9.24 0 14 0 C14 2.97 14 5.94 14 9 C11.85423363 9.02685938 9.70837355 9.04633088 7.5625 9.0625 C6.36753906 9.07410156 5.17257813 9.08570313 3.94140625 9.09765625 C1 9 1 9 0 8 C-0.14115161 5.32941149 -0.04247107 2.67567762 0 0 Z " fill="#C9C9CE" transform="translate(235,131)"/>
<path d="M0 0 C-0.99 1.0209375 -0.99 1.0209375 -2 2.0625 C-4.65658947 5.37207958 -4.65658947 5.37207958 -4 12 C-9.61 12 -15.22 12 -21 12 C-21 11.01 -21 10.02 -21 9 C-18.03 8.01 -15.06 7.02 -12 6 C-12 5.34 -12 4.68 -12 4 C-10.56988027 3.13353333 -9.13059381 2.28218171 -7.6875 1.4375 C-6.88699219 0.96183594 -6.08648437 0.48617187 -5.26171875 -0.00390625 C-3 -1 -3 -1 0 0 Z " fill="#38B6A0" transform="translate(21,183)"/>
<path d="M0 0 C0.99 0 1.98 0 3 0 C4.30781664 3.92344991 4.82479845 5.87600773 4 10 C-4.29126214 17 -4.29126214 17 -9 17 C-9.268125 17.61875 -9.53625 18.2375 -9.8125 18.875 C-11 21 -11 21 -14 23 C-12.0298892 17.72455187 -9.1632267 13.35886829 -6.0625 8.6875 C-5.52431641 7.85154297 -4.98613281 7.01558594 -4.43164062 6.15429688 C-3.90892578 5.36474609 -3.38621094 4.57519531 -2.84765625 3.76171875 C-2.37336182 3.03944092 -1.89906738 2.31716309 -1.41040039 1.57299805 C-0.94496826 1.05390869 -0.47953613 0.53481934 0 0 Z " fill="#35C0A5" transform="translate(24,129)"/>
<path d="M0 0 C1.32 0.33 2.64 0.66 4 1 C4.33 2.98 4.66 4.96 5 7 C6.4540625 7.433125 6.4540625 7.433125 7.9375 7.875 C11 9 11 9 12 11 C6.39 11 0.78 11 -5 11 C-5.33 8.69 -5.66 6.38 -6 4 C-5.38125 3.896875 -4.7625 3.79375 -4.125 3.6875 C-1.63473516 3.12474627 -1.63473516 3.12474627 0 0 Z " fill="#3E6F89" transform="translate(24,184)"/>
<path d="M0 0 C3.3 0 6.6 0 10 0 C9.505 0.598125 9.01 1.19625 8.5 1.8125 C6.29688653 6.49411613 6.40430267 10.90602414 7 16 C8.29262369 19.08996833 8.29262369 19.08996833 10 21 C6.28765628 20.49833193 4.33897493 19.97203082 2 17 C1.5234375 14.80859375 1.5234375 14.80859375 1.375 12.4375 C1.17127819 9.09224742 1.17127819 9.09224742 0 6 C-0.039992 4.00039988 -0.04346799 1.99952758 0 0 Z " fill="#3FB4FB" transform="translate(43,148)"/>
<path d="M0 0 C1.11375 0.1546875 1.11375 0.1546875 2.25 0.3125 C1.755 0.910625 1.26 1.50875 0.75 2.125 C-1.45311347 6.80661613 -1.34569733 11.21852414 -0.75 16.3125 C0.54262369 19.40246833 0.54262369 19.40246833 2.25 21.3125 C0 21.625 0 21.625 -2.75 21.3125 C-5.6032524 19.07616704 -6.60455087 17.29244516 -7.13671875 13.70703125 C-7.31310218 9.20013045 -7.19518051 6.15339652 -5.0625 2.125 C-2.75 0.3125 -2.75 0.3125 0 0 Z " fill="#EC646F" transform="translate(55.75,147.6875)"/>
<path d="M0 0 C0.99 0 1.98 0 3 0 C3.92553743 3.13850064 4.11664647 5.93680778 4.09765625 9.203125 C4.09443359 10.1828125 4.09121094 11.1625 4.08789062 12.171875 C4.07951172 13.18765625 4.07113281 14.2034375 4.0625 15.25 C4.05798828 16.28125 4.05347656 17.3125 4.04882812 18.375 C4.03706088 20.91672573 4.02062011 23.45833319 4 26 C2.68 26 1.36 26 0 26 C0 17.42 0 8.84 0 0 Z " fill="#B22020" transform="translate(39,86)"/>
<path d="M0 0 C7.92 2.97 15.84 5.94 24 9 C24 9.99 24 10.98 24 12 C23.34 12 22.68 12 22 12 C22 13.32 22 14.64 22 16 C18.37180905 14.30919257 15.09250477 12.19604178 11.75 10 C10.67234375 9.29875 9.5946875 8.5975 8.484375 7.875 C7.66453125 7.25625 6.8446875 6.6375 6 6 C6 5.34 6 4.68 6 4 C4.02 3.34 2.04 2.68 0 2 C0 1.34 0 0.68 0 0 Z " fill="#ECBD56" transform="translate(200,22)"/>
<path d="M0 0 C1.98 0 3.96 0 6 0 C6 1.32 6 2.64 6 4 C19.86 4 33.72 4 48 4 C48 5.98 48 7.96 48 10 C47.67 10 47.34 10 47 10 C47 8.35 47 6.7 47 5 C28.52 5.33 10.04 5.66 -9 6 C-9 5.34 -9 4.68 -9 4 C-6.03 4 -3.06 4 0 4 C0 2.68 0 1.36 0 0 Z " fill="#F7CF84" transform="translate(75,124)"/>
<path d="M0 0 C5.66884176 2.2675367 5.66884176 2.2675367 8.3125 5 C8.82425781 5.515625 9.33601562 6.03125 9.86328125 6.5625 C11 8 11 8 11 10 C9.5437455 10.67119549 8.08492133 11.33681807 6.625 12 C5.40683594 12.556875 5.40683594 12.556875 4.1640625 13.125 C2 14 2 14 0 14 C0 9.38 0 4.76 0 0 Z " fill="#DFFBFE" transform="translate(0,121)"/>
<path d="M0 0 C4.95 0 9.9 0 15 0 C16 4 16 4 15 6 C12.70858714 6.05384521 10.41681812 6.09272087 8.125 6.125 C6.21074219 6.15980469 6.21074219 6.15980469 4.2578125 6.1953125 C1 6 1 6 -1 4 C-0.67 2.68 -0.34 1.36 0 0 Z " fill="#D0C8CE" transform="translate(235,142)"/>
<path d="M0 0 C-2.38558229 1.53937574 -4.78124277 3.05607105 -7.1875 4.5625 C-8.19780273 5.21895508 -8.19780273 5.21895508 -9.22851562 5.88867188 C-14.31177724 9.03781444 -14.31177724 9.03781444 -17.84375 8.84375 C-19.975643 8.009531 -21.99841435 7.11199203 -24 6 C-24 5.34 -24 4.68 -24 4 C-20.56569589 3.13261635 -17.12715549 2.28339049 -13.6875 1.4375 C-12.71103516 1.19064453 -11.73457031 0.94378906 -10.72851562 0.68945312 C-9.79072266 0.46064453 -8.85292969 0.23183594 -7.88671875 -0.00390625 C-7.02264404 -0.21861572 -6.15856934 -0.4333252 -5.26831055 -0.65454102 C-3 -1 -3 -1 0 0 Z " fill="#F9FCF8" transform="translate(55,29)"/>
<path d="M0 0 C0.99 0 1.98 0 3 0 C2.67 2.64 2.34 5.28 2 8 C2.66 8.33 3.32 8.66 4 9 C4 7.02 4 5.04 4 3 C4.99 3 5.98 3 7 3 C7.32152515 6.53677664 7.4131192 8.3962104 5.375 11.375 C2.3962104 13.4131192 0.53677664 13.32152515 -3 13 C-2.01 11.68 -1.02 10.36 0 9 C-2.64 9.33 -5.28 9.66 -8 10 C-8 9.01 -8 8.02 -8 7 C-4.535 6.505 -4.535 6.505 -1 6 C-1.020625 5.195625 -1.04125 4.39125 -1.0625 3.5625 C-1 1 -1 1 0 0 Z " fill="#DAB760" transform="translate(248,182)"/>
<path d="M0 0 C1.32 0 2.64 0 4 0 C4.33 6.93 4.66 13.86 5 21 C3.02 21 1.04 21 -1 21 C-0.67 14.07 -0.34 7.14 0 0 Z " fill="#B4585E" transform="translate(39,135)"/>
<path d="M0 0 C8.25 0 16.5 0 25 0 C25 0.33 25 0.66 25 1 C20.38 1.33 15.76 1.66 11 2 C11.33 3.65 11.66 5.3 12 7 C6.75789474 7.43684211 6.75789474 7.43684211 4 7 C1.5 4.625 1.5 4.625 0 2 C0 1.34 0 0.68 0 0 Z " fill="#61BBF1" transform="translate(227,148)"/>
<path d="M0 0 C3 0.25 3 0.25 5 2.25 C4.43181818 7.81818182 4.43181818 7.81818182 3 9.25 C0.0625 9.4375 0.0625 9.4375 -3 9.25 C-5 7.25 -5 7.25 -5.25 4.75 C-4.86630891 0.91308908 -3.76694968 0.31391247 0 0 Z " fill="#F0FCFE" transform="translate(256,92.75)"/>
<path d="M0 0 C4.95 0 9.9 0 15 0 C15 1.65 15 3.3 15 5 C10.05 5 5.1 5 0 5 C0 3.35 0 1.7 0 0 Z " fill="#784A24" transform="translate(199,134)"/>
<path d="M0 0 C4.62 0 9.24 0 14 0 C13.67 1.65 13.34 3.3 13 5 C13.33 5.66 13.66 6.32 14 7 C5.86330935 7.62589928 5.86330935 7.62589928 2.5 5.1875 C1 3 1 3 0 0 Z " fill="#F37C77" transform="translate(222,141)"/>
<path d="M0 0 C2.475 0.99 2.475 0.99 5 2 C4.75 3.875 4.75 3.875 4 6 C1.9375 7.25 1.9375 7.25 0 8 C0 9.32 0 10.64 0 12 C-1.32 12 -2.64 12 -4 12 C-4.8125 9.375 -4.8125 9.375 -5 6 C-3.57631048 3.6413502 -1.94551992 1.99297163 0 0 Z " fill="#D4798F" transform="translate(205,105)"/>
<path d="M0 0 C6.38689218 2.04862579 6.38689218 2.04862579 8.1328125 4.7578125 C8.84673961 6.4698513 9.43345298 8.23370635 10 10 C9.01 10 8.02 10 7 10 C6.01 10.66 5.02 11.32 4 12 C3.01 11.01 2.02 10.02 1 9 C0.67 9.66 0.34 10.32 0 11 C-0.33 10.34 -0.66 9.68 -1 9 C-0.67 8.01 -0.34 7.02 0 6 C-0.33 5.34 -0.66 4.68 -1 4 C-0.5625 1.875 -0.5625 1.875 0 0 Z " fill="#C1F0F2" transform="translate(45,102)"/>
<path d="M0 0 C3.3 0 6.6 0 10 0 C9.67 2.31 9.34 4.62 9 7 C6.03 7 3.06 7 0 7 C0 4.69 0 2.38 0 0 Z " fill="#0C5C9A" transform="translate(29,149)"/>
<path d="M0 0 C1.32 0.33 2.64 0.66 4 1 C2.68 2.65 1.36 4.3 0 6 C0.99 7.485 0.99 7.485 2 9 C0.68 9.33 -0.64 9.66 -2 10 C-2 9.34 -2 8.68 -2 8 C-2.7425 8.33 -3.485 8.66 -4.25 9 C-7 10 -7 10 -11 10 C-9.50902342 6.2047869 -7.24299151 4.38957269 -4 2 C-4 2.66 -4 3.32 -4 4 C-3.34 4 -2.68 4 -2 4 C-1.34 2.68 -0.68 1.36 0 0 Z " fill="#CFB367" transform="translate(244,179)"/>
<path d="M0 0 C0.99 0.33 1.98 0.66 3 1 C3.33 2.65 3.66 4.3 4 6 C4.928125 6.268125 5.85625 6.53625 6.8125 6.8125 C9.88553313 7.95735548 10.87642013 8.68336741 13 11 C15.09989652 12.17574711 15.09989652 12.17574711 17 13 C13.625 13.625 13.625 13.625 10 14 C9.34 13.34 8.68 12.68 8 12 C6.01178687 11.60235737 4.01055661 11.26224651 2 11 C1.87625 9.88625 1.7525 8.7725 1.625 7.625 C1.3534187 3.96896323 1.3534187 3.96896323 -1 2 C-0.67 1.34 -0.34 0.68 0 0 Z " fill="#4D7686" transform="translate(26,181)"/>
<path d="M0 0 C1.65 0.33 3.3 0.66 5 1 C5 7.6 5 14.2 5 21 C3.25887844 17.51775688 2.33080114 14.74157545 1.4375 11 C1.18871094 9.96875 0.93992187 8.9375 0.68359375 7.875 C0.45800781 6.92625 0.23242188 5.9775 0 5 C-0.21527344 4.236875 -0.43054688 3.47375 -0.65234375 2.6875 C-0.76707031 2.130625 -0.88179688 1.57375 -1 1 C-0.67 0.67 -0.34 0.34 0 0 Z " fill="#35CDB0" transform="translate(268,158)"/>
<path d="M0 0 C0.99 0.33 1.98 0.66 3 1 C3.33 2.65 3.66 4.3 4 6 C10.93 6.33 17.86 6.66 25 7 C25 7.33 25 7.66 25 8 C22.4374282 8.02710123 19.87514635 8.04688771 17.3125 8.0625 C16.2306543 8.07506836 16.2306543 8.07506836 15.12695312 8.08789062 C11.28444618 8.10543632 7.73360474 7.93524221 4 7 C4 8.98 4 10.96 4 13 C3.01 12.67 2.02 12.34 1 12 C1.66 9.36 2.32 6.72 3 4 C2.01 4.33 1.02 4.66 0 5 C-0.33 6.65 -0.66 8.3 -1 10 C-2.32 9.01 -3.64 8.02 -5 7 C-4.360625 6.21625 -3.72125 5.4325 -3.0625 4.625 C-1.01857687 2.20460719 -1.01857687 2.20460719 0 0 Z " fill="#337789" transform="translate(248,178)"/>
<path d="M0 0 C1.29608947 0.93137592 2.58671632 1.8703566 3.875 2.8125 C4.59429687 3.33457031 5.31359375 3.85664062 6.0546875 4.39453125 C8 6 8 6 10 9 C8.68 9 7.36 9 6 9 C6 9.66 6 10.32 6 11 C3.69 11 1.38 11 -1 11 C-1.0270043 9.54176788 -1.04639787 8.08339325 -1.0625 6.625 C-1.07410156 5.81289062 -1.08570313 5.00078125 -1.09765625 4.1640625 C-1 2 -1 2 0 0 Z " fill="#BFF8FD" transform="translate(60,119)"/>
<path d="M0 0 C0.66 0 1.32 0 2 0 C1.98839844 1.05960937 1.97679687 2.11921875 1.96484375 3.2109375 C1.95546524 4.59895658 1.94636511 5.98697755 1.9375 7.375 C1.92912109 8.07367188 1.92074219 8.77234375 1.91210938 9.4921875 C1.8164558 13.37295376 1.8164558 13.37295376 3 17 C2.67 17.99 2.34 18.98 2 20 C2.185625 20.61875 2.37125 21.2375 2.5625 21.875 C3.15474787 24.75163253 2.22910044 26.39719908 1 29 C0.67 29 0.34 29 0 29 C0 19.43 0 9.86 0 0 Z M3 19 C3.99 19.33 4.98 19.66 6 20 C5.67 20.66 5.34 21.32 5 22 C4.34 21.67 3.68 21.34 3 21 C3 20.34 3 19.68 3 19 Z " fill="#CCD8DB" transform="translate(43,92)"/>
<path d="M0 0 C0.66 0.33 1.32 0.66 2 1 C-2.33333333 5.33333333 -6.66666667 9.66666667 -11 14 C-11 12.68 -11 11.36 -11 10 C-11.99 9.67 -12.98 9.34 -14 9 C-11.71439353 7.4693001 -9.42237333 5.95034956 -7.125 4.4375 C-6.14853516 3.78104492 -6.14853516 3.78104492 -5.15234375 3.11132812 C-3.47374503 2.01245164 -1.73976613 0.9992182 0 0 Z " fill="#F2C561" transform="translate(53,29)"/>
<path d="M0 0 C2.97 0 5.94 0 9 0 C9.97608217 2.92824652 10.08226668 4.95613276 10 8 C6 8 6 8 4.296875 6.50390625 C3.78640625 5.86324219 3.2759375 5.22257813 2.75 4.5625 C1.96882812 3.60537109 1.96882812 3.60537109 1.171875 2.62890625 C0 1 0 1 0 0 Z " fill="#8BD8F0" transform="translate(152,0)"/>
<path d="M0 0 C4.62 0 9.24 0 14 0 C14 1.32 14 2.64 14 4 C9.71 4 5.42 4 1 4 C0.67 2.68 0.34 1.36 0 0 Z " fill="#BBBAC0" transform="translate(235,136)"/>
<path d="M0 0 C-0.66 0.66 -1.32 1.32 -2 2 C-2.33333333 5.5 -2.33333333 5.5 -2 9 C-1.34 9.66 -0.68 10.32 0 11 C-3.71599191 11.20086443 -4.77208445 11.1519437 -8 9 C-8.375 5.5 -8.375 5.5 -8 2 C-4.77208445 -0.1519437 -3.71599191 -0.20086443 0 0 Z " fill="#CD805F" transform="translate(83,108)"/>
<path d="M0 0 C1.65 0.33 3.3 0.66 5 1 C4.67 3.97 4.34 6.94 4 10 C1.36 10 -1.28 10 -4 10 C-3.67 9.34 -3.34 8.68 -3 8 C-2.34 8 -1.68 8 -1 8 C-0.67 5.36 -0.34 2.72 0 0 Z " fill="#69A48B" transform="translate(255,185)"/>
<path d="M0 0 C1.32 0.33 2.64 0.66 4 1 C4.33 2.98 4.66 4.96 5 7 C5.969375 7.28875 6.93875 7.5775 7.9375 7.875 C11 9 11 9 12 11 C4.25088968 11.2980427 4.25088968 11.2980427 1 9 C0.390625 6.8359375 0.390625 6.8359375 0.25 4.375 C0.19328125 3.55773437 0.1365625 2.74046875 0.078125 1.8984375 C0.05234375 1.27195313 0.0265625 0.64546875 0 0 Z " fill="#EFC158" transform="translate(24,184)"/>
<path d="M0 0 C3.3 0 6.6 0 10 0 C7 3 7 3 4 5 C3.41518879 7.88595946 3.41518879 7.88595946 3.3125 11.125 C3.24675781 12.22070312 3.18101563 13.31640625 3.11328125 14.4453125 C3.05720703 15.70988281 3.05720703 15.70988281 3 17 C2.67 17 2.34 17 2 17 C1.93941406 16.37351563 1.87882812 15.74703125 1.81640625 15.1015625 C1.73261719 14.28429687 1.64882813 13.46703125 1.5625 12.625 C1.48128906 11.81289062 1.40007813 11.00078125 1.31640625 10.1640625 C1.10909886 7.95727195 1.10909886 7.95727195 0 6 C-0.039992 4.00039988 -0.04346799 1.99952758 0 0 Z " fill="#44A3DD" transform="translate(43,148)"/>
<path d="M0 0 C1.32 0.66 2.64 1.32 4 2 C4 5.63 4 9.26 4 13 C2.68 13.33 1.36 13.66 0 14 C0 10.04 0 6.08 0 2 C-0.66 1.67 -1.32 1.34 -2 1 C-1.34 0.67 -0.68 0.34 0 0 Z " fill="#FACF73" transform="translate(227,128)"/>
<path d="M0 0 C0.66 0.33 1.32 0.66 2 1 C2 2.98 2 4.96 2 7 C-1.63 7 -5.26 7 -9 7 C-9 6.01 -9 5.02 -9 4 C-7.54618103 3.30300448 -6.08677047 2.61766134 -4.625 1.9375 C-3.40683594 1.36322266 -3.40683594 1.36322266 -2.1640625 0.77734375 C-1.44992188 0.52082031 -0.73578125 0.26429688 0 0 Z " fill="#4CCEA6" transform="translate(9,188)"/>
<path d="M0 0 C1.65 0 3.3 0 5 0 C6.06652192 2.30368736 7.06421005 4.64018187 8 7 C7.67 7.66 7.34 8.32 7 9 C5.02 9 3.04 9 1 9 C1.33 8.01 1.66 7.02 2 6 C1.01 5.01 0.02 4.02 -1 3 C-0.67 2.01 -0.34 1.02 0 0 Z " fill="#BBE8E9" transform="translate(222,89)"/>
<path d="M0 0 C0.99 0 1.98 0 3 0 C2.67 2.31 2.34 4.62 2 7 C-1.3 7 -4.6 7 -8 7 C-7.67 6.01 -7.34 5.02 -7 4 C-6.34 4 -5.68 4 -5 4 C-5 3.34 -5 2.68 -5 2 C-4.01 1.67 -3.02 1.34 -2 1 C-1.34 1.33 -0.68 1.66 0 2 C0 1.34 0 0.68 0 0 Z " fill="#D3F4F8" transform="translate(214,98)"/>
<path d="M0 0 C1.67542976 0.28604898 3.34385343 0.61781233 5 1 C5.625 2.875 5.625 2.875 6 5 C5.34 5.66 4.68 6.32 4 7 C1.875 6.625 1.875 6.625 0 6 C-0.38218767 4.34385343 -0.71395102 2.67542976 -1 1 C-0.67 0.67 -0.34 0.34 0 0 Z " fill="#EFFCFD" transform="translate(69,27)"/>
<path d="M0 0 C0.99 0 1.98 0 3 0 C3.32152515 3.53677664 3.4131192 5.3962104 1.375 8.375 C-1.6037896 10.4131192 -3.46322336 10.32152515 -7 10 C-6.67 9.34 -6.34 8.68 -6 8 C-4.68 8 -3.36 8 -2 8 C-2 7.34 -2 6.68 -2 6 C-1.34 6 -0.68 6 0 6 C0 4.02 0 2.04 0 0 Z " fill="#F1C257" transform="translate(252,185)"/>
<path d="M0 0 C0.28875 0.639375 0.5775 1.27875 0.875 1.9375 C1.82823451 4.15206079 1.82823451 4.15206079 4 5 C-0.75 8 -0.75 8 -3 8 C-3.268125 8.61875 -3.53625 9.2375 -3.8125 9.875 C-5 12 -5 12 -8 14 C-6.6744419 10.37723685 -5.05653045 7.36494652 -2.875 4.1875 C-2.33617187 3.39730469 -1.79734375 2.60710937 -1.2421875 1.79296875 C-0.83226562 1.20128906 -0.42234375 0.60960937 0 0 Z " fill="#37A48F" transform="translate(18,138)"/>
<path d="M0 0 C1 2 1 2 0.5 3.875 C-0.06796534 6.28885269 0.25055468 7.66839233 1 10 C-0.11375 10.474375 -1.2275 10.94875 -2.375 11.4375 C-4.26710994 12.25306463 -6.15712709 13.07856355 -8 14 C-7.34 12.02 -6.68 10.04 -6 8 C-5.34 8.33 -4.68 8.66 -4 9 C-2.68 6.03 -1.36 3.06 0 0 Z " fill="#B4DADA" transform="translate(210,78)"/>
<path d="M0 0 C0.99 0 1.98 0 3 0 C3.17942163 3.94727588 3.09350689 6.5980513 1 10 C1.99 10.33 2.98 10.66 4 11 C1.03 13.475 1.03 13.475 -2 16 C-3 14 -3 14 -2.0625 11 C-1.711875 10.01 -1.36125 9.02 -1 8 C-1 7.34 -1 6.68 -1 6 C-0.34 5.67 0.32 5.34 1 5 C0.67 3.35 0.34 1.7 0 0 Z " fill="#BDEDEF" transform="translate(209,83)"/>
<path d="M0 0 C2.475 0.495 2.475 0.495 5 1 C5 3.31 5 5.62 5 8 C1.125 6.125 1.125 6.125 0 5 C-0.04063832 3.33382885 -0.042721 1.66611905 0 0 Z " fill="#F4C354" transform="translate(33,176)"/>
<path d="M0 0 C2.22950991 2.22950991 2.43601702 3.13048055 3.0703125 6.1328125 C3.33134766 7.34130859 3.33134766 7.34130859 3.59765625 8.57421875 C3.77167969 9.41597656 3.94570313 10.25773438 4.125 11.125 C4.30675781 11.97449219 4.48851562 12.82398438 4.67578125 13.69921875 C5.12385016 15.79806785 5.56279337 17.89886134 6 20 C4.02 18.35 2.04 16.7 0 15 C0.66 14.67 1.32 14.34 2 14 C1.43393721 9.30976546 0.81462495 4.65499974 0 0 Z " fill="#389482" transform="translate(267,161)"/>
<path d="M0 0 C0.99 0 1.98 0 3 0 C3 3.96 3 7.92 3 12 C2.34 12 1.68 12 1 12 C0.03929566 9.11788698 -0.10581883 7.30149956 -0.0625 4.3125 C-0.05347656 3.50425781 -0.04445312 2.69601563 -0.03515625 1.86328125 C-0.02355469 1.24839844 -0.01195312 0.63351563 0 0 Z " fill="#B01C1D" transform="translate(39,136)"/>
<path d="M0 0 C5.6143991 1.56448671 10.86810338 3.16395187 16 6 C15.67 6.66 15.34 7.32 15 8 C9.52067211 6.45454854 4.88570819 3.84456788 0 1 C0 0.67 0 0.34 0 0 Z " fill="#F9CA60" transform="translate(209,26)"/>
<path d="M0 0 C7.92 3.96 7.92 3.96 16 8 C16 8.33 16 8.66 16 9 C12.63295715 9.2295711 10.58629732 9.33943529 7.625 7.625 C7.08875 7.08875 6.5525 6.5525 6 6 C6 5.34 6 4.68 6 4 C4.02 3.34 2.04 2.68 0 2 C0 1.34 0 0.68 0 0 Z " fill="#CFAD5F" transform="translate(200,22)"/>
<path d="M0 0 C0.99 0.33 1.98 0.66 3 1 C2.42655063 3.86724686 2.1385485 4.8614515 0 7 C-0.99 7 -1.98 7 -3 7 C-3.1875 4.625 -3.1875 4.625 -3 2 C-2.01 1.34 -1.02 0.68 0 0 Z " fill="#F5E4E9" transform="translate(207,106)"/>
<path d="M0 0 C0.99 0.33 1.98 0.66 3 1 C3.33 1.99 3.66 2.98 4 4 C3.34 4 2.68 4 2 4 C2 4.66 2 5.32 2 6 C0.35 6.66 -1.3 7.32 -3 8 C-2.25 2.25 -2.25 2.25 0 0 Z " fill="#8EA9B6" transform="translate(221,92)"/>
<path d="M0 0 C1.67542976 0.28604898 3.34385343 0.61781233 5 1 C5 2.32 5 3.64 5 5 C3.35 5.33 1.7 5.66 0 6 C-0.38218767 4.34385343 -0.71395102 2.67542976 -1 1 C-0.67 0.67 -0.34 0.34 0 0 Z " fill="#EFFCFE" transform="translate(180,30)"/>
<path d="M0 0 C1.8125 0.125 1.8125 0.125 4 1 C5.8125 3.9375 5.8125 3.9375 7 7 C6.67 7.66 6.34 8.32 6 9 C4.35 9 2.7 9 1 9 C2.32 8.67 3.64 8.34 5 8 C3.7625 6.8553125 3.7625 6.8553125 2.5 5.6875 C0 3 0 3 0 0 Z " fill="#CFB263" transform="translate(230,172)"/>
<path d="M0 0 C1.65 0 3.3 0 5 0 C4.814375 0.78375 4.62875 1.5675 4.4375 2.375 C3.74037734 4.97089775 3.74037734 4.97089775 5 7 C3.35 7 1.7 7 0 7 C-0.93423645 3.98968256 -1.04449911 3.13349732 0 0 Z " fill="#F66561" transform="translate(231,141)"/>
<path d="M0 0 C0.99 0 1.98 0 3 0 C3 2.64 3 5.28 3 8 C2.01 8 1.02 8 0 8 C-0.38063221 5.6739143 -0.71269945 3.33944736 -1 1 C-0.67 0.67 -0.34 0.34 0 0 Z " fill="#ECC057" transform="translate(19,187)"/>
<path d="M0 0 C5.625 -0.25 5.625 -0.25 9 2 C9 2.66 9 3.32 9 4 C6.03 4 3.06 4 0 4 C0 2.68 0 1.36 0 0 Z " fill="#BFF7FB" transform="translate(30,144)"/>
<path d="M0 0 C2.875 -0.125 2.875 -0.125 6 0 C8 2 8 2 8 5 C4.75791433 4.64950425 3.38472296 4.43778819 1.1875 1.9375 C0.795625 1.298125 0.40375 0.65875 0 0 Z " fill="#F4C356" transform="translate(35,188)"/>
<path d="M0 0 C1.32 0.33 2.64 0.66 4 1 C4.33 3.31 4.66 5.62 5 8 C3.0625 7.375 3.0625 7.375 1 6 C0.25 2.875 0.25 2.875 0 0 Z " fill="#EFC159" transform="translate(29,181)"/>
<path d="M0 0 C3 1 3 1 4.25 3.3125 C5.03137137 6.11241408 5.13342629 7.35533865 4 10 C3.01 10.495 3.01 10.495 2 11 C1.87625 9.88625 1.7525 8.7725 1.625 7.625 C1.3534187 3.96896323 1.3534187 3.96896323 -1 2 C-0.67 1.34 -0.34 0.68 0 0 Z " fill="#396F93" transform="translate(26,181)"/>
<path d="M0 0 C0.33 0 0.66 0 1 0 C1.1875 2.375 1.1875 2.375 1 5 C-2.22791555 7.1519437 -3.28400809 7.20086443 -7 7 C-7 6.01 -7 5.02 -7 4 C-3.535 3.505 -3.535 3.505 0 3 C0 2.01 0 1.02 0 0 Z " fill="#F0C157" transform="translate(247,185)"/>
<path d="M0 0 C2.475 0.99 2.475 0.99 5 2 C4.34 2.66 3.68 3.32 3 4 C2.35232207 6.57061311 2.35232207 6.57061311 2 9 C1.01 9 0.02 9 -1 9 C-0.67 6.03 -0.34 3.06 0 0 Z " fill="#55C69D" transform="translate(260,186)"/>
<path d="M0 0 C1.98 0 3.96 0 6 0 C5.54625 0.5775 5.0925 1.155 4.625 1.75 C3.15886484 3.7800333 2.05142216 5.73539843 1 8 C-0.35439668 5.29120665 -0.06501451 2.99066732 0 0 Z " fill="#1866A1" transform="translate(43,148)"/>
<path d="M0 0 C1.98 0 3.96 0 6 0 C6 1.65 6 3.3 6 5 C5.38125 4.814375 4.7625 4.62875 4.125 4.4375 C1.95839822 3.76313824 1.95839822 3.76313824 0 5 C0 3.35 0 1.7 0 0 Z " fill="#F9696A" transform="translate(75,124)"/>
<path d="M0 0 C0.99 0 1.98 0 3 0 C3.33 2.31 3.66 4.62 4 7 C2.68 7 1.36 7 0 7 C0 4.69 0 2.38 0 0 Z " fill="#CD4447" transform="translate(39,86)"/>
<path d="M0 0 C0.66 0.33 1.32 0.66 2 1 C-0.31 3.31 -2.62 5.62 -5 8 C-5.99 7.67 -6.98 7.34 -8 7 C-5.42215154 4.35247996 -3.08351902 2.05567935 0 0 Z " fill="#DBB258" transform="translate(53,29)"/>
<path d="M0 0 C0.99 0 1.98 0 3 0 C3.66 1.65 4.32 3.3 5 5 C3.02 5 1.04 5 -1 5 C-0.67 3.35 -0.34 1.7 0 0 Z " fill="#DB5860" transform="translate(39,151)"/>
<path d="M0 0 C2.97 0.33 5.94 0.66 9 1 C8.01 1.33 7.02 1.66 6 2 C5.67 2.99 5.34 3.98 5 5 C3.02 4.01 1.04 3.02 -1 2 C-0.67 1.34 -0.34 0.68 0 0 Z " fill="#326A8D" transform="translate(38,185)"/>
<path d="M0 0 C1.65 0 3.3 0 5 0 C4.67 0.99 4.34 1.98 4 3 C2.02 3.33 0.04 3.66 -2 4 C-1.34 2.68 -0.68 1.36 0 0 Z " fill="#E9BE5A" transform="translate(235,185)"/>
<path d="M0 0 C1.32 0 2.64 0 4 0 C3.67 1.32 3.34 2.64 3 4 C1.68 4.33 0.36 4.66 -1 5 C-0.67 3.35 -0.34 1.7 0 0 Z " fill="#ECC058" transform="translate(44,174)"/>
<path d="M0 0 C1.98 0.495 1.98 0.495 4 1 C3.67 2.32 3.34 3.64 3 5 C1.68 4.67 0.36 4.34 -1 4 C-0.67 2.68 -0.34 1.36 0 0 Z " fill="#EAFCFD" transform="translate(211,54)"/>
<path d="M0 0 C0 3 0 3 -2.25 5.5625 C-4.55902983 7.60914008 -6.26579189 8.73221547 -9 10 C-8.06409496 8.8944811 -7.12620142 7.79064547 -6.1875 6.6875 C-5.66542969 6.07261719 -5.14335938 5.45773438 -4.60546875 4.82421875 C-3.12827531 3.14575321 -1.59960869 1.56117966 0 0 Z " fill="#F7F3DC" transform="translate(55,29)"/>
<path d="M0 0 C0.99 0 1.98 0 3 0 C2.67 1.65 2.34 3.3 2 5 C1.01 5.33 0.02 5.66 -1 6 C-1.042721 4.33388095 -1.04063832 2.66617115 -1 1 C-0.67 0.67 -0.34 0.34 0 0 Z " fill="#EFC859" transform="translate(263,189)"/>
<path d="M0 0 C0.66 0.99 1.32 1.98 2 3 C2.87072072 4.23220174 3.74584102 5.46130459 4.625 6.6875 C5.07101562 7.31011719 5.51703125 7.93273437 5.9765625 8.57421875 C6.31429688 9.04472656 6.65203125 9.51523438 7 10 C2.7257442 8.4169423 0.73468206 5.49431596 -2 2 C-1.34 2 -0.68 2 0 2 C0 1.34 0 0.68 0 0 Z " fill="#389281" transform="translate(258,163)"/>
<path d="M0 0 C0.66 0.33 1.32 0.66 2 1 C2 1.99 2 2.98 2 4 C0.02 4.66 -1.96 5.32 -4 6 C-3.67 4.35 -3.34 2.7 -3 1 C-2.01 0.67 -1.02 0.34 0 0 Z " fill="#BAE5E6" transform="translate(216,94)"/>
<path d="M0 0 C1.32 0.33 2.64 0.66 4 1 C4 2.32 4 3.64 4 5 C2.68 5 1.36 5 0 5 C0 3.35 0 1.7 0 0 Z " fill="#F1C358" transform="translate(13,190)"/>
<path d="M0 0 C0.99 0 1.98 0 3 0 C2.67 2.31 2.34 4.62 2 7 C1.01 6.67 0.02 6.34 -1 6 C-0.67 4.02 -0.34 2.04 0 0 Z " fill="#F3C455" transform="translate(257,188)"/>
<path d="M0 0 C0 1.65 0 3.3 0 5 C-1.65 5.33 -3.3 5.66 -5 6 C-2.84615385 0 -2.84615385 0 0 0 Z " fill="#BBE9EA" transform="translate(207,82)"/>
<path d="M0 0 C0.5775 0.45375 1.155 0.9075 1.75 1.375 C3.7800333 2.84113516 5.73539843 3.94857784 8 5 C5.69 5.33 3.38 5.66 1 6 C0.67 4.02 0.34 2.04 0 0 Z " fill="#427799" transform="translate(35,189)"/>
<path d="M0 0 C1.32 0 2.64 0 4 0 C4.33 1.32 4.66 2.64 5 4 C3.35 4 1.7 4 0 4 C0 2.68 0 1.36 0 0 Z " fill="#E3C75F" transform="translate(6,191)"/>
<path d="M0 0 C0.33 0 0.66 0 1 0 C1 1.65 1 3.3 1 5 C2.32 4.34 3.64 3.68 5 3 C3.25 7.875 3.25 7.875 1 9 C-0.4783226 6.04335481 -0.06032783 3.25770263 0 0 Z " fill="#379180" transform="translate(5,149)"/>
<path d="M0 0 C0.66 0.99 1.32 1.98 2 3 C1.34 3 0.68 3 0 3 C-0.268125 3.61875 -0.53625 4.2375 -0.8125 4.875 C-2 7 -2 7 -5 9 C-3.7508258 5.54074837 -2.32472205 2.85306797 0 0 Z " fill="#369784" transform="translate(15,143)"/>
<path d="M0 0 C0.99 0.66 1.98 1.32 3 2 C2.34 2 1.68 2 1 2 C1 5.96 1 9.92 1 14 C0.67 14 0.34 14 0 14 C0 10.04 0 6.08 0 2 C-0.66 1.67 -1.32 1.34 -2 1 C-1.34 0.67 -0.68 0.34 0 0 Z " fill="#F4DDA9" transform="translate(227,128)"/>
<path d="M0 0 C0.99 0 1.98 0 3 0 C3 1.65 3 3.3 3 5 C1.68 4.67 0.36 4.34 -1 4 C-0.67 2.68 -0.34 1.36 0 0 Z " fill="#EEFCFD" transform="translate(127,47)"/>
<path d="M0 0 C0.268125 0.5775 0.53625 1.155 0.8125 1.75 C2.01719859 4.0325868 3.40798115 5.9737942 5 8 C4.01 8.66 3.02 9.32 2 10 C0.39644899 6.49223216 -0.22036864 3.85645121 0 0 Z " fill="#336A8D" transform="translate(32,177)"/>
<path d="M0 0 C2.31 0 4.62 0 7 0 C6.67 0.99 6.34 1.98 6 3 C4.68 2.34 3.36 1.68 2 1 C2 1.99 2 2.98 2 4 C1.34 4 0.68 4 0 4 C0 2.68 0 1.36 0 0 Z " fill="#463B33" transform="translate(201,134)"/>
</svg>
