<svg width="15" height="20" viewBox="0 0 15 20" fill="none" xmlns="http://www.w3.org/2000/svg">
<path d="M10.8305 15H4.16558C3.99872 15.0001 3.83566 14.9573 3.69752 14.8771C3.55938 14.7969 3.45252 14.6829 3.39078 14.55L1.72455 10.9786C1.56626 10.6 1.35798 10.2286 1.14137 9.83572C0.458156 8.79116 0.067423 7.62476 0 6.42857C0 4.72361 0.78997 3.08848 2.19613 1.88288C3.60228 0.677294 5.50944 0 7.49804 0C8.52478 0.000984113 9.54077 0.179207 10.4855 0.524044C11.4301 0.868881 12.2842 1.37327 12.9966 2.00714C13.6604 2.59045 14.1797 3.28284 14.5233 4.04267C14.867 4.80251 15.0278 5.61408 14.9961 6.42857C14.885 7.60239 14.4967 8.74458 13.8547 9.78571C13.6631 10.1571 13.4548 10.5 13.2715 10.9429L11.6053 14.5143C11.5503 14.6539 11.4464 14.7755 11.3077 14.8624C11.169 14.9494 11.0023 14.9974 10.8305 15ZM4.72377 13.5714H10.264L11.7219 10.45C11.9136 10.0214 12.1302 9.61429 12.3384 9.22143C12.8883 8.35844 13.2258 7.40788 13.3299 6.42857C13.3567 5.80126 13.2347 5.1758 12.9712 4.59013C12.7077 4.00446 12.3082 3.47077 11.7969 3.02143C11.2416 2.52232 10.5748 2.12409 9.83628 1.85045C9.09775 1.5768 8.30257 1.43333 7.49804 1.42857C5.95135 1.42857 4.46801 1.95536 3.37433 2.89304C2.28065 3.83072 1.66623 5.10249 1.66623 6.42857C1.74288 7.4104 2.07601 8.36488 2.64098 9.22143C2.86592 9.62857 3.09919 10.05 3.28248 10.4714L4.72377 13.5714Z" fill="#304046"/>
<path d="M9.16435 20.0001H5.83189C5.70255 19.9984 5.57498 19.9741 5.45699 19.9286L3.79075 19.2144C3.65209 19.1545 3.53572 19.0625 3.45475 18.9489C3.37379 18.8353 3.33146 18.7046 3.33254 18.5715V16.4286C3.33254 16.2392 3.42031 16.0575 3.57655 15.9236C3.73279 15.7896 3.9447 15.7144 4.16566 15.7144H10.8306C11.0515 15.7144 11.2634 15.7896 11.4197 15.9236C11.5759 16.0575 11.6637 16.2392 11.6637 16.4286V18.5715C11.664 18.7054 11.6204 18.8366 11.5379 18.9503C11.4555 19.064 11.3374 19.1555 11.1972 19.2144L9.53092 19.9286C9.41558 19.9733 9.2909 19.9976 9.16435 20.0001ZM6.0235 18.5715H8.9644L9.99747 18.1286V17.1429H4.99877V18.1286L6.0235 18.5715Z" fill="#304046"/>
<path d="M10.8305 8.57138H4.16559C4.02287 8.57223 3.88229 8.54164 3.75732 8.48252C3.63235 8.42341 3.5272 8.33776 3.45193 8.2338C3.37666 8.12983 3.33381 8.01102 3.32748 7.88878C3.32115 7.76653 3.35156 7.64494 3.41579 7.53566L5.08202 4.67852C5.15189 4.55964 5.25911 4.45986 5.3916 4.39044C5.52409 4.32103 5.67656 4.28474 5.83183 4.28566H9.16429C9.38525 4.28566 9.59715 4.36092 9.75339 4.49487C9.90963 4.62883 9.99741 4.81051 9.99741 4.99995C9.99741 5.18939 9.90963 5.37107 9.75339 5.50502C9.59715 5.63898 9.38525 5.71423 9.16429 5.71423H6.34836L5.51524 7.1428H10.8305C11.0515 7.1428 11.2634 7.21806 11.4196 7.35201C11.5759 7.48597 11.6636 7.66765 11.6636 7.85709C11.6636 8.04653 11.5759 8.22821 11.4196 8.36217C11.2634 8.49612 11.0515 8.57138 10.8305 8.57138Z" fill="#304046"/>
<path d="M7.49815 11.4285C7.2772 11.4285 7.06529 11.3533 6.90905 11.2193C6.75281 11.0854 6.66504 10.9037 6.66504 10.7143V7.85711C6.66504 7.66767 6.75281 7.48599 6.90905 7.35203C7.06529 7.21808 7.2772 7.14282 7.49815 7.14282C7.71911 7.14282 7.93102 7.21808 8.08726 7.35203C8.2435 7.48599 8.33127 7.66767 8.33127 7.85711V10.7143C8.33127 10.9037 8.2435 11.0854 8.08726 11.2193C7.93102 11.3533 7.71911 11.4285 7.49815 11.4285Z" fill="#304046"/>
</svg>
