<svg width="43" height="13" viewBox="0 0 43 13" fill="none" xmlns="http://www.w3.org/2000/svg">
<path d="M15.3828 9.14062C15.3828 9.91667 15.25 10.5156 14.9844 10.9375H17.2969C17.1979 10.9635 17.0833 11.0339 16.9531 11.1484C16.8229 11.263 16.6875 11.3828 16.5469 11.5078C16.1771 11.8359 15.9193 12 15.7734 12H13.4531C13.7135 11.6146 13.8438 11.0885 13.8438 10.4219C13.8438 9.75521 13.8255 9.11458 13.7891 8.5C13.7578 7.88021 13.7318 7.34896 13.7109 6.90625C13.6901 6.46354 13.6719 6.09635 13.6562 5.80469C13.6458 5.51302 13.6354 5.21875 13.625 4.92188C13.5833 4.05208 13.5547 3.47656 13.5391 3.19531C13.0755 4.0026 12.6016 4.84115 12.1172 5.71094C11.638 6.57552 11.2266 7.30729 10.8828 7.90625C10.5391 8.50521 10.2656 9 10.0625 9.39062C9.86458 9.78125 9.65365 10.1693 9.42969 10.5547C9.38281 10.6328 9.13542 10.8177 8.6875 11.1094C8.23958 11.401 7.98177 11.5703 7.91406 11.6172C7.6276 10.7422 7.26823 9.92708 6.83594 9.17188C6.40365 8.41667 6.04688 7.8125 5.76562 7.35938C5.48438 6.90625 5.20833 6.45312 4.9375 6L3.69531 3.92969C3.47135 6.6224 3.29948 8.27083 3.17969 8.875C3.0651 9.47396 2.95312 9.92708 2.84375 10.2344C2.73958 10.5365 2.60677 10.7708 2.44531 10.9375H4.94531C4.08073 11.6458 3.57552 12 3.42969 12H0.859375C1.16146 11.6979 1.41406 11.0365 1.61719 10.0156C1.84635 8.88021 2.11458 6.14844 2.42188 1.82031H0.460938C0.841146 1.4401 1.29167 1.10677 1.8125 0.820312C1.88542 0.778646 1.9401 0.757812 1.97656 0.757812H3.94531C4.38281 1.48177 4.81771 2.20312 5.25 2.92188L6.54688 5.08594C6.76562 5.45052 6.98698 5.8151 7.21094 6.17969C7.4349 6.53906 7.65365 6.90104 7.86719 7.26562C8.38281 8.15625 8.77344 8.91146 9.03906 9.53125C9.53385 8.66146 10.1172 7.61198 10.7891 6.38281C11.9818 4.1849 12.8698 2.58594 13.4531 1.58594C13.5521 1.42448 13.9375 1.14583 14.6094 0.75C14.7604 0.661458 14.8802 0.585938 14.9688 0.523438C15.0938 2.79948 15.1823 4.60417 15.2344 5.9375C15.2917 7.27083 15.3307 8.07031 15.3516 8.33594C15.3724 8.60156 15.3828 8.86979 15.3828 9.14062ZM23.8281 10.5547C23.1146 11.3516 22.2292 11.849 21.1719 12.0469C20.9271 12.0885 20.625 12.1094 20.2656 12.1094C19.9062 12.1094 19.5677 12.0104 19.25 11.8125C18.9323 11.6094 18.6719 11.349 18.4688 11.0312C18.0833 10.4167 17.8906 9.66667 17.8906 8.78125C17.8906 8.19792 18.1146 7.55208 18.5625 6.84375C19 6.14583 19.5339 5.5625 20.1641 5.09375C20.8411 4.59375 21.4818 4.34375 22.0859 4.34375C22.3984 4.34375 22.6615 4.45833 22.875 4.6875C23.0729 4.91146 23.1719 5.16667 23.1719 5.45312C23.1719 5.73958 23.1094 6.00521 22.9844 6.25C22.8594 6.48958 22.6953 6.72396 22.4922 6.95312C22.2943 7.18229 22.0651 7.40365 21.8047 7.61719C21.5495 7.82552 21.2865 8.02083 21.0156 8.20312C20.6354 8.46354 20.1562 8.75781 19.5781 9.08594C19.7448 9.71615 20.0391 10.2031 20.4609 10.5469C20.8828 10.8854 21.4271 11.0547 22.0938 11.0547C22.6562 11.0547 23.2344 10.888 23.8281 10.5547ZM21.4688 7.42188C21.6094 7.19792 21.6797 6.97917 21.6797 6.76562C21.6797 6.55208 21.6562 6.3724 21.6094 6.22656C21.5625 6.07552 21.4948 5.94271 21.4062 5.82812C21.2031 5.56771 20.9401 5.4375 20.6172 5.4375C19.8255 5.4375 19.4297 6.24479 19.4297 7.85938C19.4297 8.14583 19.4531 8.42969 19.5 8.71094C20.4167 8.45573 21.0729 8.02604 21.4688 7.42188ZM25.625 11.4688L25.6328 6.44531C25.6328 6.09635 25.5859 5.86198 25.4922 5.74219C25.3307 5.53385 25.1068 5.42969 24.8203 5.42969C24.5339 5.42969 24.2786 5.47135 24.0547 5.55469C24.1901 5.5026 24.3672 5.38021 24.5859 5.1875C24.987 4.81771 25.2708 4.60156 25.4375 4.53906C25.75 4.41406 26.0234 4.35156 26.2578 4.35156C26.4974 4.35156 26.6745 4.39062 26.7891 4.46875C26.9089 4.54688 26.9948 4.65104 27.0469 4.78125C27.1146 4.94271 27.1484 5.25 27.1484 5.70312C28.1224 4.84375 29.0339 4.41406 29.8828 4.41406C30.3464 4.41406 30.75 4.5599 31.0938 4.85156C31.4531 5.16406 31.6328 5.54427 31.6328 5.99219V9.85156C31.6328 10.237 31.6745 10.5026 31.7578 10.6484C31.9141 10.9245 32.1745 11.0625 32.5391 11.0625C32.7474 11.0625 32.9453 11.0234 33.1328 10.9453C32.6693 11.3464 32.349 11.6042 32.1719 11.7188C31.7656 11.9844 31.4089 12.1172 31.1016 12.1172C30.7995 12.1172 30.5833 12.0625 30.4531 11.9531C30.3281 11.8438 30.2396 11.7057 30.1875 11.5391C30.1302 11.3568 30.1016 10.9844 30.1016 10.4219V7.5C30.1016 6.56771 29.7969 5.95312 29.1875 5.65625C28.9688 5.55208 28.7057 5.5 28.3984 5.5C27.6432 5.5 27.2344 6.0599 27.1719 7.17969C27.1562 7.46094 27.1484 7.71354 27.1484 7.9375V10.3516C27.1484 10.6849 27.25 10.9115 27.4531 11.0312C27.526 11.0781 27.6172 11.1016 27.7266 11.1016C27.8359 11.1016 27.9505 11.0755 28.0703 11.0234C27.9609 11.1172 27.8307 11.2292 27.6797 11.3594C27.5286 11.4896 27.3698 11.6146 27.2031 11.7344C26.7917 12.0156 26.4635 12.1562 26.2188 12.1562C25.8229 12.1562 25.625 11.9271 25.625 11.4688ZM38.3125 5.53125C39.151 4.77604 39.7656 4.39844 40.1562 4.39844C40.5469 4.39844 40.7422 4.64844 40.7422 5.14844V10.1094C40.7422 10.4219 40.8125 10.6562 40.9531 10.8125C41.0938 10.9688 41.3281 11.0469 41.6562 11.0469C41.8854 11.0469 42.1094 11.0052 42.3281 10.9219C42.1562 10.9844 42 11.0833 41.8594 11.2188C41.724 11.349 41.5781 11.4818 41.4219 11.6172C41.0312 11.9557 40.5859 12.125 40.0859 12.125C39.6068 12.125 39.3333 11.8594 39.2656 11.3281C39.25 11.1771 39.2396 11.0234 39.2344 10.8672C38.099 11.7266 37.0911 12.1562 36.2109 12.1562C35.6172 12.1562 35.1693 11.8958 34.8672 11.375C34.5964 10.9062 34.4609 10.2656 34.4609 9.45312V6.82031C34.4609 6.36719 34.4219 6.0599 34.3438 5.89844C34.1979 5.57552 33.9349 5.41406 33.5547 5.41406C33.3724 5.41406 33.1875 5.45312 33 5.53125C33.6354 4.96354 34.151 4.60417 34.5469 4.45312C34.7396 4.375 34.9401 4.33594 35.1484 4.33594C35.7161 4.33594 36 4.69792 36 5.42188C36 5.42188 36 5.59635 36 5.94531C36 5.94531 35.9974 6.91667 35.9922 8.85938C35.9922 9.60417 36.1302 10.151 36.4062 10.5C36.7083 10.8958 37.2109 11.0938 37.9141 11.0938C38.2578 11.0938 38.6146 10.9453 38.9844 10.6484C39.0781 10.5755 39.1615 10.513 39.2344 10.4609V6.33594C39.2344 5.95052 39.1406 5.6849 38.9531 5.53906C38.875 5.48177 38.7786 5.45312 38.6641 5.45312C38.5495 5.45312 38.4323 5.47917 38.3125 5.53125Z" fill="black"/>
</svg>
