<svg width="21" height="20" viewBox="0 0 21 20" fill="none" xmlns="http://www.w3.org/2000/svg">
<path d="M6.30626 7.26891C7.56154 10.6933 8.86108 12.0596 12.1671 13.5149L10.7343 15.5271C6.93802 13.7095 5.04714 10.6458 4.1566 8.25489L6.30626 7.26891Z" fill="black"/>
<path d="M7.35937 2.54124C8.0306 2.53862 8.54097 3.09714 8.49521 3.72959C8.4232 4.72485 8.49987 5.44291 8.70628 6.33297C8.81967 6.82189 8.56316 7.31845 8.15551 7.63829C7.60607 8.06938 7.18631 8.61868 6.85269 9.09154C6.39029 9.74694 4.79897 9.69986 4.44704 8.98585C3.72379 7.51848 3.23365 4.81506 4.2898 2.98858C4.4557 2.70169 4.78973 2.55129 5.13586 2.54994L7.35937 2.54124Z" fill="black"/>
<path d="M17.5484 13.3999C17.6319 12.7709 17.1061 12.2252 16.4358 12.1921C15.381 12.1399 14.6354 11.9817 13.7246 11.6811C13.2243 11.516 12.6715 11.6968 12.2862 12.0405C11.767 12.5038 11.1391 12.8313 10.6019 13.0872C9.85736 13.4419 9.71549 14.9395 10.4237 15.3553C11.8792 16.2099 14.662 16.9945 16.709 16.224C17.0305 16.103 17.2288 15.8079 17.2719 15.4835L17.5484 13.3999Z" fill="black"/>
</svg>
