<svg width="20" height="20" viewBox="0 0 20 20" fill="none" xmlns="http://www.w3.org/2000/svg">
<g clip-path="url(#clip0_2_909)">
<path fill-rule="evenodd" clip-rule="evenodd" d="M9.99992 6.66658C9.11586 6.66658 8.26802 7.01777 7.6429 7.6429C7.01777 8.26802 6.66658 9.11586 6.66658 9.99992C6.66658 10.884 7.01777 11.7318 7.6429 12.3569C8.26802 12.9821 9.11586 13.3333 9.99992 13.3333C10.884 13.3333 11.7318 12.9821 12.3569 12.3569C12.9821 11.7318 13.3333 10.884 13.3333 9.99992C13.3333 9.11586 12.9821 8.26802 12.3569 7.6429C11.7318 7.01777 10.884 6.66658 9.99992 6.66658ZM8.82141 8.82141C9.13397 8.50885 9.55789 8.33325 9.99992 8.33325C10.4419 8.33325 10.8659 8.50885 11.1784 8.82141C11.491 9.13397 11.6666 9.55789 11.6666 9.99992C11.6666 10.4419 11.491 10.8659 11.1784 11.1784C10.8659 11.491 10.4419 11.6666 9.99992 11.6666C9.55789 11.6666 9.13397 11.491 8.82141 11.1784C8.50885 10.8659 8.33325 10.4419 8.33325 9.99992C8.33325 9.55789 8.50885 9.13397 8.82141 8.82141Z" fill="#5C5E64"/>
<path fill-rule="evenodd" clip-rule="evenodd" d="M9.15075 0.833252C8.77221 0.833252 8.44123 1.08839 8.34487 1.45446L7.92257 3.05879L6.58087 3.62438L5.55383 2.71065C5.22407 2.41728 4.72276 2.4319 4.41066 2.744L2.744 4.41066C2.44208 4.71258 2.4172 5.19386 2.68639 5.52529L3.5865 6.63354L3.03453 7.99148L1.47713 8.35507C1.10002 8.44311 0.833252 8.77933 0.833252 9.16658V10.8333C0.833252 11.209 1.08474 11.5383 1.44726 11.6372L3.057 12.0763L3.62412 13.4217L2.7113 14.4453C2.41729 14.775 2.43163 15.2768 2.744 15.5892L4.41066 17.2558C4.71299 17.5582 5.19506 17.5826 5.52646 17.3125L6.63432 16.4094L7.95888 16.9542L8.35861 18.5373C8.45205 18.9073 8.78493 19.1666 9.16658 19.1666H10.8333C11.2148 19.1666 11.5475 18.9075 11.6411 18.5377L12.0419 16.954L13.4107 16.387C13.5485 16.5025 13.7065 16.6382 13.8637 16.7751C14.0199 16.9111 14.1651 17.0393 14.2714 17.1336C14.3244 17.1806 14.3677 17.2192 14.3975 17.2458L14.4428 17.2863C14.7723 17.582 15.2761 17.5689 15.5892 17.2558L17.2558 15.5892C17.5625 15.2825 17.5827 14.7918 17.3022 14.4609L16.3944 13.3905L16.9561 12.0338L18.5428 11.6215C18.9102 11.526 19.1666 11.1944 19.1666 10.8149V9.16658C19.1666 8.78548 18.9081 8.45294 18.5387 8.35898L16.9618 7.95779L16.4015 6.60437L17.303 5.53788C17.5827 5.207 17.5622 4.71701 17.2558 4.41066L15.5892 2.744C15.2816 2.4364 14.7891 2.41715 14.4585 2.69979L13.3998 3.60465L11.9988 3.02858L11.585 1.45473C11.4888 1.08852 11.1577 0.833252 10.7791 0.833252H9.15075ZM15.5346 14.9534L14.9644 15.5236L14.9582 15.5181C14.6504 15.2501 14.254 14.911 14.0304 14.7512C13.7964 14.5839 13.4926 14.5491 13.2269 14.6592L11.0177 15.5742C10.7746 15.6749 10.5933 15.8845 10.5287 16.1397L10.1845 17.4999H9.81565L9.47206 16.1392C9.40742 15.8832 9.22528 15.673 8.98111 15.5726L6.80944 14.6792C6.52666 14.5629 6.20288 14.6108 5.96588 14.804L5.05687 15.545L4.47901 14.9672L5.21854 14.1379C5.43263 13.8978 5.48943 13.556 5.36448 13.2595L4.43531 11.0554C4.3359 10.8196 4.13364 10.6425 3.88674 10.5751L2.49992 10.1968V9.82778L3.83354 9.51643C4.097 9.45492 4.31421 9.26934 4.41608 9.01871L5.31608 6.80455C5.43055 6.52294 5.38259 6.20134 5.19095 5.96538L4.45385 5.05783L5.03332 4.47836L5.86601 5.21918C6.10607 5.43276 6.44754 5.48929 6.74362 5.36448L8.94779 4.43531C9.18602 4.33488 9.36416 4.12957 9.42997 3.87955L9.79312 2.49992H10.1365L10.4923 3.85344C10.5587 4.10609 10.7398 4.31298 10.9814 4.41232L13.2372 5.33981C13.5264 5.45872 13.8578 5.40572 14.0955 5.20255L14.9556 4.46742L15.5354 5.04726L14.801 5.91613C14.5997 6.15423 14.5482 6.48476 14.6674 6.77282L15.5816 8.98116C15.6822 9.22402 15.8914 9.40522 16.1461 9.47002L17.4999 9.81445V10.1705L16.1353 10.525C15.8824 10.5908 15.6749 10.7713 15.575 11.0128L14.66 13.2228C14.5405 13.5113 14.5924 13.8424 14.7943 14.0806L15.5346 14.9534Z" fill="#5C5E64"/>
</g>
<defs>
<clipPath id="clip0_2_909">
<rect width="20" height="20" fill="white"/>
</clipPath>
</defs>
</svg>
