<svg width="16" height="16" viewBox="0 0 14 14" fill="none" xmlns="http://www.w3.org/2000/svg">
<g clip-path="url(#clip0_2_503)">
<path fill-rule="evenodd" clip-rule="evenodd" d="M6.99991 0.276855C6.80148 0.276855 6.60719 0.333623 6.43998 0.440458C6.2749 0.545928 6.14301 0.695846 6.05943 0.872901L4.47187 4.07799C4.46875 4.08429 4.46576 4.09065 4.46291 4.09708C4.4622 4.09867 4.46108 4.10006 4.45967 4.10109C4.45826 4.10212 4.45661 4.10277 4.45487 4.10296C4.44878 4.10363 4.4427 4.10442 4.43664 4.10532L0.941057 4.62318C0.747853 4.64197 0.563613 4.71447 0.409298 4.83267C0.249626 4.95498 0.128844 5.12096 0.0615843 5.31051C-0.0056759 5.50006 -0.016529 5.70505 0.0303401 5.90065C0.0770277 6.09548 0.178996 6.27267 0.323962 6.41092L2.88274 8.87974L2.88857 8.88527C2.89222 8.88869 2.89497 8.89296 2.89655 8.89771C2.89813 8.90245 2.8985 8.90752 2.89762 8.91244L2.89706 8.91571L2.28732 12.4841C2.25382 12.6775 2.27503 12.8773 2.34884 13.0591C2.42275 13.2413 2.54631 13.399 2.70544 13.5144C2.86458 13.6297 3.0529 13.6981 3.24898 13.7117C3.44467 13.7253 3.64025 13.6838 3.81355 13.592L3.8146 13.5914L6.96408 11.9269C6.97537 11.922 6.98758 11.9194 6.99993 11.9194C7.01228 11.9194 7.02448 11.922 7.03578 11.9269L10.1852 13.5914C10.3586 13.6835 10.555 13.7254 10.7508 13.7117C10.9469 13.6981 11.1352 13.6297 11.2944 13.5144C11.4535 13.399 11.5771 13.2413 11.651 13.0591C11.7248 12.8773 11.7461 12.6785 11.7127 12.4852L11.7125 12.4841L11.1028 8.9157L11.1022 8.91244C11.1013 8.90752 11.1017 8.90245 11.1033 8.89771C11.1048 8.89297 11.1076 8.88869 11.1112 8.88527L11.1171 8.87974L13.6759 6.41089C13.8208 6.27264 13.9228 6.09547 13.9695 5.90065C14.0163 5.70505 14.0055 5.50006 13.9382 5.31051C13.871 5.12096 13.7502 4.95498 13.5905 4.83267C13.4362 4.71447 13.252 4.64197 13.0588 4.62318L9.56319 4.10532C9.55713 4.10442 9.55105 4.10363 9.54496 4.10296C9.54322 4.10277 9.54156 4.10212 9.54015 4.10109C9.53874 4.10006 9.53763 4.09867 9.53692 4.09708C9.53407 4.09065 9.53108 4.08429 9.52796 4.07799L7.94039 0.872887C7.85681 0.695839 7.72492 0.545925 7.55985 0.440458C7.39263 0.333623 7.19834 0.276855 6.99991 0.276855Z" fill="currentColor"/>
</g>
<defs>
<clipPath id="clip0_2_503">
<rect width="14" height="14" fill="none"/>
</clipPath>
</defs>
</svg>
