<?xml version="1.0" standalone="no"?>
<!DOCTYPE svg PUBLIC "-//W3C//DTD SVG 20010904//EN"
 "http://www.w3.org/TR/2001/REC-SVG-20010904/DTD/svg10.dtd">
<svg version="1.0" xmlns="http://www.w3.org/2000/svg"
 width="15.000000pt" height="14.000000pt" viewBox="0 0 15.000000 14.000000"
 preserveAspectRatio="xMidYMid meet">
<metadata>
Created by potrace 1.10, written by Peter Selinger 2001-2011
</metadata>
<g transform="translate(0.000000,14.000000) scale(0.100000,-0.100000)"
fill="#000000" stroke="none">
<path d="M40 119 c-22 -8 -25 -15 -26 -59 0 -28 3 -50 8 -50 4 0 8 18 8 40 0
38 1 40 20 30 15 -8 30 -8 55 0 43 14 44 25 4 39 -36 13 -36 13 -69 0z"/>
<path d="M42 54 c5 -26 71 -27 76 -1 3 14 0 16 -20 8 -15 -6 -31 -5 -42 1 -15
8 -17 7 -14 -8z"/>
</g>
</svg>
