<svg width="15" height="20" viewBox="0 0 15 20" fill="none" xmlns="http://www.w3.org/2000/svg">
<path d="M4.16667 7.49992C3.70643 7.49992 3.33333 7.87302 3.33333 8.33325C3.33333 8.79349 3.70643 9.16659 4.16667 9.16659H10.8333C11.2936 9.16659 11.6667 8.79349 11.6667 8.33325C11.6667 7.87302 11.2936 7.49992 10.8333 7.49992H4.16667Z" fill="#5C5E64"/>
<path d="M4.16667 10.8333C3.70643 10.8333 3.33333 11.2063 3.33333 11.6666C3.33333 12.1268 3.70643 12.4999 4.16667 12.4999H7.5C7.96024 12.4999 8.33333 12.1268 8.33333 11.6666C8.33333 11.2063 7.96024 10.8333 7.5 10.8333H4.16667Z" fill="#5C5E64"/>
<path d="M4.16667 14.1666C3.70643 14.1666 3.33333 14.5397 3.33333 14.9999C3.33333 15.4602 3.70643 15.8333 4.16667 15.8333H10.8333C11.2936 15.8333 11.6667 15.4602 11.6667 14.9999C11.6667 14.5397 11.2936 14.1666 10.8333 14.1666H4.16667Z" fill="#5C5E64"/>
<path fill-rule="evenodd" clip-rule="evenodd" d="M14.899 4.28124C14.8319 4.11893 14.7335 3.97147 14.6093 3.84733L11.9863 1.22436C11.7365 0.974244 11.3976 0.833563 11.0441 0.833252H1.33333C0.979711 0.833252 0.640573 0.973728 0.390524 1.22378C0.140476 1.47382 0 1.81296 0 2.16659V17.8333C0 18.0083 0.0344879 18.1817 0.101494 18.3435C0.168499 18.5053 0.266711 18.6522 0.390524 18.7761C0.514334 18.8999 0.661319 18.9981 0.823089 19.0651C0.984861 19.1321 1.15824 19.1666 1.33333 19.1666H13.6667C13.8418 19.1666 14.0151 19.1321 14.1769 19.0651C14.3387 18.9981 14.4857 18.8999 14.6095 18.7761C14.7333 18.6523 14.8315 18.5053 14.8985 18.3435C14.9655 18.1817 15 18.0083 15 17.8333V4.79184L14.1667 4.79159L15 4.79363L15 4.79184C15.0002 4.61666 14.9659 4.44315 14.899 4.28124ZM10 4.58325C10 5.27361 10.5596 5.83325 11.25 5.83325H13.3333V17.4999H1.66667V2.49992H10V4.58325ZM12.5715 4.16659L11.6667 3.26176V4.16659H12.5715Z" fill="#5C5E64"/>
</svg>
