<svg version="1.1" id="Layer_1" xmlns="http://www.w3.org/2000/svg" xmlns:xlink="http://www.w3.org/1999/xlink" x="0px" y="0px"
	 width="100%" viewBox="0 0 610 302" enable-background="new 0 0 610 302" xml:space="preserve">
<path fill="#FDF7EF" opacity="1.000000" stroke="none" 
	d="
M369.000000,303.000000 
	C246.033554,303.000000 123.567116,303.000000 1.050337,303.000000 
	C1.050337,202.394485 1.050337,101.788948 1.050337,1.091702 
	C204.216461,1.091702 407.432953,1.091702 610.824707,1.091702 
	C610.824707,101.666428 610.824707,202.333176 610.824707,303.000000 
	C530.455566,303.000000 449.977783,303.000000 369.000000,303.000000 
M534.796448,219.672638 
	C524.355103,222.967072 514.083069,227.010727 503.440643,229.415497 
	C471.454712,236.643082 443.372925,224.396622 427.720825,196.652893 
	C415.188660,174.439316 412.846741,150.647690 418.883392,126.125458 
	C423.956818,105.516121 437.258942,92.195747 457.530548,86.203484 
	C472.925781,81.652672 488.732086,81.232712 504.513367,83.769630 
	C510.277679,84.696274 515.835693,86.906212 522.138855,88.717812 
	C520.772278,90.743393 520.129272,91.696449 519.486328,92.649506 
	C529.009705,87.422485 538.135559,81.824425 546.240601,73.231789 
	C543.653381,72.042397 542.259216,71.054062 540.730591,70.756287 
	C532.113953,69.077827 523.508606,66.551147 514.819214,66.177025 
	C482.378052,64.780296 453.977295,76.076569 429.338531,96.501900 
	C398.428223,122.126305 385.549713,154.584702 396.126007,194.309448 
	C402.707855,219.030960 416.866669,237.879913 442.465942,245.487091 
	C459.410858,250.522476 476.507416,248.615601 493.149841,243.500336 
	C508.989075,238.631958 523.625549,231.280304 536.601257,219.917694 
	C536.616211,219.688156 536.631165,219.458603 536.646118,219.229050 
	C536.264282,219.301559 535.882446,219.374054 534.796448,219.672638 
M247.815582,189.287140 
	C255.043503,172.836487 262.673340,156.547684 269.381683,139.887817 
	C275.583618,124.485641 281.168945,108.806229 286.295715,93.011925 
	C288.965240,84.787880 286.556641,76.959534 279.541565,71.505989 
	C272.504547,66.035370 265.009796,67.468117 258.158447,72.067123 
	C252.693298,75.735657 247.667175,80.058243 241.860962,84.542450 
	C256.553833,84.386009 263.260254,90.890961 263.066010,105.040894 
	C262.994171,110.276741 262.423309,115.870476 260.486969,120.656448 
	C248.459152,150.384918 235.978561,179.930176 223.648193,209.536224 
	C223.135361,209.420456 222.622543,209.304672 222.109726,209.188904 
	C221.391724,206.713806 220.636108,204.248932 219.961365,201.762085 
	C210.424530,166.613327 200.929550,131.435593 186.877274,97.745377 
	C183.503616,89.657082 178.815308,82.092896 174.393097,74.484413 
	C173.374191,72.731354 171.894394,69.562515 168.569901,71.970329 
	C161.737915,76.918480 154.895065,81.851616 147.862930,86.930893 
	C158.614899,98.993622 159.913162,112.954071 156.261490,127.122955 
	C152.333435,142.364319 147.278076,157.371185 141.793594,172.138336 
	C137.106781,184.757782 131.116257,196.893021 125.264130,210.242126 
	C124.584610,207.961746 124.241898,206.876907 123.937721,205.781357 
	C115.623955,175.837463 107.642204,145.795807 98.860710,115.989769 
	C94.674843,101.782158 88.751984,88.128510 79.252022,76.408012 
	C74.880615,71.014816 69.348221,67.776299 62.281609,68.965263 
	C50.154877,71.005577 40.436619,77.712273 30.210363,86.152702 
	C32.261368,86.152702 33.013695,86.314934 33.666222,86.128273 
	C42.913620,83.483078 50.488930,86.731316 55.512428,94.148994 
	C61.631306,103.184082 67.578430,112.590012 71.831383,122.587822 
	C86.146835,156.240463 94.144142,191.810638 102.036079,227.369934 
	C103.566414,234.265305 105.141907,241.150650 106.871986,248.818039 
	C112.040573,245.447571 116.345612,242.344543 120.925735,239.721909 
	C128.034607,235.651245 132.732300,229.764069 135.956497,222.312515 
	C141.573761,209.330414 147.617630,196.533356 153.281952,183.571014 
	C159.800201,168.654526 166.100647,153.642868 172.730240,138.123459 
	C186.375320,174.167175 194.595123,211.380569 204.472061,248.872787 
	C210.242386,245.025909 214.957733,241.629257 219.918488,238.639816 
	C226.010101,234.968872 230.195847,229.918015 232.938766,223.380600 
	C237.638107,212.180252 242.601166,201.090546 247.815582,189.287140 
M325.436066,203.499741 
	C325.337982,209.493210 325.335205,215.490112 325.118652,221.479294 
	C324.820740,229.720322 321.461975,236.722214 314.554108,243.009949 
	C321.384552,243.009949 326.773254,242.479050 332.023346,243.107224 
	C349.349274,245.180252 364.628998,241.796127 376.411621,227.922150 
	C376.582001,227.721542 376.634460,227.420807 377.021973,226.505020 
	C365.084320,226.505020 353.438171,226.505020 340.783142,226.505020 
	C348.763916,215.261139 349.003723,203.323242 348.971741,191.257980 
	C348.884338,158.270920 348.941467,125.283485 348.941345,92.296204 
	C348.941345,90.554153 348.941315,88.812096 348.941315,86.604599 
	C363.791473,89.672150 369.727966,77.395172 378.950500,70.644379 
	C377.341553,70.644379 375.732605,70.644257 374.123657,70.644394 
	C360.129059,70.645622 346.123596,70.990143 332.143066,70.547256 
	C319.320221,70.141037 313.293213,80.316414 304.323700,85.916870 
	C304.498291,86.343094 304.672882,86.769318 304.847473,87.195541 
	C311.622070,87.195541 318.396667,87.195541 325.436401,87.195541 
	C325.436401,125.888527 325.436401,164.194153 325.436066,203.499741 
z"/>
<path fill="#F5BC70" opacity="1.000000" stroke="none" 
	d="
M247.634552,189.620773 
	C242.601166,201.090546 237.638107,212.180252 232.938766,223.380600 
	C230.195847,229.918015 226.010101,234.968872 219.918488,238.639816 
	C214.957733,241.629257 210.242386,245.025909 204.472061,248.872787 
	C194.595123,211.380569 186.375320,174.167175 172.730240,138.123459 
	C166.100647,153.642868 159.800201,168.654526 153.281952,183.571014 
	C147.617630,196.533356 141.573761,209.330414 135.956497,222.312515 
	C132.732300,229.764069 128.034607,235.651245 120.925735,239.721909 
	C116.345612,242.344543 112.040573,245.447571 106.871986,248.818039 
	C105.141907,241.150650 103.566414,234.265305 102.036079,227.369934 
	C94.144142,191.810638 86.146835,156.240463 71.831383,122.587822 
	C67.578430,112.590012 61.631306,103.184082 55.512428,94.148994 
	C50.488930,86.731316 42.913620,83.483078 33.666222,86.128273 
	C33.013695,86.314934 32.261368,86.152702 30.210363,86.152702 
	C40.436619,77.712273 50.154877,71.005577 62.281609,68.965263 
	C69.348221,67.776299 74.880615,71.014816 79.252022,76.408012 
	C88.751984,88.128510 94.674843,101.782158 98.860710,115.989769 
	C107.642204,145.795807 115.623955,175.837463 123.937721,205.781357 
	C124.241898,206.876907 124.584610,207.961746 125.264130,210.242126 
	C131.116257,196.893021 137.106781,184.757782 141.793594,172.138336 
	C147.278076,157.371185 152.333435,142.364319 156.261490,127.122955 
	C159.913162,112.954071 158.614899,98.993622 147.862930,86.930893 
	C154.895065,81.851616 161.737915,76.918480 168.569901,71.970329 
	C171.894394,69.562515 173.374191,72.731354 174.393097,74.484413 
	C178.815308,82.092896 183.503616,89.657082 186.877274,97.745377 
	C200.929550,131.435593 210.424530,166.613327 219.961365,201.762085 
	C220.636108,204.248932 221.391724,206.713806 222.109726,209.188904 
	C222.622543,209.304672 223.135361,209.420456 223.648193,209.536224 
	C235.978561,179.930176 248.459152,150.384918 260.486969,120.656448 
	C262.423309,115.870476 262.994171,110.276741 263.066010,105.040894 
	C263.260254,90.890961 256.553833,84.386009 241.860962,84.542450 
	C247.667175,80.058243 252.693298,75.735657 258.158447,72.067123 
	C265.009796,67.468117 272.504547,66.035370 279.541565,71.505989 
	C286.556641,76.959534 288.965240,84.787880 286.295715,93.011925 
	C281.168945,108.806229 275.583618,124.485641 269.381683,139.887817 
	C262.673340,156.547684 255.043503,172.836487 247.634552,189.620773 
z"/>
<path fill="#5B3C74" opacity="1.000000" stroke="none" 
	d="
M536.081116,220.074158 
	C523.625549,231.280304 508.989075,238.631958 493.149841,243.500336 
	C476.507416,248.615601 459.410858,250.522476 442.465942,245.487091 
	C416.866669,237.879913 402.707855,219.030960 396.126007,194.309448 
	C385.549713,154.584702 398.428223,122.126305 429.338531,96.501900 
	C453.977295,76.076569 482.378052,64.780296 514.819214,66.177025 
	C523.508606,66.551147 532.113953,69.077827 540.730591,70.756287 
	C542.259216,71.054062 543.653381,72.042397 546.240601,73.231789 
	C538.135559,81.824425 529.009705,87.422485 519.486328,92.649506 
	C520.129272,91.696449 520.772278,90.743393 522.138855,88.717812 
	C515.835693,86.906212 510.277679,84.696274 504.513367,83.769630 
	C488.732086,81.232712 472.925781,81.652672 457.530548,86.203484 
	C437.258942,92.195747 423.956818,105.516121 418.883392,126.125458 
	C412.846741,150.647690 415.188660,174.439316 427.720825,196.652893 
	C443.372925,224.396622 471.454712,236.643082 503.440643,229.415497 
	C514.083069,227.010727 524.355103,222.967072 535.286743,219.722931 
	C535.776978,219.773239 536.081116,220.074158 536.081116,220.074158 
z"/>
<path fill="#444F55" opacity="1.000000" stroke="none" 
	d="
M325.436218,202.999756 
	C325.436401,164.194153 325.436401,125.888527 325.436401,87.195541 
	C318.396667,87.195541 311.622070,87.195541 304.847473,87.195541 
	C304.672882,86.769318 304.498291,86.343094 304.323700,85.916870 
	C313.293213,80.316414 319.320221,70.141037 332.143066,70.547256 
	C346.123596,70.990143 360.129059,70.645622 374.123657,70.644394 
	C375.732605,70.644257 377.341553,70.644379 378.950500,70.644379 
	C369.727966,77.395172 363.791473,89.672150 348.941315,86.604599 
	C348.941315,88.812096 348.941345,90.554153 348.941345,92.296204 
	C348.941467,125.283485 348.884338,158.270920 348.971741,191.257980 
	C349.003723,203.323242 348.763916,215.261139 340.783142,226.505020 
	C353.438171,226.505020 365.084320,226.505020 377.021973,226.505020 
	C376.634460,227.420807 376.582001,227.721542 376.411621,227.922150 
	C364.628998,241.796127 349.349274,245.180252 332.023346,243.107224 
	C326.773254,242.479050 321.384552,243.009949 314.554108,243.009949 
	C321.461975,236.722214 324.820740,229.720322 325.118652,221.479294 
	C325.335205,215.490112 325.337982,209.493210 325.436218,202.999756 
z"/>
<path fill="#5B3C74" opacity="1.000000" stroke="none" 
	d="
M535.638794,219.609894 
	C535.882446,219.374054 536.264282,219.301559 536.646118,219.229065 
	C536.631165,219.458603 536.616211,219.688156 536.341187,219.995926 
	C536.081116,220.074158 535.776978,219.773239 535.638794,219.609894 
z"/>
</svg>